<?xml version="1.0" encoding="utf-8"?>
<!-- Generator: Adobe Illustrator 26.3.1, SVG Export Plug-In . SVG Version: 6.00 Build 0)  -->
<svg version="1.1" id="Camada_1" xmlns="http://www.w3.org/2000/svg" xmlns:xlink="http://www.w3.org/1999/xlink" x="0px" y="0px"
	 viewBox="0 0 129.8 128.9" enable-background="new 0 0 129.8 128.9" xml:space="preserve">
<polygon fill="#C7F3FF" points="94.9,5.8 94.9,23 43.9,23 "/>
<g>
	
		<path fill="#FFFFFF" stroke="#009CEA" stroke-width="3" stroke-linecap="round" stroke-linejoin="round" stroke-miterlimit="10" d="
		M218.5,175.2c-0.7-26.6-22.5-47.9-49.5-47.9c-26.6,0-48.3,20.8-49.4,46.9c-0.1,0.7-0.1,1.4-0.1,2.1c0,9.3,2.6,18,7.1,25.4
		l-8.9,26.3l27.4-8.7c7.1,3.9,15.3,6.1,23.9,6.1c27.3,0,49.5-21.9,49.5-49.1C218.6,176,218.5,175.6,218.5,175.2z M169.1,217.8
		c-8.4,0-16.3-2.5-22.9-6.8l-16,5.1l5.1-15.4c-5-6.8-7.9-15.2-7.9-24.2c0-1.3,0.1-2.6,0.3-4c2-20.9,19.8-37.3,41.4-37.3
		c21.9,0,39.8,16.8,41.5,38.1c0.1,1.1,0.1,2.2,0.1,3.2C210.7,199.2,192,217.8,169.1,217.8z"/>
</g>
<path fill="none" stroke="#009CEA" stroke-width="3" stroke-linecap="round" stroke-linejoin="round" stroke-miterlimit="10" d="
	M102.2,126.2H41.9c-2.9,0-5.3-2.4-5.3-5.3V28.3c0-2.9,2.4-5.3,5.3-5.3h60.4c2.9,0,5.3,2.4,5.3,5.3v92.6
	C107.5,123.8,105.2,126.2,102.2,126.2z"/>
<path fill="none" stroke="#009CEA" stroke-width="3" stroke-linecap="round" stroke-linejoin="round" stroke-miterlimit="10" d="
	M36.6,106.2h-6.7c-2.9,0-5.3-2.4-5.3-5.3V8.3c0-2.9,2.4-5.3,5.3-5.3h60.4c2.9,0,5.3,2.4,5.3,5.3V23"/>
<path fill="#C7F3FF" stroke="#009CEA" stroke-width="3" stroke-linecap="round" stroke-linejoin="round" stroke-miterlimit="10" d="
	M64.3,53.7H49c-1.7,0-3.1-1.4-3.1-3.1V35.2c0-1.7,1.4-3.1,3.1-3.1h15.3c1.7,0,3.1,1.4,3.1,3.1v15.3C67.4,52.3,66,53.7,64.3,53.7z"/>
<line fill="none" stroke="#009CEA" stroke-width="3" stroke-linecap="round" stroke-linejoin="round" stroke-miterlimit="10" x1="74.5" y1="38.8" x2="99.5" y2="38.8"/>
<line fill="none" stroke="#009CEA" stroke-width="3" stroke-linecap="round" stroke-linejoin="round" stroke-miterlimit="10" x1="74.5" y1="46.7" x2="91.3" y2="46.7"/>
<path fill="#C7F3FF" stroke="#009CEA" stroke-width="3" stroke-linecap="round" stroke-linejoin="round" stroke-miterlimit="10" d="
	M64.3,85.4H49c-1.7,0-3.1-1.4-3.1-3.1V66.9c0-1.7,1.4-3.1,3.1-3.1h15.3c1.7,0,3.1,1.4,3.1,3.1v15.3C67.4,84,66,85.4,64.3,85.4z"/>
<line fill="none" stroke="#009CEA" stroke-width="3" stroke-linecap="round" stroke-linejoin="round" stroke-miterlimit="10" x1="74.5" y1="70.5" x2="99.5" y2="70.5"/>
<line fill="none" stroke="#009CEA" stroke-width="3" stroke-linecap="round" stroke-linejoin="round" stroke-miterlimit="10" x1="74.5" y1="78.4" x2="91.3" y2="78.4"/>
<path fill="#C7F3FF" stroke="#009CEA" stroke-width="3" stroke-linecap="round" stroke-linejoin="round" stroke-miterlimit="10" d="
	M64.3,117H49c-1.7,0-3.1-1.4-3.1-3.1V98.6c0-1.7,1.4-3.1,3.1-3.1h15.3c1.7,0,3.1,1.4,3.1,3.1v15.3C67.4,115.6,66,117,64.3,117z"/>
<line fill="none" stroke="#009CEA" stroke-width="3" stroke-linecap="round" stroke-linejoin="round" stroke-miterlimit="10" x1="74.5" y1="102.2" x2="99.5" y2="102.2"/>
<line fill="none" stroke="#009CEA" stroke-width="3" stroke-linecap="round" stroke-linejoin="round" stroke-miterlimit="10" x1="74.5" y1="110.1" x2="91.3" y2="110.1"/>
<line fill="none" stroke="#009CEA" stroke-width="3" stroke-linecap="round" stroke-linejoin="round" stroke-miterlimit="10" x1="41.2" y1="22.7" x2="94.9" y2="5.8"/>
</svg>
