<?xml version="1.0" encoding="utf-8"?>
<!-- Generator: Adobe Illustrator 26.3.1, SVG Export Plug-In . SVG Version: 6.00 Build 0)  -->
<svg version="1.1" id="Camada_1" xmlns="http://www.w3.org/2000/svg" xmlns:xlink="http://www.w3.org/1999/xlink" x="0px" y="0px"
	 viewBox="0 0 150 150" style="enable-background:new 0 0 150 150;" xml:space="preserve">
<style type="text/css">
	.st0{fill:#FFFFFF;stroke:#0DB14B;stroke-width:3;stroke-linecap:round;stroke-linejoin:round;stroke-miterlimit:10;}
	.st1{fill:#A7EABF;stroke:#0DB14B;stroke-width:3;stroke-linecap:round;stroke-linejoin:round;stroke-miterlimit:10;}
	.st2{fill:#FFFFFF;stroke:#0DB14B;stroke-width:2.4094;stroke-linecap:round;stroke-linejoin:round;stroke-miterlimit:10;}
	.st3{fill:#DCF9E4;}
	.st4{fill:#A7EABF;stroke:#0DB14B;stroke-width:2.6825;stroke-linecap:round;stroke-linejoin:round;stroke-miterlimit:10;}
	.st5{fill:#FFFFFF;stroke:#0DB14B;stroke-width:2.6825;stroke-linecap:round;stroke-linejoin:round;stroke-miterlimit:10;}
	.st6{fill:none;stroke:#0DB14B;stroke-width:2.6825;stroke-linecap:round;stroke-linejoin:round;stroke-miterlimit:10;}
	.st7{fill:#FFFFFF;stroke:#0DB14B;stroke-width:2.4963;stroke-linecap:round;stroke-linejoin:round;stroke-miterlimit:10;}
	.st8{fill:#FFFFFF;stroke:#0DB14B;stroke-width:3.2469;stroke-linecap:round;stroke-linejoin:round;stroke-miterlimit:10;}
	.st9{fill:#FFFFFF;stroke:#0DB14B;stroke-width:2.2584;stroke-linecap:round;stroke-linejoin:round;stroke-miterlimit:10;}
	.st10{fill:#FFFFFF;stroke:#0DB14B;stroke-width:3.154;stroke-linecap:round;stroke-linejoin:round;stroke-miterlimit:10;}
	.st11{fill:#A7EABF;stroke:#0DB14B;stroke-width:3.0001;stroke-linecap:round;stroke-linejoin:round;stroke-miterlimit:10.0002;}
	.st12{fill:#FFFFFF;stroke:#0DB14B;stroke-width:2.9314;stroke-linecap:round;stroke-linejoin:round;stroke-miterlimit:10;}
	.st13{fill:none;stroke:#0DB14B;stroke-width:3;stroke-linecap:round;stroke-linejoin:round;stroke-miterlimit:10;}
	.st14{fill:#FFFFFF;stroke:#0DB14B;stroke-width:2.9909;stroke-linecap:round;stroke-linejoin:round;stroke-miterlimit:10;}
	.st15{fill:#FFFFFF;stroke:#0DB14B;stroke-width:2.9735;stroke-linecap:round;stroke-linejoin:round;stroke-miterlimit:10;}
	.st16{fill:#FFFFFF;stroke:#0DB14B;stroke-width:2.9921;stroke-linecap:round;stroke-linejoin:round;stroke-miterlimit:10;}
	.st17{fill:#FFFFFF;stroke:#000000;stroke-linecap:round;stroke-linejoin:round;stroke-miterlimit:10;}
	.st18{fill:#FFFFFF;stroke:#000000;stroke-width:1;stroke-linecap:round;stroke-linejoin:round;stroke-miterlimit:9.9999;}
	.st19{fill:#A7EABF;stroke:#0DB14B;stroke-width:2.9735;stroke-linecap:round;stroke-linejoin:round;stroke-miterlimit:10;}
	.st20{fill:#233036;}
	.st21{fill:#FECA05;}
	.st22{fill:#E5E3E3;}
	.st23{fill:#FFFFFF;}
	.st24{fill:#F2F2F2;}
	.st25{fill:none;stroke:#004D40;stroke-width:9.5848;stroke-miterlimit:10;}
	.st26{fill:#F4F4F4;}
	.st27{fill:#00AF10;}
	.st28{fill:#333333;}
	.st29{fill:#0DB14B;}
	.st30{fill:#FFFFFF;stroke:#000000;stroke-width:2.668;stroke-linecap:round;stroke-linejoin:round;stroke-miterlimit:9.9999;}
	.st31{fill:#0DB14B;stroke:#000000;stroke-width:2.668;stroke-linecap:round;stroke-linejoin:round;stroke-miterlimit:10;}
	.st32{fill:#FFFFFF;stroke:#0DB14B;stroke-width:2.5408;stroke-linecap:round;stroke-linejoin:round;stroke-miterlimit:10;}
	.st33{fill:#0DB14B;stroke:#000000;stroke-width:2.668;stroke-miterlimit:10;}
	.st34{fill:#FFFFFF;stroke:#000000;stroke-width:2.668;stroke-linecap:round;stroke-linejoin:round;stroke-miterlimit:10;}
	.st35{fill:#FFFFFF;stroke:#0DB14B;stroke-width:3;stroke-linecap:round;stroke-linejoin:round;stroke-miterlimit:9.9999;}
	.st36{fill:#0DB14B;stroke:#000000;stroke-width:2;stroke-miterlimit:10;}
	.st37{fill:#FFFFFF;stroke:#000000;stroke-width:2;stroke-miterlimit:10;}
	.st38{fill:none;stroke:#0DB14B;stroke-width:2.9735;stroke-linecap:round;stroke-linejoin:round;stroke-miterlimit:10;}
	.st39{fill:#FFFFFF;stroke:#0DB14B;stroke-width:2.9735;stroke-linecap:round;stroke-linejoin:round;stroke-miterlimit:9.9999;}
	.st40{fill:none;stroke:#000000;stroke-linecap:round;stroke-linejoin:round;stroke-miterlimit:10;}
	.st41{fill:none;stroke:#0DB14B;stroke-width:2.9921;stroke-linecap:round;stroke-linejoin:round;stroke-miterlimit:10;}
	.st42{fill:#FFFFFF;stroke:#0DB14B;stroke-width:2.9921;stroke-linecap:round;stroke-linejoin:round;stroke-miterlimit:9.9999;}
	.st43{fill:#FFFFFF;stroke:#0DB14B;stroke-width:2.9922;stroke-linecap:round;stroke-linejoin:round;stroke-miterlimit:10.0005;}
	.st44{fill:#A7EABF;stroke:#0DB14B;stroke-width:2.9921;stroke-linecap:round;stroke-linejoin:round;stroke-miterlimit:10;}
	.st45{fill:#FFFFFF;stroke:#000000;stroke-width:2;stroke-linecap:round;stroke-linejoin:round;stroke-miterlimit:10;}
	.st46{fill:#0DB14B;stroke:#000000;stroke-width:2;stroke-linecap:round;stroke-linejoin:round;stroke-miterlimit:10;}
	.st47{fill:#A7EABF;stroke:#0DB14B;stroke-width:2.9909;stroke-linecap:round;stroke-linejoin:round;stroke-miterlimit:10;}
	.st48{fill:none;stroke:#0DB14B;stroke-width:2.3333;stroke-linecap:round;stroke-linejoin:round;stroke-miterlimit:10;}
	.st49{fill:#FFFFFF;stroke:#0DB14B;stroke-width:3.4861;stroke-linecap:round;stroke-linejoin:round;stroke-miterlimit:10;}
	.st50{fill:#A7EABF;stroke:#0DB14B;stroke-width:3.2866;stroke-linecap:round;stroke-linejoin:round;stroke-miterlimit:10;}
	.st51{fill:#FFFFFF;stroke:#0DB14B;stroke-width:4.1045;stroke-linecap:round;stroke-linejoin:round;stroke-miterlimit:10;}
	.st52{fill:#FFFFFF;stroke:#0DB14B;stroke-width:3.2866;stroke-linecap:round;stroke-linejoin:round;stroke-miterlimit:10;}
	.st53{fill:none;stroke:#0DB14B;stroke-width:3.2866;stroke-linecap:round;stroke-linejoin:round;stroke-miterlimit:10;}
	.st54{fill:none;stroke:#0DB14B;stroke-width:3.74;stroke-linecap:round;stroke-linejoin:round;stroke-miterlimit:10;}
	.st55{fill:#F68797;}
	.st56{fill:#ADADAD;}
	.st57{fill:#D81919;}
	.st58{fill:#01A5FC;}
	.st59{fill:#1F4583;}
	.st60{fill:none;stroke:#0DB14B;stroke-width:1.643;stroke-linecap:round;stroke-linejoin:round;stroke-miterlimit:10;}
	.st61{fill:#A7EABF;stroke:#0DB14B;stroke-width:1.643;stroke-linecap:round;stroke-linejoin:round;stroke-miterlimit:10;}
	.st62{fill:#A7EABF;stroke:#0DB14B;stroke-width:1.6285;stroke-linecap:round;stroke-linejoin:round;stroke-miterlimit:10;}
	.st63{fill:#A7EABF;stroke:#0DB14B;stroke-width:2.8271;stroke-linecap:round;stroke-linejoin:round;stroke-miterlimit:10;}
	.st64{fill:none;stroke:#DCF9E4;stroke-miterlimit:10;}
	.st65{fill:none;stroke:#DCF9E4;stroke-width:2;stroke-linecap:round;stroke-linejoin:round;stroke-miterlimit:10;}
	.st66{fill:#A7EABF;stroke:#0DB14B;stroke-width:2.4094;stroke-linecap:round;stroke-linejoin:round;stroke-miterlimit:10;}
	.st67{fill:#FFFFFF;stroke:#0DB14B;stroke-width:2.2844;stroke-linecap:round;stroke-linejoin:round;stroke-miterlimit:10;}
	.st68{fill:none;stroke:#0DB14B;stroke-width:2.8046;stroke-linecap:round;stroke-linejoin:round;stroke-miterlimit:10;}
	.st69{font-family:'VisbyRoundCF-Bold';}
	.st70{font-size:43.984px;}
	.st71{font-size:36.1394px;}
	.st72{font-size:25.8933px;}
</style>
<path class="st0" d="M75,12.7v81.8c0,3,2.5,5.5,5.5,5.5h59.8c3,0,5.5-2.5,5.5-5.5V25.7L127.3,7.2H80.5C77.5,7.2,75,9.6,75,12.7z"/>
<polygon class="st1" points="145.8,25.7 127.3,7.2 127.3,25.7 "/>
<path class="st0" d="M55.1,37.1v81.8c0,3,2.5,5.5,5.5,5.5h59.8c3,0,5.5-2.5,5.5-5.5V50.1l-18.5-18.5H60.7
	C57.6,31.6,55.1,34,55.1,37.1z"/>
<polygon class="st1" points="125.9,50.1 107.4,31.6 107.4,50.1 "/>
<g>
	<line class="st13" x1="64.4" y1="63.4" x2="111.2" y2="63.4"/>
	<line class="st13" x1="64.4" y1="72.9" x2="104.5" y2="72.9"/>
	<line class="st13" x1="64.4" y1="82.4" x2="94.7" y2="82.4"/>
</g>
<polygon class="st3" points="144.3,44.1 127.9,27.2 144.3,27.2 "/>
<polygon class="st3" points="124.4,68.5 108,51.6 124.4,51.6 "/>
<circle class="st0" cx="62.8" cy="109.3" r="34.7"/>
<path class="st3" d="M62.8,76.1c-18.3,0-33.2,14.9-33.2,33.2c0,18.3,14.9,33.2,33.2,33.2c18.3,0,33.2-14.9,33.2-33.2
	C96,91,81.1,76.1,62.8,76.1z M62.8,135.9c-14.7,0-26.6-11.9-26.6-26.6c0-14.7,11.9-26.6,26.6-26.6c14.7,0,26.6,11.9,26.6,26.6
	C89.4,124,77.5,135.9,62.8,135.9z"/>
<path class="st13" d="M84.4,127.5c-5.2,6.1-13,9.9-21.6,9.9c-15.7,0-28.4-12.7-28.4-28.4c0-13.7,9.6-25,22.4-27.8"/>
<path class="st0" d="M87.1,123.7c-0.3,0.6-0.2,0.3-0.5,0.9"/>
<text transform="matrix(1 0 0 1 49.8637 124.1413)" class="st29 st69 st70">$</text>
<circle class="st0" cx="30.9" cy="75" r="28.5"/>
<text transform="matrix(1 0 0 1 20.2339 87.2103)" class="st29 st69 st71">$</text>
<path class="st3" d="M30.9,48.2c-14.8,0-26.8,12-26.8,26.8c0,14.8,12,26.8,26.8,26.8c14.8,0,26.8-12,26.8-26.8
	C57.6,60.2,45.6,48.2,30.9,48.2z M30.9,96.4C19,96.4,9.5,86.8,9.5,75c0-11.8,9.6-21.4,21.4-21.4c11.8,0,21.4,9.6,21.4,21.4
	C52.3,86.8,42.7,96.4,30.9,96.4z"/>
<path class="st13" d="M48.6,90c-4.3,5-10.7,8.1-17.7,8.1C18,98.1,7.5,87.6,7.5,74.8c0-11.2,7.9-20.5,18.4-22.8"/>
<path class="st0" d="M51.5,85.9c-0.3,0.5-0.1,0.3-0.4,0.7"/>
<circle class="st0" cx="51.5" cy="40" r="20.4"/>
<text transform="matrix(1 0 0 1 43.8516 48.7054)" class="st29 st69 st72">$</text>
<path class="st3" d="M51.5,21.1C41,21.1,32.6,29.5,32.6,40c0,10.4,8.5,18.9,18.9,18.9c10.4,0,18.9-8.5,18.9-18.9
	C70.4,29.5,61.9,21.1,51.5,21.1z M51.5,55.1c-8.3,0-15.1-6.8-15.1-15.1c0-8.3,6.8-15.1,15.1-15.1c8.3,0,15.1,6.8,15.1,15.1
	C66.6,48.3,59.8,55.1,51.5,55.1z"/>
<path class="st13" d="M64.2,50.7c-3.1,3.6-7.6,5.8-12.7,5.8c-9.2,0-16.7-7.5-16.7-16.7c0-8,5.6-14.7,13.2-16.4"/>
<path class="st0" d="M66.6,46.6c-0.2,0.4-0.1,0.2-0.3,0.5"/>
</svg>
