<?xml version="1.0" encoding="utf-8"?>
<!-- Generator: Adobe Illustrator 26.3.1, SVG Export Plug-In . SVG Version: 6.00 Build 0)  -->
<svg version="1.1" id="Camada_1" xmlns="http://www.w3.org/2000/svg" xmlns:xlink="http://www.w3.org/1999/xlink" x="0px" y="0px"
	 viewBox="0 0 150 150" style="enable-background:new 0 0 150 150;" xml:space="preserve">
<style type="text/css">
	.st0{fill:#A7EABF;stroke:#0DB14B;stroke-width:3;stroke-linecap:round;stroke-linejoin:round;stroke-miterlimit:10;}
	.st1{fill:#FFFFFF;stroke:#0DB14B;stroke-width:2.9314;stroke-linecap:round;stroke-linejoin:round;stroke-miterlimit:10;}
	.st2{fill:#DCF9E4;}
	.st3{fill:none;stroke:#0DB14B;stroke-width:3;stroke-linecap:round;stroke-linejoin:round;stroke-miterlimit:10;}
	.st4{fill:#FFFFFF;stroke:#0DB14B;stroke-width:3;stroke-linecap:round;stroke-linejoin:round;stroke-miterlimit:10;}
	.st5{fill:#FFFFFF;stroke:#0DB14B;stroke-width:2.9909;stroke-linecap:round;stroke-linejoin:round;stroke-miterlimit:10;}
	.st6{fill:#0DB14B;stroke:#0DB14B;stroke-width:3;stroke-linecap:round;stroke-linejoin:round;stroke-miterlimit:10;}
	.st7{fill:#FFFFFF;stroke:#0DB14B;stroke-width:2.9921;stroke-linecap:round;stroke-linejoin:round;stroke-miterlimit:10;}
	.st8{fill:#FFFFFF;stroke:#000000;stroke-linecap:round;stroke-linejoin:round;stroke-miterlimit:10;}
	.st9{fill:none;stroke:#39B54A;stroke-width:10.2164;stroke-miterlimit:10;}
	.st10{fill:none;stroke:#39B54A;stroke-width:10.4562;stroke-miterlimit:10;}
	.st11{fill:none;stroke:#004D40;stroke-width:9.5848;stroke-miterlimit:10;}
	.st12{fill:none;stroke:#004D40;stroke-width:9.8799;stroke-miterlimit:10;}
	.st13{fill:#999999;}
	.st14{fill:#F4F4F4;}
	.st15{fill:#00AF10;}
	.st16{fill:none;stroke:#39B54A;stroke-width:9.7092;stroke-miterlimit:10;}
	.st17{fill:#333333;}
	.st18{fill:#0DB14B;}
	.st19{fill:#FFFFFF;}
	.st20{fill:#FFFFFF;stroke:#000000;stroke-width:2.668;stroke-linecap:round;stroke-linejoin:round;stroke-miterlimit:10;}
	.st21{fill:#0DB14B;stroke:#000000;stroke-width:2.668;stroke-linecap:round;stroke-linejoin:round;stroke-miterlimit:10;}
	.st22{fill:#FFFFFF;stroke:#0DB14B;stroke-width:2.5408;stroke-linecap:round;stroke-linejoin:round;stroke-miterlimit:10;}
	.st23{fill:#0DB14B;stroke:#000000;stroke-width:2.668;stroke-miterlimit:10;}
	.st24{fill:#0DB14B;stroke:#000000;stroke-width:2;stroke-miterlimit:10;}
	.st25{fill:#FFFFFF;stroke:#000000;stroke-width:2;stroke-miterlimit:10;}
	.st26{fill:none;stroke:#0DB14B;stroke-width:2.9921;stroke-linecap:round;stroke-linejoin:round;stroke-miterlimit:10;}
	.st27{fill:#A7EABF;stroke:#0DB14B;stroke-width:2.9921;stroke-linecap:round;stroke-linejoin:round;stroke-miterlimit:10;}
	.st28{fill:#FFFFFF;stroke:#000000;stroke-width:2;stroke-linecap:round;stroke-linejoin:round;stroke-miterlimit:10;}
	.st29{fill:#0DB14B;stroke:#000000;stroke-width:1.7391;stroke-miterlimit:10;}
	.st30{fill:#0DB14B;stroke:#000000;stroke-width:2;stroke-linecap:round;stroke-linejoin:round;stroke-miterlimit:10;}
	.st31{fill:#A7EABF;stroke:#0DB14B;stroke-width:2.9909;stroke-linecap:round;stroke-linejoin:round;stroke-miterlimit:10;}
	.st32{fill:none;stroke:#0DB14B;stroke-width:2.3333;stroke-linecap:round;stroke-linejoin:round;stroke-miterlimit:10;}
</style>
<rect x="106.2" y="92" transform="matrix(-0.9867 0.1627 -0.1627 -0.9867 239.9738 198.383)" class="st0" width="11.3" height="34.1"/>
<path class="st1" d="M72.4,63.3l-3.4-50.8l52.6-8.7l13,49.2c0.5,1.6,0.9,3.2,1.2,4.9c2.9,17.4-8.9,33.9-26.3,36.7
	c-17.4,2.9-33.9-8.9-36.7-26.3C72.5,66.7,72.4,65,72.4,63.3z"/>
<path class="st2" d="M73,50l56.7-9.3l3.5,13.3c0.5,1.5,0.9,3,1.2,4.6c2.7,16.4-8.5,31.9-25.1,34.7C92.7,96,77,84.9,74.3,68.5
	c-0.3-1.6-0.4-3.2-0.4-4.8L73,50z"/>
<path class="st1" d="M139.5,118l-50.9,8.4c-3.3,0.5-5.5,3.7-5,7l1,6l62.7-10.3c0.1,0,0.1-0.1,0.1-0.2l-1-5.8
	C145.9,119.7,142.8,117.4,139.5,118z"/>
<path class="st2" d="M140.5,119.3L88.1,128c-2.1,0.3-3.4,2.3-3.1,4.3l0.2,1l59.8-9.9c0.1,0,0.1-0.1,0.1-0.1l-0.2-0.9
	C144.5,120.4,142.6,119,140.5,119.3z"/>
<path class="st3" d="M684.3,135.9c0,0-9.6-9.3-4.1-23.8c8.5-16.4,1.9-19.8,1.9-30.2"/>
<path class="st4" d="M685.9,101.4H676c-0.7,0-1.4,0.5-1.6,1.2l-1.4,6.1c-0.2,1,0.5,1.9,1.6,1.9h12.6c1,0,1.8-0.9,1.6-1.9l-1.4-6.1
	C687.3,101.9,686.6,101.4,685.9,101.4z"/>
<path class="st4" d="M719.5,51.1c0,21.3-17.2,52.7-38.5,52.7s-38.5-31.5-38.5-52.7s17.2-38.5,38.5-38.5S719.5,29.8,719.5,51.1z"/>
<path class="st2" d="M688.3,100.3c-18.8-6.3-25.5-40.6-19.5-60.1c3.7-11.9,13.1-20.8,23.8-24.3c-3.7-1.3-8.1-1.9-12.2-1.9
	c-19.4,0-36.1,16.6-36.1,37.1c0,20.5,16.6,51,36.3,51c2.9,0,5.8-0.4,8.5-1.6C688.8,100.4,688.5,100.4,688.3,100.3z"/>
<path class="st4" d="M706.3,32.1c4.4,5.5,7,12.5,7,20.1c0,3.8-0.6,7.9-1.8,12.1"/>
<path class="st4" d="M690.8,21.4c3.8,1.2,7.2,3.1,10.3,5.5"/>
<path class="st3" d="M636.7,148.1c0,0,9.6-9.3,4.1-23.8c-8.5-16.4-1.9-19.8-1.9-30.2"/>
<path class="st4" d="M643.9,90.9H634c-0.7,0-1.4,0.5-1.6,1.2l-1.4,6.1c-0.2,1,0.5,1.9,1.6,1.9h12.6c1,0,1.8-0.9,1.6-1.9l-1.4-6.1
	C645.2,91.4,644.6,90.9,643.9,90.9z"/>
<path class="st5" d="M-475.2-17.2c0,0,0,44.4,0,51.1s-6.9,6.9-6.9,6.9h-6.5l-16.5-40c0,0-12,0-19.3,0s-8.9-8.9-8.9-8.9
	s0-52.7,0-57.8c0-5.1,5.5-5.5,5.5-5.5s3.6,0,9.5,0c13.1,0,13.3,14,13.3,14v26.2h-2.5v14H-475.2z"/>
<path class="st4" d="M-301.4,96.1h74.2c2.6,0,4.8-2.1,4.8-4.8V31.6c0-2.6-2.1-4.8-4.8-4.8h-74.2c-2.6,0-4.8,2.1-4.8,4.8v59.8
	C-306.1,94-304,96.1-301.4,96.1z"/>
<path class="st2" d="M-300.7,28.3c-2.5,0-4.6,2-4.6,4.6v57.3c0,2.5,2,4.6,4.6,4.6h35.4V28.3H-300.7z"/>
<polygon class="st4" points="-112.1,191.9 -167.7,150.1 -223.3,191.9 -223.3,276.8 -112.1,276.8 "/>
<line class="st6" x1="-238.7" y1="203.1" x2="-223.2" y2="191.9"/>
<polygon class="st2" points="-167.7,151.9 -221.8,192.6 -221.8,275.2 -167.7,275.2 "/>
<polygon class="st4" points="-118.4,187.2 -137.7,172.7 -137.7,151.9 -118.4,151.9 "/>
<rect x="-243.2" y="-116.4" class="st7" width="1.1" height="19.2"/>
<path class="st4" d="M-85.9-163.8c2.1-6.3,2.4-10.8,2.4-10.8V-187c0,0-20.5-0.2-37.1,15.6c-18.7,18.7-17.5,37-17.5,37V-48
	c0,0,15.7,0,32.6,0c0-37.3-11.7-67.2-21.9-77.7c5.1-1.3,9.6-3,13.6-5c-0.1-0.8-0.1-1.6-0.1-2.4C-113.9-149.2-101.6-162.4-85.9-163.8
	z"/>
<g>
	<path class="st4" d="M306.2,134.8H179.1c-5.3,0-9.6-4.3-9.6-9.6V42.4c0-5.3,4.3-9.6,9.6-9.6h127.1c5.3,0,9.6,4.3,9.6,9.6v82.7
		C315.8,130.5,311.5,134.8,306.2,134.8z"/>
</g>
<path class="st2" d="M171.1,84.3V125c0,5.1,4,8.6,8.7,8.6h126.1c5.1,0,8.4-4,8.4-8.3v-41H171.1z"/>
<circle class="st4" cx="242.7" cy="82.7" r="37.6"/>
<path class="st4" d="M269,98.7c-5.4,8.9-15.2,14.8-26.3,14.8c-17,0-30.8-13.8-30.8-30.8c0-14.8,10.4-27.1,24.3-30.1"/>
<path class="st0" d="M-115.6,125.2l0.8,4c0.6,3.3,3.9,5.5,7.2,4.9c3.3-0.6,5.5-3.9,4.9-7.2l-0.8-4L-115.6,125.2z"/>
<path class="st4" d="M-113.6,77.1l4.9,26c0.3,1.6,1.2,3.1,2.4,4.1l6.6,5.6c2.2,1.9,3.4,4.7,3,7.6v0c-0.3,2.4-2.1,4.4-4.5,4.9
	l-13.9,2.6c-9,1.7-10.2-6.9-10.2-6.9l-8.4-44.3c-0.1-0.4,0.3-0.8,0.7-0.8l18.7,0.8C-113.9,76.6-113.6,76.8-113.6,77.1z"/>
<path class="st0" d="M-108.8,102.6l3.8-0.7c2.1-0.4,3.3-3,2.7-5.8l0,0c-0.5-2.8-2.6-4.8-4.7-4.4l-3.8,0.7L-108.8,102.6z"/>
<circle class="st8" cx="-614.7" cy="126.2" r="12"/>
<rect x="-657.1" y="113.6" transform="matrix(0.7071 0.7071 -0.7071 0.7071 -78.2302 502.0272)" class="st8" width="24" height="86"/>
<polygon class="st8" points="-667.1,195.5 -684,178.5 -692,203.4 "/>
<polygon class="st8" points="-681.9,200.2 -688.8,193.4 -692,203.4 "/>
<path class="st0" d="M-312.4,43.8c0,0,2.1-5.6,0.5-9.6s-5.3,4.1-5.3,4.1v7.4C-317.1,45.7-313.8,47.4-312.4,43.8z"/>
<rect x="-267.1" y="103.8" class="st4" width="5.6" height="21.6"/>
<path class="st4" d="M-317.8,79.1c-4-2.2-7.1-5.9-8.5-10.2c-2.4-1.3-5.2-2.2-8.2-2.3c-3.6-0.1-6.9,0.8-9.8,2.4
	c-1.4,4.3-4.3,7.9-8.2,10c-0.5,1.5-0.8,3-0.8,4.6c-0.4,9.7,7.5,17.9,17.5,18.3c10,0.4,18.4-7.2,18.8-17
	C-316.9,82.9-317.2,80.9-317.8,79.1z"/>
<g>
	<g>
		<path class="st9" d="M-2493.2,4030.7c16.2,0,29.3,13.2,29.3,29.3s-13.2,29.3-29.3,29.3c-16.2,0-29.3-13.2-29.3-29.3
			S-2509.3,4030.7-2493.2,4030.7z"/>
		<path class="st9" d="M-2439.4,4089.3c8.1,0,14.6,6.5,14.6,14.6c0,8.1-6.5,14.6-14.6,14.6s-14.6-6.5-14.6-14.6
			C-2454,4095.8-2447.5,4089.3-2439.4,4089.3z"/>
		<line class="st9" x1="-2493.2" y1="4030.7" x2="-2493.2" y2="3939.7"/>
		<line class="st9" x1="-2471.2" y1="4081.5" x2="-2440.1" y2="4103.1"/>
		<path class="st9" d="M-2444.3,4186.9v-39c0,0,0.3,0,9.8,0c19.5,0,39-19.7,39-39c0-9.6,0-22,0-22s10.8-2.9,16.6-4.4
			c7.4-2.2,9.1-10.2,5.8-16.9c-3-5.9-26.3-52.5-26.3-52.5s-13.6-70.1-93.7-70.1c-53.9,0-97.7,43.7-97.7,97.7
			c0,36.9,29.3,64.2,29.3,99v47.5"/>
	</g>
</g>
<path class="st9" d="M-2226.5,3982l-41.6-41.6c-4.6-4.6-12-4.6-16.6,0l-31.3,31.3c-6.4,6.4-8.6,16-5.5,24.7
	c8.5,23,29.4,69.6,70.1,110.3c40.6,40.6,87.2,61.5,110.3,70.1c8.6,3.2,18.2,1,24.7-5.5l31.3-31.3c4.6-4.6,4.6-12,0-16.6l-41.6-41.6
	c-4.6-4.6-12-4.6-16.6,0l-24.9,24.9c0,0-28.2-11.7-49.8-33.2c-21.6-21.6-33.3-49.8-33.3-49.8l24.9-24.9
	C-2221.8,3994.1-2221.8,3986.6-2226.5,3982z"/>
<g>
	<g>
		<path class="st9" d="M-2649.1,4084.3c1.4-7.1,2.1-14.3,2.1-21.7c0-63-51.1-114.1-114.1-114.1c-7.3,0-14.6,0.7-21.5,2
			c-10-6.2-21.9-9.8-34.6-9.8c-36.3,0-65.8,29.5-65.8,65.8c0,12.7,3.6,24.5,9.8,34.6c-1.3,7-2,14.1-2,21.5
			c0,63,51.1,114.1,114.1,114.1c7.4,0,14.7-0.7,21.7-2.1c9.9,6,21.5,9.4,33.9,9.4c36.3,0,65.8-29.5,65.8-65.8
			C-2639.6,4105.9-2643,4094.3-2649.1,4084.3z"/>
		<path class="st9" d="M-2760,4111.6c0,0,25.4-0.2,25.4-18.6c0-13.2-16.6-15.4-25.4-16.5s-59.7-5.6-60.1-45.8
			c0-37.9,45.8-42.2,57.2-42.2c16.9,0,59.7,11.2,55.7,36c-3.2,16-25,9.8-29.1,3c-6.9-8.8-11.5-13.5-28.1-13.5
			c-20.5,0-23.4,12.4-23.4,16s0,14.4,46.6,20c44.1,8.3,38.9,42.7,38.9,42.7s1.5,43.2-58.6,43.2c-53.9,0-67.4-38.2-53.5-46.6
			c13.2-8.1,19.1,2.5,25.7,9.7C-2782.3,4106-2776.4,4111.6-2760,4111.6z"/>
	</g>
</g>
<g>
	<g>
		<polygon class="st9" points="-3141.9,4080 -3272.3,4080 -3313.1,4112.6 -3313.1,4080 -3353.8,4080 -3353.8,3933.2 -3141.9,3933.2 
					"/>
		<polygon class="st10" points="-3272.3,4080.6 -3313.7,4112.6 -3313.7,4080.6 -3354.7,4080.6 -3354.7,4023.9 -3384.3,4023.9 
			-3384.3,4150.3 -3271.7,4150.3 -3237,4177 -3237,4150.3 -3202.2,4150.3 -3202.2,4080.6 		"/>
	</g>
</g>
<g>
	<path class="st11" d="M-1752.5,3684.5h29.3c11.5,0,20.9-9.3,20.9-20.9l0,0c0-11.5-9.3-20.9-20.9-20.9h-8.4
		c-11.5,0-20.9-9.3-20.9-20.9l0,0c0-11.5,9.3-20.9,20.9-20.9h29.3"/>
	<line class="st11" x1="-1727.4" y1="3601" x2="-1727.4" y2="3575.9"/>
	<line class="st11" x1="-1727.4" y1="3709.6" x2="-1727.4" y2="3684.5"/>
	<polyline class="st11" points="-1660.6,3609.4 -1660.6,3567.6 -1618.8,3567.6 	"/>
	<polyline class="st11" points="-1794.2,3676.2 -1794.2,3718 -1836.1,3718 	"/>
	<path class="st11" d="M-1660.6,3567.6v12.3c15.5,16.5,25.1,38.5,25.1,62.9c0,50.7-41.2,91.9-91.9,91.9c-15.1,0-29.2-3.7-41.7-10.1
		v18.5c12.9,5.4,27,8.4,41.7,8.4c59.9,0,108.6-48.7,108.6-108.6c0-29.2-11.6-55.7-30.4-75.2L-1660.6,3567.6L-1660.6,3567.6z"/>
	<path class="st11" d="M-1794.2,3718v-12.3c-15.5-16.5-25.1-38.5-25.1-62.9c0-50.7,41.2-91.9,91.9-91.9c15.1,0,29.2,3.7,41.7,10.2
		v-18.5c-12.9-5.4-27-8.4-41.7-8.4c-59.9,0-108.6,48.7-108.6,108.6c0,29.2,11.6,55.7,30.4,75.2H-1794.2z"/>
</g>
<g>
	<rect x="-2285.8" y="3611.1" class="st12" width="51" height="51"/>
	<rect x="-2370.7" y="3611.1" class="st12" width="51" height="51"/>
	<rect x="-2285.8" y="3492.3" class="st12" width="51" height="51"/>
	<rect x="-2200.9" y="3611.1" class="st12" width="51" height="51"/>
	<polyline class="st12" points="-2175.4,3611.1 -2175.4,3577.3 -2345.3,3577.3 -2345.3,3611.1 	"/>
	<line class="st12" x1="-2260.3" y1="3611.1" x2="-2260.3" y2="3543.3"/>
</g>
<rect x="-1050.4" y="3470.8" class="st11" width="175.1" height="242.2"/>
<rect x="-1033.5" y="3486.9" class="st13" width="69.7" height="27.9"/>
<rect x="-1033.5" y="3540.9" class="st13" width="123.7" height="5.2"/>
<rect x="-1033.5" y="3527.8" class="st13" width="139.4" height="5.2"/>
<rect x="-1033.5" y="3567.9" class="st13" width="131.6" height="5.2"/>
<rect x="-1033.5" y="3581" class="st13" width="56.6" height="5.2"/>
<rect x="-1033.5" y="3554" class="st13" width="108" height="6.1"/>
<rect x="-1033.5" y="3610.6" class="st13" width="123.7" height="5.2"/>
<rect x="-1033.5" y="3639.4" class="st13" width="131.6" height="5.2"/>
<rect x="-1033.5" y="3624.6" class="st13" width="139.4" height="5.2"/>
<rect x="-1033.5" y="3653.3" class="st13" width="108" height="5.2"/>
<rect x="-850" y="3470.8" class="st11" width="175.1" height="242.2"/>
<circle class="st14" cx="-762.6" cy="3591.7" r="52.2"/>
<polygon class="st11" points="-738.5,3591 -762,3591 -762,3568.4 -763.8,3568.4 -763.8,3591 -786.4,3591 -786.4,3592.8 
	-763.8,3592.8 -763.8,3615.4 -762,3615.4 -762,3592.8 -738.5,3592.8 "/>
<g>
	<ellipse class="st11" cx="-1496.1" cy="3572.5" rx="57.6" ry="12.8"/>
	<g>
		<path class="st11" d="M-1438.5,3572.5v-38.4c0-7.1-25.8-12.8-57.6-12.8c-31.8,0-57.6,5.8-57.6,12.8v38.4"/>
		<polyline class="st11" points="-1438.5,3536.3 -1409.7,3521.4 -1496.1,3476.6 -1582.5,3521.4 -1553.7,3536.3 		"/>
		<line class="st11" x1="-1579.3" y1="3521.4" x2="-1579.3" y2="3591.8"/>
	</g>
</g>
<polygon class="st12" points="-1692.2,3950.5 -1781.9,3950.5 -1781.9,3830.8 -1722.1,3830.8 -1692.2,3860.8 "/>
<rect x="-1762" y="3915.6" class="st12" width="49.8" height="9.9"/>
<rect x="-1762" y="3895.6" class="st12" width="49.8" height="9.9"/>
<rect x="-1762" y="3875.7" class="st12" width="49.8" height="9.9"/>
<polyline class="st12" points="-1722.1,3832.6 -1722.1,3860.8 -1693.9,3860.8 "/>
<polygon class="st15" points="-799.2,3838.5 -815.5,3822.2 -860.9,3867.5 -885,3843.4 -901.3,3859.7 -861,3900.1 -860.9,3900 
	-860.8,3900.1 "/>
<g>
	<polyline class="st9" points="-2818.5,3314.5 -2773.1,3409.2 -2704,3409.2 	"/>
	<path class="st9" d="M-2643.4,3392.3c0,65.2-52.8,118-118,118c-65.2,0-118-52.8-118-118s52.8-118,118-118
		C-2696.2,3274.4-2643.4,3327.2-2643.4,3392.3z"/>
</g>
<g>
	<path class="st16" d="M-3162.7,3365.5c0,76.5-100.1,144.1-100.1,144.1S-3363,3444-3363,3365.5c0-55.3,44.8-100.1,100.1-100.1
		S-3162.7,3310.1-3162.7,3365.5z"/>
	<path class="st16" d="M-3223.9,3365c0,21.5-17.4,38.9-38.9,38.9s-38.9-17.4-38.9-38.9s17.4-38.9,38.9-38.9
		S-3223.9,3343.5-3223.9,3365z"/>
</g>
<rect x="1112.8" y="1611.9" class="st17" width="210.7" height="210.7"/>
<rect x="1112.8" y="1401.2" class="st18" width="210.7" height="210.7"/>
<path class="st19" d="M1293.3,1718h-56.8h-1l18.2,24.8c-2.7,3.7-6.5,7.3-10.3,10c-7.1,5.1-15.2,8.1-25.2,8.1l0,0
	c-9,0-18.4-3.1-25.6-8.3c-7.4-5.4-13-13-15.9-21.8c-1.4-4.3-2.1-8.8-2.1-13.5s0.7-9.3,2.1-13.5c1-2.9,2.2-5.7,3.7-8.3l37.8,22.2
	l31.8-18.6c-1-1.7-2.1-3.4-3.2-5.1l-28.5,16.7l-34.4-20.2c2.5-3.2,5.5-6.1,8.8-8.5c7.2-5.2,16.6-8.3,25.6-8.3v-0.1
	c10,0,18.4,3.4,25.6,8.4h0.1c4.9,4,9,8.1,12,13.4l29.8-17.4c-5.4-9.2-13.1-17.5-21.7-23.9l0,0c-0.1-0.1-0.2,0-0.3-0.1h-0.1l0,0
	c-12.8-9-28.4-14.8-45.4-14.8v-0.1c-17,0-33,5.5-45.9,14.9c-13.2,9.6-23.3,23.2-28.5,39.1c-2.5,7.6-3.8,15.7-3.8,24.2
	s1.3,16.6,3.8,24.2c5.2,15.9,15.3,29.5,28.5,39.1c12.9,9.4,28.9,14.9,45.9,14.9l0,0c17,0,32.7-5.5,45.5-14.7l0,0l0.1-0.1
	c0.1-0.1,0.2-0.1,0.3-0.2l0,0c13-9.6,23.4-23.2,28.5-38.8c2.4-7.5,3.8-15.6,3.8-23.6L1293.3,1718L1293.3,1718z"/>
<path class="st19" d="M1293.3,1507h-56.8h-1l18.2,24.9c-2.7,3.7-6.5,7.3-10.3,10.1c-7.1,5.1-15.2,8.1-25.2,8.2l0,0
	c-9,0-18.4-3.1-25.6-8.3c-7.4-5.4-13-13-15.9-21.8c-1.4-4.3-2.1-8.8-2.1-13.5s0.7-9.3,2.1-13.5c1-2.9,2.2-5.7,3.7-8.3l37.8,22.2
	l31.8-18.6c-1-1.7-2.1-3.4-3.2-5.1l-28.5,16.7l-34.4-20.2c2.5-3.2,5.5-6.1,8.8-8.5c7.2-5.2,16.6-8.3,25.6-8.3v-0.1
	c10,0,18.4,3.2,25.6,8.2h0.1c4.9,4,9,8.2,12,13.5l29.8-17.4c-5.4-9.2-13.1-17.5-21.7-23.9l0,0c-0.1-0.1-0.4-0.1-0.5-0.2
	c0,0-0.3,0-0.3-0.1l0,0c-12-9.2-28.3-14.7-45.4-14.7l0,0c-17.3,0-32.8,5.5-45.7,14.9c-13.2,9.6-23.2,23.2-28.4,39.1
	c-2.5,7.6-3.8,15.7-3.8,24.2c0,8.4,1.4,16.6,3.8,24.2c5.2,15.9,15.2,29.5,28.4,39.1c12.9,9.4,28.7,14.9,45.8,14.9l0,0
	c17.1,0,32.8-5.5,45.6-14.7l0,0l0.1-0.1c0.1-0.1,0.2-0.1,0.3-0.2l0,0c13-9.6,23.4-23.3,28.5-39c2.4-7.5,3.8-15.7,3.8-23.7
	L1293.3,1507L1293.3,1507z"/>
<rect x="-130" y="1218" class="st17" width="602.6" height="602.6"/>
<rect x="-128.6" y="292.8" class="st17" width="1207.6" height="450.2"/>
<rect x="-128.6" y="742.9" class="st18" width="1207.6" height="450.2"/>
<g>
	<path class="st18" d="M138.2,1617.9L138.2,1617.9c-21,0-41.6-6.9-57.9-18.7c-16.7-12.1-29.5-29.3-36-49.3
		c-3.1-9.6-4.8-19.9-4.8-30.5s1.7-20.9,4.8-30.5c6.5-20,19.3-37.2,36-49.3c16.2-11.8,37.9-18.7,57.9-18.7l0,0
		c23,0,41.7,7.1,57.9,18.9l45.8-63.1c-29.1-21.2-63.7-33.8-103.7-33.8l0,0c-38,0-74.6,12.5-103.7,33.6
		c-29.8,21.7-52.7,52.5-64.3,88.3c-5.6,17.2-8.6,35.6-8.6,54.6c0,19.1,3,37.4,8.6,54.6c11.6,35.8,34.5,66.6,64.3,88.3
		c29.1,21.1,65.7,33.6,103.7,33.6l0,0c40,0,74.6-12.6,103.8-33.8l-45.9-63.1C179.9,1610.8,160.2,1617.8,138.2,1617.9z"/>
	<path class="st18" d="M307.7,1520H179.5h-2.2l41,56.5c-6.1,8.6-13.6,16.2-22.2,22.4l45.8,63.1c29.7-21.7,52.5-52.5,64.1-88.3
		c5.5-16.9,8.5-34.7,8.6-53.7H307.7z"/>
	<path class="st18" d="M223.4,1469.9l67.4-39.4c-12.4-21.2-29-39.6-48.7-54l-45.8,63.1C207.2,1447.8,216.5,1458,223.4,1469.9z"/>
	<path class="st18" d="M202.6,1466.4l-64.5,37.8l-101.9-59.9c-2.6,3.7-5.1,7.6-7.4,11.5l109.3,64.2l71.8-42.1
		C207.6,1474,205.2,1470.2,202.6,1466.4z"/>
</g>
<g>
	<path class="st19" d="M322.8,1556.6v19.8h-17.6v-18.5h-33v-14.6l37.3-54.8h13.3v50.5L322.8,1556.6L322.8,1556.6z M305.4,1540.6
		v-17.8l-12.8,17.8H305.4z"/>
	<path class="st19" d="M364,1516.4c-3.7-1.8-7.7-2.4-11.9-2.4h-7.9v-26h-18v88h18v-19.4v-17.7v-7.9h7.9c3.3,0,6.2,1.2,8.5,3.9
		c2.3,2.7,3.6,5.9,3.6,9.7v31.4h17v-30.1C381.2,1523.5,366.8,1518,364,1516.4z"/>
	<path class="st19" d="M218.4,1561.8l35.5-39.5c1.6-2,2.4-3.9,2.4-5.9c0-2.6-1-4.8-2.9-6.6c-2-1.8-4.4-2.6-7.2-2.6
		c-2.5,0-4.7,0.9-6.5,2.7c-1.8,1.8-2.7,4-2.7,6.5v3.4h-18.5v-3.4c0-7.6,2.7-14.2,8.2-19.6c5.4-5.5,11.9-8.2,19.6-8.2
		c7.9,0,14.6,2.7,20.2,8.2c5.6,5.4,8.4,11.9,8.4,19.6c-0.2,6.4-2.5,12.4-7.1,18.2c-0.9,1-1.9,2.1-3,3.3l-17.5,20h24.9v18.5h-53.7
		L218.4,1561.8L218.4,1561.8z"/>
</g>
<rect x="472.3" y="1218" class="st18" width="602.6" height="602.6"/>
<path class="st17" d="M910,1520H781.8h-2.2l41,56.5c-6.1,8.6-14.1,16.3-22.6,22.5c-16.2,11.8-35.9,18.8-57.8,18.8l0,0
	c-20,0-41.5-6.9-57.7-18.7c-16.7-12.1-29.4-29.3-35.9-49.3c-3.1-9.6-4.8-19.9-4.8-30.5s1.7-20.9,4.8-30.5c2.2-6.6,5-12.9,8.4-18.8
	l85.3,50.2l71.8-42.1c-2.3-3.9-4.7-7.8-7.3-11.5l-64.5,37.8l-77.7-45.7c5.7-7.3,12.3-13.7,19.8-19.1c16.2-11.8,37.7-18.7,57.7-18.7
	l0,0c23,0,41.8,7.1,58,18.9c11,8.1,20.5,18.4,27.4,30.2l67.4-39.4c-12.4-21.2-29.3-39.6-49-54c-29.1-21.2-63.8-33.8-103.8-33.8l0,0
	c-38,0-74.5,12.5-103.6,33.6c-29.8,21.7-52.6,52.5-64.2,88.3c-5.6,17.2-8.6,35.6-8.6,54.6c0,19.1,3,37.4,8.6,54.6
	c11.6,35.8,34.4,66.6,64.2,88.3c29.1,21.1,65.6,33.6,103.6,33.6l0,0c40,0,74.8-12.6,103.9-33.8c29.7-21.7,52.6-52.5,64.2-88.3
	c5.5-16.9,8.5-34.7,8.6-53.7H910z"/>
<path class="st19" d="M925.1,1556.6v19.8h-17.6v-18.5h-33v-14.6l37.3-54.8h13.3v50.5V1556.6z M907.7,1540.6v-17.8l-12.8,17.8H907.7z
	"/>
<path class="st19" d="M966.6,1516.4c-3.7-1.8-8.1-2.4-12.2-2.4h-8.2v-26h-16v88h16v-19.4v-17.7v-7.9h8.2c3.3,0,6.1,1.2,8.4,3.9
	c2.3,2.7,3.5,5.9,3.5,9.7v31.4h18v-30.1C984.2,1523.5,969.4,1518,966.6,1516.4z"/>
<path class="st19" d="M820.7,1561.8l35.5-39.5c1.6-2,2.3-3.9,2.3-5.9c0-2.6-1-4.8-2.9-6.6c-2-1.8-4.4-2.6-7.2-2.6
	c-2.5,0-4.7,0.9-6.5,2.7c-1.8,1.8-2.7,4-2.7,6.5v3.4h-18.5v-3.4c0-7.6,2.7-14.2,8.2-19.6c5.4-5.5,11.9-8.2,19.6-8.2
	c7.9,0,14.6,2.7,20.2,8.2c5.6,5.4,8.4,11.9,8.4,19.6c-0.2,6.4-2.5,12.4-7.1,18.2c-0.9,1-1.9,2.1-3,3.3l-17.5,20h24.9v18.5h-53.7
	V1561.8z"/>
<g>
	<path class="st18" d="M352.8,537.8L352.8,537.8c-4.8-5.1-12.7-9.8-24.4-14.4c-9.9-3.9-13-6.3-13.9-7.1c-1.3-1.2-1.9-2.3-1.9-3.4
		c0-0.8,0.1-1.8,1.7-3.2c1.4-1.2,3-1.8,5.1-1.9c4.5-0.2,9.6,1.9,15.3,6.3l0.8,0.6l20.1-20.2l-0.5-0.4c-11.9-9.1-24.1-13.5-36.2-13
		c-10.7,0.5-19.7,3.9-26.6,10.2c-7,6.4-10.3,14.3-9.9,23.3c0.3,7,2.9,13.1,7.6,18.4c4.5,5,12.2,9.6,23.3,14
		c11.3,4.4,14.2,6.8,14.6,7.2c1.2,1.2,1.8,2.4,1.9,3.9c0.1,1.9-0.7,3.4-2.6,5c-2.1,1.8-4.5,2.7-7.7,2.8c-5.1,0.2-10.2-2-15.6-6.9
		l-7-6.3l-19.3,20.7l4.8,4.9c4.7,4.8,10.6,8.5,17.4,11s14.1,3.6,21.5,3.3c11.5-0.5,21.2-4.3,28.7-11.3s11.1-15.5,10.7-25.1
		C360.4,549.5,357.8,543.2,352.8,537.8z"/>
	<path class="st18" d="M511.2,481.7c15.1,0,28,5.4,38.8,16.2c10.7,10.9,16.1,24,16.1,39.4c0,15.3-5.4,28.4-16.1,39.3
		c-10.7,10.8-23.6,16.3-38.8,16.3c-15.2,0-28.1-5.4-38.9-16.3c-10.7-10.9-16.1-24-16.1-39.3c0-15.4,5.3-28.5,16.1-39.4
		C483,487,496,481.7,511.2,481.7 M511.2,562.2c6.7,0,12.3-2.4,17-7.2c4.7-4.9,7.1-10.8,7.1-17.7s-2.4-12.9-7.1-17.8
		c-4.7-4.8-10.4-7.2-17-7.2c-6.7,0-12.4,2.4-17.1,7.2c-4.8,4.9-7.1,10.9-7.1,17.8c0,6.9,2.4,12.8,7.1,17.7
		C498.8,559.9,504.5,562.2,511.2,562.2"/>
	<path class="st18" d="M239,542c-0.1,1-0.2,1.5-0.5,2.4c-1.7,6.5-5.4,11.3-11.1,14.6c-5.8,3.3-11.9,4-18.4,2.2
		c-3.5-1-6.6-2.6-9.2-4.8l67.1-38.7l-4.5-7.7c-7.7-13.3-18.9-22-33.6-26.1c-14.7-4-28.6-2.3-41.6,5.3c-13.2,7.6-21.7,18.7-25.5,33.5
		s-1.9,28.8,5.8,42.1c7.6,13.3,18.8,21.9,33.5,26c14.7,4,28.6,2.3,41.7-5.3c13.1-7.5,21.6-18.4,25.4-33.1c1-3.6,1.6-6.3,1.8-10.3
		L239,542L239,542z M202.5,515.8c5.8-3.3,11.9-4.1,18.3-2.3c0.9,0.3,1.7,0.6,2.6,0.9l-32.6,18.8c0.1-0.9,0.3-1.8,0.5-2.7
		C193,524,196.7,519,202.5,515.8z"/>
	<g>
		<path class="st18" d="M145.6,519H91.3h-0.9l17.4,23.6c-2.6,3.6-5.6,6.7-9.2,9.3c-6.9,5-15.3,7.8-24.3,7.8l0,0
			c-10,0-17.9-2.9-24.7-7.9c-7.1-5.1-12.6-12.4-15.4-20.9c-1.3-4.1-2.1-8.4-2.1-12.9s0.7-8.9,2-12.9c2.8-8.5,8.1-15.4,15.2-20.5
			c6.9-5,15.2-7.5,24.5-7.5l0,0c9.3,0,17.7,2.6,24.6,7.6c4.7,3.4,8.6,7.6,11.6,12.6l28.5-16.8c-5.2-9-12.3-16.9-20.7-23
			c-12.3-9-27.5-14.5-44-14.5c-16.4,0-31.6,5.4-43.9,14.4c-12.6,9.2-22.3,22.3-27.2,37.5c-2.5,7.1-3.8,14.9-3.8,23
			c0,8.1,1.3,15.9,3.7,23.2c4.9,15.2,14.3,28.2,27,37.4c12.3,9,28.7,14.2,43.7,14.2l0,0c17,0,32-5.3,44.4-14.3
			c12.6-9.2,22.4-21.9,27.3-37c2.3-7.2,3.6-14.4,3.7-22.4L145.6,519L145.6,519z"/>
		<path class="st18" d="M101,495.5l-27.3,16l-43.2-25.4c-1.1,1.6-2.1,3.2-3.1,4.9l46.3,27.2l30.4-17.8
			C103.2,498.8,102.1,497.2,101,495.5z"/>
	</g>
	<rect x="369.2" y="481" class="st18" width="75" height="31"/>
	<path class="st18" d="M630.2,481c-7.5,0-14.4,1.6-21.2,4.8c-5.1,2.9-30.9,13.1-30.9,53.6V593h31v-55.9c0-6.9,2-12.8,6.1-17.8
		c4.2-4.9,9-7.3,14.9-7.3h16v-31H630.2L630.2,481z"/>
	<path class="st18" d="M426.1,554.2c0,0.2-1,0.7-1,0.9c0,1.2-1.4,1.9-1.9,2.9c-1.1,2-3.1,3.3-5.6,3.3c-3.4,0-6.4-2.6-6.4-5.9V443
		h-31v114H380c1,20,17.4,35.5,37.5,35.5c15.2,0,28.3-9.2,34.2-22.2L426.1,554.2z"/>
</g>
<g>
	<path class="st19" d="M840.2,443L840.2,443h-22.6l-63.4,93.3v25.7h64v31h31v-150L840.2,443L840.2,443z M817.2,532h-22l22-32.7V532z
		"/>
	<path class="st19" d="M740.7,527.2c1.9-2,3.6-4,5.1-5.7c7.8-9.9,11.9-20.3,12.1-31.1c0-13-4.8-24.2-14.3-33.4
		c-9.6-9.3-21.1-14-34.5-14c-13,0-24,4.6-33.2,13.9c-9.3,9.2-13.7,20.4-13.7,33.4v5.8h31v-5.8c0-4.3,1.6-8,4.7-11.1
		c3.1-3.1,6.9-4.6,11.2-4.6c4.8,0,8.9,1.5,12.3,4.5c3.3,3.1,5,6.8,5,11.2c0,3.4-1.1,6.8-3.8,10.1l-60.4,67.3V593h84.1l0,0h7.9v-31
		h-43.9L740.7,527.2z"/>
	<path class="st19" d="M923.1,485.8c-6.7-3.2-14-4.8-21.5-4.8h-11.4v-38h-29.3h-1.7v150h1.7h29.3v-81h11.4c5.9,0,11,2.4,15.2,7.3
		c4.2,4.9,6.4,10.8,6.4,17.8V593h31v-53.6C954.2,499,928.2,488.8,923.1,485.8z"/>
</g>
<g>
	<path class="st17" d="M352.8,989.8L352.8,989.8c-4.8-5.1-12.7-9.8-24.4-14.4c-9.9-3.9-13-6.3-13.9-7.1c-1.3-1.2-1.9-2.3-1.9-3.4
		c0-0.8,0.1-1.8,1.7-3.2c1.4-1.2,3-1.8,5.1-1.9c4.5-0.2,9.6,1.9,15.3,6.3l0.8,0.6l20.1-20.2l-0.5-0.4c-11.9-9.1-24.1-13.5-36.2-13
		c-10.7,0.5-19.7,3.9-26.6,10.2c-7,6.4-10.3,14.3-9.9,23.3c0.3,7,2.9,13.1,7.6,18.4c4.5,5,12.2,9.6,23.3,14
		c11.3,4.4,14.2,6.8,14.6,7.2c1.2,1.2,1.8,2.4,1.9,3.9c0.1,1.9-0.7,3.4-2.6,5c-2.1,1.8-4.5,2.7-7.7,2.8c-5.1,0.2-10.2-2-15.6-6.9
		l-7-6.3l-19.3,20.7l4.8,4.9c4.7,4.8,10.6,8.5,17.4,11s14.1,3.6,21.5,3.3c11.5-0.5,21.2-4.3,28.7-11.3s11.1-15.5,10.7-25.1
		C360.4,1001.5,357.8,995.2,352.8,989.8z"/>
	<path class="st17" d="M511.2,933.7c15.1,0,28,5.4,38.8,16.2c10.7,10.9,16.1,24,16.1,39.4c0,15.3-5.4,28.4-16.1,39.3
		c-10.7,10.8-23.6,16.3-38.8,16.3c-15.2,0-28.1-5.4-38.9-16.3c-10.7-10.9-16.1-24-16.1-39.3c0-15.4,5.3-28.5,16.1-39.4
		C483,939,496,933.7,511.2,933.7 M511.2,1014.2c6.7,0,12.3-2.4,17-7.2c4.7-4.9,7.1-10.8,7.1-17.7s-2.4-12.9-7.1-17.8
		c-4.7-4.8-10.4-7.2-17-7.2c-6.7,0-12.4,2.4-17.1,7.2c-4.8,4.9-7.1,10.9-7.1,17.8c0,6.9,2.4,12.8,7.1,17.7
		C498.8,1011.9,504.5,1014.2,511.2,1014.2"/>
	<path class="st17" d="M239,994c-0.1,1-0.2,1.5-0.5,2.4c-1.7,6.5-5.4,11.3-11.1,14.6c-5.8,3.3-11.9,4-18.4,2.2
		c-3.5-1-6.6-2.6-9.2-4.8l67.1-38.7l-4.5-7.7c-7.7-13.3-18.9-22-33.6-26.1c-14.7-4-28.6-2.3-41.6,5.3c-13.2,7.6-21.7,18.7-25.5,33.5
		s-1.9,28.8,5.8,42.1c7.6,13.3,18.8,21.9,33.5,26c14.7,4,28.6,2.3,41.7-5.3c13.1-7.5,21.6-18.4,25.4-33.1c1-3.6,1.6-6.3,1.8-10.3
		L239,994L239,994z M202.5,967.8c5.8-3.3,11.9-4.1,18.3-2.3c0.9,0.3,1.7,0.6,2.6,0.9l-32.6,18.8c0.1-0.9,0.3-1.8,0.5-2.7
		C193,976,196.7,971,202.5,967.8z"/>
	<g>
		<path class="st17" d="M145.6,971H91.3h-0.9l17.4,23.6c-2.6,3.6-5.6,6.7-9.2,9.3c-6.9,5-15.3,7.8-24.3,7.8l0,0
			c-10,0-17.9-2.9-24.7-7.9c-7.1-5.1-12.6-12.4-15.4-20.9c-1.3-4.1-2.1-8.4-2.1-12.9s0.7-8.9,2-12.9c2.8-8.5,8.1-15.4,15.2-20.5
			c6.9-5,15.2-7.5,24.5-7.5l0,0c9.3,0,17.7,2.6,24.6,7.6c4.7,3.4,8.6,7.6,11.6,12.6l28.5-16.8c-5.2-9-12.3-16.9-20.7-23
			c-12.3-9-27.5-14.5-44-14.5c-16.4,0-31.6,5.4-43.9,14.4c-12.6,9.2-22.3,22.3-27.2,37.5c-2.5,7.1-3.8,14.9-3.8,23
			s1.3,15.9,3.7,23.2c4.9,15.2,14.3,28.2,27,37.4c12.3,9,28.7,14.2,43.7,14.2l0,0c17,0,32-5.3,44.4-14.3c12.6-9.2,22.4-21.9,27.3-37
			c2.3-7.2,3.6-14.4,3.7-22.4L145.6,971L145.6,971z"/>
		<path class="st17" d="M101,947.5l-27.3,16l-43.2-25.4c-1.1,1.6-2.1,3.2-3.1,4.9l46.3,27.2l30.4-17.8
			C103.2,950.9,102.1,949.2,101,947.5z"/>
	</g>
	<rect x="369.2" y="933" class="st17" width="75" height="31"/>
	<path class="st17" d="M630.2,933c-7.5,0-14.4,1.6-21.2,4.8c-5.1,2.9-30.9,13.1-30.9,53.6v53.6h31v-55.9c0-6.9,2-12.8,6.1-17.8
		c4.2-4.9,9-7.3,14.9-7.3h16v-31H630.2z"/>
	<path class="st17" d="M426.1,1006.2c0,0.2-1,0.7-1,0.9c0,1.2-1.4,1.9-1.9,2.9c-1.1,2-3.1,3.3-5.6,3.3c-3.4,0-6.4-2.6-6.4-5.9V895
		h-31v114H380c1,20,17.4,35.5,37.5,35.5c15.2,0,28.3-9.2,34.2-22.2L426.1,1006.2z"/>
</g>
<g>
	<path class="st19" d="M840.2,895L840.2,895h-22.6l-63.4,93.3v25.7h64v31h31V895H840.2z M817.2,984h-22l22-32.7V984z"/>
	<path class="st19" d="M740.7,979.2c1.9-2,3.6-4,5.1-5.7c7.8-9.9,11.9-20.3,12.1-31.1c0-13-4.8-24.2-14.3-33.4
		c-9.6-9.3-21.1-14-34.5-14c-13,0-24,4.6-33.2,13.9c-9.3,9.2-13.7,20.4-13.7,33.4v5.8h31v-5.8c0-4.3,1.6-8,4.7-11.1
		c3.1-3.1,6.9-4.6,11.2-4.6c4.8,0,8.9,1.5,12.3,4.5c3.3,3.1,5,6.8,5,11.2c0,3.4-1.1,6.8-3.8,10.1l-60.4,67.3v25.3h84.1l0,0h7.9v-31
		h-43.9L740.7,979.2z"/>
	<path class="st19" d="M923.1,937.9c-6.7-3.2-14-4.8-21.5-4.8h-11.4v-38h-29.3h-1.7v150h1.7h29.3v-81h11.4c5.9,0,11,2.4,15.2,7.3
		c4.2,4.9,6.4,10.8,6.4,17.8v55.9h31v-53.6C954.2,951,928.2,940.8,923.1,937.9z"/>
</g>
<g>
	<path class="st17" d="M1218.2,1340L1218.2,1340c-9,0-18.4-3.1-25.6-8.3c-7.4-5.4-13-13-15.9-21.8c-1.4-4.3-2.1-8.8-2.1-13.5
		s0.7-9.3,2.1-13.5c2.9-8.9,8.4-16.3,15.8-21.7c7.2-5.2,16.2-8.2,25.5-8.2l0,0c9.8,0,18.5,3,25.7,8.2l20.3-28
		c-12.9-9.4-28.9-15-45.9-15l0,0c-17,0-33,5.5-45.9,14.9c-13.2,9.6-23.3,23.2-28.5,39.1c-2.5,7.6-3.8,15.7-3.8,24.2
		c0,8.4,1.3,16.6,3.8,24.2c5.2,15.9,15.2,29.2,28.4,38.8c12.9,9.4,28.7,14.6,45.8,14.6l0,0c17.1,0,33.1-5.3,46-14.7l-20.3-27.8
		C1236.6,1336.8,1228.2,1340,1218.2,1340z"/>
	<path class="st17" d="M1293.3,1297h-56.8h-1l18.2,24.8c-2.7,3.8-6,7.1-9.8,9.8l20.3,27.9c13.2-9.6,23.2-23.1,28.4-38.9
		c2.4-7.5,3.8-15.6,3.8-23.6L1293.3,1297L1293.3,1297z"/>
	<path class="st17" d="M1255.9,1274.5l29.8-17.4c-5.5-9.4-12.8-17.5-21.6-23.9l-20.3,27.9
		C1248.8,1264.8,1252.9,1269.2,1255.9,1274.5z"/>
	<path class="st17" d="M1246.7,1273l-28.5,16.7l-45.1-26.5c-1.1,1.7-2.2,3.4-3.3,5.1l48.4,28.4l31.8-18.6
		C1249,1276.3,1247.9,1274.6,1246.7,1273z"/>
</g>
<g>
	<rect x="212.5" y="-102.4" class="st0" width="29" height="14"/>
	<rect x="212.5" y="-88.4" class="st4" width="14" height="14"/>
	<rect x="212.5" y="-74.4" class="st4" width="29" height="14"/>
	<rect x="212.5" y="-60.4" class="st4" width="14" height="14"/>
	<rect x="212.5" y="-46.4" class="st4" width="29" height="14"/>
	<rect x="226.5" y="-88.4" class="st0" width="29" height="14"/>
	<rect x="226.5" y="-60.4" class="st0" width="29" height="14"/>
	<rect x="241.5" y="-102.4" class="st4" width="29" height="14"/>
	<rect x="241.5" y="-74.4" class="st4" width="29" height="14"/>
	<rect x="241.5" y="-46.4" class="st4" width="29" height="14"/>
	<rect x="255.5" y="-88.4" class="st4" width="29" height="14"/>
	<rect x="255.5" y="-60.4" class="st4" width="29" height="14"/>
	<rect x="270.5" y="-74.4" class="st0" width="29" height="14"/>
	<rect x="270.5" y="-46.4" class="st0" width="29" height="14"/>
	<rect x="284.5" y="-88.4" class="st4" width="29" height="14"/>
	<rect x="284.5" y="-60.4" class="st4" width="29" height="14"/>
	<rect x="299.5" y="-74.4" class="st4" width="29" height="14"/>
	<rect x="299.5" y="-46.4" class="st4" width="29" height="14"/>
	<rect x="313.5" y="-88.4" class="st0" width="29" height="14"/>
	<rect x="313.5" y="-60.4" class="st0" width="29" height="14"/>
	<rect x="328.5" y="-74.4" class="st4" width="29" height="14"/>
	<rect x="328.5" y="-46.4" class="st4" width="29" height="14"/>
	<rect x="342.5" y="-88.4" class="st4" width="15" height="14"/>
	<rect x="342.5" y="-60.4" class="st4" width="15" height="14"/>
	<path class="st18" d="M318-171.9v1.1l-17,17l-17-17v-1h-3v83h3v-6.9l17-17l17,17v7h3v-83H318z M318-166.9v29.9l-15-15L318-166.9z
		 M318.1-133.4l-16.5,16.5l-16.5-16.5l16.5-16.5L318.1-133.4z M299.1-151.9l-15,15v-30.1L299.1-151.9z M284-99.9v-30.1l15,15
		L284-99.9z M303.1-114.9l15-15v29.9L303.1-114.9z"/>
	<path class="st18" d="M322.4-88.9l-0.5-0.5l16.5-16.5L355-89.4l-0.5,0.5h3.5v-39h-3v1.1l-17,17l-17-17v-1h-3v39H322.4z M355-122.9
		V-93l-15-15L355-122.9z M321-122.9l15,15l-15,15V-122.9z"/>
	<path class="st18" d="M216.9-101.9l-0.5-0.7l16.5-16.6l16.5,16.7l-0.5,0.6h3v-39h-3v0.6l-17,17l-17-17v-0.5h-3v39H216.9z
		 M249-136.4v29.9l-15-15L249-136.4z M215-136.4l15,15l-15,15V-136.4z"/>
</g>
<rect x="94.3" y="-132.4" transform="matrix(0.7071 0.7071 -0.7071 0.7071 -59.2903 -109.1525)" class="st20" width="15.7" height="12.5"/>
<path class="st21" d="M137.1-101c0,0,5.2-16.5-3.4-25.3c-8.6-8.8-18.1-2.3-22.7,2.2c-5.1-5.1-11.1-11-11.1-11s5.5-5.5,6.1-10.8
	c0.8-7.1-7.5-12.5-13.5-9.5c-4.2-4.2-7.7-7.7-7.7-7.7l17.5-17.5l7.2,7.2c0,0-2.7,7,1.3,11.1c5.5,5.5,11.9,1.8,11.9,1.8l17.1,17.1
	c0,0,7.3,9.2,6.9,21.5C146.2-109.6,140.2-102.5,137.1-101z"/>
<path class="st22" d="M285.5,274.3l9.3-9.3c0.7-0.7,0.7-1.8,0-2.5L217,184.8c-0.7-0.7-1.8-0.7-2.5,0l-9.3,9.3
	c-0.7,0.7-0.7,1.8,0,2.5l77.7,77.7C283.6,275,284.8,275,285.5,274.3z"/>
<path class="st2" d="M286.5,268l1.9-1.9c1-1,1-2.5,0-3.5l-71.5-71.5c-1-1-2.5-1-3.5,0l-1.9,1.9c-1,1-1,2.5,0,3.5L283,268
	C284,269,285.5,269,286.5,268z"/>
<path class="st4" d="M319.9,268.9l-13.1-13.1c-2.3-2.3-5.8-3.2-8.9-2.3l-15.3,4.3c-1.6,0.5-3.3,2.2-3.8,3.8l-4.3,15.3
	c-0.9,3.2,0,6.6,2.3,8.9l13.1,13.1c0.5,0.5,1.3,0.7,2,0.5l6.7-1.9c1.6-0.4,2-2.4,0.8-3.5c-3.8-3.5-10.3-9.8-11.1-13
	c-0.8-3.2,2.2-7.2,4.2-9.4c2.2-2,6.2-4.9,9.4-4.2c3.3,0.8,9.5,7.3,13,11.1c1.1,1.2,3.1,0.7,3.5-0.8l1.9-6.7
	C320.6,270.2,320.4,269.4,319.9,268.9z"/>
<path class="st4" d="M319.9,268.9l-13.1-13.1c-2.3-2.3-5.8-3.2-8.9-2.3l-15.3,4.3c-1.6,0.5-3.3,2.2-3.8,3.8l-4.3,15.3
	c-0.9,3.2,0,6.6,2.3,8.9l13.1,13.1c0.5,0.5,1.3,0.7,2,0.5l6.7-1.9c1.6-0.4,2-2.4,0.8-3.5c-3.8-3.5-10.3-9.8-11.1-13
	c-0.8-3.2,2.2-7.2,4.2-9.4c2.2-2,6.2-4.9,9.4-4.2c3.3,0.8,9.5,7.3,13,11.1c1.1,1.2,3.1,0.7,3.5-0.8l1.9-6.7
	C320.6,270.2,320.4,269.4,319.9,268.9z"/>
<path class="st4" d="M175.6,184.6l13.1,13.1c2.3,2.3,5.8,3.2,8.9,2.3l15.3-4.3c1.6-0.5,3.3-2.2,3.8-3.8l4.3-15.3
	c0.9-3.2,0-6.6-2.3-8.9l-13.1-13.1c-0.5-0.5-1.3-0.7-2-0.5l-6.7,1.9c-1.6,0.4-2,2.4-0.8,3.5c3.8,3.5,10.3,9.8,11.1,13
	c0.8,3.2-2.2,7.2-4.2,9.4c-2.2,2-6.2,4.9-9.4,4.2c-3.3-0.8-9.5-7.3-13-11.1c-1.1-1.2-3.1-0.7-3.5,0.8l-1.9,6.7
	C174.9,183.2,175.1,184,175.6,184.6z"/>
<path class="st23" d="M11.9-47l11,11c1.5,1.5,3.9,1.5,5.4,0l74.8-74.8c1.5-1.5,1.5-3.9,0-5.4l-11-11c-1.5-1.5-3.9-1.5-5.4,0
	L11.9-52.4C10.4-50.9,10.4-48.5,11.9-47z"/>
<path class="st20" d="M21.8-49.4l3.6,3.6c1,1,2.7,1,3.7,0l64.3-64.3c1-1,1-2.7,0-3.7l-3.6-3.6c-1-1-2.7-1-3.7,0L21.8-53.1
	C20.8-52.1,20.8-50.4,21.8-49.4z"/>
<rect x="267.7" y="163.4" transform="matrix(0.7071 0.7071 -0.7071 0.7071 222.262 -132.9892)" class="st4" width="7.9" height="76.8"/>
<path class="st4" d="M175,287.4l11.1,11.1c1.3,1.3,3.4,1.3,4.7,0l59.3-59.3c1.3-1.3,1.3-3.4,0-4.7L239,223.4c-1.3-1.3-3.4-1.3-4.7,0
	L175,282.7C173.7,284,173.7,286.1,175,287.4z"/>
<path class="st0" d="M183.5,286.2l3.8,3.8c0.9,0.9,2.3,0.9,3.2,0l51-51c0.9-0.9,0.9-2.3,0-3.2l-3.8-3.8c-0.9-0.9-2.3-0.9-3.2,0
	l-51,51C182.6,283.9,182.6,285.3,183.5,286.2z"/>
<rect x="-187" y="210.9" class="st4" width="38.6" height="65.9"/>
<rect x="-161.5" y="244.8" class="st4" width="8" height="1.8"/>
<rect x="-137.7" y="151.9" class="st0" width="19.3" height="8.3"/>
<line class="st6" x1="-96.7" y1="203.1" x2="-112.1" y2="191.9"/>
<path class="st24" d="M39.7,189.4h103.1c3.1,0,5.5,2.5,5.5,5.5v63.3c0,3.1-2.5,5.5-5.5,5.5H39.7V189.4z"/>
<path class="st24" d="M39.7,189.4H5.3c-1.8,0-3.3,1.5-3.3,3.3v67.9c0,1.8,1.5,3.3,3.3,3.3h34.4V189.4z"/>
<path class="st24" d="M39.7,189.4H3.6c-0.9,0-1.6,0.7-1.6,1.6v8.7c0,4.4,3.5,7.9,7.9,7.9h29.8V189.4z"/>
<path class="st24" d="M138.9,181.2h-14.1c-1.7,0-3.2,1.4-3.2,3.2v5.1H142c0,0,0.1,0,0.1-0.1v-5C142.1,182.6,140.7,181.2,138.9,181.2
	z"/>
<path class="st24" d="M44.2,181.2H25.4c-2,0-3.6,1.6-3.6,3.6v4.7h25.9c0,0,0.1,0,0.1-0.1v-4.6C47.7,182.7,46.1,181.2,44.2,181.2z"/>
<path class="st24" d="M101.4,167.2H68c-4.5,0-8.1,3.6-8.1,8.1v14.1h49.4c0.1,0,0.2-0.1,0.2-0.2v-13.9
	C109.5,170.8,105.9,167.2,101.4,167.2z"/>
<path class="st25" d="M100.6,172.4H69c-1.8,0-3.3,1.5-3.3,3.3v13.7h37.9c0.1,0,0.2-0.1,0.2-0.2v-13.7
	C103.7,173.8,102.3,172.4,100.6,172.4z"/>
<path class="st4" d="M-263.8,104.8h-0.8c-4,0-7.2-3.2-7.2-7.2v-1.2c0-0.2,0.1-0.3,0.3-0.3h14.4c0.2,0,0.3,0.1,0.3,0.3v1.5
	C-256.8,101.7-259.9,104.8-263.8,104.8z"/>
<rect x="-278.5" y="125.4" class="st0" width="28.4" height="4.8"/>
<rect x="-286.3" y="130.2" class="st0" width="44.1" height="4.8"/>
<path class="st4" d="M-302.1,94.2c0-9.4-6.9-21.7-19.6-21.7c-4.8,6.6-10.6,7.6-13.1,7.6l0,0c0,0-0.2,0-0.6,0c-0.4,0-0.6,0-0.6,0l0,0
	c-2.5-0.1-8.4-1-13.1-7.6c-12.5,0-19.6,11.2-19.6,21c0,8.6,4.9,13.1,4.9,13.1s-2,10.2-2,18.9c4.4,6.4,17.1,11.6,27.9,11.6
	c0.6,0.1,4.6,0.1,5.2,0c11.7,0,23.5-5.2,27.9-11.6c0-5.6-0.9-11.9-1.5-15.6c1.6-1.6,4.1-5,4.1-5s-0.6-1.4-1.5-2.9
	C-302.8,99.9-302.1,97.3-302.1,94.2z"/>
<g>
	<path class="st0" d="M-348.4,87.7l1.1-12.7c0,0,4,4.7,9.9,5C-340.5,82.4-348.4,87.7-348.4,87.7z"/>
	<path class="st0" d="M-322.4,87.7l-1.1-12.7c0,0-4,4.7-9.9,5C-330.3,82.4-322.4,87.7-322.4,87.7z"/>
</g>
<path class="st4" d="M-364.5,105.8c0,0,10.5,15.2,30,15.2s29.6-12.5,32.5-16.3c-2.8-5.5-12.5-12.7-12.5-12.7s-5.2,11.7-19.4,11.7
	c-14.2,0-19.2-11-19.2-11"/>
<path class="st4" d="M-311.3,94.6c0,0,3.4-4.9,4-7.8c0.6-2.9,4-4.5,5.8-1.9c1.8,2.6,1.6,3.5,1.6,3.5l4.6-4.6c0,0,5.9,5.2,1.2,11.4
	c-3.2,4.4-7,5.8-9.8,6.9C-306.8,98.5-311.3,94.6-311.3,94.6z"/>
<path class="st4" d="M-314.3,43.9c-0.4,0-0.8,0-1.1,0.1c-1.7-11.4-9.5-20.1-19.1-20.4c-10.1-0.4-18.7,8.6-20.8,20.6
	c-0.4-0.2-0.9-0.3-1.4-0.4c-2.4-0.1-4.4,2.3-4.5,5.3c-0.1,3,1.7,5.6,4.1,5.6c0.6,0,1.2-0.1,1.7-0.4c1.7,11.5,9.5,20.3,19.1,20.6
	c10,0.4,18.6-8.4,20.8-20.4c0.3,0.1,0.6,0.1,0.9,0.1c2.4,0.1,4.4-2.3,4.5-5.3C-310,46.5-311.9,44-314.3,43.9z"/>
<path class="st0" d="M-355.3,44.1c0,0,3.3-13,16-7.7c9.8,4,19.7,9.6,26.9,0.8c6.1-7.5,3.5-22-10.1-25.1c2.1,8.3-6.6,11.5-11.8,9.5
	c-3.8-1.5-18.2-5.2-24,3.9C-364.1,34.5-358.8,41.9-355.3,44.1z"/>
<line class="st4" x1="-335.4" y1="81" x2="-335.4" y2="103.6"/>
<line class="st4" x1="-335.4" y1="121.1" x2="-335.4" y2="136.7"/>
<path class="st4" d="M-329.6,66.2c-0.9,1.8-3.3,3.1-6.2,3.1c-2.7,0-5-1.2-6-2.8"/>
<g>
	<line class="st4" x1="-329" y1="50.1" x2="-322.4" y2="50.1"/>
	<line class="st4" x1="-349" y1="50.1" x2="-342.4" y2="50.1"/>
</g>
<rect x="-295" y="75.7" class="st4" width="61.1" height="6.7"/>
<rect x="-295" y="58.5" class="st4" width="61.1" height="6.7"/>
<rect x="-295" y="41.2" class="st4" width="61.1" height="6.7"/>
<rect x="-278.2" y="31.5" transform="matrix(0.7071 0.7071 -0.7071 0.7071 -35.6577 214.971)" class="st4" width="1.8" height="65.8"/>
<rect x="-659.6" y="108.5" transform="matrix(0.7071 -0.7071 0.7071 0.7071 -302.1772 -411.3425)" class="st8" width="24" height="101.3"/>
<rect x="-657.2" y="114.3" transform="matrix(0.7071 -0.7071 0.7071 0.7071 -308.0146 -413.7604)" class="st8" width="7.4" height="101.3"/>
<g>
	<line class="st8" x1="-612.5" y1="186.3" x2="-607.9" y2="181.8"/>
	<line class="st8" x1="-616.7" y1="182.1" x2="-612.1" y2="177.6"/>
	<line class="st8" x1="-620.9" y1="177.9" x2="-616.3" y2="173.4"/>
	<line class="st8" x1="-625" y1="173.8" x2="-620.5" y2="169.2"/>
	<line class="st8" x1="-629.2" y1="169.6" x2="-624.7" y2="165"/>
	<line class="st8" x1="-633.4" y1="165.4" x2="-628.9" y2="160.9"/>
	<line class="st8" x1="-637.6" y1="161.2" x2="-633.1" y2="156.7"/>
	<line class="st8" x1="-641.8" y1="157" x2="-637.2" y2="152.5"/>
	<line class="st8" x1="-646" y1="152.8" x2="-641.4" y2="148.3"/>
	<line class="st8" x1="-650.1" y1="148.7" x2="-645.6" y2="144.1"/>
	<line class="st8" x1="-654.3" y1="144.5" x2="-649.8" y2="139.9"/>
	<line class="st8" x1="-658.5" y1="140.3" x2="-654" y2="135.8"/>
	<line class="st8" x1="-662.7" y1="136.1" x2="-658.2" y2="131.6"/>
	<line class="st8" x1="-666.9" y1="131.9" x2="-662.3" y2="127.4"/>
	<line class="st8" x1="-671.1" y1="127.7" x2="-666.5" y2="123.2"/>
	<line class="st8" x1="-675.2" y1="123.6" x2="-670.7" y2="119"/>
</g>
<path class="st4" d="M-83.5-174.6c0,0,3,38.6,43.8,48.9C-50-115.2-61.6-85.3-61.6-48c16.9,0,32.6,0,32.6,0v-86.4
	c0,0,1.3-18.2-17.5-37C-63.1-187.2-83.5-187-83.5-187V-174.6z"/>
<path class="st3" d="M-39.6-48v-79.6c0,0,1-16.8-13.9-34.1C-66.7-176.3-83-176.1-83-176.1"/>
<path class="st4" d="M-83.5-174.6c0,0-3,38.6-43.8,48.9c10.3,10.5,21.9,40.4,21.9,77.7c-16.9,0-32.6,0-32.6,0v-86.4
	c0,0-1.3-18.2,17.5-37C-104-187.2-83.5-187-83.5-187V-174.6z"/>
<path class="st3" d="M-127.7-48v-79.6c0,0-1-16.8,13.9-34.1c13.2-14.6,29.5-14.4,29.5-14.4"/>
<path class="st4" d="M-72.5-70.3h-22c-1.3,0-2.4-1.1-2.4-2.4v-7.6c0-1.3,1.1-2.4,2.4-2.4h22c1.3,0,2.4,1.1,2.4,2.4v7.6
	C-70.1-71.4-71.1-70.3-72.5-70.3z"/>
<path class="st2" d="M-71.6-76.1h-23.7v-4.2c0-0.7,0.6-1.3,1.3-1.3h21.1c0.7,0,1.3,0.6,1.3,1.3V-76.1z"/>
<path class="st0" d="M-71.5-48h-24c-0.8,0-1.4-0.6-1.4-1.4v-1.4c0-0.8,0.6-1.4,1.4-1.4h24c0.8,0,1.4,0.6,1.4,1.4v1.4
	C-70.1-48.6-70.7-48-71.5-48z"/>
<rect x="-92.5" y="-63.4" transform="matrix(-1.836970e-16 1 -1 -1.836970e-16 -144.7502 22.1971)" class="st4" width="18" height="4.3"/>
<path class="st0" d="M-76-194.5c-5.3-1.7-7.6,2.6-7.6,2.6s-2.3-4.3-7.6-2.6c-5.3,1.7-5.1,7.7-3.3,10.9c1.7,3.2,5.3,6.7,10.7,7.4
	c0.1-0.1,0.3-0.1,0.4,0c5.4-0.7,9-4.3,10.7-7.4C-70.9-186.7-70.7-192.7-76-194.5z"/>
<path class="st7" d="M-291-62.5h-35.4c0,0-3-45.6,6.4-67.6c3.5-6.4,5.1-5.8,8.5-4.7c3.4,1.1,20.5,7.4,20.5,38.2
	c4.5,0.4,8.9,0.1,8.9,0.1s1.7,8.3,0,14.9c-3.8,0.4-9.2,0.3-9.2,0.3S-292-70.2-291-62.5z"/>
<path class="st26" d="M-301.5-118.8c0,0-2.1,21.8,10.5,22.1"/>
<path class="st26" d="M-317.1-115.3c0,0-1.9,25.6,8.9,29.9c10.8,4.4,16.9,4,16.9,4"/>
<path class="st7" d="M-281.6-93.8c0,0,20.9-3.9,22.4,2.6c-8.5,3.3-22.4,8.9-22.4,8.9S-280.8-89.8-281.6-93.8z"/>
<rect x="-262.1" y="-119.2" transform="matrix(0.3733 0.9277 -0.9277 0.3733 -243.6401 184.9624)" class="st7" width="6.7" height="62.8"/>
<polygon class="st7" points="-283,-74.5 -233.8,-94.3 -233.8,-32.5 -283,-32.5 "/>
<path class="st7" d="M-324.1-62.5c9.3,0,32,0,32,0v30h-27.2v-14.7C-319.3-47.2-324.1-55.5-324.1-62.5z"/>
<rect x="-250.5" y="-121.4" transform="matrix(0.918 0.3967 -0.3967 0.918 -66.3592 85.2733)" class="st7" width="22.4" height="7.1"/>
<circle class="st27" cx="-255.9" cy="-124.9" r="7.5"/>
<path class="st7" d="M-300.8-127.9c0,0-1-7,0.4-10.8c2.3,0.7,8.9,2,10.3-3.1c1-3.4,0.6-7,0.6-7l2.7-0.3c0.7-0.1,1.2-0.8,0.9-1.5
	l-3.1-8.7c0,0,1.8-4.8-0.2-9.1c-3.2-1.8-23.9-2.1-23.9-2.1s-6.7,2.2-4.4,9.1c-1.7-0.4-1.7,4.5-0.4,9.1c1.2,4.2,5.5,3.9,5.5,3.9
	l-2.2,12.4C-314.7-136-307.1-134.6-300.8-127.9z"/>
<path class="st27" d="M-309.6-156.5c0,0,1.1-4.5,3.3-6.8c4.8,1.9,19.4,1.5,23.3-12.5c-3.4,2.1-10.8,2.7-16.5-1.1
	c-5.7-3.8-16.8-3-21.1,4.6c-3.2,5.7-3,13.2-2.5,17.3c0.5,4.1,3.2,9.9,9.8,10.8c1-5.3,1.2-6.5,1.2-6.5s-3.9,0.5-4.7-4
	c-0.9-4.6,2.1-5.8,3.8-5.6C-311.4-160.2-311.7-157.1-309.6-156.5z"/>
<path class="st7" d="M-307.6-144.6c0,0,1.5,4.7,7.1,5.9"/>
<path class="st28" d="M491.6-20.2l3.6-8.8c0.4-1.1,1.6-1.7,2.8-1.3l4.5,1.4c0,0,12.2,3.2,12.2-7.1v-12c0-1.2,1-2.3,2.3-2.3h0.8
	c1.7,0,2.8-1.9,2-3.4l-5.7-10.3c-0.2-0.3-0.3-0.7-0.3-1.1v-6.1c0-0.1,0-0.1,0-0.2c0-0.6,0.3-5.4-1.8-9.4c-0.4-0.8-0.3-1.8,0.3-2.5
	c3-3.7-5.9-11.2-11.3-11.2c-5.9,0-14.5,0-14.5,0S460-94.1,460-67.8c0,9.5,2.7,14.5,6.6,18.3c0.7,0.7,0.9,1.8,0.4,2.7
	c-1.7,3.1-3.5,6.4-4.6,8.3c-0.6,1-0.2,2.3,0.7,3l25.1,16.3C489.5-18.4,491.1-18.9,491.6-20.2z"/>
<path class="st24" d="M531-149h-46c-1.8,0-3.3,1.5-3.3,3.3v33.1c0,1.8,1.5,3.3,3.3,3.3h31.5v10.7l10.6-10.7h4c1.8,0,3.3-1.5,3.3-3.3
	v-33.1C534.4-147.5,532.9-149,531-149z"/>
<path class="st29" d="M530.9-155h40c1.6,0,2.9,1.3,2.9,2.9v28.8c0,1.6-1.3,2.9-2.9,2.9h-27.4v9.3l-9.2-9.3h-3.5
	c-1.6,0-2.9-1.3-2.9-2.9v-28.8C528-153.7,529.3-155,530.9-155z"/>
<polygon class="st4" points="-58.2,64.6 -33.9,73.9 -33.9,28.2 -58.2,37.5 "/>
<path class="st4" d="M-112.2,16.7c-0.8-0.1-7.7-0.1-8.5-0.1c-19,0-34.4,15.4-34.4,34.4s15.4,34.4,34.4,34.4c0.8,0,7.7,0,8.5-0.1
	l54-20.7V37.5L-112.2,16.7z"/>
<g>
	<line class="st4" x1="-27.4" y1="62.6" x2="-9.3" y2="62.6"/>
	<line class="st4" x1="-27.4" y1="51" x2="-9.3" y2="51"/>
	<line class="st4" x1="-27.4" y1="39.5" x2="-9.3" y2="39.5"/>
</g>
<circle class="st25" cx="132.5" cy="206.4" r="7"/>
<circle class="st24" cx="87.8" cy="232.4" r="36.1"/>
<circle class="st25" cx="87.8" cy="232.4" r="25.6"/>
<circle cx="87.8" cy="232.4" r="12"/>
<image style="overflow:visible;" width="980" height="980" xlink:href="D9475A04.jpg"  transform="matrix(0.1635 0 0 0.1635 407.6328 8.9643)">
</image>
<circle class="st0" cx="293" cy="49.8" r="7.9"/>
<circle class="st0" cx="242.7" cy="82.7" r="19.3"/>
<circle class="st4" cx="-167.7" cy="184.5" r="11.7"/>
<path class="st4" d="M242.1,51.7c17.3,0,31.3,14,31.3,31.3"/>
<path class="st0" d="M228.1,15.3h28c2.9,0,5.6,1.5,7.2,4l8.5,13.5h-59.1l8.6-13.6C222.7,16.8,225.3,15.3,228.1,15.3z"/>
<path class="st4" d="M235.1,24.1h14c1.5,0,2.8,0.7,3.6,2l4.2,6.8h-29.6l4.3-6.8C232.4,24.8,233.7,24.1,235.1,24.1z"/>
<path class="st0" d="M199.7,23.6h-8.8c-2,0-3.7,1.6-3.7,3.7v5.6h16.1v-5.6C203.3,25.2,201.7,23.6,199.7,23.6z"/>
<line class="st4" x1="183" y1="46.3" x2="199.8" y2="46.3"/>
<line class="st4" x1="183" y1="53" x2="199.8" y2="53"/>
<path class="st4" d="M223.3,58.8"/>
<path class="st2" d="M-153.5,50.6c0,18.4,14.9,33.3,33.3,33.3c0.8,0,7.5,0,8.2-0.1l52.3-20.1V50.6H-153.5z"/>
<circle class="st4" cx="-119.8" cy="51" r="19"/>
<g>
	<line class="st4" x1="-137.3" y1="44.3" x2="-102.1" y2="44.3"/>
	<line class="st4" x1="-137.3" y1="57.8" x2="-102.1" y2="57.8"/>
</g>
<path class="st2" d="M316.5,277.7c-0.1,0-0.3,0-0.5-0.2c-6.3-7-10.9-10.9-13.7-11.5c-0.4-0.1-0.9-0.2-1.4-0.2
	c-2.9,0-6.2,1.9-8.6,3.8l-10.1-10.1c0.3-0.2,0.4-0.4,0.7-0.5l15.2-4.3c0.7-0.2,1.4-0.3,2.1-0.3c2.1,0,4,0.8,5.5,2.3l13.1,13.1
	c0.2,0.2,0.3,0.5,0.2,0.7l-1.9,6.7C317.1,277.6,316.7,277.7,316.5,277.7L316.5,277.7z"/>
<path class="st2" d="M178.9,175.7c0.1,0,0.3,0,0.5,0.2c6.3,7,10.9,10.9,13.7,11.5c0.4,0.1,0.9,0.2,1.4,0.2c2.9,0,6.3-1.8,9.5-4.5
	l10.1,10.2c-0.3,0.4-1.1,0.9-1.7,1.2l-15.2,4.3c-0.7,0.2-1.4,0.3-2.1,0.3c-2.1,0-4-0.8-5.5-2.3l-13.1-13.1c-0.2-0.2-0.3-0.5-0.2-0.7
	l1.9-6.7C178.3,175.9,178.7,175.7,178.9,175.7L178.9,175.7z"/>
<path class="st2" d="M-87.4-164.2c-15.2,1.4-27.2,14.3-27.2,29.9c0,0.8,0,1.5,0.1,2.3C-97.9-140.5-90.6-154.6-87.4-164.2z"/>
<path class="st2" d="M-79.8-164.4c15.2,1.4,27.2,14.3,27.2,29.9c0,0.8,0,1.5-0.1,2.3C-69.4-140.7-76.7-154.8-79.8-164.4z"/>
<polygon class="st2" points="-235.3,-92 -263.9,-80.5 -263.9,-34 -235.3,-34 "/>
<path class="st2" d="M-322.8-61c0.4,6.4,4.8,13.7,4.8,13.7v13.3h13.7v-27C-310.6-61-318.5-61-322.8-61z"/>
<path class="st30" d="M479.5-63.5c0,0,3.1-6.8,7-10.9c7.3,2.9,27.3,2.7,37.1-13.2c1.8-3-0.7-6.7-4.1-6.2c-6.3,0.9-14.3-0.1-21-4.5
	c-10.1-6.7-29.5-5.3-37,8.1c-5.6,10-4.7,25.2-3.5,29.6c1.3,4.8,4,9.8,9.1,13.7c3.9,3,7.7,2.9,8.6-1.9l0.7-3.7c0,0-6.8,0.9-8.3-7.1
	s3-10.4,6-10C477.9-69,477.5-64.6,479.5-63.5z"/>
<path class="st28" d="M565.8-20.2l-3.6-8.8c-0.4-1.1-1.6-1.7-2.8-1.3l-4.5,1.4c0,0-12.2,3.2-12.2-7.1v-12c0-1.2-1-2.3-2.3-2.3h-0.8
	c-1.7,0-2.8-1.9-2-3.4l5.7-10.3c0.2-0.3,0.3-0.7,0.3-1.1v-6.1c0-0.1,0-0.1,0-0.2c0-0.6-0.3-5.4,1.8-9.4c0.4-0.8,0.3-1.8-0.3-2.5
	c-3-3.7,5.9-11.2,11.3-11.2c5.9,0,14.5,0,14.5,0s26.4,0.3,26.4,26.6c0,9.5-2.7,14.5-6.6,18.3c-0.7,0.7-0.9,1.8-0.4,2.7
	c1.7,3.1,3.5,6.4,4.6,8.3c0.6,1,0.2,2.3-0.7,3l-25.1,16.3C567.9-18.4,566.3-18.9,565.8-20.2z"/>
<path class="st30" d="M577.9-63.5c0,0-3.1-6.8-7-10.9c-7.3,2.9-27.3,2.7-37.1-13.2c-1.8-3,0.7-6.7,4.1-6.2c6.3,0.9,14.3-0.1,21-4.5
	c10-6.7,29.5-5.3,37,8.1c5.6,10,4.7,25.2,3.5,29.6c-1.3,4.8-4,9.8-9.1,13.7c-3.9,3-7.7,2.9-8.6-1.9l-0.7-3.7c0,0,6.8,0.9,8.3-7.1
	s-3-10.4-6-10C579.5-69,579.9-64.6,577.9-63.5z"/>
<line class="st4" x1="-167.7" y1="173.5" x2="-167.7" y2="195.5"/>
<line class="st4" x1="-156.7" y1="184.5" x2="-178.7" y2="184.5"/>
<polygon class="st0" points="295.1,184.3 289.1,178.3 295.6,164.5 310.5,153.7 319.8,163 308.9,177.9 "/>
<rect x="-507.8" y="-31.2" class="st5" width="88.9" height="14"/>
<rect x="-506.2" y="-29.7" class="st2" width="85.7" height="5.5"/>
<rect x="-467" y="-17.2" class="st31" width="7.5" height="58"/>
<circle class="st31" cx="-523.6" cy="-92.1" r="13.6"/>
<path class="st5" d="M-451.3-17.2c0,0,0,44.4,0,51.1s6.9,6.9,6.9,6.9h6.5l16.5-40c0,0,12,0,19.3,0s8.9-8.9,8.9-8.9s0-52.7,0-57.8
	c0-5.1-5.5-5.5-5.5-5.5s-3.6,0-9.5,0c-13.1,0-13.3,14-13.3,14v26.2h2.5v14H-451.3z"/>
<path class="st2" d="M-399.3-69.9c-0.1,0-0.2,0-0.3,0h-8.4c-6.6,0-9.8,3.9-11,8c0.3,0,0.8,0,1.2,0h8.4c0.1,0,0.1,0,0.2,0
	c0.7,0.1,4.8,0.7,4.8,5.2c0,4.9,0,55.4,0,55.4s0,0.2-0.1,0.6c0.7,0,2,0,2.6,0c6,0,7.3-7.1,7.3-8.4c0-0.1,0-0.2,0-0.3v-56.2
	C-394.6-70-398.6-69.9-399.3-69.9z"/>
<path class="st2" d="M-527.3-69.9c0.1,0,0.2,0,0.3,0h8.4c6.6,0,9.8,3.9,11,8c-0.3,0-0.8,0-1.2,0h-8.4c-0.1,0-0.1,0-0.2,0
	c-0.7,0.1-4.8,0.7-4.8,5.2c0,4.9,0,55.4,0,55.4s0,0.2,0.1,0.6c-0.7,0-2,0-2.6,0c-6,0-7.3-7.1-7.3-8.4c0-0.1,0-0.2,0-0.3v-56.2
	C-532-70-528.1-69.9-527.3-69.9z"/>
<circle class="st31" cx="-404.9" cy="-92.1" r="13.6"/>
<image style="overflow:visible;" width="512" height="512" xlink:href="../../../../../../../Downloads/1244334.png"  transform="matrix(0.2666 0 0 0.2666 -470.6197 175.5492)">
</image>
<path class="st4" d="M677.4,40.6c0,21.3-17.2,52.7-38.5,52.7s-38.5-31.5-38.5-52.7s17.2-38.5,38.5-38.5S677.4,19.3,677.4,40.6z"/>
<path class="st2" d="M646.1,90c-18.8-6.3-25.5-40.6-19.5-60.1c3.7-11.9,13.1-20.8,23.8-24.3c-3.7-1.3-8.1-1.9-12.2-1.9
	c-19.4,0-36.1,16.6-36.1,37.1c0,20.5,16.6,51,36.3,51c2.9,0,5.8-0.4,8.5-1.6C646.6,90.1,646.3,90,646.1,90z"/>
<path class="st4" d="M664.3,21.7c4.4,5.5,7,12.5,7,20.1c0,3.8-0.6,7.9-1.8,12.1"/>
<path class="st4" d="M648.8,10.9c3.8,1.2,7.2,3.1,10.3,5.5"/>
<path class="st4" d="M651.5-60.7h26.6c6,0,10.9,4.9,10.9,10.9v9.3c0,0.9-0.8,1.7-1.7,1.7h-44.9c-1,0-1.9-0.8-1.9-1.9v-9.1
	C640.6-55.8,645.5-60.7,651.5-60.7z"/>
<ellipse class="st4" cx="664.8" cy="-73.3" rx="12.2" ry="14"/>
<path class="st4" d="M700-60.7h26.6c6,0,10.9,4.9,10.9,10.9v9.3c0,0.9-0.8,1.7-1.7,1.7h-44.9c-1,0-1.9-0.8-1.9-1.9v-9.1
	C689-55.8,693.9-60.7,700-60.7z"/>
<ellipse class="st4" cx="713.3" cy="-73.3" rx="12.2" ry="14"/>
<path class="st4" d="M748.5-60.7h26.6c6,0,10.9,4.9,10.9,10.9v9.3c0,0.9-0.8,1.7-1.7,1.7h-44.9c-1,0-1.9-0.8-1.9-1.9v-9.1
	C737.5-55.8,742.4-60.7,748.5-60.7z"/>
<ellipse class="st4" cx="761.8" cy="-73.3" rx="12.2" ry="14"/>
<rect x="680.7" y="-172.3" class="st4" width="105.1" height="75.1"/>
<rect x="685.1" y="-168.2" class="st4" width="96.4" height="66.9"/>
<path class="st4" d="M728.8-151.2h-4.7h-29h-7.2v12.3h31c2.9,0,5.2-2.3,5.2-5.2v-3.3h4.7c1,0,1.9-0.8,1.9-1.9
	C730.7-150.3,729.8-151.2,728.8-151.2z"/>
<circle class="st4" cx="667.1" cy="-166.1" r="12"/>
<path class="st4" d="M714.6-151.2h-33.9h-3.5h-1.9c-1.6,2.8-4.6,4.8-8.1,4.8s-6.5-1.9-8.1-4.8H650c-4.9,0-8.8,4-8.8,8.8v45.2h39.6
	v-38.2h33.9V-151.2z"/>
<line class="st4" x1="655.2" y1="-120.1" x2="655.2" y2="-97.2"/>
<image style="overflow:visible;" width="225" height="225" xlink:href="D9475A0B.jpg"  transform="matrix(0.97 -0.2431 0.2431 0.97 780.8846 46.1714)">
</image>
<rect x="34.1" y="98.2" transform="matrix(0.97 0.2431 -0.2431 0.97 29.229 -6.2031)" class="st0" width="11.3" height="34.1"/>
<path class="st1" d="M82.9,73l7.6-50.3l-51.7-13l-17,47.9c-0.7,1.5-1.2,3.1-1.6,4.8c-4.3,17.1,6.1,34.5,23.2,38.8
	C60.4,105.5,77.7,95.1,82,78C82.4,76.4,82.7,74.7,82.9,73z"/>
<path class="st2" d="M83.3,59.7l-55.7-14L23,58.7c-0.6,1.4-1.1,3-1.5,4.5c-4,16.1,5.9,32.5,22.2,36.6c16.3,4.1,32.8-5.7,36.8-21.8
	c0.4-1.6,0.7-3.2,0.8-4.7L83.3,59.7z"/>
<path class="st1" d="M11.5,122l50,12.5c3.2,0.8,5.2,4.1,4.4,7.3l-1.5,5.9L2.8,132.3c-0.1,0-0.1-0.1-0.1-0.2l1.4-5.7
	C5,123.1,8.2,121.2,11.5,122z"/>
<path class="st2" d="M10.4,123.2l51.4,12.9c2.1,0.5,3.3,2.6,2.8,4.7l-0.3,1.1L5.6,127.2c-0.1,0-0.1-0.1-0.1-0.1l0.3-1
	C6.3,124,8.4,122.7,10.4,123.2z"/>
<path class="st32" d="M128.4,60.7c0.3,8-2.7,15.5-8,20.5c-3.3,3.1-7.4,5.3-12.1,6.1"/>
<path class="st32" d="M126.5,51l0.6,2.2"/>
<line class="st32" x1="42.1" y1="18.3" x2="27" y2="59.8"/>
</svg>
