<?xml version="1.0" encoding="utf-8"?>
<!-- Generator: Adobe Illustrator 26.3.1, SVG Export Plug-In . SVG Version: 6.00 Build 0)  -->
<svg version="1.1" id="Camada_1" xmlns="http://www.w3.org/2000/svg" xmlns:xlink="http://www.w3.org/1999/xlink" x="0px" y="0px"
	 viewBox="0 0 150 150" style="enable-background:new 0 0 150 150;" xml:space="preserve">
<style type="text/css">
	.st0{fill:#FFFFFF;stroke:#0DB14B;stroke-width:2.4094;stroke-linecap:round;stroke-linejoin:round;stroke-miterlimit:10;}
	.st1{fill:#DCF9E4;}
	.st2{fill:#A7EABF;stroke:#0DB14B;stroke-width:2.6825;stroke-linecap:round;stroke-linejoin:round;stroke-miterlimit:10;}
	.st3{fill:#FFFFFF;stroke:#0DB14B;stroke-width:2.6825;stroke-linecap:round;stroke-linejoin:round;stroke-miterlimit:10;}
	.st4{fill:none;stroke:#0DB14B;stroke-width:2.6825;stroke-linecap:round;stroke-linejoin:round;stroke-miterlimit:10;}
	.st5{fill:#A7EABF;stroke:#0DB14B;stroke-width:3;stroke-linecap:round;stroke-linejoin:round;stroke-miterlimit:10;}
	.st6{fill:#FFFFFF;stroke:#0DB14B;stroke-width:2.4963;stroke-linecap:round;stroke-linejoin:round;stroke-miterlimit:10;}
	.st7{fill:#FFFFFF;stroke:#0DB14B;stroke-width:3.2469;stroke-linecap:round;stroke-linejoin:round;stroke-miterlimit:10;}
	.st8{fill:#FFFFFF;stroke:#0DB14B;stroke-width:2.2584;stroke-linecap:round;stroke-linejoin:round;stroke-miterlimit:10;}
	.st9{fill:#FFFFFF;stroke:#0DB14B;stroke-width:3.154;stroke-linecap:round;stroke-linejoin:round;stroke-miterlimit:10;}
	.st10{fill:#A7EABF;stroke:#0DB14B;stroke-width:3.0001;stroke-linecap:round;stroke-linejoin:round;stroke-miterlimit:10.0002;}
	.st11{fill:#FFFFFF;stroke:#0DB14B;stroke-width:2.9314;stroke-linecap:round;stroke-linejoin:round;stroke-miterlimit:10;}
	.st12{fill:none;stroke:#0DB14B;stroke-width:3;stroke-linecap:round;stroke-linejoin:round;stroke-miterlimit:10;}
	.st13{fill:#FFFFFF;stroke:#0DB14B;stroke-width:3;stroke-linecap:round;stroke-linejoin:round;stroke-miterlimit:10;}
	.st14{fill:#FFFFFF;stroke:#0DB14B;stroke-width:2.9909;stroke-linecap:round;stroke-linejoin:round;stroke-miterlimit:10;}
	.st15{fill:#FFFFFF;stroke:#0DB14B;stroke-width:2.9735;stroke-linecap:round;stroke-linejoin:round;stroke-miterlimit:10;}
	.st16{fill:#FFFFFF;stroke:#0DB14B;stroke-width:2.9921;stroke-linecap:round;stroke-linejoin:round;stroke-miterlimit:10;}
	.st17{fill:#FFFFFF;stroke:#000000;stroke-linecap:round;stroke-linejoin:round;stroke-miterlimit:10;}
	.st18{fill:#FFFFFF;stroke:#000000;stroke-width:1;stroke-linecap:round;stroke-linejoin:round;stroke-miterlimit:9.9999;}
	.st19{fill:#A7EABF;stroke:#0DB14B;stroke-width:2.9735;stroke-linecap:round;stroke-linejoin:round;stroke-miterlimit:10;}
	.st20{fill:#233036;}
	.st21{fill:#FECA05;}
	.st22{fill:#E5E3E3;}
	.st23{fill:#FFFFFF;}
	.st24{fill:#F2F2F2;}
	.st25{fill:none;stroke:#004D40;stroke-width:9.5848;stroke-miterlimit:10;}
	.st26{fill:#F4F4F4;}
	.st27{fill:#00AF10;}
	.st28{fill:#333333;}
	.st29{fill:#0DB14B;}
	.st30{fill:#FFFFFF;stroke:#000000;stroke-width:2.668;stroke-linecap:round;stroke-linejoin:round;stroke-miterlimit:9.9999;}
	.st31{fill:#0DB14B;stroke:#000000;stroke-width:2.668;stroke-linecap:round;stroke-linejoin:round;stroke-miterlimit:10;}
	.st32{fill:#FFFFFF;stroke:#0DB14B;stroke-width:2.5408;stroke-linecap:round;stroke-linejoin:round;stroke-miterlimit:10;}
	.st33{fill:#0DB14B;stroke:#000000;stroke-width:2.668;stroke-miterlimit:10;}
	.st34{fill:#FFFFFF;stroke:#000000;stroke-width:2.668;stroke-linecap:round;stroke-linejoin:round;stroke-miterlimit:10;}
	.st35{fill:#FFFFFF;stroke:#0DB14B;stroke-width:3;stroke-linecap:round;stroke-linejoin:round;stroke-miterlimit:9.9999;}
	.st36{fill:#0DB14B;stroke:#000000;stroke-width:2;stroke-miterlimit:10;}
	.st37{fill:#FFFFFF;stroke:#000000;stroke-width:2;stroke-miterlimit:10;}
	.st38{fill:none;stroke:#0DB14B;stroke-width:2.9735;stroke-linecap:round;stroke-linejoin:round;stroke-miterlimit:10;}
	.st39{fill:#FFFFFF;stroke:#0DB14B;stroke-width:2.9735;stroke-linecap:round;stroke-linejoin:round;stroke-miterlimit:9.9999;}
	.st40{fill:none;stroke:#000000;stroke-linecap:round;stroke-linejoin:round;stroke-miterlimit:10;}
	.st41{fill:none;stroke:#0DB14B;stroke-width:2.9921;stroke-linecap:round;stroke-linejoin:round;stroke-miterlimit:10;}
	.st42{fill:#FFFFFF;stroke:#0DB14B;stroke-width:2.9921;stroke-linecap:round;stroke-linejoin:round;stroke-miterlimit:9.9999;}
	.st43{fill:#FFFFFF;stroke:#0DB14B;stroke-width:2.9922;stroke-linecap:round;stroke-linejoin:round;stroke-miterlimit:10.0005;}
	.st44{fill:#A7EABF;stroke:#0DB14B;stroke-width:2.9921;stroke-linecap:round;stroke-linejoin:round;stroke-miterlimit:10;}
	.st45{fill:#FFFFFF;stroke:#000000;stroke-width:2;stroke-linecap:round;stroke-linejoin:round;stroke-miterlimit:10;}
	.st46{fill:#0DB14B;stroke:#000000;stroke-width:2;stroke-linecap:round;stroke-linejoin:round;stroke-miterlimit:10;}
	.st47{fill:#A7EABF;stroke:#0DB14B;stroke-width:2.9909;stroke-linecap:round;stroke-linejoin:round;stroke-miterlimit:10;}
	.st48{fill:none;stroke:#0DB14B;stroke-width:2.3333;stroke-linecap:round;stroke-linejoin:round;stroke-miterlimit:10;}
	.st49{fill:#FFFFFF;stroke:#0DB14B;stroke-width:3.4861;stroke-linecap:round;stroke-linejoin:round;stroke-miterlimit:10;}
	.st50{fill:#A7EABF;stroke:#0DB14B;stroke-width:3.2866;stroke-linecap:round;stroke-linejoin:round;stroke-miterlimit:10;}
	.st51{fill:#FFFFFF;stroke:#0DB14B;stroke-width:4.1045;stroke-linecap:round;stroke-linejoin:round;stroke-miterlimit:10;}
	.st52{fill:#FFFFFF;stroke:#0DB14B;stroke-width:3.2866;stroke-linecap:round;stroke-linejoin:round;stroke-miterlimit:10;}
	.st53{fill:none;stroke:#0DB14B;stroke-width:3.2866;stroke-linecap:round;stroke-linejoin:round;stroke-miterlimit:10;}
	.st54{fill:none;stroke:#0DB14B;stroke-width:3.74;stroke-linecap:round;stroke-linejoin:round;stroke-miterlimit:10;}
	.st55{fill:#F68797;}
	.st56{fill:#ADADAD;}
	.st57{fill:#D81919;}
	.st58{fill:#01A5FC;}
	.st59{fill:#1F4583;}
	.st60{fill:none;stroke:#0DB14B;stroke-width:1.643;stroke-linecap:round;stroke-linejoin:round;stroke-miterlimit:10;}
	.st61{fill:#A7EABF;stroke:#0DB14B;stroke-width:1.643;stroke-linecap:round;stroke-linejoin:round;stroke-miterlimit:10;}
	.st62{fill:#A7EABF;stroke:#0DB14B;stroke-width:1.6285;stroke-linecap:round;stroke-linejoin:round;stroke-miterlimit:10;}
	.st63{fill:#A7EABF;stroke:#0DB14B;stroke-width:2.8271;stroke-linecap:round;stroke-linejoin:round;stroke-miterlimit:10;}
	.st64{fill:none;stroke:#DCF9E4;stroke-miterlimit:10;}
	.st65{fill:none;stroke:#DCF9E4;stroke-width:2;stroke-linecap:round;stroke-linejoin:round;stroke-miterlimit:10;}
	.st66{fill:#A7EABF;stroke:#0DB14B;stroke-width:2.4094;stroke-linecap:round;stroke-linejoin:round;stroke-miterlimit:10;}
	.st67{fill:#FFFFFF;stroke:#0DB14B;stroke-width:2.2844;stroke-linecap:round;stroke-linejoin:round;stroke-miterlimit:10;}
	.st68{fill:none;stroke:#0DB14B;stroke-width:2.8046;stroke-linecap:round;stroke-linejoin:round;stroke-miterlimit:10;}
	.st69{font-family:'VisbyRoundCF-Bold';}
	.st70{font-size:17.9149px;}
	.st71{font-size:23.5488px;}
</style>
<polygon class="st0" points="-194.3,-246 -271.2,-246 -232.8,-268.3 "/>
<polygon class="st1" points="-232.8,-266.9 -266.7,-247.2 -232.8,-247.2 "/>
<path class="st2" d="M-493.6-290.3c0,0-16.2,1.2-18.6,19.9c3.9,9.7,10.7,16.6,2.1,23.7c-7.3,6-21.5,3.5-24.6-9.8
	c8.1,2.1,11.3-6.5,9.3-11.5c-1.4-3.7-7.3-20.2,4.8-28.6C-510.1-303.7-493.6-299.8-493.6-290.3z"/>
<path class="st3" d="M-479.8-239c-3.3-1.5-5.8-4-6.9-7c-2-0.9-4.3-1.4-6.7-1.5c-2.9-0.1-5.6,0.5-8,1.6c-1.1,3-3.6,5.4-6.7,6.8
	c-0.4,1-0.6,2.1-0.6,3.1c-0.3,6.6,6.1,12.2,14.3,12.4c8.2,0.3,14.9-4.9,15.3-11.5C-479.1-236.5-479.3-237.8-479.8-239z"/>
<path class="st3" d="M-480.5-238.7c-4.7,6.2-10.6,7.1-13.1,7.2l0,0l0,0c0,0-0.1,0-0.3,0s-0.3,0-0.3,0l0,0l0,0
	c-2.5-0.1-8.4-1-13.1-7.2c-12.4,0-19.6,10.5-19.6,19.7c0,8,0.6,15.8,2.9,30c4.4,6,17.1,10.9,27.9,10.9c0.2,0,2,0.1,2.2,0.1
	c0.3,0,2.1-0.1,2.2-0.1c10.8,0,23.5-4.9,27.9-10.9c2.2-14,2.9-21.9,2.9-30C-460.9-228.3-468-238.7-480.5-238.7z"/>
<ellipse class="st3" cx="-494.2" cy="-267.4" rx="20.3" ry="22.9"/>
<path class="st2" d="M-492.7-290.3c0,0,16.2,1.2,18.6,19.9c-3.9,9.7-10.7,16.6-2.1,23.7c7.3,6,21.5,3.5,24.6-9.8
	c-8.1,2.1-11.3-6.5-9.3-11.5c1.4-3.7,4.1-22.9-4.8-28.6C-474.7-302.4-492.7-299.8-492.7-290.3z"/>
<path class="st3" d="M-488.5-254.6c-0.9,1.8-3.3,3-6,3c-2.7,0-4.9-1.2-5.9-2.8"/>
<g>
	<line class="st4" x1="-488" y1="-270.4" x2="-481.5" y2="-270.4"/>
	<line class="st4" x1="-507.6" y1="-270.4" x2="-501.1" y2="-270.4"/>
</g>
<path class="st3" d="M-494.2-258.2c0,0,2.3,0.4,4.4-3c-4.1-2.5-4.4-5.9-4.4-8.8"/>
<path class="st3" d="M-386.8-239c-3.3-1.5-5.8-4-6.9-7c-2-0.9-4.3-1.4-6.7-1.5c-2.9-0.1-5.6,0.5-8,1.6c-1.1,3-3.6,5.4-6.7,6.8
	c-0.4,1-0.6,2.1-0.6,3.1c-0.3,6.6,6.1,12.2,14.3,12.4c8.2,0.3,14.9-4.9,15.3-11.5C-386.1-236.5-386.3-237.8-386.8-239z"/>
<path class="st3" d="M-387.5-238.7c-4.7,6.2-10.6,7.1-13.1,7.2l0,0l0,0c0,0-0.1,0-0.3,0c-0.2,0-0.3,0-0.3,0l0,0l0,0
	c-2.5-0.1-8.4-1-13.1-7.2c-12.4,0-19.6,10.5-19.6,19.7c0,8,0.6,15.8,2.9,30c4.4,6,17.1,10.9,27.9,10.9c0.2,0,2,0.1,2.2,0.1
	c0.3,0,2.1-0.1,2.2-0.1c10.8,0,23.5-4.9,27.9-10.9c2.2-14,2.9-21.9,2.9-30C-367.9-228.3-375-238.7-387.5-238.7z"/>
<ellipse class="st5" cx="-401.2" cy="-267.4" rx="20.3" ry="22.9"/>
<path class="st3" d="M-401.2-278.6c-5.8,0-11.2-1.1-15.8-3.1c-2.8,3.9-4.5,8.9-4.5,14.3c0,12.6,9.1,22.9,20.3,22.9
	c11.2,0,20.3-10.2,20.3-22.9c0-5.4-1.7-10.4-4.5-14.3C-390-279.8-395.4-278.6-401.2-278.6z"/>
<path class="st3" d="M-395.5-254.6c-0.9,1.8-3.3,3-6,3c-2.7,0-4.9-1.2-5.9-2.8"/>
<g>
	<line class="st4" x1="-395" y1="-270.4" x2="-388.5" y2="-270.4"/>
	<line class="st4" x1="-414.6" y1="-270.4" x2="-408.1" y2="-270.4"/>
</g>
<path class="st3" d="M-401.2-258.2c0,0,2.3,0.4,4.4-3c-4.1-2.5-4.4-5.9-4.4-8.8"/>
<path class="st6" d="M-629.2-37.6c-3.7-1.7-6.5-4.5-7.7-7.8c-2.2-1-4.8-1.6-7.5-1.7c-3.2-0.1-6.3,0.6-8.9,1.8c-1.2,3.3-4,6-7.5,7.6
	c-0.4,1.1-0.7,2.3-0.7,3.5c-0.3,7.4,6.8,13.6,16,13.9c9.2,0.3,16.7-5.5,17.1-12.9C-628.5-34.8-628.7-36.2-629.2-37.6z"/>
<path class="st7" d="M-630-35.3c-5.3,6.9-11.9,7.9-14.7,8l0,0l0,0c0,0-0.1,0-0.3,0s-0.3,0-0.3,0l0,0l0,0c-2.8-0.1-9.4-1.1-14.7-8
	c-13.9,0-21.9,11.7-21.9,22c0,9,0.7,17.7,3.2,33.5c4.9,6.7,19.1,12.2,31.2,12.2c0.2,0,2.2,0.1,2.5,0.1s2.3-0.1,2.5-0.1
	c12.1,0,26.3-5.5,31.2-12.2c2.5-15.7,3.2-24.5,3.2-33.5C-608-23.6-616-35.3-630-35.3z"/>
<path class="st8" d="M-263.5,76.7c-3.3-1.5-5.9-4-7-7c-2-0.9-4.3-1.5-6.8-1.6c-2.9-0.1-5.7,0.5-8,1.6c-1.1,2.9-3.6,5.4-6.8,6.9
	c-0.4,1-0.6,2-0.7,3.1c-0.3,6.7,6.2,12.3,14.5,12.6s15.2-5,15.5-11.7C-262.8,79.3-263,77.9-263.5,76.7z"/>
<ellipse class="st9" cx="-278.1" cy="49.8" rx="20.6" ry="23.1"/>
<rect x="511.1" y="266.4" transform="matrix(0.9867 -0.1627 0.1627 0.9867 -39.2259 87.8447)" class="st10" width="11.3" height="34.1"/>
<path class="st11" d="M477.3,237.7l-3.4-50.8l52.6-8.7l13,49.2c0.5,1.6,0.9,3.2,1.2,4.9c2.9,17.4-8.9,33.9-26.3,36.7
	c-17.4,2.9-33.9-8.9-36.7-26.3C477.4,241.1,477.3,239.4,477.3,237.7z"/>
<path class="st1" d="M478,224.4l56.7-9.3l3.5,13.3c0.5,1.5,0.9,3,1.2,4.6c2.7,16.4-8.5,31.9-25.1,34.7c-16.6,2.7-32.2-8.3-34.9-24.8
	c-0.3-1.6-0.4-3.2-0.4-4.8L478,224.4z"/>
<path class="st11" d="M544.4,292.4l-50.9,8.4c-3.3,0.5-5.5,3.7-5,7l1,6l62.7-10.3c0.1,0,0.1-0.1,0.1-0.2l-1-5.8
	C550.8,294.1,547.7,291.9,544.4,292.4z"/>
<path class="st1" d="M545.4,293.7l-52.4,8.6c-2.1,0.3-3.4,2.3-3.1,4.3l0.2,1l59.8-9.9c0.1,0,0.1-0.1,0.1-0.1l-0.2-0.9
	C549.4,294.8,547.5,293.4,545.4,293.7z"/>
<path class="st12" d="M684.3,135.9c0,0-9.6-9.3-4.1-23.8c8.5-16.4,1.9-19.8,1.9-30.2"/>
<path class="st13" d="M685.9,101.4H676c-0.7,0-1.4,0.5-1.6,1.2l-1.4,6.1c-0.2,1,0.5,1.9,1.6,1.9h12.6c1,0,1.8-0.9,1.6-1.9l-1.4-6.1
	C687.3,101.9,686.6,101.4,685.9,101.4z"/>
<path class="st13" d="M719.5,51.1c0,21.3-17.2,52.7-38.5,52.7s-38.5-31.5-38.5-52.7s17.2-38.5,38.5-38.5S719.5,29.8,719.5,51.1z"/>
<path class="st1" d="M688.3,100.3c-18.8-6.3-25.5-40.6-19.5-60.1c3.7-11.9,13.1-20.8,23.8-24.3c-3.7-1.3-8.1-1.9-12.2-1.9
	c-19.4,0-36.1,16.6-36.1,37.1s16.6,51,36.3,51c2.9,0,5.8-0.4,8.5-1.6C688.8,100.4,688.5,100.4,688.3,100.3z"/>
<path class="st13" d="M706.3,32.1c4.4,5.5,7,12.5,7,20.1c0,3.8-0.6,7.9-1.8,12.1"/>
<path class="st13" d="M690.8,21.4c3.8,1.2,7.2,3.1,10.3,5.5"/>
<path class="st12" d="M636.7,148.1c0,0,9.6-9.3,4.1-23.8c-8.5-16.4-1.9-19.8-1.9-30.2"/>
<path class="st13" d="M643.9,90.9H634c-0.7,0-1.4,0.5-1.6,1.2l-1.4,6.1c-0.2,1,0.5,1.9,1.6,1.9h12.6c1,0,1.8-0.9,1.6-1.9l-1.4-6.1
	C645.2,91.4,644.6,90.9,643.9,90.9z"/>
<path class="st14" d="M-475.2-17.2c0,0,0,44.4,0,51.1s-6.9,6.9-6.9,6.9h-6.5l-16.5-40c0,0-12,0-19.3,0s-8.9-8.9-8.9-8.9
	s0-52.7,0-57.8s5.5-5.5,5.5-5.5s3.6,0,9.5,0c13.1,0,13.3,14,13.3,14v26.2h-2.5v14H-475.2z"/>
<path class="st15" d="M-244.4,94.3h73.5c2.6,0,4.7-2.1,4.7-4.7V30.4c0-2.6-2.1-4.7-4.7-4.7h-73.5c-2.6,0-4.7,2.1-4.7,4.7v59.2
	C-249.1,92.2-247,94.3-244.4,94.3z"/>
<path class="st1" d="M-243.7,27.1c-2.5,0-4.5,2-4.5,4.5v56.8c0,2.5,2,4.5,4.5,4.5h35.1V27.1H-243.7z"/>
<polygon class="st13" points="-112.1,191.9 -167.7,150.1 -223.3,191.9 -223.3,276.8 -112.1,276.8 "/>
<line class="st12" x1="-238.7" y1="203.1" x2="-223.2" y2="191.9"/>
<polygon class="st1" points="-167.7,151.9 -221.8,192.6 -221.8,275.2 -167.7,275.2 "/>
<polygon class="st13" points="-118.4,187.2 -137.7,172.7 -137.7,151.9 -118.4,151.9 "/>
<rect x="-243.2" y="-116.4" class="st16" width="1.1" height="19.2"/>
<path class="st13" d="M-85.9-163.8c2.1-6.3,2.4-10.8,2.4-10.8V-187c0,0-20.5-0.2-37.1,15.6c-18.7,18.7-17.5,37-17.5,37V-48
	c0,0,15.7,0,32.6,0c0-37.3-11.7-67.2-21.9-77.7c5.1-1.3,9.6-3,13.6-5c-0.1-0.8-0.1-1.6-0.1-2.4C-113.9-149.2-101.6-162.4-85.9-163.8
	z"/>
<g>
	<path class="st13" d="M328,125.4H200.9c-5.3,0-9.6-4.3-9.6-9.6V33c0-5.3,4.3-9.6,9.6-9.6H328c5.3,0,9.6,4.3,9.6,9.6v82.7
		C337.6,121.1,333.3,125.4,328,125.4z"/>
</g>
<path class="st1" d="M192.9,74.9v40.7c0,5.1,4,8.6,8.7,8.6h126.1c5.1,0,8.4-4,8.4-8.3v-41H192.9z"/>
<circle class="st13" cx="264.5" cy="73.3" r="37.6"/>
<path class="st13" d="M290.8,89.3c-5.4,8.9-15.2,14.8-26.3,14.8c-17,0-30.8-13.8-30.8-30.8c0-14.8,10.4-27.1,24.3-30.1"/>
<path class="st5" d="M-115.6,125.2l0.8,4c0.6,3.3,3.9,5.5,7.2,4.9c3.3-0.6,5.5-3.9,4.9-7.2l-0.8-4L-115.6,125.2z"/>
<path class="st13" d="M-113.6,77.1l4.9,26c0.3,1.6,1.2,3.1,2.4,4.1l6.6,5.6c2.2,1.9,3.4,4.7,3,7.6l0,0c-0.3,2.4-2.1,4.4-4.5,4.9
	l-13.9,2.6c-9,1.7-10.2-6.9-10.2-6.9l-8.4-44.3c-0.1-0.4,0.3-0.8,0.7-0.8l18.7,0.8C-113.9,76.6-113.6,76.8-113.6,77.1z"/>
<path class="st5" d="M-108.8,102.6l3.8-0.7c2.1-0.4,3.3-3,2.7-5.8l0,0c-0.5-2.8-2.6-4.8-4.7-4.4l-3.8,0.7L-108.8,102.6z"/>
<circle class="st17" cx="-614.7" cy="126.2" r="12"/>
<rect x="-688.1" y="144.6" transform="matrix(0.7071 -0.7071 0.7071 0.7071 -299.6882 -410.2935)" class="st18" width="86" height="24"/>
<polygon class="st17" points="-667.1,195.5 -684,178.5 -692,203.4 "/>
<polygon class="st17" points="-681.9,200.2 -688.8,193.4 -692,203.4 "/>
<path class="st19" d="M-254.2,39.5c0,0,1.6-3.1,0.3-9.6c-0.8-4.2-7.3,6.4-7.3,6.4l2.9,7.5C-258.3,43.8-255.6,43-254.2,39.5z"/>
<rect x="-210.4" y="102" class="st15" width="5.6" height="21.4"/>
<rect x="-379.1" y="409.5" class="st20" width="180" height="230"/>
<rect x="-379.1" y="409.5" class="st21" width="180" height="61.4"/>
<rect x="-372.6" y="416.4" class="st22" width="166.7" height="98.6"/>
<rect x="-372.6" y="515" class="st23" width="166.7" height="119.7"/>
<rect x="-372.6" y="626" class="st24" width="166.7" height="8.8"/>
<rect x="-294" y="652.2" class="st25" width="175.1" height="242.2"/>
<circle class="st26" cx="-206.6" cy="773.1" r="52.2"/>
<polygon class="st25" points="-182.5,772.4 -206,772.4 -206,749.8 -207.8,749.8 -207.8,772.4 -230.4,772.4 -230.4,774.2 
	-207.8,774.2 -207.8,796.8 -206,796.8 -206,774.2 -182.5,774.2 "/>
<polygon class="st27" points="-409.3,1019.9 -425.6,1003.6 -471,1048.9 -495.1,1024.8 -511.4,1041.1 -471.1,1081.5 -471,1081.4 
	-470.9,1081.5 "/>
<rect x="1112.8" y="1611.9" class="st28" width="210.7" height="210.7"/>
<rect x="1112.8" y="1401.2" class="st29" width="210.7" height="210.7"/>
<path class="st23" d="M1293.3,1718h-56.8h-1l18.2,24.8c-2.7,3.7-6.5,7.3-10.3,10c-7.1,5.1-15.2,8.1-25.2,8.1l0,0
	c-9,0-18.4-3.1-25.6-8.3c-7.4-5.4-13-13-15.9-21.8c-1.4-4.3-2.1-8.8-2.1-13.5s0.7-9.3,2.1-13.5c1-2.9,2.2-5.7,3.7-8.3l37.8,22.2
	l31.8-18.6c-1-1.7-2.1-3.4-3.2-5.1l-28.5,16.7l-34.4-20.2c2.5-3.2,5.5-6.1,8.8-8.5c7.2-5.2,16.6-8.3,25.6-8.3v-0.1
	c10,0,18.4,3.4,25.6,8.4h0.1c4.9,4,9,8.1,12,13.4l29.8-17.4c-5.4-9.2-13.1-17.5-21.7-23.9l0,0c-0.1-0.1-0.2,0-0.3-0.1h-0.1l0,0
	c-12.8-9-28.4-14.8-45.4-14.8v-0.1c-17,0-33,5.5-45.9,14.9c-13.2,9.6-23.3,23.2-28.5,39.1c-2.5,7.6-3.8,15.7-3.8,24.2
	s1.3,16.6,3.8,24.2c5.2,15.9,15.3,29.5,28.5,39.1c12.9,9.4,28.9,14.9,45.9,14.9l0,0c17,0,32.7-5.5,45.5-14.7l0,0l0.1-0.1
	c0.1-0.1,0.2-0.1,0.3-0.2l0,0c13-9.6,23.4-23.2,28.5-38.8c2.4-7.5,3.8-15.6,3.8-23.6L1293.3,1718L1293.3,1718z"/>
<path class="st23" d="M1293.3,1507h-56.8h-1l18.2,24.9c-2.7,3.7-6.5,7.3-10.3,10.1c-7.1,5.1-15.2,8.1-25.2,8.2l0,0
	c-9,0-18.4-3.1-25.6-8.3c-7.4-5.4-13-13-15.9-21.8c-1.4-4.3-2.1-8.8-2.1-13.5s0.7-9.3,2.1-13.5c1-2.9,2.2-5.7,3.7-8.3l37.8,22.2
	l31.8-18.6c-1-1.7-2.1-3.4-3.2-5.1l-28.5,16.7l-34.4-20.2c2.5-3.2,5.5-6.1,8.8-8.5c7.2-5.2,16.6-8.3,25.6-8.3v-0.1
	c10,0,18.4,3.2,25.6,8.2h0.1c4.9,4,9,8.2,12,13.5l29.8-17.4c-5.4-9.2-13.1-17.5-21.7-23.9l0,0c-0.1-0.1-0.4-0.1-0.5-0.2
	c0,0-0.3,0-0.3-0.1l0,0c-12-9.2-28.3-14.7-45.4-14.7l0,0c-17.3,0-32.8,5.5-45.7,14.9c-13.2,9.6-23.2,23.2-28.4,39.1
	c-2.5,7.6-3.8,15.7-3.8,24.2c0,8.4,1.4,16.6,3.8,24.2c5.2,15.9,15.2,29.5,28.4,39.1c12.9,9.4,28.7,14.9,45.8,14.9l0,0
	c17.1,0,32.8-5.5,45.6-14.7l0,0l0.1-0.1c0.1-0.1,0.2-0.1,0.3-0.2l0,0c13-9.6,23.4-23.3,28.5-39c2.4-7.5,3.8-15.7,3.8-23.7
	L1293.3,1507L1293.3,1507z"/>
<rect x="-130" y="1218" class="st28" width="602.6" height="602.6"/>
<rect x="-128.6" y="292.8" class="st28" width="1207.6" height="450.2"/>
<rect x="-128.6" y="742.9" class="st29" width="1207.6" height="450.2"/>
<g>
	<path class="st29" d="M138.2,1617.9L138.2,1617.9c-21,0-41.6-6.9-57.9-18.7c-16.7-12.1-29.5-29.3-36-49.3
		c-3.1-9.6-4.8-19.9-4.8-30.5s1.7-20.9,4.8-30.5c6.5-20,19.3-37.2,36-49.3c16.2-11.8,37.9-18.7,57.9-18.7l0,0
		c23,0,41.7,7.1,57.9,18.9l45.8-63.1c-29.1-21.2-63.7-33.8-103.7-33.8l0,0c-38,0-74.6,12.5-103.7,33.6
		c-29.8,21.7-52.7,52.5-64.3,88.3c-5.6,17.2-8.6,35.6-8.6,54.6c0,19.1,3,37.4,8.6,54.6c11.6,35.8,34.5,66.6,64.3,88.3
		c29.1,21.1,65.7,33.6,103.7,33.6l0,0c40,0,74.6-12.6,103.8-33.8l-45.9-63.1C179.9,1610.8,160.2,1617.8,138.2,1617.9z"/>
	<path class="st29" d="M307.7,1520H179.5h-2.2l41,56.5c-6.1,8.6-13.6,16.2-22.2,22.4l45.8,63.1c29.7-21.7,52.5-52.5,64.1-88.3
		c5.5-16.9,8.5-34.7,8.6-53.7H307.7z"/>
	<path class="st29" d="M223.4,1469.9l67.4-39.4c-12.4-21.2-29-39.6-48.7-54l-45.8,63.1C207.2,1447.8,216.5,1458,223.4,1469.9z"/>
	<path class="st29" d="M202.6,1466.4l-64.5,37.8l-101.9-59.9c-2.6,3.7-5.1,7.6-7.4,11.5l109.3,64.2l71.8-42.1
		C207.6,1474,205.2,1470.2,202.6,1466.4z"/>
</g>
<g>
	<path class="st23" d="M322.8,1556.6v19.8h-17.6v-18.5h-33v-14.6l37.3-54.8h13.3v50.5L322.8,1556.6L322.8,1556.6z M305.4,1540.6
		v-17.8l-12.8,17.8H305.4z"/>
	<path class="st23" d="M364,1516.4c-3.7-1.8-7.7-2.4-11.9-2.4h-7.9v-26h-18v88h18v-19.4v-17.7v-7.9h7.9c3.3,0,6.2,1.2,8.5,3.9
		c2.3,2.7,3.6,5.9,3.6,9.7v31.4h17v-30.1C381.2,1523.5,366.8,1518,364,1516.4z"/>
	<path class="st23" d="M218.4,1561.8l35.5-39.5c1.6-2,2.4-3.9,2.4-5.9c0-2.6-1-4.8-2.9-6.6c-2-1.8-4.4-2.6-7.2-2.6
		c-2.5,0-4.7,0.9-6.5,2.7c-1.8,1.8-2.7,4-2.7,6.5v3.4h-18.5v-3.4c0-7.6,2.7-14.2,8.2-19.6c5.4-5.5,11.9-8.2,19.6-8.2
		c7.9,0,14.6,2.7,20.2,8.2c5.6,5.4,8.4,11.9,8.4,19.6c-0.2,6.4-2.5,12.4-7.1,18.2c-0.9,1-1.9,2.1-3,3.3l-17.5,20h24.9v18.5h-53.7
		L218.4,1561.8L218.4,1561.8z"/>
</g>
<rect x="472.3" y="1218" class="st29" width="602.6" height="602.6"/>
<path class="st28" d="M910,1520H781.8h-2.2l41,56.5c-6.1,8.6-14.1,16.3-22.6,22.5c-16.2,11.8-35.9,18.8-57.8,18.8l0,0
	c-20,0-41.5-6.9-57.7-18.7c-16.7-12.1-29.4-29.3-35.9-49.3c-3.1-9.6-4.8-19.9-4.8-30.5s1.7-20.9,4.8-30.5c2.2-6.6,5-12.9,8.4-18.8
	l85.3,50.2l71.8-42.1c-2.3-3.9-4.7-7.8-7.3-11.5l-64.5,37.8l-77.7-45.7c5.7-7.3,12.3-13.7,19.8-19.1c16.2-11.8,37.7-18.7,57.7-18.7
	l0,0c23,0,41.8,7.1,58,18.9c11,8.1,20.5,18.4,27.4,30.2l67.4-39.4c-12.4-21.2-29.3-39.6-49-54c-29.1-21.2-63.8-33.8-103.8-33.8l0,0
	c-38,0-74.5,12.5-103.6,33.6c-29.8,21.7-52.6,52.5-64.2,88.3c-5.6,17.2-8.6,35.6-8.6,54.6c0,19.1,3,37.4,8.6,54.6
	c11.6,35.8,34.4,66.6,64.2,88.3c29.1,21.1,65.6,33.6,103.6,33.6l0,0c40,0,74.8-12.6,103.9-33.8c29.7-21.7,52.6-52.5,64.2-88.3
	c5.5-16.9,8.5-34.7,8.6-53.7H910z"/>
<path class="st23" d="M925.1,1556.6v19.8h-17.6v-18.5h-33v-14.6l37.3-54.8h13.3v50.5V1556.6z M907.7,1540.6v-17.8l-12.8,17.8H907.7z
	"/>
<path class="st23" d="M966.6,1516.4c-3.7-1.8-8.1-2.4-12.2-2.4h-8.2v-26h-16v88h16v-19.4v-17.7v-7.9h8.2c3.3,0,6.1,1.2,8.4,3.9
	c2.3,2.7,3.5,5.9,3.5,9.7v31.4h18v-30.1C984.2,1523.5,969.4,1518,966.6,1516.4z"/>
<path class="st23" d="M820.7,1561.8l35.5-39.5c1.6-2,2.3-3.9,2.3-5.9c0-2.6-1-4.8-2.9-6.6c-2-1.8-4.4-2.6-7.2-2.6
	c-2.5,0-4.7,0.9-6.5,2.7c-1.8,1.8-2.7,4-2.7,6.5v3.4h-18.5v-3.4c0-7.6,2.7-14.2,8.2-19.6c5.4-5.5,11.9-8.2,19.6-8.2
	c7.9,0,14.6,2.7,20.2,8.2c5.6,5.4,8.4,11.9,8.4,19.6c-0.2,6.4-2.5,12.4-7.1,18.2c-0.9,1-1.9,2.1-3,3.3l-17.5,20h24.9v18.5h-53.7
	V1561.8z"/>
<g>
	<path class="st29" d="M352.8,537.8L352.8,537.8c-4.8-5.1-12.7-9.8-24.4-14.4c-9.9-3.9-13-6.3-13.9-7.1c-1.3-1.2-1.9-2.3-1.9-3.4
		c0-0.8,0.1-1.8,1.7-3.2c1.4-1.2,3-1.8,5.1-1.9c4.5-0.2,9.6,1.9,15.3,6.3l0.8,0.6l20.1-20.2l-0.5-0.4c-11.9-9.1-24.1-13.5-36.2-13
		c-10.7,0.5-19.7,3.9-26.6,10.2c-7,6.4-10.3,14.3-9.9,23.3c0.3,7,2.9,13.1,7.6,18.4c4.5,5,12.2,9.6,23.3,14
		c11.3,4.4,14.2,6.8,14.6,7.2c1.2,1.2,1.8,2.4,1.9,3.9c0.1,1.9-0.7,3.4-2.6,5c-2.1,1.8-4.5,2.7-7.7,2.8c-5.1,0.2-10.2-2-15.6-6.9
		l-7-6.3l-19.3,20.7l4.8,4.9c4.7,4.8,10.6,8.5,17.4,11s14.1,3.6,21.5,3.3c11.5-0.5,21.2-4.3,28.7-11.3s11.1-15.5,10.7-25.1
		C360.4,549.5,357.8,543.2,352.8,537.8z"/>
	<path class="st29" d="M511.2,481.7c15.1,0,28,5.4,38.8,16.2c10.7,10.9,16.1,24,16.1,39.4c0,15.3-5.4,28.4-16.1,39.3
		c-10.7,10.8-23.6,16.3-38.8,16.3s-28.1-5.4-38.9-16.3c-10.7-10.9-16.1-24-16.1-39.3c0-15.4,5.3-28.5,16.1-39.4
		C483,487,496,481.7,511.2,481.7 M511.2,562.2c6.7,0,12.3-2.4,17-7.2c4.7-4.9,7.1-10.8,7.1-17.7s-2.4-12.9-7.1-17.8
		c-4.7-4.8-10.4-7.2-17-7.2c-6.7,0-12.4,2.4-17.1,7.2c-4.8,4.9-7.1,10.9-7.1,17.8c0,6.9,2.4,12.8,7.1,17.7
		C498.8,559.9,504.5,562.2,511.2,562.2"/>
	<path class="st29" d="M239,542c-0.1,1-0.2,1.5-0.5,2.4c-1.7,6.5-5.4,11.3-11.1,14.6c-5.8,3.3-11.9,4-18.4,2.2
		c-3.5-1-6.6-2.6-9.2-4.8l67.1-38.7l-4.5-7.7c-7.7-13.3-18.9-22-33.6-26.1c-14.7-4-28.6-2.3-41.6,5.3c-13.2,7.6-21.7,18.7-25.5,33.5
		c-3.8,14.8-1.9,28.8,5.8,42.1c7.6,13.3,18.8,21.9,33.5,26c14.7,4,28.6,2.3,41.7-5.3c13.1-7.5,21.6-18.4,25.4-33.1
		c1-3.6,1.6-6.3,1.8-10.3L239,542L239,542z M202.5,515.8c5.8-3.3,11.9-4.1,18.3-2.3c0.9,0.3,1.7,0.6,2.6,0.9l-32.6,18.8
		c0.1-0.9,0.3-1.8,0.5-2.7C193,524,196.7,519,202.5,515.8z"/>
	<g>
		<path class="st29" d="M145.6,519H91.3h-0.9l17.4,23.6c-2.6,3.6-5.6,6.7-9.2,9.3c-6.9,5-15.3,7.8-24.3,7.8l0,0
			c-10,0-17.9-2.9-24.7-7.9c-7.1-5.1-12.6-12.4-15.4-20.9c-1.3-4.1-2.1-8.4-2.1-12.9s0.7-8.9,2-12.9c2.8-8.5,8.1-15.4,15.2-20.5
			c6.9-5,15.2-7.5,24.5-7.5l0,0c9.3,0,17.7,2.6,24.6,7.6c4.7,3.4,8.6,7.6,11.6,12.6l28.5-16.8c-5.2-9-12.3-16.9-20.7-23
			c-12.3-9-27.5-14.5-44-14.5c-16.4,0-31.6,5.4-43.9,14.4c-12.6,9.2-22.3,22.3-27.2,37.5c-2.5,7.1-3.8,14.9-3.8,23
			c0,8.1,1.3,15.9,3.7,23.2c4.9,15.2,14.3,28.2,27,37.4c12.3,9,28.7,14.2,43.7,14.2l0,0c17,0,32-5.3,44.4-14.3
			c12.6-9.2,22.4-21.9,27.3-37c2.3-7.2,3.6-14.4,3.7-22.4L145.6,519L145.6,519z"/>
		<path class="st29" d="M101,495.5l-27.3,16l-43.2-25.4c-1.1,1.6-2.1,3.2-3.1,4.9l46.3,27.2l30.4-17.8
			C103.2,498.8,102.1,497.2,101,495.5z"/>
	</g>
	<rect x="369.2" y="481" class="st29" width="75" height="31"/>
	<path class="st29" d="M630.2,481c-7.5,0-14.4,1.6-21.2,4.8c-5.1,2.9-30.9,13.1-30.9,53.6V593h31v-55.9c0-6.9,2-12.8,6.1-17.8
		c4.2-4.9,9-7.3,14.9-7.3h16v-31H630.2L630.2,481z"/>
	<path class="st29" d="M426.1,554.2c0,0.2-1,0.7-1,0.9c0,1.2-1.4,1.9-1.9,2.9c-1.1,2-3.1,3.3-5.6,3.3c-3.4,0-6.4-2.6-6.4-5.9V443
		h-31v114H380c1,20,17.4,35.5,37.5,35.5c15.2,0,28.3-9.2,34.2-22.2L426.1,554.2z"/>
</g>
<g>
	<path class="st23" d="M840.2,443L840.2,443h-22.6l-63.4,93.3V562h64v31h31V443H840.2L840.2,443z M817.2,532h-22l22-32.7V532z"/>
	<path class="st23" d="M740.7,527.2c1.9-2,3.6-4,5.1-5.7c7.8-9.9,11.9-20.3,12.1-31.1c0-13-4.8-24.2-14.3-33.4
		c-9.6-9.3-21.1-14-34.5-14c-13,0-24,4.6-33.2,13.9c-9.3,9.2-13.7,20.4-13.7,33.4v5.8h31v-5.8c0-4.3,1.6-8,4.7-11.1
		c3.1-3.1,6.9-4.6,11.2-4.6c4.8,0,8.9,1.5,12.3,4.5c3.3,3.1,5,6.8,5,11.2c0,3.4-1.1,6.8-3.8,10.1l-60.4,67.3V593h84.1l0,0h7.9v-31
		h-43.9L740.7,527.2z"/>
	<path class="st23" d="M923.1,485.8c-6.7-3.2-14-4.8-21.5-4.8h-11.4v-38h-29.3h-1.7v150h1.7h29.3v-81h11.4c5.9,0,11,2.4,15.2,7.3
		c4.2,4.9,6.4,10.8,6.4,17.8V593h31v-53.6C954.2,499,928.2,488.8,923.1,485.8z"/>
</g>
<g>
	<path class="st28" d="M352.8,989.8L352.8,989.8c-4.8-5.1-12.7-9.8-24.4-14.4c-9.9-3.9-13-6.3-13.9-7.1c-1.3-1.2-1.9-2.3-1.9-3.4
		c0-0.8,0.1-1.8,1.7-3.2c1.4-1.2,3-1.8,5.1-1.9c4.5-0.2,9.6,1.9,15.3,6.3l0.8,0.6l20.1-20.2l-0.5-0.4c-11.9-9.1-24.1-13.5-36.2-13
		c-10.7,0.5-19.7,3.9-26.6,10.2c-7,6.4-10.3,14.3-9.9,23.3c0.3,7,2.9,13.1,7.6,18.4c4.5,5,12.2,9.6,23.3,14
		c11.3,4.4,14.2,6.8,14.6,7.2c1.2,1.2,1.8,2.4,1.9,3.9c0.1,1.9-0.7,3.4-2.6,5c-2.1,1.8-4.5,2.7-7.7,2.8c-5.1,0.2-10.2-2-15.6-6.9
		l-7-6.3l-19.3,20.7l4.8,4.9c4.7,4.8,10.6,8.5,17.4,11s14.1,3.6,21.5,3.3c11.5-0.5,21.2-4.3,28.7-11.3s11.1-15.5,10.7-25.1
		C360.4,1001.5,357.8,995.2,352.8,989.8z"/>
	<path class="st28" d="M511.2,933.7c15.1,0,28,5.4,38.8,16.2c10.7,10.9,16.1,24,16.1,39.4c0,15.3-5.4,28.4-16.1,39.3
		c-10.7,10.8-23.6,16.3-38.8,16.3s-28.1-5.4-38.9-16.3c-10.7-10.9-16.1-24-16.1-39.3c0-15.4,5.3-28.5,16.1-39.4
		C483,939,496,933.7,511.2,933.7 M511.2,1014.2c6.7,0,12.3-2.4,17-7.2c4.7-4.9,7.1-10.8,7.1-17.7s-2.4-12.9-7.1-17.8
		c-4.7-4.8-10.4-7.2-17-7.2c-6.7,0-12.4,2.4-17.1,7.2c-4.8,4.9-7.1,10.9-7.1,17.8c0,6.9,2.4,12.8,7.1,17.7
		C498.8,1011.9,504.5,1014.2,511.2,1014.2"/>
	<path class="st28" d="M239,994c-0.1,1-0.2,1.5-0.5,2.4c-1.7,6.5-5.4,11.3-11.1,14.6c-5.8,3.3-11.9,4-18.4,2.2
		c-3.5-1-6.6-2.6-9.2-4.8l67.1-38.7l-4.5-7.7c-7.7-13.3-18.9-22-33.6-26.1c-14.7-4-28.6-2.3-41.6,5.3c-13.2,7.6-21.7,18.7-25.5,33.5
		s-1.9,28.8,5.8,42.1c7.6,13.3,18.8,21.9,33.5,26c14.7,4,28.6,2.3,41.7-5.3c13.1-7.5,21.6-18.4,25.4-33.1c1-3.6,1.6-6.3,1.8-10.3
		L239,994L239,994z M202.5,967.8c5.8-3.3,11.9-4.1,18.3-2.3c0.9,0.3,1.7,0.6,2.6,0.9l-32.6,18.8c0.1-0.9,0.3-1.8,0.5-2.7
		C193,976,196.7,971,202.5,967.8z"/>
	<g>
		<path class="st28" d="M145.6,971H91.3h-0.9l17.4,23.6c-2.6,3.6-5.6,6.7-9.2,9.3c-6.9,5-15.3,7.8-24.3,7.8l0,0
			c-10,0-17.9-2.9-24.7-7.9c-7.1-5.1-12.6-12.4-15.4-20.9c-1.3-4.1-2.1-8.4-2.1-12.9s0.7-8.9,2-12.9c2.8-8.5,8.1-15.4,15.2-20.5
			c6.9-5,15.2-7.5,24.5-7.5l0,0c9.3,0,17.7,2.6,24.6,7.6c4.7,3.4,8.6,7.6,11.6,12.6l28.5-16.8c-5.2-9-12.3-16.9-20.7-23
			c-12.3-9-27.5-14.5-44-14.5c-16.4,0-31.6,5.4-43.9,14.4c-12.6,9.2-22.3,22.3-27.2,37.5c-2.5,7.1-3.8,14.9-3.8,23
			s1.3,15.9,3.7,23.2c4.9,15.2,14.3,28.2,27,37.4c12.3,9,28.7,14.2,43.7,14.2l0,0c17,0,32-5.3,44.4-14.3c12.6-9.2,22.4-21.9,27.3-37
			c2.3-7.2,3.6-14.4,3.7-22.4L145.6,971L145.6,971z"/>
		<path class="st28" d="M101,947.5l-27.3,16l-43.2-25.4c-1.1,1.6-2.1,3.2-3.1,4.9l46.3,27.2l30.4-17.8
			C103.2,950.9,102.1,949.2,101,947.5z"/>
	</g>
	<rect x="369.2" y="933" class="st28" width="75" height="31"/>
	<path class="st28" d="M630.2,933c-7.5,0-14.4,1.6-21.2,4.8c-5.1,2.9-30.9,13.1-30.9,53.6v53.6h31v-55.9c0-6.9,2-12.8,6.1-17.8
		c4.2-4.9,9-7.3,14.9-7.3h16v-31H630.2z"/>
	<path class="st28" d="M426.1,1006.2c0,0.2-1,0.7-1,0.9c0,1.2-1.4,1.9-1.9,2.9c-1.1,2-3.1,3.3-5.6,3.3c-3.4,0-6.4-2.6-6.4-5.9V895
		h-31v114H380c1,20,17.4,35.5,37.5,35.5c15.2,0,28.3-9.2,34.2-22.2L426.1,1006.2z"/>
</g>
<g>
	<path class="st23" d="M840.2,895L840.2,895h-22.6l-63.4,93.3v25.7h64v31h31V895H840.2z M817.2,984h-22l22-32.7V984z"/>
	<path class="st23" d="M740.7,979.2c1.9-2,3.6-4,5.1-5.7c7.8-9.9,11.9-20.3,12.1-31.1c0-13-4.8-24.2-14.3-33.4
		c-9.6-9.3-21.1-14-34.5-14c-13,0-24,4.6-33.2,13.9c-9.3,9.2-13.7,20.4-13.7,33.4v5.8h31v-5.8c0-4.3,1.6-8,4.7-11.1
		c3.1-3.1,6.9-4.6,11.2-4.6c4.8,0,8.9,1.5,12.3,4.5c3.3,3.1,5,6.8,5,11.2c0,3.4-1.1,6.8-3.8,10.1l-60.4,67.3v25.3h84.1l0,0h7.9v-31
		h-43.9L740.7,979.2z"/>
	<path class="st23" d="M923.1,937.9c-6.7-3.2-14-4.8-21.5-4.8h-11.4v-38h-29.3h-1.7v150h1.7h29.3v-81h11.4c5.9,0,11,2.4,15.2,7.3
		c4.2,4.9,6.4,10.8,6.4,17.8v55.9h31v-53.6C954.2,951,928.2,940.8,923.1,937.9z"/>
</g>
<g>
	<path class="st28" d="M1218.2,1340L1218.2,1340c-9,0-18.4-3.1-25.6-8.3c-7.4-5.4-13-13-15.9-21.8c-1.4-4.3-2.1-8.8-2.1-13.5
		s0.7-9.3,2.1-13.5c2.9-8.9,8.4-16.3,15.8-21.7c7.2-5.2,16.2-8.2,25.5-8.2l0,0c9.8,0,18.5,3,25.7,8.2l20.3-28
		c-12.9-9.4-28.9-15-45.9-15l0,0c-17,0-33,5.5-45.9,14.9c-13.2,9.6-23.3,23.2-28.5,39.1c-2.5,7.6-3.8,15.7-3.8,24.2
		c0,8.4,1.3,16.6,3.8,24.2c5.2,15.9,15.2,29.2,28.4,38.8c12.9,9.4,28.7,14.6,45.8,14.6l0,0c17.1,0,33.1-5.3,46-14.7l-20.3-27.8
		C1236.6,1336.8,1228.2,1340,1218.2,1340z"/>
	<path class="st28" d="M1293.3,1297h-56.8h-1l18.2,24.8c-2.7,3.8-6,7.1-9.8,9.8l20.3,27.9c13.2-9.6,23.2-23.1,28.4-38.9
		c2.4-7.5,3.8-15.6,3.8-23.6L1293.3,1297L1293.3,1297z"/>
	<path class="st28" d="M1255.9,1274.5l29.8-17.4c-5.5-9.4-12.8-17.5-21.6-23.9l-20.3,27.9
		C1248.8,1264.8,1252.9,1269.2,1255.9,1274.5z"/>
	<path class="st28" d="M1246.7,1273l-28.5,16.7l-45.1-26.5c-1.1,1.7-2.2,3.4-3.3,5.1l48.4,28.4l31.8-18.6
		C1249,1276.3,1247.9,1274.6,1246.7,1273z"/>
</g>
<g>
	<rect x="212.5" y="-102.4" class="st5" width="29" height="14"/>
	<rect x="212.5" y="-88.4" class="st13" width="14" height="14"/>
	<rect x="212.5" y="-74.4" class="st13" width="29" height="14"/>
	<rect x="212.5" y="-60.4" class="st13" width="14" height="14"/>
	<rect x="212.5" y="-46.4" class="st13" width="29" height="14"/>
	<rect x="226.5" y="-88.4" class="st5" width="29" height="14"/>
	<rect x="226.5" y="-60.4" class="st5" width="29" height="14"/>
	<rect x="241.5" y="-102.4" class="st13" width="29" height="14"/>
	<rect x="241.5" y="-74.4" class="st13" width="29" height="14"/>
	<rect x="241.5" y="-46.4" class="st13" width="29" height="14"/>
	<rect x="255.5" y="-88.4" class="st13" width="29" height="14"/>
	<rect x="255.5" y="-60.4" class="st13" width="29" height="14"/>
	<rect x="270.5" y="-74.4" class="st5" width="29" height="14"/>
	<rect x="270.5" y="-46.4" class="st5" width="29" height="14"/>
	<rect x="284.5" y="-88.4" class="st13" width="29" height="14"/>
	<rect x="284.5" y="-60.4" class="st13" width="29" height="14"/>
	<rect x="299.5" y="-74.4" class="st13" width="29" height="14"/>
	<rect x="299.5" y="-46.4" class="st13" width="29" height="14"/>
	<rect x="313.5" y="-88.4" class="st5" width="29" height="14"/>
	<rect x="313.5" y="-60.4" class="st5" width="29" height="14"/>
	<rect x="328.5" y="-74.4" class="st13" width="29" height="14"/>
	<rect x="328.5" y="-46.4" class="st13" width="29" height="14"/>
	<rect x="342.5" y="-88.4" class="st13" width="15" height="14"/>
	<rect x="342.5" y="-60.4" class="st13" width="15" height="14"/>
	<path class="st29" d="M318-171.9v1.1l-17,17l-17-17v-1h-3v83h3v-6.9l17-17l17,17v7h3v-83h-3V-171.9z M318-166.9v29.9l-15-15
		L318-166.9z M318.1-133.4l-16.5,16.5l-16.5-16.5l16.5-16.5L318.1-133.4z M299.1-151.9l-15,15V-167L299.1-151.9z M284-99.9V-130
		l15,15L284-99.9z M303.1-114.9l15-15v29.9L303.1-114.9z"/>
	<path class="st29" d="M322.4-88.9l-0.5-0.5l16.5-16.5L355-89.4l-0.5,0.5h3.5v-39h-3v1.1l-17,17l-17-17v-1h-3v39L322.4-88.9
		L322.4-88.9z M355-122.9V-93l-15-15L355-122.9z M321-122.9l15,15l-15,15V-122.9z"/>
	<path class="st29" d="M216.9-101.9l-0.5-0.7l16.5-16.6l16.5,16.7l-0.5,0.6h3v-39h-3v0.6l-17,17l-17-17v-0.5h-3v39h5V-101.9z
		 M249-136.4v29.9l-15-15L249-136.4z M215-136.4l15,15l-15,15V-136.4z"/>
</g>
<rect x="452.2" y="-202.3" transform="matrix(0.7071 -0.7071 0.7071 0.7071 271.7929 267.1951)" class="st30" width="12.5" height="15.7"/>
<path class="st31" d="M493.4-169.4c0,0,5.2-16.5-3.4-25.3s-18.1-2.3-22.7,2.2c-5.1-5.1-11.1-11-11.1-11s5.5-5.5,6.1-10.8
	c0.8-7.1-7.5-12.5-13.5-9.5c-4.2-4.2-7.7-7.7-7.7-7.7l17.5-17.5l7.2,7.2c0,0-2.7,7,1.3,11.1c5.5,5.5,11.9,1.8,11.9,1.8l17.1,17.1
	c0,0,7.3,9.2,6.9,21.5C502.5-178,496.5-170.9,493.4-169.4z"/>
<path class="st32" d="M285.5,274.3l9.3-9.3c0.7-0.7,0.7-1.8,0-2.5L217,184.8c-0.7-0.7-1.8-0.7-2.5,0l-9.3,9.3
	c-0.7,0.7-0.7,1.8,0,2.5l77.7,77.7C283.6,275,284.8,275,285.5,274.3z"/>
<path class="st1" d="M286.5,268l1.9-1.9c1-1,1-2.5,0-3.5l-71.5-71.5c-1-1-2.5-1-3.5,0l-1.9,1.9c-1,1-1,2.5,0,3.5L283,268
	C284,269,285.5,269,286.5,268z"/>
<path class="st13" d="M319.9,268.9l-13.1-13.1c-2.3-2.3-5.8-3.2-8.9-2.3l-15.3,4.3c-1.6,0.5-3.3,2.2-3.8,3.8l-4.3,15.3
	c-0.9,3.2,0,6.6,2.3,8.9l13.1,13.1c0.5,0.5,1.3,0.7,2,0.5l6.7-1.9c1.6-0.4,2-2.4,0.8-3.5c-3.8-3.5-10.3-9.8-11.1-13
	c-0.8-3.2,2.2-7.2,4.2-9.4c2.2-2,6.2-4.9,9.4-4.2c3.3,0.8,9.5,7.3,13,11.1c1.1,1.2,3.1,0.7,3.5-0.8l1.9-6.7
	C320.6,270.2,320.4,269.4,319.9,268.9z"/>
<path class="st13" d="M319.9,268.9l-13.1-13.1c-2.3-2.3-5.8-3.2-8.9-2.3l-15.3,4.3c-1.6,0.5-3.3,2.2-3.8,3.8l-4.3,15.3
	c-0.9,3.2,0,6.6,2.3,8.9l13.1,13.1c0.5,0.5,1.3,0.7,2,0.5l6.7-1.9c1.6-0.4,2-2.4,0.8-3.5c-3.8-3.5-10.3-9.8-11.1-13
	c-0.8-3.2,2.2-7.2,4.2-9.4c2.2-2,6.2-4.9,9.4-4.2c3.3,0.8,9.5,7.3,13,11.1c1.1,1.2,3.1,0.7,3.5-0.8l1.9-6.7
	C320.6,270.2,320.4,269.4,319.9,268.9z"/>
<path class="st13" d="M175.6,184.6l13.1,13.1c2.3,2.3,5.8,3.2,8.9,2.3l15.3-4.3c1.6-0.5,3.3-2.2,3.8-3.8l4.3-15.3
	c0.9-3.2,0-6.6-2.3-8.9l-13.1-13.1c-0.5-0.5-1.3-0.7-2-0.5l-6.7,1.9c-1.6,0.4-2,2.4-0.8,3.5c3.8,3.5,10.3,9.8,11.1,13
	s-2.2,7.2-4.2,9.4c-2.2,2-6.2,4.9-9.4,4.2c-3.3-0.8-9.5-7.3-13-11.1c-1.1-1.2-3.1-0.7-3.5,0.8l-1.9,6.7
	C174.9,183.2,175.1,184,175.6,184.6z"/>
<path class="st33" d="M368.2-115.4l11,11c1.5,1.5,3.9,1.5,5.4,0l74.8-74.8c1.5-1.5,1.5-3.9,0-5.4l-11-11c-1.5-1.5-3.9-1.5-5.4,0
	l-74.8,74.8C366.7-119.3,366.7-116.9,368.2-115.4z"/>
<path class="st34" d="M378.1-117.8l3.6,3.6c1,1,2.7,1,3.7,0l64.3-64.3c1-1,1-2.7,0-3.7l-3.6-3.6c-1-1-2.7-1-3.7,0l-64.3,64.3
	C377.1-120.5,377.1-118.8,378.1-117.8z"/>
<rect x="233.3" y="197.8" transform="matrix(0.7071 -0.7071 0.7071 0.7071 -63.1198 251.1898)" class="st35" width="76.8" height="7.9"/>
<path class="st13" d="M175,287.4l11.1,11.1c1.3,1.3,3.4,1.3,4.7,0l59.3-59.3c1.3-1.3,1.3-3.4,0-4.7L239,223.4
	c-1.3-1.3-3.4-1.3-4.7,0L175,282.7C173.7,284,173.7,286.1,175,287.4z"/>
<path class="st5" d="M183.5,286.2l3.8,3.8c0.9,0.9,2.3,0.9,3.2,0l51-51c0.9-0.9,0.9-2.3,0-3.2l-3.8-3.8c-0.9-0.9-2.3-0.9-3.2,0
	l-51,51C182.6,283.9,182.6,285.3,183.5,286.2z"/>
<rect x="-187" y="210.9" class="st13" width="38.6" height="65.9"/>
<rect x="-161.5" y="244.8" class="st13" width="8" height="1.8"/>
<rect x="-137.7" y="151.9" class="st5" width="19.3" height="8.3"/>
<line class="st12" x1="-96.7" y1="203.1" x2="-112.1" y2="191.9"/>
<path class="st36" d="M39.7,189.4h103.1c3.1,0,5.5,2.5,5.5,5.5v63.3c0,3.1-2.5,5.5-5.5,5.5H39.7V189.4z"/>
<path class="st36" d="M39.7,189.4H5.3c-1.8,0-3.3,1.5-3.3,3.3v67.9c0,1.8,1.5,3.3,3.3,3.3h34.4V189.4z"/>
<path class="st36" d="M39.7,189.4H3.6c-0.9,0-1.6,0.7-1.6,1.6v8.7c0,4.4,3.5,7.9,7.9,7.9h29.8L39.7,189.4z"/>
<path class="st36" d="M138.9,181.2h-14.1c-1.7,0-3.2,1.4-3.2,3.2v5.1H142c0,0,0.1,0,0.1-0.1v-5C142.1,182.6,140.7,181.2,138.9,181.2
	z"/>
<path class="st36" d="M44.2,181.2H25.4c-2,0-3.6,1.6-3.6,3.6v4.7h25.9c0,0,0.1,0,0.1-0.1v-4.6C47.7,182.7,46.1,181.2,44.2,181.2z"/>
<path class="st36" d="M101.4,167.2H68c-4.5,0-8.1,3.6-8.1,8.1v14.1h49.4c0.1,0,0.2-0.1,0.2-0.2v-13.9
	C109.5,170.8,105.9,167.2,101.4,167.2z"/>
<path class="st37" d="M100.6,172.4H69c-1.8,0-3.3,1.5-3.3,3.3v13.7h37.9c0.1,0,0.2-0.1,0.2-0.2v-13.7
	C103.7,173.8,102.3,172.4,100.6,172.4z"/>
<path class="st15" d="M-207.1,102.9h-0.8c-4,0-7.2-3.2-7.2-7.2v-1.2c0-0.2,0.1-0.3,0.3-0.3h14.3c0.2,0,0.3,0.1,0.3,0.3V96
	C-200.2,99.9-203.3,102.9-207.1,102.9z"/>
<rect x="-221.7" y="123.4" class="st19" width="28.2" height="4.7"/>
<rect x="-229.5" y="128.2" class="st19" width="43.7" height="4.7"/>
<path class="st15" d="M-245.1,97.4c0-9.3-6.8-21.5-19.4-21.5c-4.7,6.6-10.5,7.5-13,7.6l0,0c0,0-0.2,0-0.6,0s-0.6,0-0.6,0l0,0
	c-2.5-0.1-8.3-1-13-7.6c-12.3,0-19.4,11.1-19.4,20.8c0,8.5,4.8,13,4.8,13s-2,10.1-2,18.7c4.3,6.4,17,11.5,27.7,11.5
	c0.6,0.1,4.5,0.1,5.1,0c11.5,0,23.3-5.2,27.7-11.5c0-5.6-0.8-11.8-1.4-15.5c1.6-1.6,4.1-5,4.1-5s-0.6-1.4-1.5-2.9
	C-245.8,103.1-245.1,100.5-245.1,97.4z"/>
<g>
	<path class="st19" d="M-291,91l1.1-12.6c0,0,4,4.7,9.9,5C-283.2,85.7-291,91-291,91z"/>
	<path class="st19" d="M-265.2,91l-1.1-12.6c0,0-4,4.7-9.9,5C-273.1,85.7-265.2,91-265.2,91z"/>
</g>
<path class="st15" d="M-307,109c0,0,10.5,15.1,29.7,15.1s29.3-12.4,32.2-16.1c-2.8-5.5-12.4-12.6-12.4-12.6s-5.2,11.6-19.2,11.6
	s-19-10.9-19-10.9"/>
<path class="st15" d="M-254.2,97.9c0,0,3.4-4.9,4-7.7c0.6-2.8,3.9-4.4,5.8-1.9c1.8,2.6,1.6,3.4,1.6,3.4l4.5-4.5
	c0,0,5.8,5.2,1.2,11.3c-3.2,4.3-7,5.7-9.7,6.8C-249.8,101.7-254.2,97.9-254.2,97.9z"/>
<path class="st19" d="M-297.9,43.8c0,0,3.4-14.9,16-9.7c9.7,4,19.6,9.5,26.7,0.8c6.1-7.4,3.5-21.8-10-24.9
	c2.1,8.2-6.6,11.4-11.7,9.4c-3.7-1.4-18-5.1-23.8,3.9C-306.6,32.3-301.5,41.6-297.9,43.8z"/>
<line class="st38" x1="-278.1" y1="84.4" x2="-278.1" y2="106.7"/>
<line class="st38" x1="-278.1" y1="124.1" x2="-278.1" y2="139.6"/>
<path class="st15" d="M-272.3,62.7c-0.9,1.8-3.3,3-6.1,3c-2.7,0-5-1.2-6-2.8"/>
<g>
	<line class="st38" x1="-271.8" y1="46.8" x2="-265.3" y2="46.8"/>
	<line class="st38" x1="-291.6" y1="46.8" x2="-285" y2="46.8"/>
</g>
<rect x="-238" y="74.1" class="st15" width="60.6" height="6.6"/>
<rect x="-238" y="57" class="st15" width="60.6" height="6.6"/>
<rect x="-238" y="39.9" class="st15" width="60.6" height="6.6"/>
<rect x="-253.1" y="67.1" transform="matrix(0.7071 -0.7071 0.7071 0.7071 -112.623 -135.9956)" class="st39" width="65.2" height="1.8"/>
<rect x="-659.6" y="108.5" transform="matrix(0.7071 -0.7071 0.7071 0.7071 -302.174 -411.2918)" class="st18" width="24" height="101.3"/>
<rect x="-657.2" y="114.3" transform="matrix(0.7071 -0.7071 0.7071 0.7071 -308.0447 -413.7545)" class="st18" width="7.4" height="101.3"/>
<g>
	<line class="st40" x1="-612.5" y1="186.3" x2="-607.9" y2="181.8"/>
	<line class="st40" x1="-616.7" y1="182.1" x2="-612.1" y2="177.6"/>
	<line class="st40" x1="-620.9" y1="177.9" x2="-616.3" y2="173.4"/>
	<line class="st40" x1="-625" y1="173.8" x2="-620.5" y2="169.2"/>
	<line class="st40" x1="-629.2" y1="169.6" x2="-624.7" y2="165"/>
	<line class="st40" x1="-633.4" y1="165.4" x2="-628.9" y2="160.9"/>
	<line class="st40" x1="-637.6" y1="161.2" x2="-633.1" y2="156.7"/>
	<line class="st40" x1="-641.8" y1="157" x2="-637.2" y2="152.5"/>
	<line class="st40" x1="-646" y1="152.8" x2="-641.4" y2="148.3"/>
	<line class="st40" x1="-650.1" y1="148.7" x2="-645.6" y2="144.1"/>
	<line class="st40" x1="-654.3" y1="144.5" x2="-649.8" y2="139.9"/>
	<line class="st40" x1="-658.5" y1="140.3" x2="-654" y2="135.8"/>
	<line class="st40" x1="-662.7" y1="136.1" x2="-658.2" y2="131.6"/>
	<line class="st40" x1="-666.9" y1="131.9" x2="-662.3" y2="127.4"/>
	<line class="st40" x1="-671.1" y1="127.7" x2="-666.5" y2="123.2"/>
	<line class="st40" x1="-675.2" y1="123.6" x2="-670.7" y2="119"/>
</g>
<path class="st13" d="M-83.5-174.6c0,0,3,38.6,43.8,48.9C-50-115.2-61.6-85.3-61.6-48c16.9,0,32.6,0,32.6,0v-86.4
	c0,0,1.3-18.2-17.5-37c-16.6-15.8-37-15.6-37-15.6V-174.6z"/>
<path class="st12" d="M-39.6-48v-79.6c0,0,1-16.8-13.9-34.1C-66.7-176.3-83-176.1-83-176.1"/>
<path class="st13" d="M-83.5-174.6c0,0-3,38.6-43.8,48.9c10.3,10.5,21.9,40.4,21.9,77.7c-16.9,0-32.6,0-32.6,0v-86.4
	c0,0-1.3-18.2,17.5-37c16.5-15.8,37-15.6,37-15.6V-174.6z"/>
<path class="st12" d="M-127.7-48v-79.6c0,0-1-16.8,13.9-34.1c13.2-14.6,29.5-14.4,29.5-14.4"/>
<path class="st13" d="M-72.5-70.3h-22c-1.3,0-2.4-1.1-2.4-2.4v-7.6c0-1.3,1.1-2.4,2.4-2.4h22c1.3,0,2.4,1.1,2.4,2.4v7.6
	C-70.1-71.4-71.1-70.3-72.5-70.3z"/>
<path class="st1" d="M-71.6-76.1h-23.7v-4.2c0-0.7,0.6-1.3,1.3-1.3h21.1c0.7,0,1.3,0.6,1.3,1.3V-76.1z"/>
<path class="st5" d="M-71.5-48h-24c-0.8,0-1.4-0.6-1.4-1.4v-1.4c0-0.8,0.6-1.4,1.4-1.4h24c0.8,0,1.4,0.6,1.4,1.4v1.4
	C-70.1-48.6-70.7-48-71.5-48z"/>
<rect x="-85.7" y="-70.3" class="st13" width="4.3" height="18"/>
<path class="st5" d="M-76-194.5c-5.3-1.7-7.6,2.6-7.6,2.6s-2.3-4.3-7.6-2.6c-5.3,1.7-5.1,7.7-3.3,10.9c1.7,3.2,5.3,6.7,10.7,7.4
	c0.1-0.1,0.3-0.1,0.4,0c5.4-0.7,9-4.3,10.7-7.4C-70.9-186.7-70.7-192.7-76-194.5z"/>
<path class="st16" d="M-291-62.5h-35.4c0,0-3-45.6,6.4-67.6c3.5-6.4,5.1-5.8,8.5-4.7s20.5,7.4,20.5,38.2c4.5,0.4,8.9,0.1,8.9,0.1
	s1.7,8.3,0,14.9c-3.8,0.4-9.2,0.3-9.2,0.3S-292-70.2-291-62.5z"/>
<path class="st41" d="M-301.5-118.8c0,0-2.1,21.8,10.5,22.1"/>
<path class="st41" d="M-317.1-115.3c0,0-1.9,25.6,8.9,29.9c10.8,4.4,16.9,4,16.9,4"/>
<path class="st16" d="M-281.6-93.8c0,0,20.9-3.9,22.4,2.6c-8.5,3.3-22.4,8.9-22.4,8.9S-280.8-89.8-281.6-93.8z"/>
<rect x="-290.2" y="-91.2" transform="matrix(0.9277 -0.3733 0.3733 0.9277 14.0895 -102.9545)" class="st42" width="62.8" height="6.7"/>
<polygon class="st16" points="-283,-74.5 -233.8,-94.3 -233.8,-32.5 -283,-32.5 "/>
<path class="st16" d="M-324.1-62.5c9.3,0,32,0,32,0v30h-27.2v-14.7C-319.3-47.2-324.1-55.5-324.1-62.5z"/>
<rect x="-242.8" y="-129" transform="matrix(0.3967 -0.918 0.918 0.3967 -36.1904 -290.7508)" class="st43" width="7.1" height="22.4"/>
<circle class="st44" cx="-255.9" cy="-124.9" r="7.5"/>
<path class="st16" d="M-300.8-127.9c0,0-1-7,0.4-10.8c2.3,0.7,8.9,2,10.3-3.1c1-3.4,0.6-7,0.6-7l2.7-0.3c0.7-0.1,1.2-0.8,0.9-1.5
	l-3.1-8.7c0,0,1.8-4.8-0.2-9.1c-3.2-1.8-23.9-2.1-23.9-2.1s-6.7,2.2-4.4,9.1c-1.7-0.4-1.7,4.5-0.4,9.1c1.2,4.2,5.5,3.9,5.5,3.9
	l-2.2,12.4C-314.7-136-307.1-134.6-300.8-127.9z"/>
<path class="st44" d="M-309.6-156.5c0,0,1.1-4.5,3.3-6.8c4.8,1.9,19.4,1.5,23.3-12.5c-3.4,2.1-10.8,2.7-16.5-1.1s-16.8-3-21.1,4.6
	c-3.2,5.7-3,13.2-2.5,17.3s3.2,9.9,9.8,10.8c1-5.3,1.2-6.5,1.2-6.5s-3.9,0.5-4.7-4c-0.9-4.6,2.1-5.8,3.8-5.6
	C-311.4-160.2-311.7-157.1-309.6-156.5z"/>
<path class="st16" d="M-307.6-144.6c0,0,1.5,4.7,7.1,5.9"/>
<path class="st45" d="M491.6-20.2l3.6-8.8c0.4-1.1,1.6-1.7,2.8-1.3l4.5,1.4c0,0,12.2,3.2,12.2-7.1v-12c0-1.2,1-2.3,2.3-2.3h0.8
	c1.7,0,2.8-1.9,2-3.4L514.1-64c-0.2-0.3-0.3-0.7-0.3-1.1v-6.1c0-0.1,0-0.1,0-0.2c0-0.6,0.3-5.4-1.8-9.4c-0.4-0.8-0.3-1.8,0.3-2.5
	c3-3.7-5.9-11.2-11.3-11.2c-5.9,0-14.5,0-14.5,0S460-94.1,460-67.8c0,9.5,2.7,14.5,6.6,18.3c0.7,0.7,0.9,1.8,0.4,2.7
	c-1.7,3.1-3.5,6.4-4.6,8.3c-0.6,1-0.2,2.3,0.7,3l25.1,16.3C489.5-18.4,491.1-18.9,491.6-20.2z"/>
<path class="st36" d="M531-149h-46c-1.8,0-3.3,1.5-3.3,3.3v33.1c0,1.8,1.5,3.3,3.3,3.3h31.5v10.7l10.6-10.7h4c1.8,0,3.3-1.5,3.3-3.3
	v-33.1C534.4-147.5,532.9-149,531-149z"/>
<path class="st13" d="M-703.7-93.6h40c1.6,0,2.9,1.3,2.9,2.9v28.8c0,1.6-1.3,2.9-2.9,2.9H-691v9.3l-9.2-9.3h-3.5
	c-1.6,0-2.9-1.3-2.9-2.9v-28.8C-706.5-92.3-705.2-93.6-703.7-93.6z"/>
<path class="st13" d="M-583.8-76.8h-40c-1.6,0-2.9,1.3-2.9,2.9v28.8c0,1.6,1.3,2.9,2.9,2.9h27.4v9.3l9.2-9.3h3.5
	c1.6,0,2.9-1.3,2.9-2.9v-28.8C-580.8-75.5-582.2-76.8-583.8-76.8z"/>
<polygon class="st13" points="-58.2,64.6 -33.9,73.9 -33.9,28.2 -58.2,37.5 "/>
<path class="st13" d="M-112.2,16.7c-0.8-0.1-7.7-0.1-8.5-0.1c-19,0-34.4,15.4-34.4,34.4s15.4,34.4,34.4,34.4c0.8,0,7.7,0,8.5-0.1
	l54-20.7V37.5L-112.2,16.7z"/>
<g>
	<line class="st12" x1="-27.4" y1="62.6" x2="-9.3" y2="62.6"/>
	<line class="st12" x1="-27.4" y1="51" x2="-9.3" y2="51"/>
	<line class="st12" x1="-27.4" y1="39.5" x2="-9.3" y2="39.5"/>
</g>
<circle class="st37" cx="132.5" cy="206.4" r="7"/>
<circle class="st36" cx="87.8" cy="232.4" r="36.1"/>
<circle class="st37" cx="87.8" cy="232.4" r="25.6"/>
<circle cx="87.8" cy="232.4" r="12"/>
<image style="overflow:visible;" width="984" height="990" xlink:href="3903A86A.jpg"  transform="matrix(0.1623 0 0 0.1623 407.8767 8.7211)">
</image>
<circle class="st5" cx="314.8" cy="40.4" r="7.9"/>
<circle class="st5" cx="264.5" cy="73.3" r="19.3"/>
<circle class="st13" cx="-167.7" cy="184.5" r="11.7"/>
<path class="st13" d="M263.9,42.3c17.3,0,31.3,14,31.3,31.3"/>
<path class="st5" d="M249.9,5.9h28c2.9,0,5.6,1.5,7.2,4l8.5,13.5h-59.1l8.6-13.6C244.5,7.4,247.1,5.9,249.9,5.9z"/>
<path class="st13" d="M256.9,14.7h14c1.5,0,2.8,0.7,3.6,2l4.2,6.8h-29.6l4.3-6.8C254.2,15.4,255.5,14.7,256.9,14.7z"/>
<path class="st5" d="M221.5,14.2h-8.8c-2,0-3.7,1.6-3.7,3.7v5.6h16.1v-5.6C225.1,15.8,223.5,14.2,221.5,14.2z"/>
<line class="st12" x1="204.8" y1="36.9" x2="221.6" y2="36.9"/>
<line class="st12" x1="204.8" y1="43.6" x2="221.6" y2="43.6"/>
<path class="st13" d="M245.1,49.4"/>
<path class="st1" d="M-153.5,50.6c0,18.4,14.9,33.3,33.3,33.3c0.8,0,7.5,0,8.2-0.1l52.3-20.1V50.6H-153.5z"/>
<circle class="st13" cx="-119.8" cy="51" r="19"/>
<g>
	<line class="st12" x1="-137.3" y1="44.3" x2="-102.1" y2="44.3"/>
	<line class="st12" x1="-137.3" y1="57.8" x2="-102.1" y2="57.8"/>
</g>
<path class="st1" d="M316.5,277.7c-0.1,0-0.3,0-0.5-0.2c-6.3-7-10.9-10.9-13.7-11.5c-0.4-0.1-0.9-0.2-1.4-0.2
	c-2.9,0-6.2,1.9-8.6,3.8l-10.1-10.1c0.3-0.2,0.4-0.4,0.7-0.5l15.2-4.3c0.7-0.2,1.4-0.3,2.1-0.3c2.1,0,4,0.8,5.5,2.3l13.1,13.1
	c0.2,0.2,0.3,0.5,0.2,0.7l-1.9,6.7C317.1,277.6,316.7,277.7,316.5,277.7L316.5,277.7z"/>
<path class="st1" d="M178.9,175.7c0.1,0,0.3,0,0.5,0.2c6.3,7,10.9,10.9,13.7,11.5c0.4,0.1,0.9,0.2,1.4,0.2c2.9,0,6.3-1.8,9.5-4.5
	l10.1,10.2c-0.3,0.4-1.1,0.9-1.7,1.2l-15.2,4.3c-0.7,0.2-1.4,0.3-2.1,0.3c-2.1,0-4-0.8-5.5-2.3l-13.1-13.1c-0.2-0.2-0.3-0.5-0.2-0.7
	l1.9-6.7C178.3,175.9,178.7,175.7,178.9,175.7L178.9,175.7z"/>
<path class="st1" d="M-87.4-164.2c-15.2,1.4-27.2,14.3-27.2,29.9c0,0.8,0,1.5,0.1,2.3C-97.9-140.5-90.6-154.6-87.4-164.2z"/>
<path class="st1" d="M-79.8-164.4c15.2,1.4,27.2,14.3,27.2,29.9c0,0.8,0,1.5-0.1,2.3C-69.4-140.7-76.7-154.8-79.8-164.4z"/>
<polygon class="st1" points="-235.3,-92 -263.9,-80.5 -263.9,-34 -235.3,-34 "/>
<path class="st1" d="M-322.8-61c0.4,6.4,4.8,13.7,4.8,13.7V-34h13.7v-27C-310.6-61-318.5-61-322.8-61z"/>
<path class="st46" d="M479.5-63.5c0,0,3.1-6.8,7-10.9c7.3,2.9,27.3,2.7,37.1-13.2c1.8-3-0.7-6.7-4.1-6.2c-6.3,0.9-14.3-0.1-21-4.5
	c-10.1-6.7-29.5-5.3-37,8.1c-5.6,10-4.7,25.2-3.5,29.6c1.3,4.8,4,9.8,9.1,13.7c3.9,3,7.7,2.9,8.6-1.9l0.7-3.7c0,0-6.8,0.9-8.3-7.1
	s3-10.4,6-10C477.9-69,477.5-64.6,479.5-63.5z"/>
<path class="st45" d="M565.8-20.2l-3.6-8.8c-0.4-1.1-1.6-1.7-2.8-1.3l-4.5,1.4c0,0-12.2,3.2-12.2-7.1v-12c0-1.2-1-2.3-2.3-2.3h-0.8
	c-1.7,0-2.8-1.9-2-3.4l5.7-10.3c0.2-0.3,0.3-0.7,0.3-1.1v-6.1c0-0.1,0-0.1,0-0.2c0-0.6-0.3-5.4,1.8-9.4c0.4-0.8,0.3-1.8-0.3-2.5
	c-3-3.7,5.9-11.2,11.3-11.2c5.9,0,14.5,0,14.5,0s26.4,0.3,26.4,26.6c0,9.5-2.7,14.5-6.6,18.3c-0.7,0.7-0.9,1.8-0.4,2.7
	c1.7,3.1,3.5,6.4,4.6,8.3c0.6,1,0.2,2.3-0.7,3l-25.1,16.3C567.9-18.4,566.3-18.9,565.8-20.2z"/>
<path class="st46" d="M577.9-63.5c0,0-3.1-6.8-7-10.9c-7.3,2.9-27.3,2.7-37.1-13.2c-1.8-3,0.7-6.7,4.1-6.2c6.3,0.9,14.3-0.1,21-4.5
	c10-6.7,29.5-5.3,37,8.1c5.6,10,4.7,25.2,3.5,29.6c-1.3,4.8-4,9.8-9.1,13.7c-3.9,3-7.7,2.9-8.6-1.9l-0.7-3.7c0,0,6.8,0.9,8.3-7.1
	s-3-10.4-6-10C579.5-69,579.9-64.6,577.9-63.5z"/>
<line class="st12" x1="-167.7" y1="173.5" x2="-167.7" y2="195.5"/>
<line class="st12" x1="-156.7" y1="184.5" x2="-178.7" y2="184.5"/>
<polygon class="st5" points="295.1,184.3 289.1,178.3 295.6,164.5 310.5,153.7 319.8,163 308.9,177.9 "/>
<rect x="-507.8" y="-31.2" class="st14" width="88.9" height="14"/>
<rect x="-506.2" y="-29.7" class="st1" width="85.7" height="5.5"/>
<rect x="-467" y="-17.2" class="st47" width="7.5" height="58"/>
<circle class="st47" cx="-523.6" cy="-92.1" r="13.6"/>
<path class="st14" d="M-451.3-17.2c0,0,0,44.4,0,51.1s6.9,6.9,6.9,6.9h6.5l16.5-40c0,0,12,0,19.3,0s8.9-8.9,8.9-8.9s0-52.7,0-57.8
	s-5.5-5.5-5.5-5.5s-3.6,0-9.5,0c-13.1,0-13.3,14-13.3,14v26.2h2.5v14H-451.3z"/>
<path class="st1" d="M-399.3-69.9c-0.1,0-0.2,0-0.3,0h-8.4c-6.6,0-9.8,3.9-11,8c0.3,0,0.8,0,1.2,0h8.4c0.1,0,0.1,0,0.2,0
	c0.7,0.1,4.8,0.7,4.8,5.2c0,4.9,0,55.4,0,55.4s0,0.2-0.1,0.6c0.7,0,2,0,2.6,0c6,0,7.3-7.1,7.3-8.4c0-0.1,0-0.2,0-0.3v-56.2
	C-394.6-70-398.6-69.9-399.3-69.9z"/>
<path class="st1" d="M-527.3-69.9c0.1,0,0.2,0,0.3,0h8.4c6.6,0,9.8,3.9,11,8c-0.3,0-0.8,0-1.2,0h-8.4c-0.1,0-0.1,0-0.2,0
	c-0.7,0.1-4.8,0.7-4.8,5.2c0,4.9,0,55.4,0,55.4s0,0.2,0.1,0.6c-0.7,0-2,0-2.6,0c-6,0-7.3-7.1-7.3-8.4c0-0.1,0-0.2,0-0.3v-56.2
	C-532-70-528.1-69.9-527.3-69.9z"/>
<circle class="st47" cx="-404.9" cy="-92.1" r="13.6"/>
<image style="overflow:visible;" width="512" height="512" xlink:href="../../../../../../../Downloads/1244334.png"  transform="matrix(0.2666 0 0 0.2666 -470.6197 175.5492)">
</image>
<path class="st13" d="M677.4,40.6c0,21.3-17.2,52.7-38.5,52.7s-38.5-31.5-38.5-52.7s17.2-38.5,38.5-38.5S677.4,19.3,677.4,40.6z"/>
<path class="st1" d="M646.1,90c-18.8-6.3-25.5-40.6-19.5-60.1c3.7-11.9,13.1-20.8,23.8-24.3c-3.7-1.3-8.1-1.9-12.2-1.9
	c-19.4,0-36.1,16.6-36.1,37.1s16.6,51,36.3,51c2.9,0,5.8-0.4,8.5-1.6C646.6,90.1,646.3,90,646.1,90z"/>
<path class="st13" d="M664.3,21.7c4.4,5.5,7,12.5,7,20.1c0,3.8-0.6,7.9-1.8,12.1"/>
<path class="st13" d="M648.8,10.9c3.8,1.2,7.2,3.1,10.3,5.5"/>
<path class="st13" d="M651.5-60.7h26.6c6,0,10.9,4.9,10.9,10.9v9.3c0,0.9-0.8,1.7-1.7,1.7h-44.9c-1,0-1.9-0.8-1.9-1.9v-9.1
	C640.6-55.8,645.5-60.7,651.5-60.7z"/>
<ellipse class="st13" cx="664.8" cy="-73.3" rx="12.2" ry="14"/>
<path class="st13" d="M700-60.7h26.6c6,0,10.9,4.9,10.9,10.9v9.3c0,0.9-0.8,1.7-1.7,1.7h-44.9c-1,0-1.9-0.8-1.9-1.9v-9.1
	C689-55.8,693.9-60.7,700-60.7z"/>
<ellipse class="st13" cx="713.3" cy="-73.3" rx="12.2" ry="14"/>
<path class="st13" d="M748.5-60.7h26.6c6,0,10.9,4.9,10.9,10.9v9.3c0,0.9-0.8,1.7-1.7,1.7h-44.9c-1,0-1.9-0.8-1.9-1.9v-9.1
	C737.5-55.8,742.4-60.7,748.5-60.7z"/>
<ellipse class="st13" cx="761.8" cy="-73.3" rx="12.2" ry="14"/>
<rect x="680.7" y="-172.3" class="st13" width="105.1" height="75.1"/>
<rect x="685.1" y="-168.2" class="st13" width="96.4" height="66.9"/>
<path class="st13" d="M728.8-151.2h-4.7h-29h-7.2v12.3h31c2.9,0,5.2-2.3,5.2-5.2v-3.3h4.7c1,0,1.9-0.8,1.9-1.9
	C730.7-150.3,729.8-151.2,728.8-151.2z"/>
<circle class="st13" cx="667.1" cy="-166.1" r="12"/>
<path class="st13" d="M714.6-151.2h-33.9h-3.5h-1.9c-1.6,2.8-4.6,4.8-8.1,4.8s-6.5-1.9-8.1-4.8H650c-4.9,0-8.8,4-8.8,8.8v45.2h39.6
	v-38.2h33.9v-15.8H714.6z"/>
<line class="st12" x1="655.2" y1="-120.1" x2="655.2" y2="-97.2"/>
<image style="overflow:visible;" width="225" height="225" xlink:href="3903A86E.jpg"  transform="matrix(0.97 -0.2431 0.2431 0.97 780.8846 46.1714)">
</image>
<rect x="427.6" y="284.1" transform="matrix(0.2431 -0.97 0.97 0.2431 55.5257 650.6157)" class="st5" width="34.1" height="11.3"/>
<path class="st11" d="M487.8,247.4l7.6-50.3l-51.7-13l-17,47.9c-0.7,1.5-1.2,3.1-1.6,4.8c-4.3,17.1,6.1,34.5,23.2,38.8
	c17.1,4.3,34.5-6.1,38.8-23.2C487.4,250.8,487.6,249.1,487.8,247.4z"/>
<path class="st1" d="M488.2,234.1l-55.7-14l-4.6,12.9c-0.6,1.4-1.1,3-1.5,4.5c-4,16.1,5.9,32.5,22.2,36.6
	c16.3,4.1,32.8-5.7,36.8-21.8c0.4-1.6,0.7-3.2,0.8-4.7L488.2,234.1z"/>
<path class="st11" d="M416.4,296.4l50,12.5c3.2,0.8,5.2,4.1,4.4,7.3l-1.5,5.9l-61.6-15.4c-0.1,0-0.1-0.1-0.1-0.2l1.4-5.7
	C409.9,297.5,413.2,295.6,416.4,296.4z"/>
<path class="st1" d="M415.4,297.6l51.4,12.9c2.1,0.5,3.3,2.6,2.8,4.7l-0.3,1.1l-58.8-14.7c-0.1,0-0.1-0.1-0.1-0.1l0.3-1
	C411.2,298.4,413.3,297.1,415.4,297.6z"/>
<path class="st48" d="M533.4,235.1c0.3,8-2.7,15.5-8,20.5c-3.3,3.1-7.4,5.3-12.1,6.1"/>
<path class="st48" d="M531.5,225.4l0.6,2.2"/>
<line class="st48" x1="447" y1="192.7" x2="431.9" y2="234.2"/>
<path class="st15" d="M-278.1,59c0,0,2.3,0.5,4.4-3c-4.1-2.6-4.4-6-4.4-8.9"/>
<ellipse class="st49" cx="-645.4" cy="-67.4" rx="22.7" ry="25.6"/>
<path class="st50" d="M-619-78.7c0,0,1.8-3.5,0.3-10.6c-0.9-4.7-8,7.1-8,7.1l3.2,8.3C-623.5-74-620.5-74.8-619-78.7z"/>
<path class="st50" d="M-659.7-21.7l-5-12.7l4.7-3.7c0,0,6,7.6,12.5,8C-651-27.6-659.7-21.7-659.7-21.7z"/>
<path class="st50" d="M-630.5-21.7l5-12.7l-4.7-3.7c0,0-6,7.6-12.5,8C-639.2-27.6-630.5-21.7-630.5-21.7z"/>
<path class="st50" d="M-667.2-74c0,0,3.8-16.4,17.7-10.7c10.8,4.4,21.6,10.5,29.5,0.9c6.7-8.2,3.9-24.1-11-27.5
	c2.3,9.1-7.3,12.6-12.9,10.4c-4.1-1.6-19.9-5.7-26.3,4.3C-676.7-86.6-671.2-76.3-667.2-74z"/>
<polygon class="st51" points="-644.8,-27.5 -653.7,1 -644.8,10.6 -636.5,1 "/>
<path class="st52" d="M-639-53c-1,2-3.7,3.4-6.7,3.4s-5.5-1.3-6.6-3.1"/>
<g>
	<line class="st53" x1="-638.4" y1="-70.7" x2="-631.2" y2="-70.7"/>
	<line class="st53" x1="-660.2" y1="-70.7" x2="-653" y2="-70.7"/>
</g>
<path class="st52" d="M-645.4-57.1c0,0,2.6,0.5,4.9-3.3c-4.6-2.8-4.9-6.6-4.9-9.8"/>
<polygon class="st50" points="-643,-19.4 -647.2,-19.4 -649.7,-23.7 -648.2,-29.2 -641.9,-29.2 -640.5,-23.7 "/>
<line class="st54" x1="-645" y1="10.6" x2="-645" y2="32"/>
<path class="st13" d="M-431.6-238.6c-3.7-1.7-6.5-4.5-7.7-7.8c-2.2-1-4.8-1.6-7.5-1.7c-3.2-0.1-6.3,0.6-8.9,1.8
	c-1.2,3.3-4,6-7.5,7.6c-0.4,1.1-0.7,2.3-0.7,3.5c-0.3,7.4,6.8,13.6,16,13.9c9.2,0.3,16.7-5.5,17.1-12.9
	C-430.8-235.8-431-237.2-431.6-238.6z"/>
<path class="st13" d="M-432.3-238.3c-5.3,6.9-11.9,7.9-14.7,8l0,0l0,0c0,0-0.1,0-0.3,0c-0.2,0-0.3,0-0.3,0l0,0l0,0
	c-2.8-0.1-9.4-1.1-14.7-8c-13.9,0-21.9,11.7-21.9,22c0,9,0.7,17.7,3.2,33.5c4.9,6.7,19.1,12.2,31.2,12.2c0.2,0,2.2,0.1,2.5,0.1
	c0.3,0,2.3-0.1,2.5-0.1c12.1,0,26.3-5.5,31.2-12.2c2.5-15.7,3.2-24.5,3.2-33.5C-410.4-226.6-418.4-238.3-432.3-238.3z"/>
<ellipse class="st13" cx="-447.7" cy="-270.4" rx="22.7" ry="25.6"/>
<path class="st5" d="M-421.3-281.7c0,0,1.8-3.5,0.3-10.6c-0.9-4.7-8,7.1-8,7.1l3.2,8.3C-425.8-277-422.8-277.8-421.3-281.7z"/>
<path class="st5" d="M-463.3-221l-5.5-13.8l5.1-4c0,0,6.5,8.3,13.6,8.7C-453.9-227.4-463.3-221-463.3-221z"/>
<path class="st5" d="M-431.5-221l5.5-13.8l-5.1-4c0,0-6.5,8.3-13.6,8.7C-441-227.4-431.5-221-431.5-221z"/>
<path class="st5" d="M-469.6-277c0,0,3.8-16.4,17.7-10.7c10.8,4.4,21.6,10.5,29.5,0.9c6.7-8.2,3.9-24.1-11-27.5
	c2.3,9.1-7.3,12.6-12.9,10.4c-4.1-1.6-19.9-5.7-26.3,4.3S-473.5-279.3-469.6-277z"/>
<path class="st13" d="M-441.3-256c-1,2-3.7,3.4-6.7,3.4s-5.5-1.3-6.6-3.1"/>
<g>
	<line class="st12" x1="-440.7" y1="-273.7" x2="-433.5" y2="-273.7"/>
	<line class="st12" x1="-462.6" y1="-273.7" x2="-455.4" y2="-273.7"/>
</g>
<path class="st13" d="M-447.7-260.1c0,0,2.6,0.5,4.9-3.3c-4.6-2.8-4.9-6.6-4.9-9.8"/>
<line class="st12" x1="-447.3" y1="-228.8" x2="-447.3" y2="-171"/>
<image style="overflow:visible;" width="1005" height="1280" xlink:href="4879FF75.jpg"  transform="matrix(0.3031 0 0 0.3031 -1234.7382 408.3192)">
</image>
<rect x="-613.1" y="409.5" class="st23" width="180" height="230"/>
<rect x="-606.6" y="416.4" class="st55" width="166.7" height="98.6"/>
<path class="st23" d="M-603,418.7h75.1c0.7,0,1.3,0.6,1.3,1.3v91.5c0,0.7-0.6,1.3-1.3,1.3H-603c-0.7,0-1.3-0.6-1.3-1.3V420
	C-604.3,419.3-603.7,418.7-603,418.7z"/>
<rect x="-606.6" y="626.4" class="st55" width="166.7" height="8.4"/>
<rect x="-606.6" y="602.3" class="st24" width="166.7" height="8.8"/>
<rect x="-606.6" y="589.6" class="st24" width="166.7" height="5.6"/>
<path class="st56" d="M-601.5,618.4h20.1c1.5,0,2.8,1.2,2.8,2.8l0,0c0,1.5-1.2,2.8-2.8,2.8h-20.1c-1.5,0-2.8-1.2-2.8-2.8l0,0
	C-604.3,619.7-603.1,618.4-601.5,618.4z"/>
<path class="st56" d="M-602.9,591.5h4.4c0.5,0,0.9,0.4,0.9,0.9l0,0c0,0.5-0.4,0.9-0.9,0.9h-4.4c-0.5,0-0.9-0.4-0.9-0.9l0,0
	C-603.8,591.9-603.4,591.5-602.9,591.5z"/>
<path class="st56" d="M-567,591.5h15.5c0.5,0,0.9,0.4,0.9,0.9l0,0c0,0.5-0.4,0.9-0.9,0.9H-567c-0.5,0-0.9-0.4-0.9-0.9l0,0
	C-567.9,591.9-567.5,591.5-567,591.5z"/>
<path class="st56" d="M-514.3,591.5h15.5c0.5,0,0.9,0.4,0.9,0.9l0,0c0,0.5-0.4,0.9-0.9,0.9h-15.5c-0.5,0-0.9-0.4-0.9-0.9l0,0
	C-515.2,591.9-514.8,591.5-514.3,591.5z"/>
<path class="st56" d="M-602.9,585.9h4.4c0.5,0,0.9,0.4,0.9,0.9l0,0c0,0.5-0.4,0.9-0.9,0.9h-4.4c-0.5,0-0.9-0.4-0.9-0.9l0,0
	C-603.8,586.3-603.4,585.9-602.9,585.9z"/>
<path class="st56" d="M-567,585.9h15.5c0.5,0,0.9,0.4,0.9,0.9l0,0c0,0.5-0.4,0.9-0.9,0.9H-567c-0.5,0-0.9-0.4-0.9-0.9l0,0
	C-567.9,586.3-567.5,585.9-567,585.9z"/>
<path class="st56" d="M-514.3,585.9h15.5c0.5,0,0.9,0.4,0.9,0.9l0,0c0,0.5-0.4,0.9-0.9,0.9h-15.5c-0.5,0-0.9-0.4-0.9-0.9l0,0
	C-515.2,586.3-514.8,585.9-514.3,585.9z"/>
<rect x="-606.6" y="578.4" class="st24" width="166.7" height="5.6"/>
<path class="st56" d="M-602.9,580.3h4.4c0.5,0,0.9,0.4,0.9,0.9l0,0c0,0.5-0.4,0.9-0.9,0.9h-4.4c-0.5,0-0.9-0.4-0.9-0.9l0,0
	C-603.8,580.7-603.4,580.3-602.9,580.3z"/>
<path class="st56" d="M-567,580.3h15.5c0.5,0,0.9,0.4,0.9,0.9l0,0c0,0.5-0.4,0.9-0.9,0.9H-567c-0.5,0-0.9-0.4-0.9-0.9l0,0
	C-567.9,580.7-567.5,580.3-567,580.3z"/>
<path class="st56" d="M-514.3,580.3h15.5c0.5,0,0.9,0.4,0.9,0.9l0,0c0,0.5-0.4,0.9-0.9,0.9h-15.5c-0.5,0-0.9-0.4-0.9-0.9l0,0
	C-515.2,580.7-514.8,580.3-514.3,580.3z"/>
<path class="st56" d="M-602.9,574.7h4.4c0.5,0,0.9,0.4,0.9,0.9l0,0c0,0.5-0.4,0.9-0.9,0.9h-4.4c-0.5,0-0.9-0.4-0.9-0.9l0,0
	C-603.8,575.1-603.4,574.7-602.9,574.7z"/>
<path class="st56" d="M-567,574.7h15.5c0.5,0,0.9,0.4,0.9,0.9l0,0c0,0.5-0.4,0.9-0.9,0.9H-567c-0.5,0-0.9-0.4-0.9-0.9l0,0
	C-567.9,575.1-567.5,574.7-567,574.7z"/>
<path class="st56" d="M-514.3,574.7h15.5c0.5,0,0.9,0.4,0.9,0.9l0,0c0,0.5-0.4,0.9-0.9,0.9h-15.5c-0.5,0-0.9-0.4-0.9-0.9l0,0
	C-515.2,575.1-514.8,574.7-514.3,574.7z"/>
<rect x="-606.6" y="567.2" class="st24" width="166.7" height="5.6"/>
<path class="st56" d="M-602.9,569.1h4.4c0.5,0,0.9,0.4,0.9,0.9l0,0c0,0.5-0.4,0.9-0.9,0.9h-4.4c-0.5,0-0.9-0.4-0.9-0.9l0,0
	C-603.8,569.5-603.4,569.1-602.9,569.1z"/>
<path class="st56" d="M-567,569.1h15.5c0.5,0,0.9,0.4,0.9,0.9l0,0c0,0.5-0.4,0.9-0.9,0.9H-567c-0.5,0-0.9-0.4-0.9-0.9l0,0
	C-567.9,569.5-567.5,569.1-567,569.1z"/>
<path class="st56" d="M-514.3,569.1h15.5c0.5,0,0.9,0.4,0.9,0.9l0,0c0,0.5-0.4,0.9-0.9,0.9h-15.5c-0.5,0-0.9-0.4-0.9-0.9l0,0
	C-515.2,569.5-514.8,569.1-514.3,569.1z"/>
<rect x="-606.6" y="520" class="st24" width="166.7" height="10.1"/>
<rect x="-606.6" y="519.1" class="st55" width="166.7" height="0.9"/>
<rect x="-606.6" y="532.4" class="st24" width="166.7" height="7.6"/>
<path class="st55" d="M-601.4,522.1h17.5c1.6,0,2.9,1.3,2.9,2.9l0,0c0,1.6-1.3,2.9-2.9,2.9h-17.5c-1.6,0-2.9-1.3-2.9-2.9l0,0
	C-604.3,523.4-603,522.1-601.4,522.1z"/>
<path class="st55" d="M-597.2,421.8h24.1c2.2,0,4,1.8,4,4l0,0c0,2.2-1.8,4-4,4h-24.1c-2.2,0-4-1.8-4-4l0,0
	C-601.2,423.6-599.4,421.8-597.2,421.8z"/>
<g>
	<path class="st56" d="M-603.4,550.3h160c0.5,0,0.9,0.4,0.9,0.9l0,0c0,0.5-0.4,0.9-0.9,0.9h-160c-0.5,0-0.9-0.4-0.9-0.9l0,0
		C-604.3,550.7-603.9,550.3-603.4,550.3z"/>
	<path class="st56" d="M-603.4,554.1h160c0.5,0,0.9,0.4,0.9,0.9l0,0c0,0.5-0.4,0.9-0.9,0.9h-160c-0.5,0-0.9-0.4-0.9-0.9l0,0
		C-604.3,554.5-603.9,554.1-603.4,554.1z"/>
	<path class="st56" d="M-603.4,557.9h62.4c0.5,0,0.9,0.4,0.9,0.9l0,0c0,0.5-0.4,0.9-0.9,0.9h-62.4c-0.5,0-0.9-0.4-0.9-0.9l0,0
		C-604.3,558.3-603.9,557.9-603.4,557.9z"/>
	<path class="st56" d="M-603.4,545.3h29.9c0.5,0,0.9,0.4,0.9,0.9l0,0c0,0.5-0.4,0.9-0.9,0.9h-29.9c-0.5,0-0.9-0.4-0.9-0.9l0,0
		C-604.3,545.7-603.9,545.3-603.4,545.3z"/>
</g>
<path class="st56" d="M-603.4,605.9h29.9c0.5,0,0.9,0.4,0.9,0.9l0,0c0,0.5-0.4,0.9-0.9,0.9h-29.9c-0.5,0-0.9-0.4-0.9-0.9l0,0
	C-604.3,606.3-603.9,605.9-603.4,605.9z"/>
<path class="st56" d="M-473.3,605.9h29.9c0.5,0,0.9,0.4,0.9,0.9l0,0c0,0.5-0.4,0.9-0.9,0.9h-29.9c-0.5,0-0.9-0.4-0.9-0.9l0,0
	C-474.2,606.3-473.8,605.9-473.3,605.9z"/>
<path class="st56" d="M-603.4,535.3h19.9c0.5,0,0.9,0.4,0.9,0.9l0,0c0,0.5-0.4,0.9-0.9,0.9h-19.9c-0.5,0-0.9-0.4-0.9-0.9l0,0
	C-604.3,535.7-603.9,535.3-603.4,535.3z"/>
<path class="st56" d="M-603.4,614.3h19.9c0.5,0,0.9,0.4,0.9,0.9l0,0c0,0.5-0.4,0.9-0.9,0.9h-19.9c-0.5,0-0.9-0.4-0.9-0.9l0,0
	C-604.3,614.7-603.9,614.3-603.4,614.3z"/>
<path class="st56" d="M-573.4,618.4h19.9c0.5,0,0.9,0.4,0.9,0.9l0,0c0,0.5-0.4,0.9-0.9,0.9h-19.9c-0.5,0-0.9-0.4-0.9-0.9l0,0
	C-574.3,618.8-573.9,618.4-573.4,618.4z"/>
<path class="st56" d="M-573.4,622.3h19.9c0.5,0,0.9,0.4,0.9,0.9l0,0c0,0.5-0.4,0.9-0.9,0.9h-19.9c-0.5,0-0.9-0.4-0.9-0.9l0,0
	C-574.3,622.6-573.9,622.3-573.4,622.3z"/>
<path class="st56" d="M-578.6,535.3h19.9c0.5,0,0.9,0.4,0.9,0.9l0,0c0,0.5-0.4,0.9-0.9,0.9h-19.9c-0.5,0-0.9-0.4-0.9-0.9l0,0
	C-579.5,535.7-579.1,535.3-578.6,535.3z"/>
<path class="st56" d="M-463.3,535.3h19.9c0.5,0,0.9,0.4,0.9,0.9l0,0c0,0.5-0.4,0.9-0.9,0.9h-19.9c-0.5,0-0.9-0.4-0.9-0.9l0,0
	C-464.2,535.7-463.8,535.3-463.3,535.3z"/>
<g>
	<path class="st56" d="M-532.2,522.7h19.9c0.5,0,0.9,0.4,0.9,0.9l0,0c0,0.5-0.4,0.9-0.9,0.9h-19.9c-0.5,0-0.9-0.4-0.9-0.9l0,0
		C-533.1,523.1-532.7,522.7-532.2,522.7z"/>
	<path class="st56" d="M-532.2,525.6h19.9c0.5,0,0.9,0.4,0.9,0.9l0,0c0,0.5-0.4,0.9-0.9,0.9h-19.9c-0.5,0-0.9-0.4-0.9-0.9l0,0
		C-533.1,526-532.7,525.6-532.2,525.6z"/>
</g>
<g>
	<path class="st56" d="M-497.8,522.7h19.9c0.5,0,0.9,0.4,0.9,0.9l0,0c0,0.5-0.4,0.9-0.9,0.9h-19.9c-0.5,0-0.9-0.4-0.9-0.9l0,0
		C-498.7,523.1-498.3,522.7-497.8,522.7z"/>
	<path class="st56" d="M-497.8,525.6h19.9c0.5,0,0.9,0.4,0.9,0.9l0,0c0,0.5-0.4,0.9-0.9,0.9h-19.9c-0.5,0-0.9-0.4-0.9-0.9l0,0
		C-498.7,526-498.3,525.6-497.8,525.6z"/>
</g>
<g>
	<path class="st56" d="M-463.3,522.7h19.9c0.5,0,0.9,0.4,0.9,0.9l0,0c0,0.5-0.4,0.9-0.9,0.9h-19.9c-0.5,0-0.9-0.4-0.9-0.9l0,0
		C-464.2,523.1-463.8,522.7-463.3,522.7z"/>
	<path class="st56" d="M-463.3,525.6h19.9c0.5,0,0.9,0.4,0.9,0.9l0,0c0,0.5-0.4,0.9-0.9,0.9h-19.9c-0.5,0-0.9-0.4-0.9-0.9l0,0
		C-464.2,526-463.8,525.6-463.3,525.6z"/>
</g>
<rect x="-370.4" y="602.9" class="st24" width="162.1" height="8.6"/>
<path class="st56" d="M-365.5,618.6h19.6c1.5,0,2.7,1.2,2.7,2.7v0c0,1.5-1.2,2.7-2.7,2.7h-19.6c-1.5,0-2.7-1.2-2.7-2.7v0
	C-368.2,619.8-367,618.6-365.5,618.6z"/>
<g>
	<path class="st56" d="M-367.2,572.4h16.6c0.5,0,0.9,0.4,0.9,0.8l0,0c0,0.5-0.4,0.8-0.9,0.8h-16.6c-0.5,0-0.9-0.4-0.9-0.8l0,0
		C-368.2,572.8-367.8,572.4-367.2,572.4z"/>
	<g>
		<path class="st56" d="M-367.2,580.2h12.2h4.4h12.2c0.5,0,0.9-0.4,0.9-0.8s-0.4-0.8-0.9-0.8h-12.2h-4.4h-12.2
			c-0.5,0-0.9,0.4-0.9,0.8S-367.8,580.2-367.2,580.2z"/>
		<path class="st56" d="M-338.4,589.4h-12.2h-4.4h-12.2c-0.5,0-0.9,0.4-0.9,0.8s0.4,0.8,0.9,0.8h12.2h4.4h12.2
			c0.5,0,0.9-0.4,0.9-0.8S-337.9,589.4-338.4,589.4z"/>
		<path class="st56" d="M-338.4,583.9h-12.2h-4.4h-12.2c-0.5,0-0.9,0.4-0.9,0.8s0.4,0.8,0.9,0.8h12.2h4.4h12.2
			c0.5,0,0.9-0.4,0.9-0.8S-337.9,583.9-338.4,583.9z"/>
	</g>
</g>
<g>
	<path class="st56" d="M-314,572.4h16.6c0.5,0,0.9,0.4,0.9,0.8l0,0c0,0.5-0.4,0.8-0.9,0.8H-314c-0.5,0-0.9-0.4-0.9-0.8l0,0
		C-315,572.8-314.5,572.4-314,572.4z"/>
	<g>
		<path class="st56" d="M-314,580.2h12.2h4.4h12.2c0.5,0,0.9-0.4,0.9-0.8s-0.4-0.8-0.9-0.8h-12.2h-4.4H-314c-0.5,0-0.9,0.4-0.9,0.8
			S-314.5,580.2-314,580.2z"/>
		<path class="st56" d="M-285.2,589.4h-12.2h-4.4H-314c-0.5,0-0.9,0.4-0.9,0.8s0.4,0.8,0.9,0.8h12.2h4.4h12.2c0.5,0,0.9-0.4,0.9-0.8
			S-284.7,589.4-285.2,589.4z"/>
		<path class="st56" d="M-285.2,583.9h-12.2h-4.4H-314c-0.5,0-0.9,0.4-0.9,0.8s0.4,0.8,0.9,0.8h12.2h4.4h12.2c0.5,0,0.9-0.4,0.9-0.8
			S-284.7,583.9-285.2,583.9z"/>
	</g>
</g>
<rect x="-370.4" y="522.9" class="st24" width="162.1" height="9.8"/>
<rect x="-370.4" y="522" class="st21" width="162.1" height="0.9"/>
<path class="st57" d="M-365.4,525h17c1.6,0,2.8,1.3,2.8,2.8l0,0c0,1.6-1.3,2.8-2.8,2.8h-17c-1.6,0-2.8-1.3-2.8-2.8l0,0
	C-368.2,526.2-366.9,525-365.4,525z"/>
<g>
	<path class="st56" d="M-367.3,545.3h155.5c0.5,0,0.8,0.4,0.8,0.8l0,0c0,0.5-0.4,0.8-0.8,0.8h-155.5c-0.5,0-0.8-0.4-0.8-0.8l0,0
		C-368.2,545.7-367.8,545.3-367.3,545.3z"/>
	<path class="st56" d="M-367.3,549h155.5c0.5,0,0.8,0.4,0.8,0.8l0,0c0,0.5-0.4,0.8-0.8,0.8h-155.5c-0.5,0-0.8-0.4-0.8-0.8l0,0
		C-368.2,549.4-367.8,549-367.3,549z"/>
	<path class="st56" d="M-367.3,552.8h60.7c0.5,0,0.8,0.4,0.8,0.8l0,0c0,0.5-0.4,0.8-0.8,0.8h-60.7c-0.5,0-0.8-0.4-0.8-0.8l0,0
		C-368.2,553.1-367.8,552.8-367.3,552.8z"/>
	<path class="st56" d="M-367.3,540.5h29c0.5,0,0.8,0.4,0.8,0.8l0,0c0,0.5-0.4,0.8-0.8,0.8h-29c-0.5,0-0.8-0.4-0.8-0.8l0,0
		C-368.2,540.9-367.8,540.5-367.3,540.5z"/>
</g>
<path class="st56" d="M-367.3,606.4h29c0.5,0,0.8,0.4,0.8,0.8l0,0c0,0.5-0.4,0.8-0.8,0.8h-29c-0.5,0-0.8-0.4-0.8-0.8l0,0
	C-368.2,606.8-367.8,606.4-367.3,606.4z"/>
<path class="st56" d="M-240.8,606.4h29c0.5,0,0.8,0.4,0.8,0.8l0,0c0,0.5-0.4,0.8-0.8,0.8h-29c-0.5,0-0.8-0.4-0.8-0.8l0,0
	C-241.7,606.8-241.3,606.4-240.8,606.4z"/>
<path class="st56" d="M-367.3,614.6h19.3c0.5,0,0.8,0.4,0.8,0.8l0,0c0,0.5-0.4,0.8-0.8,0.8h-19.3c-0.5,0-0.8-0.4-0.8-0.8l0,0
	C-368.2,615-367.8,614.6-367.3,614.6z"/>
<path class="st56" d="M-338.2,618.6h19.3c0.5,0,0.8,0.4,0.8,0.8v0c0,0.5-0.4,0.8-0.8,0.8h-19.3c-0.5,0-0.8-0.4-0.8-0.8v0
	C-339,619-338.6,618.6-338.2,618.6z"/>
<path class="st56" d="M-338.2,622.3h19.3c0.5,0,0.8,0.4,0.8,0.8v0c0,0.5-0.4,0.8-0.8,0.8h-19.3c-0.5,0-0.8-0.4-0.8-0.8v0
	C-339,622.7-338.6,622.3-338.2,622.3z"/>
<path class="st56" d="M-600.2,433.8h24c0.5,0,1,0.4,1,1l0,0c0,0.5-0.4,1-1,1h-24c-0.5,0-1-0.4-1-1l0,0
	C-601.2,434.2-600.8,433.8-600.2,433.8z"/>
<path class="st56" d="M-600.2,438.1h35.8c0.5,0,1,0.4,1,1v0c0,0.5-0.4,1-1,1h-35.8c-0.5,0-1-0.4-1-1v0
	C-601.2,438.6-600.8,438.1-600.2,438.1z"/>
<path class="st56" d="M-600.2,502.7h24c0.5,0,1,0.4,1,1l0,0c0,0.5-0.4,1-1,1h-24c-0.5,0-1-0.4-1-1l0,0
	C-601.2,503.1-600.8,502.7-600.2,502.7z"/>
<path class="st56" d="M-600.2,506.7h35.8c0.5,0,1,0.4,1,1l0,0c0,0.5-0.4,1-1,1h-35.8c-0.5,0-1-0.4-1-1l0,0
	C-601.2,507.1-600.8,506.7-600.2,506.7z"/>
<path class="st56" d="M-600.2,442.5h35.8c0.5,0,1,0.4,1,1l0,0c0,0.5-0.4,1-1,1h-35.8c-0.5,0-1-0.4-1-1l0,0
	C-601.2,442.9-600.8,442.5-600.2,442.5z"/>
<path class="st56" d="M-600.2,446.8h45.3c0.5,0,1,0.4,1,1l0,0c0,0.5-0.4,1-1,1h-45.3c-0.5,0-1-0.4-1-1l0,0
	C-601.2,447.3-600.8,446.8-600.2,446.8z"/>
<path class="st56" d="M-600.2,451.2h24c0.5,0,1,0.4,1,1l0,0c0,0.5-0.4,1-1,1h-24c-0.5,0-1-0.4-1-1l0,0
	C-601.2,451.6-600.8,451.2-600.2,451.2z"/>
<rect x="-601.2" y="492.1" class="st56" width="71.5" height="0.2"/>
<path class="st57" d="M-301.3,456.9h24.1c2.2,0,4,1.8,4,4l0,0c0,2.2-1.8,4-4,4h-24.1c-2.2,0-4-1.8-4-4l0,0
	C-305.3,458.7-303.5,456.9-301.3,456.9z"/>
<path class="st56" d="M-301.3,468.9h24c0.5,0,1,0.4,1,1l0,0c0,0.5-0.4,1-1,1h-24c-0.5,0-1-0.4-1-1l0,0
	C-302.2,469.3-301.8,468.9-301.3,468.9z"/>
<path class="st56" d="M-307.2,473.3h35.8c0.5,0,1,0.4,1,1l0,0c0,0.5-0.4,1-1,1h-35.8c-0.5,0-1-0.4-1-1l0,0
	C-308.1,473.7-307.7,473.3-307.2,473.3z"/>
<path class="st56" d="M-307.2,477.6h35.8c0.5,0,1,0.4,1,1l0,0c0,0.5-0.4,1-1,1h-35.8c-0.5,0-1-0.4-1-1l0,0
	C-308.1,478-307.7,477.6-307.2,477.6z"/>
<image style="overflow:visible;" width="1033" height="1280" xlink:href="4879FF77.jpg"  transform="matrix(0.286 0 0 0.286 -1221.0792 398.4426)">
</image>
<image style="overflow:visible;" width="1151" height="1280" xlink:href="4879FF74.jpg"  transform="matrix(0.2857 0 0 0.2857 -1254.5404 387.0907)">
</image>
<g>
	<rect x="-613" y="688.4" class="st58" width="180" height="230"/>
	<rect x="-613" y="688.4" class="st59" width="180" height="61.5"/>
	<rect x="-606.5" y="806.2" class="st23" width="166.7" height="106.7"/>
	<rect x="-606.5" y="694.6" class="st23" width="166.7" height="108.6"/>
	<rect x="-606.5" y="904.9" class="st59" width="166.7" height="8"/>
	<rect x="-606.5" y="847.7" class="st56" width="166.7" height="0.2"/>
	<rect x="-606.5" y="806.2" class="st59" width="166.7" height="0.9"/>
	<g>
		<path class="st56" d="M-603.1,835.1h160c0.5,0,0.9,0.4,0.9,0.9l0,0c0,0.5-0.4,0.9-0.9,0.9h-160c-0.5,0-0.9-0.4-0.9-0.9l0,0
			C-604,835.5-603.6,835.1-603.1,835.1z"/>
		<path class="st56" d="M-603.1,839h160c0.5,0,0.9,0.4,0.9,0.9l0,0c0,0.5-0.4,0.9-0.9,0.9h-160c-0.5,0-0.9-0.4-0.9-0.9l0,0
			C-604,839.3-603.6,839-603.1,839z"/>
		<path class="st56" d="M-603.1,842.8h62.4c0.5,0,0.9,0.4,0.9,0.9l0,0c0,0.5-0.4,0.9-0.9,0.9h-62.4c-0.5,0-0.9-0.4-0.9-0.9l0,0
			C-604,843.2-603.6,842.8-603.1,842.8z"/>
		<path class="st56" d="M-603.1,830.1h29.9c0.5,0,0.9,0.4,0.9,0.9l0,0c0,0.5-0.4,0.9-0.9,0.9h-29.9c-0.5,0-0.9-0.4-0.9-0.9l0,0
			C-604,830.5-603.6,830.1-603.1,830.1z"/>
	</g>
	<rect x="-603.9" y="881.4" class="st24" width="161.6" height="8.6"/>
	<rect x="-603.9" y="873" class="st24" width="161.6" height="5.4"/>
	<path class="st56" d="M-599,897h19.5c1.5,0,2.7,1.2,2.7,2.7l0,0c0,1.5-1.2,2.7-2.7,2.7H-599c-1.5,0-2.7-1.2-2.7-2.7l0,0
		C-601.7,898.2-600.5,897-599,897z"/>
	<path class="st56" d="M-600.4,874.9h4.3c0.5,0,0.8,0.4,0.8,0.8l0,0c0,0.5-0.4,0.8-0.8,0.8h-4.3c-0.5,0-0.8-0.4-0.8-0.8l0,0
		C-601.2,875.3-600.9,874.9-600.4,874.9z"/>
	<path class="st56" d="M-565.6,874.9h15c0.5,0,0.8,0.4,0.8,0.8l0,0c0,0.5-0.4,0.8-0.8,0.8h-15c-0.5,0-0.8-0.4-0.8-0.8l0,0
		C-566.4,875.3-566,874.9-565.6,874.9z"/>
	<path class="st56" d="M-514.4,874.9h15c0.5,0,0.8,0.4,0.8,0.8l0,0c0,0.5-0.4,0.8-0.8,0.8h-15c-0.5,0-0.8-0.4-0.8-0.8l0,0
		C-515.3,875.3-514.9,874.9-514.4,874.9z"/>
	<path class="st56" d="M-600.4,869.5h4.3c0.5,0,0.8,0.4,0.8,0.8l0,0c0,0.5-0.4,0.8-0.8,0.8h-4.3c-0.5,0-0.8-0.4-0.8-0.8l0,0
		C-601.2,869.8-600.9,869.5-600.4,869.5z"/>
	<path class="st56" d="M-565.6,869.5h15c0.5,0,0.8,0.4,0.8,0.8l0,0c0,0.5-0.4,0.8-0.8,0.8h-15c-0.5,0-0.8-0.4-0.8-0.8l0,0
		C-566.4,869.8-566,869.5-565.6,869.5z"/>
	<path class="st56" d="M-514.4,869.5h15c0.5,0,0.8,0.4,0.8,0.8l0,0c0,0.5-0.4,0.8-0.8,0.8h-15c-0.5,0-0.8-0.4-0.8-0.8l0,0
		C-515.3,869.8-514.9,869.5-514.4,869.5z"/>
	<rect x="-603.9" y="862.2" class="st24" width="161.6" height="5.4"/>
	<g>
		<path class="st56" d="M-600.4,864h4.3c0.5,0,0.8,0.4,0.8,0.8l0,0c0,0.5-0.4,0.8-0.8,0.8h-4.3c-0.5,0-0.8-0.4-0.8-0.8l0,0
			C-601.2,864.4-600.9,864-600.4,864z"/>
		<path class="st56" d="M-565.6,864h15c0.5,0,0.8,0.4,0.8,0.8l0,0c0,0.5-0.4,0.8-0.8,0.8h-15c-0.5,0-0.8-0.4-0.8-0.8l0,0
			C-566.4,864.4-566,864-565.6,864z"/>
		<path class="st56" d="M-514.4,864h15c0.5,0,0.8,0.4,0.8,0.8l0,0c0,0.5-0.4,0.8-0.8,0.8h-15c-0.5,0-0.8-0.4-0.8-0.8l0,0
			C-515.3,864.4-514.9,864-514.4,864z"/>
	</g>
	<g>
		<path class="st56" d="M-600.4,858.7h4.3c0.5,0,0.8,0.4,0.8,0.8l0,0c0,0.5-0.4,0.8-0.8,0.8h-4.3c-0.5,0-0.8-0.4-0.8-0.8l0,0
			C-601.2,859.1-600.9,858.7-600.4,858.7z"/>
		<path class="st56" d="M-565.6,858.7h15c0.5,0,0.8,0.4,0.8,0.8l0,0c0,0.5-0.4,0.8-0.8,0.8h-15c-0.5,0-0.8-0.4-0.8-0.8l0,0
			C-566.4,859.1-566,858.7-565.6,858.7z"/>
		<path class="st56" d="M-514.4,858.7h15c0.5,0,0.8,0.4,0.8,0.8l0,0c0,0.5-0.4,0.8-0.8,0.8h-15c-0.5,0-0.8-0.4-0.8-0.8l0,0
			C-515.3,859.1-514.9,858.7-514.4,858.7z"/>
	</g>
	<rect x="-603.9" y="851.5" class="st24" width="161.6" height="5.4"/>
	<g>
		<path class="st56" d="M-600.4,853.4h4.3c0.5,0,0.8,0.4,0.8,0.8l0,0c0,0.5-0.4,0.8-0.8,0.8h-4.3c-0.5,0-0.8-0.4-0.8-0.8l0,0
			C-601.2,853.8-600.9,853.4-600.4,853.4z"/>
		<path class="st56" d="M-565.6,853.4h15c0.5,0,0.8,0.4,0.8,0.8l0,0c0,0.5-0.4,0.8-0.8,0.8h-15c-0.5,0-0.8-0.4-0.8-0.8l0,0
			C-566.4,853.8-566,853.4-565.6,853.4z"/>
		<path class="st56" d="M-514.4,853.4h15c0.5,0,0.8,0.4,0.8,0.8l0,0c0,0.5-0.4,0.8-0.8,0.8h-15c-0.5,0-0.8-0.4-0.8-0.8l0,0
			C-515.3,853.8-514.9,853.4-514.4,853.4z"/>
	</g>
	<path class="st56" d="M-600.9,884.8h29c0.5,0,0.8,0.4,0.8,0.8l0,0c0,0.5-0.4,0.8-0.8,0.8h-29c-0.5,0-0.8-0.4-0.8-0.8l0,0
		C-601.7,885.2-601.3,884.8-600.9,884.8z"/>
	<path class="st56" d="M-474.7,884.8h29c0.5,0,0.8,0.4,0.8,0.8l0,0c0,0.5-0.4,0.8-0.8,0.8h-29c-0.5,0-0.8-0.4-0.8-0.8l0,0
		C-475.6,885.2-475.2,884.8-474.7,884.8z"/>
	<path class="st56" d="M-600.9,893h19.3c0.5,0,0.8,0.4,0.8,0.8l0,0c0,0.5-0.4,0.8-0.8,0.8h-19.3c-0.5,0-0.8-0.4-0.8-0.8l0,0
		C-601.7,893.4-601.3,893-600.9,893z"/>
	<path class="st56" d="M-571.8,897h19.3c0.5,0,0.8,0.4,0.8,0.8l0,0c0,0.5-0.4,0.8-0.8,0.8h-19.3c-0.5,0-0.8-0.4-0.8-0.8l0,0
		C-572.6,897.4-572.2,897-571.8,897z"/>
	<path class="st56" d="M-571.8,900.7h19.3c0.5,0,0.8,0.4,0.8,0.8l0,0c0,0.5-0.4,0.8-0.8,0.8h-19.3c-0.5,0-0.8-0.4-0.8-0.8l0,0
		C-572.6,901.1-572.2,900.7-571.8,900.7z"/>
	<rect x="-604.6" y="819.2" class="st24" width="163" height="7.6"/>
	<path class="st56" d="M-601.5,822.2h19.4c0.5,0,0.8,0.4,0.8,0.9l0,0c0,0.5-0.4,0.9-0.8,0.9h-19.4c-0.5,0-0.8-0.4-0.8-0.9l0,0
		C-602.3,822.6-602,822.2-601.5,822.2z"/>
	<path class="st56" d="M-577.2,822.2h19.4c0.5,0,0.8,0.4,0.8,0.9l0,0c0,0.5-0.4,0.9-0.8,0.9h-19.4c-0.5,0-0.8-0.4-0.8-0.9l0,0
		C-578.1,822.6-577.7,822.2-577.2,822.2z"/>
	<path class="st56" d="M-464.5,822.2h19.4c0.5,0,0.8,0.4,0.8,0.9l0,0c0,0.5-0.4,0.9-0.8,0.9h-19.4c-0.5,0-0.8-0.4-0.8-0.9l0,0
		C-465.4,822.6-465,822.2-464.5,822.2z"/>
	<rect x="-606.5" y="807.1" class="st24" width="166.7" height="10.1"/>
	<path class="st59" d="M-601.3,809.3h17.5c1.6,0,2.9,1.3,2.9,2.9l0,0c0,1.6-1.3,2.9-2.9,2.9h-17.5c-1.6,0-2.9-1.3-2.9-2.9l0,0
		C-604.2,810.6-602.9,809.3-601.3,809.3z"/>
	<g>
		<path class="st56" d="M-532.1,809.9h19.9c0.5,0,0.9,0.4,0.9,0.9l0,0c0,0.5-0.4,0.9-0.9,0.9h-19.9c-0.5,0-0.9-0.4-0.9-0.9l0,0
			C-533,810.3-532.6,809.9-532.1,809.9z"/>
		<path class="st56" d="M-532.1,812.8h19.9c0.5,0,0.9,0.4,0.9,0.9l0,0c0,0.5-0.4,0.9-0.9,0.9h-19.9c-0.5,0-0.9-0.4-0.9-0.9l0,0
			C-533,813.2-532.6,812.8-532.1,812.8z"/>
	</g>
	<g>
		<path class="st56" d="M-497.6,809.9h19.9c0.5,0,0.9,0.4,0.9,0.9l0,0c0,0.5-0.4,0.9-0.9,0.9h-19.9c-0.5,0-0.9-0.4-0.9-0.9l0,0
			C-498.5,810.3-498.1,809.9-497.6,809.9z"/>
		<path class="st56" d="M-497.6,812.8h19.9c0.5,0,0.9,0.4,0.9,0.9l0,0c0,0.5-0.4,0.9-0.9,0.9h-19.9c-0.5,0-0.9-0.4-0.9-0.9l0,0
			C-498.5,813.2-498.1,812.8-497.6,812.8z"/>
	</g>
	<g>
		<path class="st56" d="M-463.2,809.9h19.9c0.5,0,0.9,0.4,0.9,0.9l0,0c0,0.5-0.4,0.9-0.9,0.9h-19.9c-0.5,0-0.9-0.4-0.9-0.9l0,0
			C-464.1,810.3-463.7,809.9-463.2,809.9z"/>
		<path class="st56" d="M-463.2,812.8h19.9c0.5,0,0.9,0.4,0.9,0.9l0,0c0,0.5-0.4,0.9-0.9,0.9h-19.9c-0.5,0-0.9-0.4-0.9-0.9l0,0
			C-464.1,813.2-463.7,812.8-463.2,812.8z"/>
	</g>
	<path class="st59" d="M-535.2,719.4h24.1c2.2,0,4,1.8,4,4l0,0c0,2.2-1.8,4-4,4h-24.1c-2.2,0-4-1.8-4-4l0,0
		C-539.2,721.2-537.4,719.4-535.2,719.4z"/>
	<path class="st56" d="M-535.1,731.4h24c0.5,0,1,0.4,1,1l0,0c0,0.5-0.4,1-1,1h-24c-0.5,0-1-0.4-1-1l0,0
		C-536.1,731.9-535.7,731.4-535.1,731.4z"/>
	<path class="st56" d="M-541,735.8h35.8c0.5,0,1,0.4,1,1l0,0c0,0.5-0.4,1-1,1H-541c-0.5,0-1-0.4-1-1l0,0
		C-542,736.2-541.6,735.8-541,735.8z"/>
	<path class="st56" d="M-535.1,770.3h24c0.5,0,1,0.4,1,1l0,0c0,0.5-0.4,1-1,1h-24c-0.5,0-1-0.4-1-1l0,0
		C-536.1,770.8-535.7,770.3-535.1,770.3z"/>
	<path class="st56" d="M-541,774.3h35.8c0.5,0,1,0.4,1,1l0,0c0,0.5-0.4,1-1,1H-541c-0.5,0-1-0.4-1-1l0,0
		C-542,774.7-541.6,774.3-541,774.3z"/>
	<path class="st56" d="M-541,740.1h35.8c0.5,0,1,0.4,1,1l0,0c0,0.5-0.4,1-1,1H-541c-0.5,0-1-0.4-1-1l0,0
		C-542,740.6-541.6,740.1-541,740.1z"/>
	<path class="st56" d="M-545.8,744.5h45.3c0.5,0,1,0.4,1,1l0,0c0,0.5-0.4,1-1,1h-45.3c-0.5,0-1-0.4-1-1l0,0
		C-546.8,744.9-546.3,744.5-545.8,744.5z"/>
	<path class="st56" d="M-535.1,748.8h24c0.5,0,1,0.4,1,1l0,0c0,0.5-0.4,1-1,1h-24c-0.5,0-1-0.4-1-1l0,0
		C-536.1,749.3-535.7,748.8-535.1,748.8z"/>
	<rect x="-558.9" y="759.7" class="st56" width="71.5" height="0.2"/>
</g>
<image style="overflow:visible;" width="512" height="512" xlink:href="../../../../../../../Downloads/1372550.png"  transform="matrix(1 0 0 1 -1796 -54.3957)">
</image>
<path class="st12" d="M-458.4,375.2h-85.2c-1.7,0-3-1.3-3-3V233.9c0-1.7,1.3-3,3-3h99.4c1.7,0,3,1.3,3,3V358
	C-441.2,367.5-448.9,375.2-458.4,375.2z"/>
<path class="st5" d="M-475.6,357.2V353c0-2.2-1.8-4-4-4h-97.5c-2.2,0-4,1.8-4,4v6.6c0,8.6,7,15.5,15.5,15.5h83.5h2.4h21.9
	C-467.6,375.2-475.6,367.2-475.6,357.2z"/>
<path class="st19" d="M-454.4,260.5h-78.9c-1.2,0-2.1-1-2.1-2.1v-14.8c0-1.2,1-2.1,2.1-2.1h78.9c1.2,0,2.1,1,2.1,2.1v14.8
	C-452.3,259.5-453.3,260.5-454.4,260.5z"/>
<path class="st60" d="M-491.9,171.8h-46.6c-0.9,0-1.6-0.7-1.6-1.6V94.5c0-0.9,0.7-1.6,1.6-1.6h54.4c0.9,0,1.6,0.7,1.6,1.6v67.9
	C-482.4,167.6-486.7,171.8-491.9,171.8z"/>
<path class="st61" d="M-501.3,162v-2.3c0-1.2-1-2.2-2.2-2.2h-53.4c-1.2,0-2.2,1-2.2,2.2v3.6c0,4.7,3.8,8.5,8.5,8.5h45.7h1.3h12
	C-496.9,171.8-501.3,167.4-501.3,162z"/>
<path class="st62" d="M-489.7,109h-43.2c-0.6,0-1.2-0.5-1.2-1.2v-8.1c0-0.6,0.5-1.2,1.2-1.2h43.2c0.6,0,1.2,0.5,1.2,1.2v8.1
	C-488.5,108.5-489,109-489.7,109z"/>
<path class="st13" d="M13.7,138.8h54.7c1.1,0,1.9-0.9,1.9-1.9V48c0-1.1-0.9-1.9-1.9-1.9H4.6c-1.1,0-1.9,0.9-1.9,1.9v79.7
	C2.7,133.8,7.6,138.8,13.7,138.8z"/>
<path class="st5" d="M24.8,127.2v-2.7c0-1.4,1.1-2.5,2.5-2.5h62.6c1.4,0,2.5,1.1,2.5,2.5v4.3c0,5.5-4.5,10-10,10H28.9h-1.5H13.2
	C19.6,138.8,24.8,133.6,24.8,127.2z"/>
<path class="st63" d="M34.8,77.1h23.9c0.7,0,1.3-0.6,1.3-1.3V57.6c0-0.7-0.6-1.3-1.3-1.3H34.8c-0.7,0-1.3,0.6-1.3,1.3v18.2
	C33.5,76.5,34.1,77.1,34.8,77.1z"/>
<path class="st12" d="M-518.7,288.8h-14.5c-1.3,0-2.3-1-2.3-2.3V272c0-1.3,1-2.3,2.3-2.3h14.5c1.3,0,2.3,1,2.3,2.3v14.5
	C-516.4,287.8-517.4,288.8-518.7,288.8z"/>
<path class="st12" d="M-454.6,274.2h-52.4c-1.2,0-2.3-1-2.3-2.3l0,0c0-1.2,1-2.3,2.3-2.3h52.4c1.2,0,2.3,1,2.3,2.3l0,0
	C-452.3,273.2-453.3,274.2-454.6,274.2z"/>
<path class="st12" d="M-454.6,288.8h-52.4c-1.2,0-2.3-1-2.3-2.3v0c0-1.2,1-2.3,2.3-2.3h52.4c1.2,0,2.3,1,2.3,2.3v0
	C-452.3,287.8-453.3,288.8-454.6,288.8z"/>
<path class="st12" d="M-518.7,317.9h-14.5c-1.3,0-2.3-1-2.3-2.3v-14.5c0-1.3,1-2.3,2.3-2.3h14.5c1.3,0,2.3,1,2.3,2.3v14.5
	C-516.4,316.8-517.4,317.9-518.7,317.9z"/>
<path class="st12" d="M-454.6,303.3h-52.4c-1.2,0-2.3-1-2.3-2.3l0,0c0-1.2,1-2.3,2.3-2.3h52.4c1.2,0,2.3,1,2.3,2.3l0,0
	C-452.3,302.3-453.3,303.3-454.6,303.3z"/>
<path class="st12" d="M-454.6,317.9h-52.4c-1.2,0-2.3-1-2.3-2.3l0,0c0-1.2,1-2.3,2.3-2.3h52.4c1.2,0,2.3,1,2.3,2.3l0,0
	C-452.3,316.9-453.3,317.9-454.6,317.9z"/>
<rect x="-579.6" y="252.5" class="st12" width="17" height="65.8"/>
<rect x="-578.3" y="254.1" class="st1" width="7.2" height="62.7"/>
<rect x="-579.6" y="241" class="st19" width="17" height="11.5"/>
<polygon class="st12" points="-562.6,318.3 -579.6,318.3 -571.1,333.8 "/>
<polygon class="st19" points="-567.3,326.9 -574.9,326.9 -571.1,333.8 "/>
<path class="st12" d="M-565.1,230.9h-11.9c-1.4,0-2.5,1.1-2.5,2.5v9h17v-9C-562.6,232.1-563.7,230.9-565.1,230.9z"/>
<image style="overflow:visible;" width="500" height="520" xlink:href="4879FF7D.jpg"  transform="matrix(0.4761 0 0 0.4761 -24.883 -466.4914)">
</image>
<path class="st64" d="M-119.7-376.1l5.3-3.8c-0.5-1.7-1.2-3.4-2-4.9l-6.5,1.1l-3.1-3.1l1.1-6.5c-1.5-0.9-3.2-1.6-4.9-2l-3.8,5.3
	h-4.4l-3.8-5.3c-1.7,0.5-3.4,1.2-4.9,2l1.1,6.5l-3.1,3.1l-6.5-1.1c-0.9,1.5-1.6,3.2-2,4.9l5.3,3.8v4.4l-5.3,3.8
	c0.5,1.7,1.2,3.4,2,4.9l6.5-1.1l3.1,3.1l-1.1,6.5c1.5,0.9,3.2,1.6,4.9,2l3.8-5.3h4.4l3.8,5.3c1.7-0.5,3.4-1.2,4.9-2l-1.1-6.5
	l3.1-3.1l6.5,1.1c0.9-1.5,1.6-3.2,2-4.9l-5.3-3.8V-376.1z M-135.8-367c-3.8,0-6.9-3.1-6.9-6.9s3.1-6.9,6.9-6.9s6.9,3.1,6.9,6.9
	S-132-367-135.8-367z"/>
<path class="st64" d="M-88.4-406.9h-22c-1.1,0-2,0.9-2,2v13.2c0,1.1,0.9,2,2,2h5v6.1l6.2-6.1h10.8c1.1,0,2-0.9,2-2v-13.2
	C-86.4-406-87.3-406.9-88.4-406.9z"/>
<g>
	<path class="st65" d="M-115.5-340.2c-5.9,3.6-12.9,5.7-20.3,5.7c-15,0-28-8.5-34.6-20.8"/>
	<path class="st65" d="M-124.2-410.9c15.9,4.9,27.4,19.8,27.4,37.3c0,10.9-4.5,20.7-11.6,27.8"/>
	<path class="st65" d="M-173.9-365c-0.6-2.8-0.9-5.6-0.9-8.6c0-21.6,17.5-39,39-39"/>
	<polyline class="st65" points="-99.3,-345.8 -108.6,-345.8 -108.6,-355 	"/>
	<polyline class="st65" points="-170.8,-346.4 -170.8,-355.6 -161.6,-355.6 	"/>
	<polyline class="st65" points="-141.9,-419.2 -135.4,-412.6 -141.9,-406.1 	"/>
</g>
<g>
	<path class="st13" d="M-845.2-28.5l-57.5,19.1c0,0,0,37.3,0,66.5c0,29.2,18.2,37.7,18.2,37.7l39.3,22.2l39.3-22.2
		c0,0,18.2-8.5,18.2-37.7c0-29.2,0-66.5,0-66.5L-845.2-28.5z"/>
	<path class="st1" d="M-845.2-26.4L-901-7.8c0,0,0,36.2,0,64.6c0,28.4,17.6,36.6,17.6,36.6l38.2,21.5V-26.4z"/>
	<path class="st13" d="M-824.6,80.1h-41.3c-2.1,0-3.8-1.7-3.8-3.8V35c0-2.1,1.7-3.8,3.8-3.8h41.3c2.1,0,3.8,1.7,3.8,3.8v41.3
		C-820.8,78.4-822.5,80.1-824.6,80.1z"/>
	<path class="st12" d="M-864.3,31.3h38.1v-11c0-0.4,0.1-0.9,0.1-1.3c0-10.6-8.6-19.1-19.1-19.1s-19.1,8.6-19.1,19.1
		c0,0.2,0,0.3,0,0.5h0V31.3z"/>
	<path class="st5" d="M-836.7,50c0-4.7-3.8-8.5-8.5-8.5s-8.5,3.8-8.5,8.5c0,3,1.5,5.6,3.8,7.1l-2.3,12.7h14l-2.3-12.7
		C-838.2,55.6-836.7,53-836.7,50z"/>
</g>
<rect x="-274.6" y="-198" class="st0" width="83.9" height="7.3"/>
<rect x="-274.7" y="-198" class="st66" width="83.9" height="7.3"/>
<rect x="-271.2" y="-203.4" class="st0" width="76.9" height="5.4"/>
<rect x="-271.2" y="-246" class="st0" width="76.9" height="5.4"/>
<rect x="-268.5" y="-208.7" class="st66" width="15.4" height="5.4"/>
<rect x="-268.5" y="-240.7" class="st66" width="15.4" height="5.4"/>
<rect x="-264.7" y="-235.3" class="st0" width="7.7" height="26.6"/>
<rect x="-240.4" y="-208.7" class="st66" width="15.4" height="5.4"/>
<rect x="-240.4" y="-240.7" class="st66" width="15.4" height="5.4"/>
<rect x="-236.6" y="-235.3" class="st0" width="7.7" height="26.6"/>
<rect x="-212.4" y="-208.7" class="st66" width="15.4" height="5.4"/>
<rect x="-212.4" y="-240.7" class="st66" width="15.4" height="5.4"/>
<rect x="-208.6" y="-235.3" class="st0" width="7.7" height="26.6"/>
<circle class="st0" cx="-232.6" cy="-254.8" r="4.4"/>
<path class="st67" d="M-202.7-312.8v38.1c0,1.4,1.2,2.6,2.6,2.6h27.9c1.4,0,2.6-1.2,2.6-2.6v-32.1l-8.6-8.6h-21.8
	C-201.5-315.4-202.7-314.3-202.7-312.8z"/>
<polygon class="st67" points="-169.7,-306.8 -178.3,-315.4 -178.3,-306.8 "/>
<polygon class="st1" points="-170.9,-298.1 -178.1,-305.6 -170.9,-305.6 "/>
<text transform="matrix(1 0 0 1 -197.4776 -293.4365)" style="font-family:'Poppins-Black'; font-size:6.596px;">CNAB</text>
<g>
	<line class="st67" x1="-197.2" y1="-290.1" x2="-175.3" y2="-290.1"/>
	<line class="st67" x1="-197.2" y1="-287.5" x2="-178.4" y2="-287.5"/>
	<line class="st67" x1="-197.2" y1="-285" x2="-183" y2="-285"/>
</g>
<g>
	<line class="st68" x1="13.1" y1="89.1" x2="59.9" y2="89.1"/>
	<line class="st68" x1="13.1" y1="98.6" x2="53.2" y2="98.6"/>
	<line class="st68" x1="13.1" y1="108.1" x2="43.4" y2="108.1"/>
</g>
<path class="st13" d="M77,18.8v81.8c0,3,2.5,5.5,5.5,5.5h59.8c3,0,5.5-2.5,5.5-5.5V31.7l-18.5-18.5H82.5C79.5,13.2,77,15.7,77,18.8z
	"/>
<polygon class="st5" points="147.8,31.7 129.3,13.2 129.3,31.7 "/>
<polygon class="st1" points="146.2,50.3 129.7,33.4 146.2,33.4 "/>
<g>
	<text transform="matrix(1 0 0 1 86.5361 53.2157)" class="st29 st69 st70">NFS-e</text>
</g>
<line class="st13" x1="88.9" y1="81.4" x2="135.9" y2="81.4"/>
<line class="st13" x1="88.9" y1="90.3" x2="129.1" y2="90.3"/>
<path class="st67" d="M-188.5-241.1v38.1c0,1.4,1.2,2.6,2.6,2.6h27.9c1.4,0,2.6-1.2,2.6-2.6V-235l-8.6-8.6h-21.8
	C-187.3-243.7-188.5-242.5-188.5-241.1z"/>
<polygon class="st67" points="-155.5,-235 -164.1,-243.7 -164.1,-235 "/>
<polygon class="st1" points="-156.6,-226.5 -163.8,-233.9 -156.6,-233.9 "/>
<text transform="matrix(1 0 0 1 -184 -221.6914)" style="font-family:'Poppins-Black'; font-size:6.596px;">OFX</text>
<g>
	<line class="st67" x1="-182.9" y1="-218.3" x2="-161" y2="-218.3"/>
	<line class="st67" x1="-182.9" y1="-215.8" x2="-164.2" y2="-215.8"/>
	<line class="st67" x1="-182.9" y1="-213.2" x2="-168.7" y2="-213.2"/>
</g>
<rect x="88.9" y="61.1" class="st5" width="47" height="10.2"/>
<text transform="matrix(1 0 0 1 10.9741 74.8426)" class="st29 st69 st71">$</text>
</svg>
