<?xml version="1.0" encoding="utf-8"?>
<!-- Generator: Adobe Illustrator 26.3.1, SVG Export Plug-In . SVG Version: 6.00 Build 0)  -->
<svg version="1.1" id="Camada_1" xmlns="http://www.w3.org/2000/svg" xmlns:xlink="http://www.w3.org/1999/xlink" x="0px" y="0px"
	 viewBox="0 0 150 150" style="enable-background:new 0 0 150 150;" xml:space="preserve">
<style type="text/css">
	.st0{fill:#FFFFFF;stroke:#0DB14B;stroke-width:2.3405;stroke-linecap:round;stroke-linejoin:round;stroke-miterlimit:10;}
	.st1{fill:#A7EABF;stroke:#0DB14B;stroke-width:2.3405;stroke-linecap:round;stroke-linejoin:round;stroke-miterlimit:10;}
	.st2{fill:none;stroke:#0DB14B;stroke-width:2.3405;stroke-linecap:round;stroke-linejoin:round;stroke-miterlimit:10;}
	.st3{fill:#A7EABF;stroke:#0DB14B;stroke-width:3;stroke-linecap:round;stroke-linejoin:round;stroke-miterlimit:10;}
	.st4{fill:#FFFFFF;stroke:#0DB14B;stroke-width:3;stroke-linecap:round;stroke-linejoin:round;stroke-miterlimit:10;}
	.st5{fill:#DCF9E4;}
	.st6{fill:#A7EABF;stroke:#0DB14B;stroke-width:2.6825;stroke-linecap:round;stroke-linejoin:round;stroke-miterlimit:10;}
	.st7{fill:#FFFFFF;stroke:#0DB14B;stroke-width:2.6825;stroke-linecap:round;stroke-linejoin:round;stroke-miterlimit:10;}
	.st8{fill:none;stroke:#0DB14B;stroke-width:2.6825;stroke-linecap:round;stroke-linejoin:round;stroke-miterlimit:10;}
	.st9{fill:#FFFFFF;stroke:#0DB14B;stroke-width:2.4963;stroke-linecap:round;stroke-linejoin:round;stroke-miterlimit:10;}
	.st10{fill:#FFFFFF;stroke:#0DB14B;stroke-width:3.2469;stroke-linecap:round;stroke-linejoin:round;stroke-miterlimit:10;}
	.st11{fill:#FFFFFF;stroke:#0DB14B;stroke-width:2.2584;stroke-linecap:round;stroke-linejoin:round;stroke-miterlimit:10;}
	.st12{fill:#FFFFFF;stroke:#0DB14B;stroke-width:3.154;stroke-linecap:round;stroke-linejoin:round;stroke-miterlimit:10;}
	.st13{fill:#A7EABF;stroke:#0DB14B;stroke-width:3.0001;stroke-linecap:round;stroke-linejoin:round;stroke-miterlimit:10.0002;}
	.st14{fill:#FFFFFF;stroke:#0DB14B;stroke-width:2.9314;stroke-linecap:round;stroke-linejoin:round;stroke-miterlimit:10;}
	.st15{fill:none;stroke:#0DB14B;stroke-width:3;stroke-linecap:round;stroke-linejoin:round;stroke-miterlimit:10;}
	.st16{fill:#FFFFFF;stroke:#0DB14B;stroke-width:2.9909;stroke-linecap:round;stroke-linejoin:round;stroke-miterlimit:10;}
	.st17{fill:#FFFFFF;stroke:#0DB14B;stroke-width:2.9735;stroke-linecap:round;stroke-linejoin:round;stroke-miterlimit:10;}
	.st18{fill:#FFFFFF;stroke:#0DB14B;stroke-width:2.9921;stroke-linecap:round;stroke-linejoin:round;stroke-miterlimit:10;}
	.st19{fill:#FFFFFF;stroke:#000000;stroke-linecap:round;stroke-linejoin:round;stroke-miterlimit:10;}
	.st20{fill:#FFFFFF;stroke:#000000;stroke-width:1;stroke-linecap:round;stroke-linejoin:round;stroke-miterlimit:9.9999;}
	.st21{fill:#A7EABF;stroke:#0DB14B;stroke-width:2.9735;stroke-linecap:round;stroke-linejoin:round;stroke-miterlimit:10;}
	.st22{fill:#233036;}
	.st23{fill:#FECA05;}
	.st24{fill:#E5E3E3;}
	.st25{fill:#FFFFFF;}
	.st26{fill:#F2F2F2;}
	.st27{fill:none;stroke:#004D40;stroke-width:9.5848;stroke-miterlimit:10;}
	.st28{fill:#F4F4F4;}
	.st29{fill:#00AF10;}
	.st30{fill:#333333;}
	.st31{fill:#0DB14B;}
	.st32{fill:#FFFFFF;stroke:#000000;stroke-width:2.668;stroke-linecap:round;stroke-linejoin:round;stroke-miterlimit:9.9999;}
	.st33{fill:#0DB14B;stroke:#000000;stroke-width:2.668;stroke-linecap:round;stroke-linejoin:round;stroke-miterlimit:10;}
	.st34{fill:#FFFFFF;stroke:#0DB14B;stroke-width:2.5408;stroke-linecap:round;stroke-linejoin:round;stroke-miterlimit:10;}
	.st35{fill:#0DB14B;stroke:#000000;stroke-width:2.668;stroke-miterlimit:10;}
	.st36{fill:#FFFFFF;stroke:#000000;stroke-width:2.668;stroke-linecap:round;stroke-linejoin:round;stroke-miterlimit:10;}
	.st37{fill:#FFFFFF;stroke:#0DB14B;stroke-width:3;stroke-linecap:round;stroke-linejoin:round;stroke-miterlimit:9.9999;}
	.st38{fill:#0DB14B;stroke:#000000;stroke-width:2;stroke-miterlimit:10;}
	.st39{fill:#FFFFFF;stroke:#000000;stroke-width:2;stroke-miterlimit:10;}
	.st40{fill:none;stroke:#0DB14B;stroke-width:2.9735;stroke-linecap:round;stroke-linejoin:round;stroke-miterlimit:10;}
	.st41{fill:#FFFFFF;stroke:#0DB14B;stroke-width:2.9735;stroke-linecap:round;stroke-linejoin:round;stroke-miterlimit:9.9999;}
	.st42{fill:none;stroke:#000000;stroke-linecap:round;stroke-linejoin:round;stroke-miterlimit:10;}
	.st43{fill:none;stroke:#0DB14B;stroke-width:2.9921;stroke-linecap:round;stroke-linejoin:round;stroke-miterlimit:10;}
	.st44{fill:#FFFFFF;stroke:#0DB14B;stroke-width:2.9921;stroke-linecap:round;stroke-linejoin:round;stroke-miterlimit:9.9999;}
	.st45{fill:#FFFFFF;stroke:#0DB14B;stroke-width:2.9922;stroke-linecap:round;stroke-linejoin:round;stroke-miterlimit:10.0005;}
	.st46{fill:#A7EABF;stroke:#0DB14B;stroke-width:2.9921;stroke-linecap:round;stroke-linejoin:round;stroke-miterlimit:10;}
	.st47{fill:#FFFFFF;stroke:#000000;stroke-width:2;stroke-linecap:round;stroke-linejoin:round;stroke-miterlimit:10;}
	.st48{fill:#0DB14B;stroke:#000000;stroke-width:2;stroke-linecap:round;stroke-linejoin:round;stroke-miterlimit:10;}
	.st49{fill:#A7EABF;stroke:#0DB14B;stroke-width:2.9909;stroke-linecap:round;stroke-linejoin:round;stroke-miterlimit:10;}
	.st50{fill:none;stroke:#0DB14B;stroke-width:2.3333;stroke-linecap:round;stroke-linejoin:round;stroke-miterlimit:10;}
	.st51{fill:#FFFFFF;stroke:#0DB14B;stroke-width:3.4861;stroke-linecap:round;stroke-linejoin:round;stroke-miterlimit:10;}
	.st52{fill:#A7EABF;stroke:#0DB14B;stroke-width:3.2866;stroke-linecap:round;stroke-linejoin:round;stroke-miterlimit:10;}
	.st53{fill:#FFFFFF;stroke:#0DB14B;stroke-width:4.1045;stroke-linecap:round;stroke-linejoin:round;stroke-miterlimit:10;}
	.st54{fill:#FFFFFF;stroke:#0DB14B;stroke-width:3.2866;stroke-linecap:round;stroke-linejoin:round;stroke-miterlimit:10;}
	.st55{fill:none;stroke:#0DB14B;stroke-width:3.2866;stroke-linecap:round;stroke-linejoin:round;stroke-miterlimit:10;}
	.st56{fill:none;stroke:#0DB14B;stroke-width:3.74;stroke-linecap:round;stroke-linejoin:round;stroke-miterlimit:10;}
	.st57{fill:#F68797;}
	.st58{fill:#ADADAD;}
	.st59{fill:#D81919;}
	.st60{fill:#01A5FC;}
	.st61{fill:#1F4583;}
	.st62{fill:#A7EABF;stroke:#0DB14B;stroke-width:2.8222;stroke-linecap:round;stroke-linejoin:round;stroke-miterlimit:10;}
	.st63{fill:none;stroke:#0DB14B;stroke-width:1.643;stroke-linecap:round;stroke-linejoin:round;stroke-miterlimit:10;}
	.st64{fill:#A7EABF;stroke:#0DB14B;stroke-width:1.643;stroke-linecap:round;stroke-linejoin:round;stroke-miterlimit:10;}
	.st65{fill:#A7EABF;stroke:#0DB14B;stroke-width:1.6285;stroke-linecap:round;stroke-linejoin:round;stroke-miterlimit:10;}
	.st66{fill:#A7EABF;stroke:#0DB14B;stroke-width:2.8271;stroke-linecap:round;stroke-linejoin:round;stroke-miterlimit:10;}
	.st67{fill:none;stroke:#0DB14B;stroke-width:3.9151;stroke-linecap:round;stroke-linejoin:round;stroke-miterlimit:10;}
	.st68{fill:none;stroke:#DCF9E4;stroke-miterlimit:10;}
	.st69{fill:none;stroke:#DCF9E4;stroke-width:2;stroke-linecap:round;stroke-linejoin:round;stroke-miterlimit:10;}
	.st70{fill:#FFFFFF;stroke:#0DB14B;stroke-width:2.2844;stroke-linecap:round;stroke-linejoin:round;stroke-miterlimit:10;}
	.st71{fill:none;stroke:#0DB14B;stroke-width:2.8046;stroke-linecap:round;stroke-linejoin:round;stroke-miterlimit:10;}
	.st72{fill:#A7EABF;stroke:#0DB14B;stroke-width:3.0861;stroke-linecap:round;stroke-linejoin:round;stroke-miterlimit:10;}
	.st73{fill:#282828;}
	.st74{fill:none;stroke:#FFFFFF;stroke-width:1.1017;stroke-linecap:round;stroke-linejoin:round;stroke-miterlimit:10;}
	.st75{fill:#282828;stroke:#FFFFFF;stroke-width:0.7966;stroke-miterlimit:10;}
	.st76{fill:#282828;stroke:#FFFFFF;stroke-width:0.7966;stroke-linecap:round;stroke-linejoin:round;stroke-miterlimit:10;}
	.st77{fill:none;stroke:#FFFFFF;stroke-width:1.1399;stroke-linecap:round;stroke-linejoin:round;stroke-miterlimit:10;}
</style>
<path class="st15" d="M127.5,147.5H42.3c-1.7,0-3-1.3-3-3V6.3c0-1.7,1.3-3,3-3h99.4c1.7,0,3,1.3,3,3v124.1
	C144.7,139.8,137,147.5,127.5,147.5z"/>
<path class="st3" d="M110.3,129.6v-4.2c0-2.2-1.8-4-4-4H8.8c-2.2,0-4,1.8-4,4v6.6c0,8.6,7,15.5,15.5,15.5h83.5h2.4h21.9
	C118.3,147.5,110.3,139.5,110.3,129.6z"/>
<path class="st21" d="M131.5,32.8H52.6c-1.2,0-2.1-1-2.1-2.1V15.9c0-1.2,1-2.1,2.1-2.1h78.9c1.2,0,2.1,1,2.1,2.1v14.8
	C133.6,31.8,132.7,32.8,131.5,32.8z"/>
<path class="st62" d="M69.4,43.8l-2.9-2.9c-0.2-0.2-0.5-0.2-0.7,0L57,49.8l-5.4-5.4c-0.2-0.2-0.5-0.2-0.6,0L48,47.3
	c-0.2,0.2-0.2,0.5,0,0.6l8.6,8.6c0.1,0.1,0.2,0.1,0.3,0.1c0.1,0,0.3,0,0.4-0.1l12.1-12.1C69.6,44.3,69.6,44,69.4,43.8z"/>
<path class="st67" d="M130.7,52.6h-51c-1.6,0-3-1.3-3-3v-1.8c0-1.6,1.3-3,3-3h51c1.6,0,3,1.3,3,3v1.8
	C133.6,51.3,132.3,52.6,130.7,52.6z"/>
<path class="st62" d="M69.4,67.7l-2.9-2.9c-0.2-0.2-0.5-0.2-0.7,0L57,73.7l-5.4-5.4c-0.2-0.2-0.5-0.2-0.6,0L48,71.3
	c-0.2,0.2-0.2,0.5,0,0.6l8.6,8.6c0.1,0.1,0.2,0.1,0.3,0.1c0.1,0,0.3,0,0.4-0.1l12.1-12.1C69.6,68.2,69.6,67.9,69.4,67.7z"/>
<path class="st67" d="M130.7,76.5h-51c-1.6,0-3-1.3-3-3v-1.8c0-1.6,1.3-3,3-3h51c1.6,0,3,1.3,3,3v1.8
	C133.6,75.2,132.3,76.5,130.7,76.5z"/>
<path class="st62" d="M69.4,91.6l-2.9-2.9c-0.2-0.2-0.5-0.2-0.7,0L57,97.6l-5.4-5.4c-0.2-0.2-0.5-0.2-0.6,0L48,95.2
	c-0.2,0.2-0.2,0.5,0,0.6l8.6,8.6c0.1,0.1,0.2,0.1,0.3,0.1c0.1,0,0.3,0,0.4-0.1l12.1-12.1C69.6,92.2,69.6,91.8,69.4,91.6z"/>
<path class="st67" d="M130.7,100.5h-51c-1.6,0-3-1.3-3-3v-1.8c0-1.6,1.3-3,3-3h51c1.6,0,3,1.3,3,3v1.8
	C133.6,99.1,132.3,100.5,130.7,100.5z"/>
</svg>
