<?xml version="1.0" encoding="utf-8"?>
<!-- Generator: Adobe Illustrator 26.3.1, SVG Export Plug-In . SVG Version: 6.00 Build 0)  -->
<svg version="1.1" id="Camada_1" xmlns="http://www.w3.org/2000/svg" xmlns:xlink="http://www.w3.org/1999/xlink" x="0px" y="0px"
	 viewBox="0 0 150 150" style="enable-background:new 0 0 150 150;" xml:space="preserve">
<style type="text/css">
	.st0{fill:#FFFFFF;stroke:#0DB14B;stroke-width:2.4963;stroke-linecap:round;stroke-linejoin:round;stroke-miterlimit:10;}
	.st1{fill:#FFFFFF;stroke:#0DB14B;stroke-width:3.2469;stroke-linecap:round;stroke-linejoin:round;stroke-miterlimit:10;}
	.st2{fill:#FFFFFF;stroke:#0DB14B;stroke-width:2.2584;stroke-linecap:round;stroke-linejoin:round;stroke-miterlimit:10;}
	.st3{fill:#FFFFFF;stroke:#0DB14B;stroke-width:3.154;stroke-linecap:round;stroke-linejoin:round;stroke-miterlimit:10;}
	.st4{fill:#A7EABF;stroke:#0DB14B;stroke-width:3.0001;stroke-linecap:round;stroke-linejoin:round;stroke-miterlimit:10.0002;}
	.st5{fill:#FFFFFF;stroke:#0DB14B;stroke-width:2.9314;stroke-linecap:round;stroke-linejoin:round;stroke-miterlimit:10;}
	.st6{fill:#DCF9E4;}
	.st7{fill:none;stroke:#0DB14B;stroke-width:3;stroke-linecap:round;stroke-linejoin:round;stroke-miterlimit:10;}
	.st8{fill:#FFFFFF;stroke:#0DB14B;stroke-width:3;stroke-linecap:round;stroke-linejoin:round;stroke-miterlimit:10;}
	.st9{fill:#FFFFFF;stroke:#0DB14B;stroke-width:2.9909;stroke-linecap:round;stroke-linejoin:round;stroke-miterlimit:10;}
	.st10{fill:#FFFFFF;stroke:#0DB14B;stroke-width:2.9735;stroke-linecap:round;stroke-linejoin:round;stroke-miterlimit:10;}
	.st11{fill:#FFFFFF;stroke:#0DB14B;stroke-width:2.9921;stroke-linecap:round;stroke-linejoin:round;stroke-miterlimit:10;}
	.st12{fill:#A7EABF;stroke:#0DB14B;stroke-width:3;stroke-linecap:round;stroke-linejoin:round;stroke-miterlimit:10;}
	.st13{fill:#FFFFFF;stroke:#000000;stroke-linecap:round;stroke-linejoin:round;stroke-miterlimit:10;}
	.st14{fill:#FFFFFF;stroke:#000000;stroke-width:1;stroke-linecap:round;stroke-linejoin:round;stroke-miterlimit:9.9999;}
	.st15{fill:#A7EABF;stroke:#0DB14B;stroke-width:2.9735;stroke-linecap:round;stroke-linejoin:round;stroke-miterlimit:10;}
	.st16{fill:#233036;}
	.st17{fill:#FECA05;}
	.st18{fill:#E5E3E3;}
	.st19{fill:#FFFFFF;}
	.st20{fill:#F2F2F2;}
	.st21{fill:none;stroke:#004D40;stroke-width:9.5848;stroke-miterlimit:10;}
	.st22{fill:#F4F4F4;}
	.st23{fill:#00AF10;}
	.st24{fill:#333333;}
	.st25{fill:#0DB14B;}
	.st26{fill:#FFFFFF;stroke:#000000;stroke-width:2.668;stroke-linecap:round;stroke-linejoin:round;stroke-miterlimit:9.9999;}
	.st27{fill:#0DB14B;stroke:#000000;stroke-width:2.668;stroke-linecap:round;stroke-linejoin:round;stroke-miterlimit:10;}
	.st28{fill:#FFFFFF;stroke:#0DB14B;stroke-width:2.5408;stroke-linecap:round;stroke-linejoin:round;stroke-miterlimit:10;}
	.st29{fill:#0DB14B;stroke:#000000;stroke-width:2.668;stroke-miterlimit:10;}
	.st30{fill:#FFFFFF;stroke:#000000;stroke-width:2.668;stroke-linecap:round;stroke-linejoin:round;stroke-miterlimit:10;}
	.st31{fill:#FFFFFF;stroke:#0DB14B;stroke-width:3;stroke-linecap:round;stroke-linejoin:round;stroke-miterlimit:9.9999;}
	.st32{fill:#0DB14B;stroke:#000000;stroke-width:2;stroke-miterlimit:10;}
	.st33{fill:#FFFFFF;stroke:#000000;stroke-width:2;stroke-miterlimit:10;}
	.st34{fill:none;stroke:#0DB14B;stroke-width:2.9735;stroke-linecap:round;stroke-linejoin:round;stroke-miterlimit:10;}
	.st35{fill:#FFFFFF;stroke:#0DB14B;stroke-width:2.9735;stroke-linecap:round;stroke-linejoin:round;stroke-miterlimit:9.9999;}
	.st36{fill:none;stroke:#000000;stroke-linecap:round;stroke-linejoin:round;stroke-miterlimit:10;}
	.st37{fill:none;stroke:#0DB14B;stroke-width:2.9921;stroke-linecap:round;stroke-linejoin:round;stroke-miterlimit:10;}
	.st38{fill:#FFFFFF;stroke:#0DB14B;stroke-width:2.9921;stroke-linecap:round;stroke-linejoin:round;stroke-miterlimit:9.9999;}
	.st39{fill:#FFFFFF;stroke:#0DB14B;stroke-width:2.9922;stroke-linecap:round;stroke-linejoin:round;stroke-miterlimit:10.0005;}
	.st40{fill:#A7EABF;stroke:#0DB14B;stroke-width:2.9921;stroke-linecap:round;stroke-linejoin:round;stroke-miterlimit:10;}
	.st41{fill:#FFFFFF;stroke:#000000;stroke-width:2;stroke-linecap:round;stroke-linejoin:round;stroke-miterlimit:10;}
	.st42{fill:#0DB14B;stroke:#000000;stroke-width:2;stroke-linecap:round;stroke-linejoin:round;stroke-miterlimit:10;}
	.st43{fill:#A7EABF;stroke:#0DB14B;stroke-width:2.9909;stroke-linecap:round;stroke-linejoin:round;stroke-miterlimit:10;}
	.st44{fill:none;stroke:#0DB14B;stroke-width:2.3333;stroke-linecap:round;stroke-linejoin:round;stroke-miterlimit:10;}
	.st45{fill:#FFFFFF;stroke:#0DB14B;stroke-width:3.4861;stroke-linecap:round;stroke-linejoin:round;stroke-miterlimit:10;}
	.st46{fill:#A7EABF;stroke:#0DB14B;stroke-width:3.2866;stroke-linecap:round;stroke-linejoin:round;stroke-miterlimit:10;}
	.st47{fill:#FFFFFF;stroke:#0DB14B;stroke-width:4.1045;stroke-linecap:round;stroke-linejoin:round;stroke-miterlimit:10;}
	.st48{fill:#FFFFFF;stroke:#0DB14B;stroke-width:3.2866;stroke-linecap:round;stroke-linejoin:round;stroke-miterlimit:10;}
	.st49{fill:none;stroke:#0DB14B;stroke-width:3.2866;stroke-linecap:round;stroke-linejoin:round;stroke-miterlimit:10;}
	.st50{fill:none;stroke:#0DB14B;stroke-width:3.74;stroke-linecap:round;stroke-linejoin:round;stroke-miterlimit:10;}
	.st51{fill:#F68797;}
	.st52{fill:#ADADAD;}
	.st53{fill:#D81919;}
	.st54{fill:#01A5FC;}
	.st55{fill:#1F4583;}
	.st56{fill:none;stroke:#DCF9E4;stroke-miterlimit:10;}
	.st57{fill:none;stroke:#DCF9E4;stroke-width:2;stroke-linecap:round;stroke-linejoin:round;stroke-miterlimit:10;}
</style>
<path class="st7" d="M129.1,147.4H43.9c-1.7,0-3-1.3-3-3V6.1c0-1.7,1.3-3,3-3h99.4c1.7,0,3,1.3,3,3v124.1
	C146.3,139.7,138.6,147.4,129.1,147.4z"/>
<path class="st12" d="M111.9,129.4v-4.2c0-2.2-1.8-4-4-4H10.4c-2.2,0-4,1.8-4,4v6.6c0,8.6,7,15.5,15.5,15.5h83.5h2.4h21.9
	C119.9,147.4,111.9,139.4,111.9,129.4z"/>
<path class="st15" d="M133.1,32.7H54.2c-1.2,0-2.1-1-2.1-2.1V15.7c0-1.2,1-2.1,2.1-2.1h78.9c1.2,0,2.1,1,2.1,2.1v14.8
	C135.2,31.7,134.2,32.7,133.1,32.7z"/>
<path class="st7" d="M68.8,61H54.3c-1.3,0-2.3-1-2.3-2.3V44.2c0-1.3,1-2.3,2.3-2.3h14.5c1.3,0,2.3,1,2.3,2.3v14.5
	C71.1,59.9,70.1,61,68.8,61z"/>
<path class="st7" d="M132.9,46.4H80.6c-1.2,0-2.3-1-2.3-2.3v0c0-1.2,1-2.3,2.3-2.3h52.4c1.2,0,2.3,1,2.3,2.3v0
	C135.2,45.4,134.2,46.4,132.9,46.4z"/>
<path class="st7" d="M132.9,61H80.6c-1.2,0-2.3-1-2.3-2.3v0c0-1.2,1-2.3,2.3-2.3h52.4c1.2,0,2.3,1,2.3,2.3v0
	C135.2,60,134.2,61,132.9,61z"/>
<path class="st7" d="M68.8,90.1H54.3c-1.3,0-2.3-1-2.3-2.3V73.3c0-1.3,1-2.3,2.3-2.3h14.5c1.3,0,2.3,1,2.3,2.3v14.5
	C71.1,89,70.1,90.1,68.8,90.1z"/>
<path class="st7" d="M132.9,75.5H80.6c-1.2,0-2.3-1-2.3-2.3l0,0c0-1.2,1-2.3,2.3-2.3h52.4c1.2,0,2.3,1,2.3,2.3l0,0
	C135.2,74.5,134.2,75.5,132.9,75.5z"/>
<path class="st7" d="M132.9,90.1H80.6c-1.2,0-2.3-1-2.3-2.3v0c0-1.2,1-2.3,2.3-2.3h52.4c1.2,0,2.3,1,2.3,2.3v0
	C135.2,89.1,134.2,90.1,132.9,90.1z"/>
<rect x="7.9" y="24.7" class="st7" width="17" height="65.8"/>
<rect x="9.2" y="26.3" class="st6" width="7.2" height="62.7"/>
<rect x="7.9" y="13.2" class="st15" width="17" height="11.5"/>
<polygon class="st7" points="24.9,90.5 7.9,90.5 16.4,106 "/>
<polygon class="st15" points="20.2,99.1 12.6,99.1 16.4,106 "/>
<path class="st7" d="M22.4,3.1H10.4C9,3.1,7.9,4.3,7.9,5.7v9h17v-9C24.9,4.3,23.8,3.1,22.4,3.1z"/>
</svg>
