<?xml version="1.0" encoding="utf-8"?>
<!-- Generator: Adobe Illustrator 26.3.1, SVG Export Plug-In . SVG Version: 6.00 Build 0)  -->
<svg version="1.1" id="Camada_1" xmlns="http://www.w3.org/2000/svg" xmlns:xlink="http://www.w3.org/1999/xlink" x="0px" y="0px"
	 viewBox="0 0 129.8 128.9" enable-background="new 0 0 129.8 128.9" xml:space="preserve">
<g>
	
		<path fill="#FFFFFF" stroke="#009CEA" stroke-width="3" stroke-linecap="round" stroke-linejoin="round" stroke-miterlimit="10" d="
		M218.5,175.2c-0.7-26.6-22.5-47.9-49.5-47.9c-26.6,0-48.3,20.8-49.4,46.9c-0.1,0.7-0.1,1.4-0.1,2.1c0,9.3,2.6,18,7.1,25.4
		l-8.9,26.3l27.4-8.7c7.1,3.9,15.3,6.1,23.9,6.1c27.3,0,49.5-21.9,49.5-49.1C218.6,176,218.5,175.6,218.5,175.2z M169.1,217.8
		c-8.4,0-16.3-2.5-22.9-6.8l-16,5.1l5.1-15.4c-5-6.8-7.9-15.2-7.9-24.2c0-1.3,0.1-2.6,0.3-4c2-20.9,19.8-37.3,41.4-37.3
		c21.9,0,39.8,16.8,41.5,38.1c0.1,1.1,0.1,2.2,0.1,3.2C210.7,199.2,192,217.8,169.1,217.8z"/>
</g>
<g>
	
		<path fill="#FFFFFF" stroke="#009CEA" stroke-width="3" stroke-linecap="round" stroke-linejoin="round" stroke-miterlimit="10" d="
		M64.8,110L64.8,110c-18.8,0-34-15.2-34-34V48.6c0-18.8,15.2-34,34-34h0c18.8,0,34,15.2,34,34V76C98.9,94.8,83.6,110,64.8,110z"/>
	<path fill="none" stroke="#009CEA" stroke-width="3" stroke-linecap="round" stroke-linejoin="round" stroke-miterlimit="10" d="
		M19.5,66V48C19.5,23,39.8,2.6,64.8,2.6h0c25.1,0,45.4,20.3,45.4,45.4v28.6c0,25.1-20.3,45.4-45.4,45.4h0"/>
	
		<path fill="#C7F3FF" stroke="#009CEA" stroke-width="3" stroke-linecap="round" stroke-linejoin="round" stroke-miterlimit="10" d="
		M73.4,126.4H56.3c-2.6,0-4.6-2.1-4.6-4.6v-1.9c0-2.6,2.1-4.6,4.6-4.6h17.1c2.6,0,4.6,2.1,4.6,4.6v1.9C78,124.3,76,126.4,73.4,126.4
		z"/>
	
		<path fill="#C7F3FF" stroke="#009CEA" stroke-width="3" stroke-linecap="round" stroke-linejoin="round" stroke-miterlimit="10" d="
		M116.9,82.2h-7.7c-1.6,0-2.8-1.3-2.8-2.8V45.2c0-1.6,1.3-2.8,2.8-2.8h7.7c5.6,0,10.1,4.5,10.1,10.1v19.6
		C127,77.7,122.5,82.2,116.9,82.2z"/>
	
		<path fill="#C7F3FF" stroke="#009CEA" stroke-width="3" stroke-linecap="round" stroke-linejoin="round" stroke-miterlimit="10" d="
		M13,82.2h7.7c1.6,0,2.8-1.3,2.8-2.8V45.2c0-1.6-1.3-2.8-2.8-2.8H13c-5.6,0-10.1,4.5-10.1,10.1l0,19.6C2.9,77.7,7.5,82.2,13,82.2z"
		/>
</g>
</svg>
