<?xml version="1.0" encoding="utf-8"?>
<!-- Generator: Adobe Illustrator 26.3.1, SVG Export Plug-In . SVG Version: 6.00 Build 0)  -->
<svg version="1.1" id="Camada_1" xmlns="http://www.w3.org/2000/svg" xmlns:xlink="http://www.w3.org/1999/xlink" x="0px" y="0px"
	 viewBox="0 0 150 150" style="enable-background:new 0 0 150 150;" xml:space="preserve">
<style type="text/css">
	.st0{fill:#FFFFFF;stroke:#0DB14B;stroke-width:2.3405;stroke-linecap:round;stroke-linejoin:round;stroke-miterlimit:10;}
	.st1{fill:#A7EABF;stroke:#0DB14B;stroke-width:2.3405;stroke-linecap:round;stroke-linejoin:round;stroke-miterlimit:10;}
	.st2{fill:none;stroke:#0DB14B;stroke-width:2.3405;stroke-linecap:round;stroke-linejoin:round;stroke-miterlimit:10;}
	.st3{fill:#A7EABF;stroke:#0DB14B;stroke-width:3;stroke-linecap:round;stroke-linejoin:round;stroke-miterlimit:10;}
	.st4{fill:#FFFFFF;stroke:#0DB14B;stroke-width:3;stroke-linecap:round;stroke-linejoin:round;stroke-miterlimit:10;}
	.st5{fill:#DCF9E4;}
	.st6{fill:#A7EABF;stroke:#0DB14B;stroke-width:2.6825;stroke-linecap:round;stroke-linejoin:round;stroke-miterlimit:10;}
	.st7{fill:#FFFFFF;stroke:#0DB14B;stroke-width:2.6825;stroke-linecap:round;stroke-linejoin:round;stroke-miterlimit:10;}
	.st8{fill:none;stroke:#0DB14B;stroke-width:2.6825;stroke-linecap:round;stroke-linejoin:round;stroke-miterlimit:10;}
	.st9{fill:#FFFFFF;stroke:#0DB14B;stroke-width:2.4963;stroke-linecap:round;stroke-linejoin:round;stroke-miterlimit:10;}
	.st10{fill:#FFFFFF;stroke:#0DB14B;stroke-width:3.2469;stroke-linecap:round;stroke-linejoin:round;stroke-miterlimit:10;}
	.st11{fill:#FFFFFF;stroke:#0DB14B;stroke-width:2.2584;stroke-linecap:round;stroke-linejoin:round;stroke-miterlimit:10;}
	.st12{fill:#FFFFFF;stroke:#0DB14B;stroke-width:3.154;stroke-linecap:round;stroke-linejoin:round;stroke-miterlimit:10;}
	.st13{fill:#A7EABF;stroke:#0DB14B;stroke-width:3.0001;stroke-linecap:round;stroke-linejoin:round;stroke-miterlimit:10.0002;}
	.st14{fill:#FFFFFF;stroke:#0DB14B;stroke-width:2.9314;stroke-linecap:round;stroke-linejoin:round;stroke-miterlimit:10;}
	.st15{fill:none;stroke:#0DB14B;stroke-width:3;stroke-linecap:round;stroke-linejoin:round;stroke-miterlimit:10;}
	.st16{fill:#FFFFFF;stroke:#0DB14B;stroke-width:2.9909;stroke-linecap:round;stroke-linejoin:round;stroke-miterlimit:10;}
	.st17{fill:#FFFFFF;stroke:#0DB14B;stroke-width:2.9735;stroke-linecap:round;stroke-linejoin:round;stroke-miterlimit:10;}
	.st18{fill:#FFFFFF;stroke:#0DB14B;stroke-width:2.9921;stroke-linecap:round;stroke-linejoin:round;stroke-miterlimit:10;}
	.st19{fill:#FFFFFF;stroke:#000000;stroke-linecap:round;stroke-linejoin:round;stroke-miterlimit:10;}
	.st20{fill:#FFFFFF;stroke:#000000;stroke-width:1;stroke-linecap:round;stroke-linejoin:round;stroke-miterlimit:9.9999;}
	.st21{fill:#A7EABF;stroke:#0DB14B;stroke-width:2.9735;stroke-linecap:round;stroke-linejoin:round;stroke-miterlimit:10;}
	.st22{fill:#233036;}
	.st23{fill:#FECA05;}
	.st24{fill:#E5E3E3;}
	.st25{fill:#FFFFFF;}
	.st26{fill:#F2F2F2;}
	.st27{fill:none;stroke:#004D40;stroke-width:9.5848;stroke-miterlimit:10;}
	.st28{fill:#F4F4F4;}
	.st29{fill:#00AF10;}
	.st30{fill:#333333;}
	.st31{fill:#0DB14B;}
	.st32{fill:#FFFFFF;stroke:#000000;stroke-width:2.668;stroke-linecap:round;stroke-linejoin:round;stroke-miterlimit:9.9999;}
	.st33{fill:#0DB14B;stroke:#000000;stroke-width:2.668;stroke-linecap:round;stroke-linejoin:round;stroke-miterlimit:10;}
	.st34{fill:#FFFFFF;stroke:#0DB14B;stroke-width:2.5408;stroke-linecap:round;stroke-linejoin:round;stroke-miterlimit:10;}
	.st35{fill:#0DB14B;stroke:#000000;stroke-width:2.668;stroke-miterlimit:10;}
	.st36{fill:#FFFFFF;stroke:#000000;stroke-width:2.668;stroke-linecap:round;stroke-linejoin:round;stroke-miterlimit:10;}
	.st37{fill:#FFFFFF;stroke:#0DB14B;stroke-width:3;stroke-linecap:round;stroke-linejoin:round;stroke-miterlimit:9.9999;}
	.st38{fill:#0DB14B;stroke:#000000;stroke-width:2;stroke-miterlimit:10;}
	.st39{fill:#FFFFFF;stroke:#000000;stroke-width:2;stroke-miterlimit:10;}
	.st40{fill:none;stroke:#0DB14B;stroke-width:2.9735;stroke-linecap:round;stroke-linejoin:round;stroke-miterlimit:10;}
	.st41{fill:#FFFFFF;stroke:#0DB14B;stroke-width:2.9735;stroke-linecap:round;stroke-linejoin:round;stroke-miterlimit:9.9999;}
	.st42{fill:none;stroke:#000000;stroke-linecap:round;stroke-linejoin:round;stroke-miterlimit:10;}
	.st43{fill:none;stroke:#0DB14B;stroke-width:2.9921;stroke-linecap:round;stroke-linejoin:round;stroke-miterlimit:10;}
	.st44{fill:#FFFFFF;stroke:#0DB14B;stroke-width:2.9921;stroke-linecap:round;stroke-linejoin:round;stroke-miterlimit:9.9999;}
	.st45{fill:#FFFFFF;stroke:#0DB14B;stroke-width:2.9922;stroke-linecap:round;stroke-linejoin:round;stroke-miterlimit:10.0005;}
	.st46{fill:#A7EABF;stroke:#0DB14B;stroke-width:2.9921;stroke-linecap:round;stroke-linejoin:round;stroke-miterlimit:10;}
	.st47{fill:#FFFFFF;stroke:#000000;stroke-width:2;stroke-linecap:round;stroke-linejoin:round;stroke-miterlimit:10;}
	.st48{fill:#0DB14B;stroke:#000000;stroke-width:2;stroke-linecap:round;stroke-linejoin:round;stroke-miterlimit:10;}
	.st49{fill:#A7EABF;stroke:#0DB14B;stroke-width:2.9909;stroke-linecap:round;stroke-linejoin:round;stroke-miterlimit:10;}
	.st50{fill:none;stroke:#0DB14B;stroke-width:2.3333;stroke-linecap:round;stroke-linejoin:round;stroke-miterlimit:10;}
	.st51{fill:#FFFFFF;stroke:#0DB14B;stroke-width:3.4861;stroke-linecap:round;stroke-linejoin:round;stroke-miterlimit:10;}
	.st52{fill:#A7EABF;stroke:#0DB14B;stroke-width:3.2866;stroke-linecap:round;stroke-linejoin:round;stroke-miterlimit:10;}
	.st53{fill:#FFFFFF;stroke:#0DB14B;stroke-width:4.1045;stroke-linecap:round;stroke-linejoin:round;stroke-miterlimit:10;}
	.st54{fill:#FFFFFF;stroke:#0DB14B;stroke-width:3.2866;stroke-linecap:round;stroke-linejoin:round;stroke-miterlimit:10;}
	.st55{fill:none;stroke:#0DB14B;stroke-width:3.2866;stroke-linecap:round;stroke-linejoin:round;stroke-miterlimit:10;}
	.st56{fill:none;stroke:#0DB14B;stroke-width:3.74;stroke-linecap:round;stroke-linejoin:round;stroke-miterlimit:10;}
	.st57{fill:#F68797;}
	.st58{fill:#ADADAD;}
	.st59{fill:#D81919;}
	.st60{fill:#01A5FC;}
	.st61{fill:#1F4583;}
	.st62{fill:none;stroke:#0DB14B;stroke-width:1.643;stroke-linecap:round;stroke-linejoin:round;stroke-miterlimit:10;}
	.st63{fill:#A7EABF;stroke:#0DB14B;stroke-width:1.643;stroke-linecap:round;stroke-linejoin:round;stroke-miterlimit:10;}
	.st64{fill:#A7EABF;stroke:#0DB14B;stroke-width:1.6285;stroke-linecap:round;stroke-linejoin:round;stroke-miterlimit:10;}
	.st65{fill:#A7EABF;stroke:#0DB14B;stroke-width:2.8271;stroke-linecap:round;stroke-linejoin:round;stroke-miterlimit:10;}
	.st66{fill:none;stroke:#DCF9E4;stroke-miterlimit:10;}
	.st67{fill:none;stroke:#DCF9E4;stroke-width:2;stroke-linecap:round;stroke-linejoin:round;stroke-miterlimit:10;}
	.st68{fill:#FFFFFF;stroke:#0DB14B;stroke-width:2.2844;stroke-linecap:round;stroke-linejoin:round;stroke-miterlimit:10;}
	.st69{fill:none;stroke:#0DB14B;stroke-width:2.8046;stroke-linecap:round;stroke-linejoin:round;stroke-miterlimit:10;}
	.st70{fill:#A7EABF;stroke:#0DB14B;stroke-width:3.0861;stroke-linecap:round;stroke-linejoin:round;stroke-miterlimit:10;}
	.st71{fill:#282828;}
	.st72{fill:none;stroke:#FFFFFF;stroke-width:1.1017;stroke-linecap:round;stroke-linejoin:round;stroke-miterlimit:10;}
	.st73{fill:#282828;stroke:#FFFFFF;stroke-width:0.7966;stroke-miterlimit:10;}
	.st74{fill:#282828;stroke:#FFFFFF;stroke-width:0.7966;stroke-linecap:round;stroke-linejoin:round;stroke-miterlimit:10;}
	.st75{fill:none;stroke:#FFFFFF;stroke-width:1.1399;stroke-linecap:round;stroke-linejoin:round;stroke-miterlimit:10;}
</style>
<path class="st0" d="M19.2,78.6c2.9-1.3,5.1-3.5,6-6.1c1.7-0.8,3.7-1.2,5.9-1.3c2.5-0.1,4.9,0.5,6.9,1.4c0.9,2.6,3.1,4.7,5.9,5.9
	c0.3,0.9,0.5,1.8,0.5,2.7c0.2,5.8-5.3,10.6-12.5,10.8s-13-4.3-13.3-10.1C18.6,80.8,18.8,79.7,19.2,78.6z"/>
<path class="st0" d="M19.8,78.9c4.1,5.4,9.3,6.2,11.5,6.2l0,0l0,0c0,0,0.1,0,0.2,0c0.2,0,0.2,0,0.2,0l0,0l0,0
	c2.2-0.1,7.3-0.9,11.5-6.2C54,78.9,60.3,88,60.3,96c0,7-0.5,13.8-2.5,26.1c-3.8,5.2-14.9,9.5-24.3,9.5c-0.2,0-1.7,0.1-2,0.1
	c-0.2,0-1.8-0.1-2-0.1c-9.4,0-20.5-4.3-24.3-9.5c-2-12.2-2.5-19.1-2.5-26.1C2.7,88,8.9,78.9,19.8,78.9z"/>
<ellipse class="st0" cx="31.8" cy="53.8" rx="17.7" ry="20"/>
<path class="st1" d="M11.2,45c0,0-1.4-2.7-0.2-8.3c0.7-3.7,6.2,5.5,6.2,5.5l-2.5,6.5C14.7,48.7,12.4,48.1,11.2,45z"/>
<path class="st1" d="M48.9,48.7c0,0-3-12.8-13.8-8.3c-8.4,3.4-16.9,8.2-23,0.7c-5.2-6.4-3-18.8,8.6-21.5c-1.8,7.1,5.7,9.8,10.1,8.1
	c3.2-1.2,15.5-4.4,20.5,3.4S51.9,46.9,48.9,48.7z"/>
<path class="st0" d="M26.8,65.1c0.8,1.6,2.9,2.7,5.2,2.7s4.3-1,5.1-2.4"/>
<g>
	<line class="st2" x1="26.3" y1="51.2" x2="20.7" y2="51.2"/>
	<line class="st2" x1="43.4" y1="51.2" x2="37.8" y2="51.2"/>
</g>
<path class="st0" d="M31.8,61.9c0,0-2,0.4-3.8-2.6c3.6-2.2,3.8-5.1,3.8-7.6"/>
<path class="st0" d="M131.2,78.6c-2.9-1.3-5.1-3.5-6-6.1c-1.7-0.8-3.7-1.2-5.9-1.3c-2.5-0.1-4.9,0.5-6.9,1.4
	c-0.9,2.6-3.1,4.7-5.9,5.9c-0.3,0.9-0.5,1.8-0.5,2.7c-0.2,5.8,5.3,10.6,12.5,10.8s13-4.3,13.3-10.1
	C131.9,80.8,131.7,79.7,131.2,78.6z"/>
<path class="st0" d="M130.7,78.9c-4.1,5.4-9.3,6.2-11.5,6.2l0,0l0,0c0,0-0.1,0-0.2,0c-0.2,0-0.2,0-0.2,0l0,0l0,0
	c-2.2-0.1-7.3-0.9-11.5-6.2C96.4,78.9,90.2,88,90.2,96c0,7,0.5,13.8,2.5,26.1c3.8,5.2,14.9,9.5,24.3,9.5c0.2,0,1.7,0.1,2,0.1
	s1.8-0.1,2-0.1c9.4,0,20.5-4.3,24.3-9.5c2-12.2,2.5-19.1,2.5-26.1C147.8,88,141.5,78.9,130.7,78.9z"/>
<path class="st0" d="M118.7,33.9c9.8,0,17.7,8.9,17.7,20s-7.9,20-17.7,20s-17.7-8.9-17.7-20S108.9,33.9,118.7,33.9z"/>
<path class="st1" d="M139.3,45c0,0,1.4-2.7,0.2-8.3c-0.7-3.7-6.2,5.5-6.2,5.5l2.5,6.5C135.8,48.7,138.1,48.1,139.3,45z"/>
<path class="st1" d="M101.6,48.7c0,0,3-12.8,13.8-8.3c8.4,3.4,16.9,8.2,23,0.7c5.2-6.4,3-18.8-8.6-21.5c1.8,7.1-5.7,9.8-10.1,8.1
	c-3.2-1.2-15.5-4.4-20.5,3.4C94.2,38.8,98.5,46.9,101.6,48.7z"/>
<path class="st0" d="M123.7,65.1c-0.8,1.6-2.9,2.7-5.2,2.7s-4.3-1-5.1-2.4"/>
<g>
	<line class="st2" x1="124.1" y1="51.2" x2="129.7" y2="51.2"/>
	<line class="st2" x1="107" y1="51.2" x2="112.7" y2="51.2"/>
</g>
<path class="st0" d="M118.7,61.9c0,0,2,0.4,3.8-2.6c-3.6-2.2-3.8-5.1-3.8-7.6"/>
<path class="st4" d="M89.4,79.5c-3.7-1.7-6.5-4.5-7.7-7.8c-2.2-1-4.8-1.6-7.5-1.7c-3.2-0.1-6.3,0.6-8.9,1.8c-1.2,3.3-4,6-7.5,7.6
	c-0.4,1.1-0.7,2.3-0.7,3.5c-0.3,7.4,6.8,13.6,16,13.9s16.7-5.5,17.1-12.9C90.2,82.3,90,80.9,89.4,79.5z"/>
<path class="st4" d="M88.7,79.8c-5.3,6.9-11.9,7.9-14.7,8l0,0l0,0c0,0-0.1,0-0.3,0c-0.2,0-0.3,0-0.3,0l0,0l0,0
	c-2.8-0.1-9.4-1.1-14.7-8c-13.9,0-21.9,11.7-21.9,22c0,9,0.7,17.7,3.2,33.5c4.9,6.7,19.1,12.2,31.2,12.2c0.2,0,2.2,0.1,2.5,0.1
	s2.3-0.1,2.5-0.1c12.1,0,26.3-5.5,31.2-12.2c2.5-15.7,3.2-24.5,3.2-33.5C110.6,91.5,102.6,79.8,88.7,79.8z"/>
<ellipse class="st4" cx="73.3" cy="47.7" rx="22.7" ry="25.6"/>
<path class="st3" d="M99.7,36.4c0,0,1.8-3.5,0.3-10.6c-0.9-4.7-8,7.1-8,7.1l3.2,8.3C95.2,41.1,98.2,40.3,99.7,36.4z"/>
<path class="st3" d="M57.7,97.1l-5.5-13.8l5.1-4c0,0,6.5,8.3,13.6,8.7C67.2,90.7,57.7,97.1,57.7,97.1z"/>
<path class="st3" d="M89.5,97.1L95,83.3l-5.1-4c0,0-6.5,8.3-13.6,8.7C80,90.7,89.5,97.1,89.5,97.1z"/>
<path class="st3" d="M51.4,41.1c0,0,3.8-16.4,17.7-10.7c10.8,4.4,21.6,10.5,29.5,0.9c6.7-8.2,3.9-24.1-11-27.5
	c2.3,9.1-7.3,12.6-12.9,10.4c-4.1-1.6-19.9-5.7-26.3,4.3S47.5,38.8,51.4,41.1z"/>
<path class="st4" d="M79.7,62.1c-1,2-3.7,3.4-6.7,3.4s-5.5-1.3-6.6-3.1"/>
<g>
	<line class="st15" x1="80.3" y1="44.4" x2="87.5" y2="44.4"/>
	<line class="st15" x1="58.4" y1="44.4" x2="65.6" y2="44.4"/>
</g>
<path class="st4" d="M73.3,58c0,0,2.6,0.5,4.9-3.3c-4.6-2.8-4.9-6.6-4.9-9.8"/>
<line class="st15" x1="73.7" y1="89.3" x2="73.7" y2="147.1"/>
</svg>
