<?xml version="1.0" encoding="utf-8"?>
<!-- Generator: Adobe Illustrator 26.5.0, SVG Export Plug-In . SVG Version: 6.00 Build 0)  -->
<svg version="1.1" id="Camada_1" xmlns="http://www.w3.org/2000/svg" xmlns:xlink="http://www.w3.org/1999/xlink" x="0px" y="0px"
	 viewBox="0 0 575.5 88.7" style="enable-background:new 0 0 575.5 88.7;" xml:space="preserve">
<style type="text/css">
	.st0{fill:#0DB14B;}
	.st1{fill:#111111;}
	.st2{fill:#FFFFFF;}
	.st3{fill:none;stroke:#39B54A;stroke-width:10.2164;stroke-miterlimit:10;}
	.st4{fill:none;stroke:#39B54A;stroke-width:10.4562;stroke-miterlimit:10;}
	.st5{fill:none;stroke:#004D40;stroke-width:9.5848;stroke-miterlimit:10;}
	.st6{fill:none;stroke:#004D40;stroke-width:9.8799;stroke-miterlimit:10;}
	.st7{fill:#999999;}
	.st8{fill:#F4F4F4;}
	.st9{fill:#00AF10;}
	.st10{fill:none;stroke:#39B54A;stroke-width:9.7092;stroke-miterlimit:10;}
	.st11{fill:#00A651;}
	.st12{fill:#A6CE39;}
	.st13{fill:#333333;}
	.st14{fill:#0C0C0C;}
	.st15{fill:none;stroke:#333333;stroke-width:8;stroke-miterlimit:10;}
	.st16{fill:none;stroke:#0C0C0C;stroke-width:10.0518;stroke-linecap:round;stroke-linejoin:round;stroke-miterlimit:10;}
	.st17{fill:#161616;}
	.st18{fill:none;stroke:#FFFFFF;stroke-width:11;stroke-linecap:round;stroke-linejoin:round;stroke-miterlimit:10;}
	.st19{fill:none;stroke:#0C0C0C;stroke-width:6;stroke-linecap:round;stroke-linejoin:round;stroke-miterlimit:10;}
</style>
<path class="st0" d="M401.1,88.3c-1.4,0-2.5-1.1-2.5-2.5V69.7c0-3.7,0.6-7,1.9-9.8s3.3-5.3,6-7.5s6.3-4.2,10.7-6l12.9-5.5
	c3.3-1.4,5.7-3.1,7.3-5c1.5-1.9,2.3-4.4,2.3-7.3c0-2.7-0.9-5-2.7-6.9c-1.8-1.9-4.5-2.8-8-2.8c-3.6,0-6.2,1-8,3
	c-1.5,1.6-2.3,3.7-2.6,6.3c-0.1,1-0.9,1.7-1.8,1.7h-17.4c-1,0-1.8-0.8-1.7-1.8c0.2-4.8,1.4-9.2,3.6-13c2.4-4.3,5.9-7.7,10.6-10.2
	s10.5-3.7,17.4-3.7c6.8,0,12.6,1.2,17.2,3.5c4.7,2.4,8.2,5.6,10.7,9.6s3.7,8.6,3.7,13.8v1.4c0,6.6-1.8,12-5.3,16.3
	c-3.6,4.3-9.3,8.1-17.2,11.5l-12.9,5.5c-1.9,0.8-3.2,1.6-4.1,2.6c-0.9,0.9-1.3,2.2-1.3,3.7v2.1c0,0.9-1,1.5-1.8,1l0,0
	c-1-0.6-0.5-2.1,0.6-2.1h41.8v17.4c0,0.6-0.5,1.1-1.1,1.1h-58.3V88.3z"/>
<path class="st0" d="M460.3,69.9V54.5c0-4.2,1.2-8.4,3.5-11.9l25.5-39.4c0.6-1,1.9-1.3,2.9-0.6l13.6,8.6c0.9,0.6,1.2,1.9,0.6,2.8
	l-22.7,34.8c-0.6,0.9-0.6,2,0,2.9l0,0c0.5,0.7,1.3,1.1,2.1,1.1h48V70L460.3,69.9L460.3,69.9z M504.7,85.8V25.5c0-1.1,0.9-2,2-2h18
	v64.8h-17.5C505.9,88.3,504.7,87.2,504.7,85.8z"/>
<path class="st2" d="M524.7,88.3V23.5h16.8c1.2,0,2.2,1,2.2,2.2c0,10,0,10.4,0,16.4c2.5-3.4,7.8-4.3,11.3-4.3h0.7
	c5.3,0,11.6,1.8,14.5,5.6c4,5.1,4.8,9.7,4.8,17.2v25.7c0,1.2-1,2.2-2.2,2.2H558c-1.1,0-2-0.9-2-2V59.8c0-2.2-0.7-4.1-2-5.6
	c-1.4-1.5-3.4-1.8-5.6-1.3c-3.7,0.7-4.6,4.7-4.6,7.1v26.4c0,1.1-0.9,2-2,2L524.7,88.3L524.7,88.3z"/>
<path class="st2" d="M380.3,21c-4.5,0-8.6,1-12.7,2.9c0,0-0.1,0-0.1,0.1c-3.2,1.8-18.5,8-18.5,32.2V87c0,0.8,0.6,1.4,1.4,1.4h17.4
	c0.8,0,1.4-0.6,1.4-1.4V54.7c0-4.1,0.4-6.9,2.9-9.9c2.5-2.9,4.6-3.6,8.2-3.6h8.2c0.8,0,1.4-0.6,1.4-1.4V22.4c0-0.8-0.6-1.4-1.4-1.4
	H380.3z"/>
<path class="st2" d="M194.8,88.3c-9.1,0-16.3-1.9-21.6-5.7c-5-3.6-5.8-8.4-5.8-15.7c0-0.6,0.5-1.1,1.1-1.1c3.3,0,13.5,0,16.4,0
	c0.5,0,0.8,0.4,0.9,0.8c0.1,1.8-0.1,3.8,1.7,5c2.1,1.4,4.1,2.1,7.8,2.1c2.7,0,5-0.4,6.9-1.2c1.9-0.8,2.9-2.9,2.9-4.7
	c0-1.6-0.8-3-2.3-4.1c-1.5-1-4.3-1.7-8.3-2.1l-4.3-0.5c-5.5-0.6-14.3-2.4-17.8-5.8c-3.8-3.6-4.8-8.1-4.8-13.5
	c0-4.6,1.1-8.5,3.4-11.5c2.3-3,5.4-5.3,9.5-6.8c4-1.5,8.6-2.3,13.8-2.3c8.4,0,15.3,1.8,20.4,5.5c4.9,3.5,7.7,8.5,8.2,15
	c0,0.5-0.4,1-0.9,1h-16.5c-0.4,0-0.8-0.3-0.9-0.7c-0.4-1.6-1.4-3-2.9-4.2c-1.8-1.3-4.3-2-7.5-2c-2.4,0-4.3,0.4-5.8,1.3
	c-1.3,0.7-2,1.7-2.2,3c-0.2,1.8,0.9,3.5,2.5,4.3c1.3,0.7,2.7,1.2,5.5,1.5l4.3,0.5c8.1,0.8,14.3,3.1,18.7,6.7
	c4.4,3.6,6.6,8.4,6.6,14.2c0,4.3-1.2,8.1-3.5,11.2s-5.6,5.5-9.9,7.2C205.8,87.5,200.7,88.3,194.8,88.3z"/>
<path class="st2" d="M232,34.9V23.7c0-1.1,0.9-1.9,1.9-1.9h32.3c1.1,0,1.9,0.9,1.9,1.9v11.2c0,1.1-0.9,1.9-1.9,1.9h-32.3
	C232.9,36.9,232,36,232,34.9z M259.6,88.3c-6.8,0-12.3-0.8-16.4-2.5c-4.1-1.7-7-4.5-8.8-8.3c-1.8-3.9-2.7-9.1-2.7-15.8l0-58.7
	c0-1.1,0.9-1.9,1.9-1.9h15.3c1.1,0,1.9,0.9,1.9,1.9l-0.1,59.3c0,2.8,0.7,5,2.2,6.4c1.5,1.5,3.6,2.2,6.4,2.2h6.7
	c1.1,0,1.9,0.9,1.9,1.9v13.5c0,1.1-0.9,1.9-1.9,1.9h-6.4V88.3z"/>
<path class="st2" d="M308.1,88.3c-5.6,0-10.5-0.8-14.8-2.5s-8-4-11-7s-5.3-6.4-6.8-10.3c-1.6-3.9-2.3-8-2.3-12.4v-2.7
	c0-4.6,0.8-8.8,2.5-12.8c1.6-4,4-7.4,7-10.4s6.7-5.3,11.1-7c4.3-1.7,9.2-2.5,14.5-2.5c5.4,0,10.3,0.8,14.6,2.5c4.3,1.7,8,4,11,7
	s5.4,6.4,7,10.4s2.5,8.2,2.5,12.8v2.7c0,4.4-0.8,8.6-2.3,12.4c-1.6,3.9-3.8,7.3-6.8,10.3s-6.7,5.3-11,7
	C318.6,87.5,313.6,88.3,308.1,88.3z M308.1,71c3.2,0,5.8-0.7,7.9-2.1s3.7-3.3,4.7-5.8c1.1-2.5,1.6-5.3,1.6-8.4
	c0-3.3-0.6-6.1-1.7-8.6s-2.7-4.4-4.9-5.9c-2.1-1.4-4.7-2.2-7.8-2.2c-3,0-5.6,0.7-7.8,2.2c-2.1,1.4-3.7,3.4-4.9,5.9
	c-1.1,2.5-1.7,5.3-1.7,8.6c0,3.1,0.5,5.9,1.6,8.4s2.7,4.4,4.8,5.8C302.3,70.3,305,71,308.1,71z"/>
<path class="st2" d="M156.1,37.3c-2.5-5-6.1-9-10.8-12s-10.5-4.6-17.2-4.6c-5.1,0-9.7,0.9-13.7,2.7c-4,1.8-7.4,4.2-10.2,7.2
	c-2.8,3-4.9,6.5-6.4,10.4s-2.2,8-2.2,12.3v2.3c0,4.1,0.7,8.1,2.2,12s3.6,7.4,6.4,10.5s6.3,5.6,10.4,7.4s8.8,2.7,14.2,2.7
	c5.4,0,10.2-1,14.3-2.9s7.6-4.5,10.3-7.9c2.2-2.8,3.9-5.9,4.9-9.3c0.3-1.1-0.5-2.1-1.6-2.1c0,0-14.2,0-15.7,0
	c-1.1,0-1.4,0.6-1.6,0.9c-0.8,1.3-1.9,2.3-3.5,3.1c-1.9,1-4.2,1.5-7.1,1.5c-3.3,0-5.9-0.7-8-2.1s-3.6-3.3-4.6-5.9
	c-0.2-0.6-0.4-1.2-0.6-1.8c-0.1-0.4,0.2-0.8,0.6-0.8h42.1c0,0,1.6,0.1,1.6-1.7s0-5.8,0-5.8C159.8,47.7,158.6,42.3,156.1,37.3z
	 M120.8,39.3c2-1.3,4.4-1.9,7.1-1.9c2.8,0,5.2,0.6,7,1.9c2,1.4,3.5,3.5,4.5,6.3h-22.6c-0.4,0-0.8-0.5-0.6-0.9
	C117.4,42.3,118.9,40.5,120.8,39.3z"/>
<path class="st2" d="M87.2,45.5L87.2,45.5H65.8h-10c-0.3,0-1.4,0.1-1.4,1.4v12.6c0,0.9,0.7,1.7,1.7,1.7c0,0,5,0,6,0
	c-0.3,0.7-2,2.4-3.2,3.2c-4,2.9-8.6,4.6-14.3,4.7c-5.1,0-10.4-1.8-14.5-4.7c-4.2-3.1-7.4-7.4-9-12.4c-0.8-2.4-1.2-5-1.2-7.7
	s0.4-5.3,1.2-7.7c0.4-1.1,0.8-2.1,1.3-3.1c0.4-0.9,1.5-1.2,2.3-0.7l18.1,10.6c1.5,0.9,2.2,0.9,2.7,0.6l15.7-9.2
	c0.8-0.5,1.1-1.5,0.6-2.3v-0.1c-0.5-0.8-1.5-1-2.2-0.5l-13.9,8.2c-0.5,0.3-1.2,0.3-1.7,0l-17-10c-0.9-0.5-1.1-1.8-0.4-2.5
	c1.1-1.2,2.4-2.3,3.7-3.3c4.1-3,9.4-4.7,14.5-4.7v-0.1c5.7,0,10.4,1.8,14.5,4.7h0.1c2.4,1.9,4.4,3.9,6,6.3c0.5,0.7,1.5,1,2.2,0.5
	l14-8.2c0.8-0.5,1.1-1.6,0.5-2.4c-3-4.6-7-8.8-11.4-12.1c-0.1-0.1-0.2-0.1-0.3-0.1c0,0-0.2,0-0.2-0.1C63.4,3,54.1-0.1,44.4-0.1
	c-9.8,0-18.6,3.1-25.9,8.5C11,13.8,5.3,21.5,2.4,30.5C1,34.8,0.2,39.4,0.2,44.2S1,53.7,2.4,58c3,9,8.6,16.7,16.1,22.2
	c7.3,5.3,16.3,8.5,26,8.5s18.6-3.1,25.9-8.3l0.1-0.1c0.1-0.1,0.1-0.1,0.2-0.1c7.3-5.5,13.2-13.3,16-22.2c1.2-3.7,1.9-6.7,2.1-10.7
	C88.9,46.3,88.2,45.5,87.2,45.5L87.2,45.5z"/>
</svg>
