<svg id="logo_meets" data-name="logo meets" xmlns="http://www.w3.org/2000/svg" width="65.236" height="18" viewBox="0 0 65.236 18">
  <path id="Caminho_8" data-name="Caminho 8" d="M358.648-232.555a1.719,1.719,0,0,0,1.72-1.72,1.72,1.72,0,0,0-1.72-1.72h-3.587v-2.948a1.719,1.719,0,0,0-1.72-1.72,1.719,1.719,0,0,0-1.72,1.72v10.187c0,3.472,2.408,6.077,5.618,6.077h1.409a1.72,1.72,0,0,0,1.72-1.72,1.72,1.72,0,0,0-1.72-1.72H357.24c-1.72,0-2.178-1.654-2.178-2.637v-3.8Z" transform="translate(-305.959 240.662)" fill="#fff"/>
  <path id="Caminho_9" data-name="Caminho 9" d="M263.683-230.364a5.39,5.39,0,0,0-3.693,1.464,5.4,5.4,0,0,0-3.693-1.464,5.428,5.428,0,0,0-5.421,5.421v6.158a1.706,1.706,0,0,0,1.7,1.72,1.72,1.72,0,0,0,1.72-1.72v-6.158a1.978,1.978,0,0,1,1.982-1.982,1.978,1.978,0,0,1,1.982,1.982v6.158a1.72,1.72,0,0,0,1.72,1.72,1.745,1.745,0,0,0,1.736-1.72v-6.158c0-.036,0-.072-.005-.108a1.972,1.972,0,0,1,1.971-1.873,1.978,1.978,0,0,1,1.982,1.982v6.158a1.72,1.72,0,0,0,1.72,1.72,1.72,1.72,0,0,0,1.72-1.72v-6.158A5.417,5.417,0,0,0,263.683-230.364Z" transform="translate(-250.875 235.032)" fill="#fff"/>
  <path id="Caminho_10" data-name="Caminho 10" d="M382.188-222.9a3.821,3.821,0,0,0-1.048-1.13,6.135,6.135,0,0,0-1.343-.7c-.442-.164-.9-.328-1.36-.459q-.565-.172-1.081-.344a4.238,4.238,0,0,1-.819-.344,1.54,1.54,0,0,1-.426-.327.357.357,0,0,1-.082-.229v-.033a.746.746,0,0,1,.311-.606,1.805,1.805,0,0,1,1.147-.311,4.378,4.378,0,0,1,1.474.262,6.07,6.07,0,0,1,.688.278,1.623,1.623,0,0,0,.573.115,1.468,1.468,0,0,0,1.474-1.474,1.464,1.464,0,0,0-.7-1.261l-.033-.033c-.016,0-.016-.016-.033-.016a1.852,1.852,0,0,0-.262-.115c-.246-.1-.508-.2-.77-.278a7.968,7.968,0,0,0-2.359-.377,5.735,5.735,0,0,0-1.785.262,4,4,0,0,0-1.474.8,3.671,3.671,0,0,0-1,1.294,3.951,3.951,0,0,0-.36,1.654v.049a3.068,3.068,0,0,0,.458,1.72,3.7,3.7,0,0,0,1.1,1.1,6.714,6.714,0,0,0,1.376.671q.688.246,1.376.442c.36.1.7.213,1.032.311a4.345,4.345,0,0,1,.786.344,1.238,1.238,0,0,1,.41.344.466.466,0,0,1,.082.279v.049a.812.812,0,0,1-.36.721,2.094,2.094,0,0,1-1.261.344,5.029,5.029,0,0,1-1.753-.328,6.617,6.617,0,0,1-1.425-.753,1.419,1.419,0,0,0-.737-.2,1.5,1.5,0,0,0-1.491,1.491,1.479,1.479,0,0,0,.541,1.146v.016c.016.016.049.033.065.049a.586.586,0,0,0,.131.082,9.284,9.284,0,0,0,1.851.917,8.109,8.109,0,0,0,2.735.491,5.956,5.956,0,0,0,1.818-.262,4.668,4.668,0,0,0,1.523-.8,4.069,4.069,0,0,0,1.048-1.31,3.9,3.9,0,0,0,.393-1.769v-.049A3.153,3.153,0,0,0,382.188-222.9Z" transform="translate(-317.378 234.992)" fill="#fff"/>
  <path id="Caminho_11" data-name="Caminho 11" d="M304.352-227.3a6.53,6.53,0,0,0-1-1.245,6.089,6.089,0,0,0-1.277-.966,5.978,5.978,0,0,0-1.491-.623,6,6,0,0,0-1.638-.229,6.129,6.129,0,0,0-1.752.246,6.873,6.873,0,0,0-1.54.672,6.039,6.039,0,0,0-1.277,1.048,6.5,6.5,0,0,0-.966,1.343,7.333,7.333,0,0,0-.623,1.572,6.726,6.726,0,0,0-.213,1.736,6.512,6.512,0,0,0,.54,2.653,6.457,6.457,0,0,0,1.474,2.113,6.747,6.747,0,0,0,2.179,1.409,6.736,6.736,0,0,0,2.62.508,5.992,5.992,0,0,0,2.359-.459,7.246,7.246,0,0,0,2.015-1.278c.1-.1.18-.18.262-.278v-.016a1.48,1.48,0,0,0,.36-.983,1.538,1.538,0,0,0-1.54-1.54,1.482,1.482,0,0,0-1.016.393c-.016.016-.033.016-.033.033a3.205,3.205,0,0,1-.491.344,3.972,3.972,0,0,1-.655.3,5.656,5.656,0,0,1-.754.2,4.049,4.049,0,0,1-.753.082,3.329,3.329,0,0,1-.868-.115,2.906,2.906,0,0,1-.868-.377,2.861,2.861,0,0,1-.721-.688,2.371,2.371,0,0,1-.41-1.081h7.305a4.593,4.593,0,0,0,.966-.082.807.807,0,0,0,.475-.279,1,1,0,0,0,.164-.54c.016-.229.016-.508.016-.868a5.018,5.018,0,0,0-.213-1.556A5.945,5.945,0,0,0,304.352-227.3Zm-7.927,1.883a3.3,3.3,0,0,1,.426-.671,3.441,3.441,0,0,1,.59-.606,3,3,0,0,1,.688-.426,2.1,2.1,0,0,1,.77-.164,2.919,2.919,0,0,1,.966.147,2.649,2.649,0,0,1,.737.393,2.8,2.8,0,0,1,.573.59,4.7,4.7,0,0,1,.459.737Z" transform="translate(-273.675 235.032)" fill="#fff"/>
  <path id="Caminho_12" data-name="Caminho 12" d="M333.73-227.3a6.546,6.546,0,0,0-1-1.245,6.091,6.091,0,0,0-1.278-.966,5.978,5.978,0,0,0-1.491-.623,6,6,0,0,0-1.638-.229,6.132,6.132,0,0,0-1.753.246,6.87,6.87,0,0,0-1.539.672,6.043,6.043,0,0,0-1.278,1.048,6.5,6.5,0,0,0-.966,1.343,7.31,7.31,0,0,0-.622,1.572,6.728,6.728,0,0,0-.213,1.736,6.506,6.506,0,0,0,.541,2.653,6.458,6.458,0,0,0,1.474,2.113,6.745,6.745,0,0,0,2.178,1.409,6.738,6.738,0,0,0,2.621.508,5.99,5.99,0,0,0,2.358-.459,7.24,7.24,0,0,0,2.015-1.278c.1-.1.18-.18.262-.278v-.016a1.48,1.48,0,0,0,.36-.983,1.538,1.538,0,0,0-1.54-1.54,1.481,1.481,0,0,0-1.015.393c-.016.016-.033.016-.033.033a3.225,3.225,0,0,1-.491.344,4,4,0,0,1-.655.3,5.667,5.667,0,0,1-.753.2,4.049,4.049,0,0,1-.753.082,3.329,3.329,0,0,1-.868-.115,2.91,2.91,0,0,1-.868-.377,2.86,2.86,0,0,1-.721-.688,2.371,2.371,0,0,1-.409-1.081h7.3a4.6,4.6,0,0,0,.967-.082.806.806,0,0,0,.475-.279,1,1,0,0,0,.164-.54c.016-.229.016-.508.016-.868a4.587,4.587,0,0,0-.213-1.556A5.959,5.959,0,0,0,333.73-227.3Zm-7.927,1.883a3.305,3.305,0,0,1,.426-.671,3.438,3.438,0,0,1,.589-.606,3,3,0,0,1,.688-.426,2.1,2.1,0,0,1,.77-.164,2.921,2.921,0,0,1,.966.147,2.648,2.648,0,0,1,.737.393,2.8,2.8,0,0,1,.573.59,4.664,4.664,0,0,1,.459.737Z" transform="translate(-289.738 235.032)" fill="#fff"/>
</svg>
