<?xml version="1.0" encoding="utf-8"?>
<!-- Generator: Adobe Illustrator 26.3.1, SVG Export Plug-In . SVG Version: 6.00 Build 0)  -->
<svg version="1.1" id="Camada_1" xmlns="http://www.w3.org/2000/svg" xmlns:xlink="http://www.w3.org/1999/xlink" x="0px" y="0px"
	 viewBox="0 0 660.7 101.7" style="enable-background:new 0 0 660.7 101.7;" xml:space="preserve">
<style type="text/css">
	.st0{fill:#FFFFFF;}
	.st1{fill:none;stroke:#39B54A;stroke-width:10.2164;stroke-miterlimit:10;}
	.st2{fill:none;stroke:#39B54A;stroke-width:10.4562;stroke-miterlimit:10;}
	.st3{fill:none;stroke:#004D40;stroke-width:9.5848;stroke-miterlimit:10;}
	.st4{fill:none;stroke:#004D40;stroke-width:9.8799;stroke-miterlimit:10;}
	.st5{fill:#999999;}
	.st6{fill:#F4F4F4;}
	.st7{fill:#00AF10;}
	.st8{fill:none;stroke:#39B54A;stroke-width:9.7092;stroke-miterlimit:10;}
	.st9{fill:#00A651;}
	.st10{fill:#A6CE39;}
	.st11{fill:#333333;}
	.st12{fill:#0DB14B;}
	.st13{fill:#0C0C0C;}
	.st14{fill:none;stroke:#333333;stroke-width:8;stroke-miterlimit:10;}
	.st15{fill:none;stroke:#0C0C0C;stroke-width:10.0518;stroke-linecap:round;stroke-linejoin:round;stroke-miterlimit:10;}
	.st16{fill:#161616;}
	.st17{fill:none;stroke:#FFFFFF;stroke-width:11;stroke-linecap:round;stroke-linejoin:round;stroke-miterlimit:10;}
	.st18{fill:none;stroke:#0C0C0C;stroke-width:6;stroke-linecap:round;stroke-linejoin:round;stroke-miterlimit:10;}
</style>
<circle class="st0" cx="790.4" cy="25.8" r="62.4"/>
<g>
	<g>
		<path class="st1" d="M-2562.3,3977.9c16.2,0,29.3,13.2,29.3,29.3s-13.2,29.3-29.3,29.3c-16.2,0-29.3-13.2-29.3-29.3
			S-2578.4,3977.9-2562.3,3977.9z"/>
		<path class="st1" d="M-2508.5,4036.5c8.1,0,14.6,6.5,14.6,14.6c0,8.1-6.5,14.6-14.6,14.6s-14.6-6.5-14.6-14.6
			C-2523.2,4043-2516.6,4036.5-2508.5,4036.5z"/>
		<line class="st1" x1="-2562.3" y1="3977.9" x2="-2562.3" y2="3886.9"/>
		<line class="st1" x1="-2540.3" y1="4028.7" x2="-2509.2" y2="4050.2"/>
		<path class="st1" d="M-2513.4,4134.1v-39c0,0,0.3,0,9.8,0c19.5,0,39-19.7,39-39c0-9.6,0-22,0-22s10.8-2.9,16.6-4.4
			c7.4-2.2,9.1-10.2,5.8-16.9c-3-5.9-26.3-52.5-26.3-52.5s-13.6-70.1-93.7-70.1c-53.9,0-97.7,43.7-97.7,97.7
			c0,36.9,29.3,64.2,29.3,99v47.5"/>
	</g>
</g>
<path class="st1" d="M-2295.6,3929.2l-41.6-41.6c-4.6-4.6-12-4.6-16.6,0l-31.3,31.3c-6.4,6.4-8.6,16-5.5,24.7
	c8.5,23,29.4,69.6,70.1,110.3c40.6,40.6,87.2,61.5,110.3,70.1c8.6,3.2,18.2,1,24.7-5.5l31.3-31.3c4.6-4.6,4.6-12,0-16.6l-41.6-41.6
	c-4.6-4.6-12-4.6-16.6,0l-24.9,24.9c0,0-28.2-11.7-49.8-33.2c-21.6-21.6-33.3-49.8-33.3-49.8l24.9-24.9
	C-2291,3941.2-2291,3933.7-2295.6,3929.2z"/>
<g>
	<g>
		<path class="st1" d="M-2718.2,4031.5c1.4-7.1,2.1-14.3,2.1-21.7c0-63-51.1-114.1-114.1-114.1c-7.3,0-14.6,0.7-21.5,2
			c-10-6.2-21.9-9.8-34.6-9.8c-36.3,0-65.8,29.5-65.8,65.8c0,12.7,3.6,24.5,9.8,34.6c-1.3,7-2,14.1-2,21.5
			c0,63,51.1,114.1,114.1,114.1c7.4,0,14.7-0.7,21.7-2.1c9.9,6,21.5,9.4,33.9,9.4c36.3,0,65.8-29.5,65.8-65.8
			C-2708.8,4053-2712.2,4041.4-2718.2,4031.5z"/>
		<path class="st1" d="M-2829.1,4058.8c0,0,25.4-0.2,25.4-18.6c0-13.2-16.6-15.4-25.4-16.5s-59.7-5.6-60.1-45.8
			c0-37.9,45.8-42.2,57.2-42.2c16.9,0,59.7,11.2,55.7,36c-3.2,16-25,9.8-29.1,3c-6.9-8.8-11.5-13.5-28.1-13.5
			c-20.5,0-23.4,12.4-23.4,16s0,14.4,46.6,20c44.1,8.3,38.9,42.7,38.9,42.7s1.5,43.2-58.6,43.2c-53.9,0-67.4-38.2-53.5-46.6
			c13.2-8.1,19.1,2.5,25.7,9.7C-2851.4,4053.2-2845.6,4058.8-2829.1,4058.8z"/>
	</g>
</g>
<g>
	<g>
		<polygon class="st1" points="-3211,4027.2 -3341.5,4027.2 -3382.2,4059.7 -3382.2,4027.2 -3422.9,4027.2 -3422.9,3880.4 
			-3211,3880.4 		"/>
		<polygon class="st2" points="-3341.5,4027.8 -3382.8,4059.7 -3382.8,4027.8 -3423.8,4027.8 -3423.8,3971.1 -3453.4,3971.1 
			-3453.4,4097.5 -3340.8,4097.5 -3306.2,4124.2 -3306.2,4097.5 -3271.3,4097.5 -3271.3,4027.8 		"/>
	</g>
</g>
<g>
	<path class="st3" d="M-1821.6,3631.7h29.3c11.5,0,20.9-9.3,20.9-20.9l0,0c0-11.5-9.3-20.9-20.9-20.9h-8.4
		c-11.5,0-20.9-9.3-20.9-20.9l0,0c0-11.5,9.3-20.9,20.9-20.9h29.3"/>
	<line class="st3" x1="-1796.5" y1="3548.2" x2="-1796.5" y2="3523.1"/>
	<line class="st3" x1="-1796.5" y1="3656.8" x2="-1796.5" y2="3631.7"/>
	<polyline class="st3" points="-1729.7,3556.6 -1729.7,3514.8 -1688,3514.8 	"/>
	<polyline class="st3" points="-1863.4,3623.4 -1863.4,3665.1 -1905.2,3665.1 	"/>
	<path class="st3" d="M-1729.7,3514.8v12.3c15.5,16.5,25.1,38.5,25.1,62.9c0,50.7-41.2,91.9-91.9,91.9c-15.1,0-29.2-3.7-41.7-10.1
		v18.5c12.9,5.4,27,8.4,41.7,8.4c59.9,0,108.6-48.7,108.6-108.6c0-29.2-11.6-55.7-30.4-75.2L-1729.7,3514.8L-1729.7,3514.8z"/>
	<path class="st3" d="M-1863.4,3665.1v-12.3c-15.5-16.5-25.1-38.5-25.1-62.9c0-50.7,41.2-91.9,91.9-91.9c15.1,0,29.2,3.7,41.7,10.2
		v-18.5c-12.9-5.4-27-8.4-41.7-8.4c-59.9,0-108.6,48.7-108.6,108.6c0,29.2,11.6,55.7,30.4,75.2H-1863.4z"/>
</g>
<g>
	<rect x="-2355" y="3558.3" class="st4" width="51" height="51"/>
	<rect x="-2439.8" y="3558.3" class="st4" width="51" height="51"/>
	<rect x="-2355" y="3439.5" class="st4" width="51" height="51"/>
	<rect x="-2270" y="3558.3" class="st4" width="51" height="51"/>
	<polyline class="st4" points="-2244.6,3558.3 -2244.6,3524.4 -2414.4,3524.4 -2414.4,3558.3 	"/>
	<line class="st4" x1="-2329.4" y1="3558.3" x2="-2329.4" y2="3490.4"/>
</g>
<rect x="-1119.6" y="3417.9" class="st3" width="175.1" height="242.2"/>
<rect x="-1102.6" y="3434.1" class="st5" width="69.7" height="27.9"/>
<rect x="-1102.6" y="3488.1" class="st5" width="123.7" height="5.2"/>
<rect x="-1102.6" y="3475" class="st5" width="139.4" height="5.2"/>
<rect x="-1102.6" y="3515.1" class="st5" width="131.6" height="5.2"/>
<rect x="-1102.6" y="3528.2" class="st5" width="56.6" height="5.2"/>
<rect x="-1102.6" y="3501.2" class="st5" width="108" height="6.1"/>
<rect x="-1102.6" y="3557.8" class="st5" width="123.7" height="5.2"/>
<rect x="-1102.6" y="3586.6" class="st5" width="131.6" height="5.2"/>
<rect x="-1102.6" y="3571.7" class="st5" width="139.4" height="5.2"/>
<rect x="-1102.6" y="3600.5" class="st5" width="108" height="5.2"/>
<rect x="-919.2" y="3417.9" class="st3" width="175.1" height="242.2"/>
<circle class="st6" cx="-831.7" cy="3538.9" r="52.2"/>
<polygon class="st3" points="-807.6,3538.2 -831.2,3538.2 -831.2,3515.5 -832.9,3515.5 -832.9,3538.2 -855.6,3538.2 -855.6,3539.9 
	-832.9,3539.9 -832.9,3562.6 -831.2,3562.6 -831.2,3539.9 -807.6,3539.9 "/>
<g>
	<ellipse class="st3" cx="-1565.2" cy="3519.7" rx="57.6" ry="12.8"/>
	<g>
		<path class="st3" d="M-1507.6,3519.7v-38.4c0-7.1-25.8-12.8-57.6-12.8c-31.8,0-57.6,5.8-57.6,12.8v38.4"/>
		<polyline class="st3" points="-1507.6,3483.5 -1478.8,3468.6 -1565.2,3423.8 -1651.6,3468.6 -1622.8,3483.5 		"/>
		<line class="st3" x1="-1648.4" y1="3468.6" x2="-1648.4" y2="3539"/>
	</g>
</g>
<polygon class="st4" points="-1761.3,3897.6 -1851,3897.6 -1851,3778 -1791.2,3778 -1761.3,3808 "/>
<rect x="-1831.1" y="3862.8" class="st4" width="49.8" height="9.9"/>
<rect x="-1831.1" y="3842.8" class="st4" width="49.8" height="9.9"/>
<rect x="-1831.1" y="3822.9" class="st4" width="49.8" height="9.9"/>
<polyline class="st4" points="-1791.2,3779.7 -1791.2,3808 -1763,3808 "/>
<polygon class="st7" points="-868.4,3785.7 -884.7,3769.4 -930.1,3814.7 -954.1,3790.6 -970.4,3806.9 -930.1,3847.3 -930.1,3847.2 
	-930,3847.3 "/>
<g>
	<polyline class="st1" points="-2887.7,3261.7 -2842.3,3356.4 -2773.2,3356.4 	"/>
	<path class="st1" d="M-2712.5,3339.5c0,65.2-52.8,118-118,118c-65.2,0-118-52.8-118-118s52.8-118,118-118
		C-2765.3,3221.6-2712.5,3274.4-2712.5,3339.5z"/>
</g>
<g>
	<path class="st8" d="M-3231.8,3312.6c0,76.5-100.1,144.1-100.1,144.1s-100.1-65.6-100.1-144.1c0-55.3,44.8-100.1,100.1-100.1
		C-3276.6,3212.5-3231.8,3257.3-3231.8,3312.6z"/>
	<path class="st8" d="M-3293,3312.2c0,21.5-17.4,38.9-38.9,38.9s-38.9-17.4-38.9-38.9s17.4-38.9,38.9-38.9S-3293,3290.7-3293,3312.2
		z"/>
</g>
<rect x="-798.3" y="1559.1" class="st9" width="210.7" height="210.7"/>
<rect x="-798.3" y="1348.4" class="st10" width="210.7" height="210.7"/>
<path class="st0" d="M-617.8,1665.2h-56.8h-1l18.2,24.8c-2.7,3.7-6.5,7.3-10.3,10c-7.1,5.1-15.2,8.1-25.2,8.1l0,0
	c-9,0-18.4-3.1-25.6-8.3c-7.4-5.4-13-13-15.9-21.8c-1.4-4.3-2.1-8.8-2.1-13.5s0.7-9.3,2.1-13.5c1-2.9,2.2-5.7,3.7-8.3l37.8,22.2
	l31.8-18.6c-1-1.7-2.1-3.4-3.2-5.1l-28.5,16.7l-34.4-20.2c2.5-3.2,5.5-6.1,8.8-8.5c7.2-5.2,16.6-8.3,25.6-8.3v-0.1
	c10,0,18.4,3.4,25.6,8.4h0.1c4.9,4,9,8.1,12,13.4l29.8-17.4c-5.4-9.2-13.1-17.5-21.7-23.9l0,0c-0.1-0.1-0.2,0-0.3-0.1h-0.1l0,0
	c-12.8-9-28.4-14.8-45.4-14.8v-0.1c-17,0-33,5.5-45.9,14.9c-13.2,9.6-23.3,23.2-28.5,39.1c-2.5,7.6-3.8,15.7-3.8,24.2
	s1.3,16.6,3.8,24.2c5.2,15.9,15.3,29.5,28.5,39.1c12.9,9.4,28.9,14.9,45.9,14.9l0,0c17,0,32.7-5.5,45.5-14.7l0,0l0.1-0.1
	c0.1-0.1,0.2-0.1,0.3-0.2l0,0c13-9.6,23.4-23.2,28.5-38.8c2.4-7.5,3.8-15.6,3.8-23.6L-617.8,1665.2L-617.8,1665.2z"/>
<path class="st0" d="M-617.8,1454.2h-56.8h-1l18.2,24.9c-2.7,3.7-6.5,7.3-10.3,10.1c-7.1,5.1-15.2,8.1-25.2,8.2l0,0
	c-9,0-18.4-3.1-25.6-8.3c-7.4-5.4-13-13-15.9-21.8c-1.4-4.3-2.1-8.8-2.1-13.5s0.7-9.3,2.1-13.5c1-2.9,2.2-5.7,3.7-8.3l37.8,22.2
	l31.8-18.6c-1-1.7-2.1-3.4-3.2-5.1l-28.5,16.7l-34.4-20.2c2.5-3.2,5.5-6.1,8.8-8.5c7.2-5.2,16.6-8.3,25.6-8.3v-0.1
	c10,0,18.4,3.2,25.6,8.2h0.1c4.9,4,9,8.2,12,13.5l29.8-17.4c-5.4-9.2-13.1-17.5-21.7-23.9l0,0c-0.1-0.1-0.4-0.1-0.5-0.2
	c0,0-0.3,0-0.3-0.1l0,0c-12-9.2-28.3-14.7-45.4-14.7l0,0c-17.3,0-32.8,5.5-45.7,14.9c-13.2,9.6-23.2,23.2-28.4,39.1
	c-2.5,7.6-3.8,15.7-3.8,24.2c0,8.4,1.4,16.6,3.8,24.2c5.2,15.9,15.2,29.5,28.4,39.1c12.9,9.4,28.7,14.9,45.8,14.9l0,0
	c17.1,0,32.8-5.5,45.6-14.7l0,0l0.1-0.1c0.1-0.1,0.2-0.1,0.3-0.2l0,0c13-9.6,23.4-23.3,28.5-39c2.4-7.5,3.8-15.7,3.8-23.7
	L-617.8,1454.2L-617.8,1454.2z"/>
<rect x="-2041.1" y="1165.2" class="st9" width="602.6" height="602.6"/>
<rect x="-2039.7" y="240" class="st9" width="1207.6" height="450.2"/>
<rect x="-2039.7" y="690" class="st10" width="1207.6" height="450.2"/>
<g>
	<path class="st10" d="M-1772.9,1565.1L-1772.9,1565.1c-21,0-41.6-6.9-57.9-18.7c-16.7-12.1-29.5-29.3-36-49.3
		c-3.1-9.6-4.8-19.9-4.8-30.5s1.7-20.9,4.8-30.5c6.5-20,19.3-37.2,36-49.3c16.2-11.8,37.9-18.7,57.9-18.7l0,0
		c23,0,41.7,7.1,57.9,18.9l45.8-63.1c-29.1-21.2-63.7-33.8-103.7-33.8l0,0c-38,0-74.6,12.5-103.7,33.6
		c-29.8,21.7-52.7,52.5-64.3,88.3c-5.6,17.2-8.6,35.6-8.6,54.6c0,19.1,3,37.4,8.6,54.6c11.6,35.8,34.5,66.6,64.3,88.3
		c29.1,21.1,65.7,33.6,103.7,33.6l0,0c40,0,74.6-12.6,103.8-33.8l-45.9-63.1C-1731.2,1558-1750.9,1565-1772.9,1565.1z"/>
	<path class="st10" d="M-1603.4,1467.2h-128.2h-2.2l41,56.5c-6.1,8.6-13.6,16.2-22.2,22.4l45.8,63.1c29.7-21.7,52.5-52.5,64.1-88.3
		c5.5-16.9,8.5-34.7,8.6-53.7H-1603.4z"/>
	<path class="st10" d="M-1687.7,1417.1l67.4-39.4c-12.4-21.2-29-39.6-48.7-54l-45.8,63.1
		C-1703.9,1394.9-1694.6,1405.2-1687.7,1417.1z"/>
	<path class="st10" d="M-1708.5,1413.6l-64.5,37.8l-101.9-59.9c-2.6,3.7-5.1,7.6-7.4,11.5l109.3,64.2l71.8-42.1
		C-1703.5,1421.2-1705.9,1417.4-1708.5,1413.6z"/>
</g>
<g>
	<path class="st0" d="M-1588.3,1503.8v19.8h-17.6v-18.5h-33v-14.6l37.3-54.8h13.3v50.5L-1588.3,1503.8L-1588.3,1503.8z
		 M-1605.7,1487.8V1470l-12.8,17.8H-1605.7z"/>
	<path class="st0" d="M-1547.1,1463.6c-3.7-1.8-7.7-2.4-11.9-2.4h-7.9v-26h-18v88h18v-19.4v-17.7v-7.9h7.9c3.3,0,6.2,1.2,8.5,3.9
		c2.3,2.7,3.6,5.9,3.6,9.7v31.4h17v-30.1C-1529.9,1470.7-1544.3,1465.2-1547.1,1463.6z"/>
	<path class="st0" d="M-1692.7,1508.9l35.5-39.5c1.6-2,2.4-3.9,2.4-5.9c0-2.6-1-4.8-2.9-6.6c-2-1.8-4.4-2.6-7.2-2.6
		c-2.5,0-4.7,0.9-6.5,2.7c-1.8,1.8-2.7,4-2.7,6.5v3.4h-18.5v-3.4c0-7.6,2.7-14.2,8.2-19.6c5.4-5.5,11.9-8.2,19.6-8.2
		c7.9,0,14.6,2.7,20.2,8.2c5.6,5.4,8.4,11.9,8.4,19.6c-0.2,6.4-2.5,12.4-7.1,18.2c-0.9,1-1.9,2.1-3,3.3l-17.5,20h24.9v18.5h-53.7
		v-14.6H-1692.7z"/>
</g>
<rect x="-1438.8" y="1165.2" class="st10" width="602.6" height="602.6"/>
<g>
	<path class="st9" d="M-1170.9,1565.1L-1170.9,1565.1c-20,0-41.5-6.9-57.7-18.7c-16.7-12.1-29.4-29.3-35.9-49.3
		c-3.1-9.6-4.8-19.9-4.8-30.5s1.7-20.9,4.8-30.5c6.5-20,19.2-37.2,35.9-49.3c16.2-11.8,37.7-18.7,57.7-18.7l0,0
		c23,0,41.8,7.1,58,18.9l45.8-63.1c-29.1-21.2-63.8-33.8-103.8-33.8l0,0c-38,0-74.5,12.5-103.6,33.6c-29.8,21.7-52.6,52.5-64.2,88.3
		c-5.6,17.2-8.6,35.6-8.6,54.6c0,19.1,3,37.4,8.6,54.6c11.6,35.8,34.4,66.6,64.2,88.3c29.1,21.1,65.6,33.6,103.6,33.6l0,0
		c40,0,74.8-12.6,103.9-33.8l-45.9-63.1C-1129.2,1558-1148.9,1565-1170.9,1565.1z"/>
	<path class="st9" d="M-1001.1,1467.2h-128.2h-2.2l41,56.5c-6.1,8.6-13.6,16.2-22.1,22.4l45.8,63.1c29.7-21.7,52.5-52.5,64.1-88.3
		c5.5-16.9,8.5-34.7,8.6-53.7H-1001.1z"/>
	<path class="st9" d="M-1085.4,1417.1l67.4-39.4c-12.4-21.2-29-39.6-48.7-54l-45.8,63.1C-1101.6,1394.9-1092.3,1405.2-1085.4,1417.1
		z"/>
	<path class="st9" d="M-1106.2,1413.6l-64.5,37.8l-101.9-59.9c-2.6,3.7-5.1,7.6-7.4,11.5l109.3,64.2l71.8-42.1
		C-1101.2,1421.2-1103.6,1417.4-1106.2,1413.6z"/>
</g>
<path class="st0" d="M-986,1503.8v19.8h-17.6v-18.5h-33v-14.6l37.3-54.8h13.3v50.5V1503.8z M-1003.4,1487.8V1470l-12.8,17.8H-1003.4
	z"/>
<path class="st0" d="M-944.5,1463.6c-3.7-1.8-8.1-2.4-12.2-2.4h-8.2v-26h-16v88h16v-19.4v-17.7v-7.9h8.2c3.3,0,6.1,1.2,8.4,3.9
	c2.3,2.7,3.5,5.9,3.5,9.7v31.4h18v-30.1C-926.9,1470.7-941.7,1465.2-944.5,1463.6z"/>
<path class="st0" d="M-1090.4,1508.9l35.5-39.5c1.6-2,2.4-3.9,2.4-5.9c0-2.6-1-4.8-2.9-6.6c-2-1.8-4.4-2.6-7.2-2.6
	c-2.5,0-4.7,0.9-6.5,2.7c-1.8,1.8-2.7,4-2.7,6.5v3.4h-18.5v-3.4c0-7.6,2.7-14.2,8.2-19.6c5.4-5.5,11.9-8.2,19.6-8.2
	c7.9,0,14.6,2.7,20.2,8.2c5.6,5.4,8.4,11.9,8.4,19.6c-0.2,6.4-2.5,12.4-7.1,18.2c-0.9,1-1.9,2.1-3,3.3l-17.5,20h24.9v18.5h-53.7
	L-1090.4,1508.9L-1090.4,1508.9z"/>
<g>
	<path class="st10" d="M-1558.3,484.9L-1558.3,484.9c-4.8-5.1-12.7-9.8-24.4-14.4c-9.9-3.9-13-6.3-13.9-7.1
		c-1.3-1.2-1.9-2.3-1.9-3.4c0-0.8,0.1-1.8,1.7-3.2c1.4-1.2,3-1.8,5.1-1.9c4.5-0.2,9.6,1.9,15.3,6.3l0.8,0.6l20.1-20.2l-0.5-0.4
		c-11.9-9.1-24.1-13.5-36.2-13c-10.7,0.5-19.7,3.9-26.6,10.2c-7,6.4-10.3,14.3-9.9,23.3c0.3,7,2.9,13.1,7.6,18.4
		c4.5,5,12.2,9.6,23.3,14c11.3,4.4,14.2,6.8,14.6,7.2c1.2,1.2,1.8,2.4,1.9,3.9c0.1,1.9-0.7,3.4-2.6,5c-2.1,1.8-4.5,2.7-7.7,2.8
		c-5.1,0.2-10.2-2-15.6-6.9l-7-6.3l-19.3,20.7l4.8,4.9c4.7,4.8,10.6,8.5,17.4,11s14.1,3.6,21.5,3.3c11.5-0.5,21.2-4.3,28.7-11.3
		s11.1-15.5,10.7-25.1C-1550.7,496.6-1553.3,490.3-1558.3,484.9z"/>
	<path class="st10" d="M-1399.9,428.8c15.1,0,28,5.4,38.8,16.2c10.7,10.9,16.1,24,16.1,39.4c0,15.3-5.4,28.4-16.1,39.3
		c-10.7,10.8-23.6,16.3-38.8,16.3c-15.2,0-28.1-5.4-38.9-16.3c-10.7-10.9-16.1-24-16.1-39.3c0-15.4,5.3-28.5,16.1-39.4
		C-1428.1,434.2-1415.1,428.8-1399.9,428.8 M-1399.9,509.4c6.7,0,12.3-2.4,17-7.2c4.7-4.9,7.1-10.8,7.1-17.7s-2.4-12.9-7.1-17.8
		c-4.7-4.8-10.4-7.2-17-7.2c-6.7,0-12.4,2.4-17.1,7.2c-4.8,4.9-7.1,10.9-7.1,17.8c0,6.9,2.4,12.8,7.1,17.7
		C-1412.3,507-1406.6,509.4-1399.9,509.4"/>
	<path class="st10" d="M-1672.1,489.2c-0.1,1-0.2,1.5-0.5,2.4c-1.7,6.5-5.4,11.3-11.1,14.6c-5.8,3.3-11.9,4-18.4,2.2
		c-3.5-1-6.6-2.6-9.2-4.8l67.1-38.7l-4.5-7.7c-7.7-13.3-18.9-22-33.6-26.1c-14.7-4-28.6-2.3-41.6,5.3c-13.2,7.6-21.7,18.7-25.5,33.5
		c-3.8,14.8-1.9,28.8,5.8,42.1c7.6,13.3,18.8,21.9,33.5,26c14.7,4,28.6,2.3,41.7-5.3c13.1-7.5,21.6-18.4,25.4-33.1
		c1-3.6,1.6-6.3,1.8-10.3L-1672.1,489.2L-1672.1,489.2z M-1708.6,462.9c5.8-3.3,11.9-4.1,18.3-2.3c0.9,0.3,1.7,0.6,2.6,0.9
		l-32.6,18.8c0.1-0.9,0.3-1.8,0.5-2.7C-1718.1,471.1-1714.4,466.2-1708.6,462.9z"/>
	<g>
		<path class="st10" d="M-1765.5,466.2h-54.3h-0.9l17.4,23.6c-2.6,3.6-5.6,6.7-9.2,9.3c-6.9,5-15.3,7.8-24.3,7.8l0,0
			c-10,0-17.9-2.9-24.7-7.9c-7.1-5.1-12.6-12.4-15.4-20.9c-1.3-4.1-2.1-8.4-2.1-12.9s0.7-8.9,2-12.9c2.8-8.5,8.1-15.4,15.2-20.5
			c6.9-5,15.2-7.5,24.5-7.5l0,0c9.3,0,17.7,2.6,24.6,7.6c4.7,3.4,8.6,7.6,11.6,12.6l28.5-16.8c-5.2-9-12.3-16.9-20.7-23
			c-12.3-9-27.5-14.5-44-14.5c-16.4,0-31.6,5.4-43.9,14.4c-12.6,9.2-22.3,22.3-27.2,37.5c-2.4,7.3-3.6,15.1-3.6,23.2
			c0,8.1,1.3,15.9,3.7,23.2c4.9,15.2,14.3,28.2,27,37.4c12.3,9,28.7,14.2,43.7,14.2l0,0c17,0,32-5.3,44.4-14.3
			c12.6-9.2,22.4-21.9,27.3-37c2.3-7.2,3.6-14.4,3.7-22.4h-3.3V466.2z"/>
		<path class="st10" d="M-1810.1,442.7l-27.3,16l-43.2-25.4c-1.1,1.6-2.1,3.2-3.1,4.9l46.3,27.2l30.4-17.8
			C-1807.9,446-1809,444.3-1810.1,442.7z"/>
	</g>
	<rect x="-1541.9" y="428.2" class="st10" width="75" height="31"/>
	<path class="st10" d="M-1280.9,428.2c-7.5,0-14.4,1.6-21.2,4.8c-5.1,2.9-30.9,13.1-30.9,53.6v53.6h31v-55.9c0-6.9,2-12.8,6.1-17.8
		c4.2-4.9,9-7.3,14.9-7.3h16v-31L-1280.9,428.2L-1280.9,428.2z"/>
	<path class="st10" d="M-1485,501.4c0,0.2-1,0.7-1,0.9c0,1.2-1.4,1.9-1.9,2.9c-1.1,2-3.1,3.3-5.6,3.3c-3.4,0-6.4-2.6-6.4-5.9V390.2
		h-31v114h-0.2c1,20,17.4,35.5,37.5,35.5c15.2,0,28.3-9.2,34.2-22.2L-1485,501.4z"/>
</g>
<g>
	<path class="st0" d="M-1070.9,390.2L-1070.9,390.2h-22.6l-63.4,93.3v25.7h64v31h31v-150L-1070.9,390.2L-1070.9,390.2z
		 M-1093.9,479.2h-22l22-32.7V479.2L-1093.9,479.2z"/>
	<path class="st0" d="M-1170.4,474.3c1.9-2,3.6-4,5.1-5.7c7.8-9.9,11.9-20.3,12.1-31.1c0-13-4.8-24.2-14.3-33.4
		c-9.6-9.3-21.1-14-34.5-14c-13,0-24,4.6-33.2,13.9c-9.3,9.2-13.7,20.4-13.7,33.4v5.8h31v-5.8c0-4.3,1.6-8,4.7-11.1
		c3.1-3.1,6.9-4.6,11.2-4.6c4.8,0,8.9,1.5,12.3,4.5c3.3,3.1,5,6.8,5,11.2c0,3.4-1.1,6.8-3.8,10.1l-60.4,67.3v25.3h84.1l0,0h7.9v-31
		h-43.9L-1170.4,474.3z"/>
	<path class="st0" d="M-988,433c-6.7-3.2-14-4.8-21.5-4.8h-11.4v-38h-29.3h-1.7v150h1.7h29.3v-81h11.4c5.9,0,11,2.4,15.2,7.3
		c4.2,4.9,6.4,10.8,6.4,17.8v55.9h31v-53.6C-956.9,446.2-982.9,435.9-988,433z"/>
</g>
<g>
	<path class="st9" d="M-1558.3,41.9L-1558.3,41.9c-4.8-5.1-12.7-9.8-24.4-14.4c-9.9-3.9-13-6.3-13.9-7.1c-1.3-1.2-1.9-2.3-1.9-3.4
		c0-0.8,0.1-1.8,1.7-3.2c1.4-1.2,3-1.8,5.1-1.9c4.5-0.2,9.6,1.9,15.3,6.3l0.8,0.6l20.1-20.2l-0.5-0.4c-11.9-9.1-24.1-13.5-36.2-13
		c-10.7,0.5-19.7,3.9-26.6,10.2c-7,6.4-10.3,14.3-9.9,23.3c0.3,7,2.9,13.1,7.6,18.4c4.5,5,12.2,9.6,23.3,14
		c11.3,4.4,14.2,6.8,14.6,7.2c1.2,1.2,1.8,2.4,1.9,3.9c0.1,1.9-0.7,3.4-2.6,5c-2.1,1.8-4.5,2.7-7.7,2.8c-5.1,0.2-10.2-2-15.6-6.9
		l-7-6.3l-19.3,20.7l4.8,4.9c4.7,4.8,10.6,8.5,17.4,11s14.1,3.6,21.5,3.3c11.5-0.5,21.2-4.3,28.7-11.3s11.1-15.5,10.7-25.1
		C-1550.7,53.6-1553.3,47.3-1558.3,41.9z"/>
	<path class="st9" d="M-1399.9-14.2c15.1,0,28,5.4,38.8,16.2c10.7,10.9,16.1,24,16.1,39.4c0,15.3-5.4,28.4-16.1,39.3
		c-10.7,10.8-23.6,16.3-38.8,16.3c-15.2,0-28.1-5.4-38.9-16.3c-10.7-10.9-16.1-24-16.1-39.3c0-15.4,5.3-28.5,16.1-39.4
		C-1428.1-8.8-1415.1-14.2-1399.9-14.2 M-1399.9,66.4c6.7,0,12.3-2.4,17-7.2c4.7-4.9,7.1-10.8,7.1-17.7c0-6.9-2.4-12.9-7.1-17.8
		c-4.7-4.8-10.4-7.2-17-7.2c-6.7,0-12.4,2.4-17.1,7.2c-4.8,4.9-7.1,10.9-7.1,17.8s2.4,12.8,7.1,17.7
		C-1412.3,64-1406.6,66.4-1399.9,66.4"/>
	<path class="st9" d="M-1672.1,46.2c-0.1,1-0.2,1.5-0.5,2.4c-1.7,6.5-5.4,11.3-11.1,14.6c-5.8,3.3-11.9,4-18.4,2.2
		c-3.5-1-6.6-2.6-9.2-4.8l67.1-38.7l-4.5-7.7c-7.7-13.3-18.9-22-33.6-26.1c-14.7-4-28.6-2.3-41.6,5.3c-13.2,7.6-21.7,18.7-25.5,33.5
		s-1.9,28.8,5.8,42.1c7.6,13.3,18.8,21.9,33.5,26c14.7,4,28.6,2.3,41.7-5.3c13.1-7.5,21.6-18.4,25.4-33.1c1-3.6,1.6-6.3,1.8-10.3
		L-1672.1,46.2L-1672.1,46.2z M-1708.6,19.9c5.8-3.3,11.9-4.1,18.3-2.3c0.9,0.3,1.7,0.6,2.6,0.9l-32.6,18.8c0.1-0.9,0.3-1.8,0.5-2.7
		C-1718.1,28.1-1714.4,23.2-1708.6,19.9z"/>
	<g>
		<path class="st9" d="M-1765.5,23.2h-54.3h-0.9l17.4,23.6c-2.6,3.6-5.6,6.7-9.2,9.3c-6.9,5-15.3,7.8-24.3,7.8l0,0
			c-10,0-17.9-2.9-24.7-7.9c-7.1-5.1-12.6-12.4-15.4-20.9c-1.3-4.1-2.1-8.4-2.1-12.9s0.7-8.9,2-12.9c2.8-8.5,8.1-15.4,15.2-20.5
			c6.9-5,15.2-7.5,24.5-7.5l0,0c9.3,0,17.7,2.6,24.6,7.6c4.7,3.4,8.6,7.6,11.6,12.6l28.5-16.8c-5.2-9-12.3-16.9-20.7-23
			c-12.3-9-27.5-14.5-44-14.5c-16.4,0-31.6,5.4-43.9,14.4c-12.6,9.2-22.3,22.3-27.2,37.5c-2.4,7.3-3.6,15.1-3.6,23.2
			s1.3,15.9,3.7,23.2c4.9,15.2,14.3,28.2,27,37.4c12.3,9,28.7,14.2,43.7,14.2l0,0c17,0,32-5.3,44.4-14.3c12.6-9.2,22.4-21.9,27.3-37
			c2.3-7.2,3.6-14.4,3.7-22.4h-3.3V23.2z"/>
		<path class="st9" d="M-1810.1-0.3l-27.3,16l-43.2-25.4c-1.1,1.6-2.1,3.2-3.1,4.9l46.3,27.2l30.4-17.8
			C-1807.9,3-1809,1.3-1810.1-0.3z"/>
	</g>
	<rect x="-1541.9" y="-14.8" class="st9" width="75" height="31"/>
	<path class="st9" d="M-1280.9-14.8c-7.5,0-14.4,1.6-21.2,4.8c-5.1,2.9-30.9,13.1-30.9,53.6v53.6h31V41.3c0-6.9,2-12.8,6.1-17.8
		c4.2-4.9,9-7.3,14.9-7.3h16v-31L-1280.9-14.8z"/>
	<path class="st9" d="M-1485,58.4c0,0.2-1,0.7-1,0.9c0,1.2-1.4,1.9-1.9,2.9c-1.1,2-3.1,3.3-5.6,3.3c-3.4,0-6.4-2.6-6.4-5.9V-52.8
		h-31v114h-0.2c1,20,17.4,35.5,37.5,35.5c15.2,0,28.3-9.2,34.2-22.2L-1485,58.4z"/>
</g>
<g>
	<path class="st10" d="M-1070.9-52.8L-1070.9-52.8h-22.6l-63.4,93.3v25.7h64v31h31v-150H-1070.9z M-1093.9,36.2h-22l22-32.7V36.2
		L-1093.9,36.2z"/>
	<path class="st10" d="M-1170.4,31.3c1.9-2,3.6-4,5.1-5.7c7.8-9.9,11.9-20.3,12.1-31.1c0-13-4.8-24.2-14.3-33.4
		c-9.6-9.3-21.1-14-34.5-14c-13,0-24,4.6-33.2,13.9c-9.3,9.2-13.7,20.4-13.7,33.4v5.8h31v-5.8c0-4.3,1.6-8,4.7-11.1
		c3.1-3.1,6.9-4.6,11.2-4.6c4.8,0,8.9,1.5,12.3,4.5c3.3,3.1,5,6.8,5,11.2c0,3.4-1.1,6.8-3.8,10.1l-60.4,67.3v25.3h84.1l0,0h7.9v-31
		h-43.9L-1170.4,31.3z"/>
	<path class="st10" d="M-988-10c-6.7-3.2-14-4.8-21.5-4.8h-11.4v-38h-29.3h-1.7v150h1.7h29.3v-81h11.4c5.9,0,11,2.4,15.2,7.3
		s6.4,10.8,6.4,17.8v55.9h31V43.6C-956.9,3.2-982.9-7.1-988-10z"/>
</g>
<g>
	<path class="st9" d="M-1558.3,936.9L-1558.3,936.9c-4.8-5.1-12.7-9.8-24.4-14.4c-9.9-3.9-13-6.3-13.9-7.1c-1.3-1.2-1.9-2.3-1.9-3.4
		c0-0.8,0.1-1.8,1.7-3.2c1.4-1.2,3-1.8,5.1-1.9c4.5-0.2,9.6,1.9,15.3,6.3l0.8,0.6l20.1-20.2l-0.5-0.4c-11.9-9.1-24.1-13.5-36.2-13
		c-10.7,0.5-19.7,3.9-26.6,10.2c-7,6.4-10.3,14.3-9.9,23.3c0.3,7,2.9,13.1,7.6,18.4c4.5,5,12.2,9.6,23.3,14
		c11.3,4.4,14.2,6.8,14.6,7.2c1.2,1.2,1.8,2.4,1.9,3.9c0.1,1.9-0.7,3.4-2.6,5c-2.1,1.8-4.5,2.7-7.7,2.8c-5.1,0.2-10.2-2-15.6-6.9
		l-7-6.3l-19.3,20.7l4.8,4.9c4.7,4.8,10.6,8.5,17.4,11s14.1,3.6,21.5,3.3c11.5-0.5,21.2-4.3,28.7-11.3s11.1-15.5,10.7-25.1
		C-1550.7,948.6-1553.3,942.3-1558.3,936.9z"/>
	<path class="st9" d="M-1399.9,880.8c15.1,0,28,5.4,38.8,16.2c10.7,10.9,16.1,24,16.1,39.4c0,15.3-5.4,28.4-16.1,39.3
		c-10.7,10.8-23.6,16.3-38.8,16.3c-15.2,0-28.1-5.4-38.9-16.3c-10.7-10.9-16.1-24-16.1-39.3c0-15.4,5.3-28.5,16.1-39.4
		C-1428.1,886.2-1415.1,880.8-1399.9,880.8 M-1399.9,961.4c6.7,0,12.3-2.4,17-7.2c4.7-4.9,7.1-10.8,7.1-17.7s-2.4-12.9-7.1-17.8
		c-4.7-4.8-10.4-7.2-17-7.2c-6.7,0-12.4,2.4-17.1,7.2c-4.8,4.9-7.1,10.9-7.1,17.8c0,6.9,2.4,12.8,7.1,17.7
		C-1412.3,959-1406.6,961.4-1399.9,961.4"/>
	<path class="st9" d="M-1672.1,941.2c-0.1,1-0.2,1.5-0.5,2.4c-1.7,6.5-5.4,11.3-11.1,14.6c-5.8,3.3-11.9,4-18.4,2.2
		c-3.5-1-6.6-2.6-9.2-4.8l67.1-38.7l-4.5-7.7c-7.7-13.3-18.9-22-33.6-26.1c-14.7-4-28.6-2.3-41.6,5.3c-13.2,7.6-21.7,18.7-25.5,33.5
		s-1.9,28.8,5.8,42.1c7.6,13.3,18.8,21.9,33.5,26c14.7,4,28.6,2.3,41.7-5.3c13.1-7.5,21.6-18.4,25.4-33.1c1-3.6,1.6-6.3,1.8-10.3
		L-1672.1,941.2L-1672.1,941.2z M-1708.6,914.9c5.8-3.3,11.9-4.1,18.3-2.3c0.9,0.3,1.7,0.6,2.6,0.9l-32.6,18.8
		c0.1-0.9,0.3-1.8,0.5-2.7C-1718.1,923.1-1714.4,918.2-1708.6,914.9z"/>
	<g>
		<path class="st9" d="M-1765.5,918.2h-54.3h-0.9l17.4,23.6c-2.6,3.6-5.6,6.7-9.2,9.3c-6.9,5-15.3,7.8-24.3,7.8l0,0
			c-10,0-17.9-2.9-24.7-7.9c-7.1-5.1-12.6-12.4-15.4-20.9c-1.3-4.1-2.1-8.4-2.1-12.9s0.7-8.9,2-12.9c2.8-8.5,8.1-15.4,15.2-20.5
			c6.9-5,15.2-7.5,24.5-7.5l0,0c9.3,0,17.7,2.6,24.6,7.6c4.7,3.4,8.6,7.6,11.6,12.6l28.5-16.8c-5.2-9-12.3-16.9-20.7-23
			c-12.3-9-27.5-14.5-44-14.5c-16.4,0-31.6,5.4-43.9,14.4c-12.6,9.2-22.3,22.3-27.2,37.5c-2.4,7.3-3.6,15.1-3.6,23.2
			c0,8.1,1.3,15.9,3.7,23.2c4.9,15.2,14.3,28.2,27,37.4c12.3,9,28.7,14.2,43.7,14.2l0,0c17,0,32-5.3,44.4-14.3
			c12.6-9.2,22.4-21.9,27.3-37c2.3-7.2,3.6-14.4,3.7-22.4h-3.3V918.2z"/>
		<path class="st9" d="M-1810.1,894.7l-27.3,16l-43.2-25.4c-1.1,1.6-2.1,3.2-3.1,4.9l46.3,27.2l30.4-17.8
			C-1807.9,898-1809,896.3-1810.1,894.7z"/>
	</g>
	<rect x="-1541.9" y="880.2" class="st9" width="75" height="31"/>
	<path class="st9" d="M-1280.9,880.2c-7.5,0-14.4,1.6-21.2,4.8c-5.1,2.9-30.9,13.1-30.9,53.6v53.6h31v-55.9c0-6.9,2-12.8,6.1-17.8
		c4.2-4.9,9-7.3,14.9-7.3h16v-31H-1280.9z"/>
	<path class="st9" d="M-1485,953.4c0,0.2-1,0.7-1,0.9c0,1.2-1.4,1.9-1.9,2.9c-1.1,2-3.1,3.3-5.6,3.3c-3.4,0-6.4-2.6-6.4-5.9V842.2
		h-31v114h-0.2c1,20,17.4,35.5,37.5,35.5c15.2,0,28.3-9.2,34.2-22.2L-1485,953.4z"/>
</g>
<g>
	<path class="st0" d="M-1070.9,842.2L-1070.9,842.2h-22.6l-63.4,93.3v25.7h64v31h31v-150H-1070.9z M-1093.9,931.2h-22l22-32.7V931.2
		L-1093.9,931.2z"/>
	<path class="st0" d="M-1170.4,926.3c1.9-2,3.6-4,5.1-5.7c7.8-9.9,11.9-20.3,12.1-31.1c0-13-4.8-24.2-14.3-33.4
		c-9.6-9.3-21.1-14-34.5-14c-13,0-24,4.6-33.2,13.9c-9.3,9.2-13.7,20.4-13.7,33.4v5.8h31v-5.8c0-4.3,1.6-8,4.7-11.1
		c3.1-3.1,6.9-4.6,11.2-4.6c4.8,0,8.9,1.5,12.3,4.5c3.3,3.1,5,6.8,5,11.2c0,3.4-1.1,6.8-3.8,10.1l-60.4,67.3v25.3h84.1l0,0h7.9v-31
		h-43.9L-1170.4,926.3z"/>
	<path class="st0" d="M-988,885c-6.7-3.2-14-4.8-21.5-4.8h-11.4v-38h-29.3h-1.7v150h1.7h29.3v-81h11.4c5.9,0,11,2.4,15.2,7.3
		c4.2,4.9,6.4,10.8,6.4,17.8v55.9h31v-53.6C-956.9,898.2-982.9,887.9-988,885z"/>
</g>
<g>
	<path class="st9" d="M-692.9,1287.2L-692.9,1287.2c-9,0-18.4-3.1-25.6-8.3c-7.4-5.4-13-13-15.9-21.8c-1.4-4.3-2.1-8.8-2.1-13.5
		s0.7-9.3,2.1-13.5c2.9-8.9,8.4-16.3,15.8-21.7c7.2-5.2,16.2-8.2,25.5-8.2l0,0c9.8,0,18.5,3,25.7,8.2l20.3-28
		c-12.9-9.4-28.9-15-45.9-15l0,0c-17,0-33,5.5-45.9,14.9c-13.2,9.6-23.3,23.2-28.5,39.1c-2.5,7.6-3.8,15.7-3.8,24.2
		c0,8.4,1.3,16.6,3.8,24.2c5.2,15.9,15.2,29.2,28.4,38.8c12.9,9.4,28.7,14.6,45.8,14.6l0,0c17.1,0,33.1-5.3,46-14.7l-20.3-27.8
		C-674.5,1283.9-682.9,1287.2-692.9,1287.2z"/>
	<path class="st9" d="M-617.8,1244.2h-56.8h-1l18.2,24.8c-2.7,3.8-6,7.1-9.8,9.8l20.3,27.9c13.2-9.6,23.2-23.1,28.4-38.9
		c2.4-7.5,3.8-15.6,3.8-23.6L-617.8,1244.2L-617.8,1244.2z"/>
	<path class="st9" d="M-655.2,1221.7l29.8-17.4c-5.5-9.4-12.8-17.5-21.6-23.9l-20.3,27.9C-662.3,1211.9-658.2,1216.4-655.2,1221.7z"
		/>
	<path class="st9" d="M-664.4,1220.2l-28.5,16.7l-45.1-26.5c-1.1,1.7-2.2,3.4-3.3,5.1l48.4,28.4l31.8-18.6
		C-662.1,1223.5-663.2,1221.8-664.4,1220.2z"/>
</g>
<rect x="1043.7" y="1559.1" class="st11" width="210.7" height="210.7"/>
<rect x="1043.7" y="1348.4" class="st12" width="210.7" height="210.7"/>
<path class="st0" d="M1224.2,1665.2h-56.8h-1l18.2,24.8c-2.7,3.7-6.5,7.3-10.3,10c-7.1,5.1-15.2,8.1-25.2,8.1l0,0
	c-9,0-18.4-3.1-25.6-8.3c-7.4-5.4-13-13-15.9-21.8c-1.4-4.3-2.1-8.8-2.1-13.5s0.7-9.3,2.1-13.5c1-2.9,2.2-5.7,3.7-8.3l37.8,22.2
	l31.8-18.6c-1-1.7-2.1-3.4-3.2-5.1l-28.5,16.7l-34.4-20.2c2.5-3.2,5.5-6.1,8.8-8.5c7.2-5.2,16.6-8.3,25.6-8.3v-0.1
	c10,0,18.4,3.4,25.6,8.4h0.1c4.9,4,9,8.1,12,13.4l29.8-17.4c-5.4-9.2-13.1-17.5-21.7-23.9l0,0c-0.1-0.1-0.2,0-0.3-0.1h-0.1l0,0
	c-12.8-9-28.4-14.8-45.4-14.8v-0.1c-17,0-33,5.5-45.9,14.9c-13.2,9.6-23.3,23.2-28.5,39.1c-2.5,7.6-3.8,15.7-3.8,24.2
	s1.3,16.6,3.8,24.2c5.2,15.9,15.3,29.5,28.5,39.1c12.9,9.4,28.9,14.9,45.9,14.9l0,0c17,0,32.7-5.5,45.5-14.7l0,0l0.1-0.1
	c0.1-0.1,0.2-0.1,0.3-0.2l0,0c13-9.6,23.4-23.2,28.5-38.8c2.4-7.5,3.8-15.6,3.8-23.6L1224.2,1665.2L1224.2,1665.2z"/>
<path class="st0" d="M1224.2,1454.2h-56.8h-1l18.2,24.9c-2.7,3.7-6.5,7.3-10.3,10.1c-7.1,5.1-15.2,8.1-25.2,8.2l0,0
	c-9,0-18.4-3.1-25.6-8.3c-7.4-5.4-13-13-15.9-21.8c-1.4-4.3-2.1-8.8-2.1-13.5s0.7-9.3,2.1-13.5c1-2.9,2.2-5.7,3.7-8.3l37.8,22.2
	l31.8-18.6c-1-1.7-2.1-3.4-3.2-5.1l-28.5,16.7l-34.4-20.2c2.5-3.2,5.5-6.1,8.8-8.5c7.2-5.2,16.6-8.3,25.6-8.3v-0.1
	c10,0,18.4,3.2,25.6,8.2h0.1c4.9,4,9,8.2,12,13.5l29.8-17.4c-5.4-9.2-13.1-17.5-21.7-23.9l0,0c-0.1-0.1-0.4-0.1-0.5-0.2
	c0,0-0.3,0-0.3-0.1l0,0c-12-9.2-28.3-14.7-45.4-14.7l0,0c-17.3,0-32.8,5.5-45.7,14.9c-13.2,9.6-23.2,23.2-28.4,39.1
	c-2.5,7.6-3.8,15.7-3.8,24.2c0,8.4,1.4,16.6,3.8,24.2c5.2,15.9,15.2,29.5,28.4,39.1c12.9,9.4,28.7,14.9,45.8,14.9l0,0
	c17.1,0,32.8-5.5,45.6-14.7l0,0l0.1-0.1c0.1-0.1,0.2-0.1,0.3-0.2l0,0c13-9.6,23.4-23.3,28.5-39c2.4-7.5,3.8-15.7,3.8-23.7
	L1224.2,1454.2L1224.2,1454.2z"/>
<rect x="-199.1" y="1165.2" class="st11" width="602.6" height="602.6"/>
<rect x="-197.7" y="240" class="st11" width="1207.6" height="450.2"/>
<rect x="-197.7" y="690" class="st12" width="1207.6" height="450.2"/>
<g>
	<path class="st12" d="M69.1,1565.1L69.1,1565.1c-21,0-41.6-6.9-57.9-18.7c-16.7-12.1-29.5-29.3-36-49.3c-3.1-9.6-4.8-19.9-4.8-30.5
		s1.7-20.9,4.8-30.5c6.5-20,19.3-37.2,36-49.3c16.2-11.8,37.9-18.7,57.9-18.7l0,0c23,0,41.7,7.1,57.9,18.9l45.8-63.1
		c-29.1-21.2-63.7-33.8-103.7-33.8l0,0c-38,0-74.6,12.5-103.7,33.6c-29.8,21.7-52.7,52.5-64.3,88.3c-5.6,17.2-8.6,35.6-8.6,54.6
		c0,19.1,3,37.4,8.6,54.6c11.6,35.8,34.5,66.6,64.3,88.3c29.1,21.1,65.7,33.6,103.7,33.6l0,0c40,0,74.6-12.6,103.8-33.8l-45.9-63.1
		C110.8,1558,91.1,1565,69.1,1565.1z"/>
	<path class="st12" d="M238.6,1467.2H110.4h-2.2l41,56.5c-6.1,8.6-13.6,16.2-22.2,22.4l45.8,63.1c29.7-21.7,52.5-52.5,64.1-88.3
		c5.5-16.9,8.5-34.7,8.6-53.7H238.6z"/>
	<path class="st12" d="M154.3,1417.1l67.4-39.4c-12.4-21.2-29-39.6-48.7-54l-45.8,63.1C138.1,1394.9,147.4,1405.2,154.3,1417.1z"/>
	<path class="st12" d="M133.5,1413.6L69,1451.4l-101.9-59.9c-2.6,3.7-5.1,7.6-7.4,11.5L69,1467.2l71.8-42.1
		C138.5,1421.2,136.1,1417.4,133.5,1413.6z"/>
</g>
<g>
	<path class="st0" d="M253.7,1503.8v19.8h-17.6v-18.5h-33v-14.6l37.3-54.8h13.3v50.5L253.7,1503.8L253.7,1503.8z M236.3,1487.8V1470
		l-12.8,17.8H236.3z"/>
	<path class="st0" d="M294.9,1463.6c-3.7-1.8-7.7-2.4-11.9-2.4h-7.9v-26h-18v88h18v-19.4v-17.7v-7.9h7.9c3.3,0,6.2,1.2,8.5,3.9
		c2.3,2.7,3.6,5.9,3.6,9.7v31.4h17v-30.1C312.1,1470.7,297.7,1465.2,294.9,1463.6z"/>
	<path class="st0" d="M149.3,1508.9l35.5-39.5c1.6-2,2.4-3.9,2.4-5.9c0-2.6-1-4.8-2.9-6.6c-2-1.8-4.4-2.6-7.2-2.6
		c-2.5,0-4.7,0.9-6.5,2.7c-1.8,1.8-2.7,4-2.7,6.5v3.4h-18.5v-3.4c0-7.6,2.7-14.2,8.2-19.6c5.4-5.5,11.9-8.2,19.6-8.2
		c7.9,0,14.6,2.7,20.2,8.2c5.6,5.4,8.4,11.9,8.4,19.6c-0.2,6.4-2.5,12.4-7.1,18.2c-0.9,1-1.9,2.1-3,3.3l-17.5,20h24.9v18.5h-53.7
		L149.3,1508.9L149.3,1508.9z"/>
</g>
<rect x="403.2" y="1165.2" class="st12" width="602.6" height="602.6"/>
<path class="st11" d="M840.9,1467.2H712.7h-2.2l41,56.5c-6.1,8.6-14.1,16.3-22.6,22.5c-16.2,11.8-35.9,18.8-57.8,18.8l0,0
	c-20,0-41.5-6.9-57.7-18.7c-16.7-12.1-29.4-29.3-35.9-49.3c-3.1-9.6-4.8-19.9-4.8-30.5s1.7-20.9,4.8-30.5c2.2-6.6,5-12.9,8.4-18.8
	l85.3,50.2l71.8-42.1c-2.3-3.9-4.7-7.8-7.3-11.5l-64.5,37.8l-77.7-45.7c5.7-7.3,12.3-13.7,19.8-19.1c16.2-11.8,37.7-18.7,57.7-18.7
	l0,0c23,0,41.8,7.1,58,18.9c11,8.1,20.5,18.4,27.4,30.2l67.4-39.4c-12.4-21.2-29.3-39.6-49-54C745.7,1302.6,711,1290,671,1290l0,0
	c-38,0-74.5,12.5-103.6,33.6c-29.8,21.7-52.6,52.5-64.2,88.3c-5.6,17.2-8.6,35.6-8.6,54.6c0,19.1,3,37.4,8.6,54.6
	c11.6,35.8,34.4,66.6,64.2,88.3c29.1,21.1,65.6,33.6,103.6,33.6l0,0c40,0,74.8-12.6,103.9-33.8c29.7-21.7,52.6-52.5,64.2-88.3
	c5.5-16.9,8.5-34.7,8.6-53.7H840.9z"/>
<path class="st0" d="M856,1503.8v19.8h-17.6v-18.5h-33v-14.6l37.3-54.8H856v50.5V1503.8z M838.6,1487.8V1470l-12.8,17.8H838.6z"/>
<path class="st0" d="M897.5,1463.6c-3.7-1.8-8.1-2.4-12.2-2.4h-8.2v-26h-16v88h16v-19.4v-17.7v-7.9h8.2c3.3,0,6.1,1.2,8.4,3.9
	c2.3,2.7,3.5,5.9,3.5,9.7v31.4h18v-30.1C915.1,1470.7,900.3,1465.2,897.5,1463.6z"/>
<path class="st0" d="M751.6,1508.9l35.5-39.5c1.6-2,2.3-3.9,2.3-5.9c0-2.6-1-4.8-2.9-6.6c-2-1.8-4.4-2.6-7.2-2.6
	c-2.5,0-4.7,0.9-6.5,2.7c-1.8,1.8-2.7,4-2.7,6.5v3.4h-18.5v-3.4c0-7.6,2.7-14.2,8.2-19.6c5.4-5.5,11.9-8.2,19.6-8.2
	c7.9,0,14.6,2.7,20.2,8.2c5.6,5.4,8.4,11.9,8.4,19.6c-0.2,6.4-2.5,12.4-7.1,18.2c-0.9,1-1.9,2.1-3,3.3l-17.5,20h24.9v18.5h-53.7
	V1508.9z"/>
<g>
	<path class="st12" d="M283.7,484.9L283.7,484.9c-4.8-5.1-12.7-9.8-24.4-14.4c-9.9-3.9-13-6.3-13.9-7.1c-1.3-1.2-1.9-2.3-1.9-3.4
		c0-0.8,0.1-1.8,1.7-3.2c1.4-1.2,3-1.8,5.1-1.9c4.5-0.2,9.6,1.9,15.3,6.3l0.8,0.6l20.1-20.2l-0.5-0.4c-11.9-9.1-24.1-13.5-36.2-13
		c-10.7,0.5-19.7,3.9-26.6,10.2c-7,6.4-10.3,14.3-9.9,23.3c0.3,7,2.9,13.1,7.6,18.4c4.5,5,12.2,9.6,23.3,14
		c11.3,4.4,14.2,6.8,14.6,7.2c1.2,1.2,1.8,2.4,1.9,3.9c0.1,1.9-0.7,3.4-2.6,5c-2.1,1.8-4.5,2.7-7.7,2.8c-5.1,0.2-10.2-2-15.6-6.9
		l-7-6.3l-19.3,20.7l4.8,4.9c4.7,4.8,10.6,8.5,17.4,11s14.1,3.6,21.5,3.3c11.5-0.5,21.2-4.3,28.7-11.3s11.1-15.5,10.7-25.1
		C291.3,496.6,288.7,490.3,283.7,484.9z"/>
	<path class="st12" d="M442.1,428.8c15.1,0,28,5.4,38.8,16.2c10.7,10.9,16.1,24,16.1,39.4c0,15.3-5.4,28.4-16.1,39.3
		c-10.7,10.8-23.6,16.3-38.8,16.3s-28.1-5.4-38.9-16.3c-10.7-10.9-16.1-24-16.1-39.3c0-15.4,5.3-28.5,16.1-39.4
		C413.9,434.2,426.9,428.8,442.1,428.8 M442.1,509.4c6.7,0,12.3-2.4,17-7.2c4.7-4.9,7.1-10.8,7.1-17.7s-2.4-12.9-7.1-17.8
		c-4.7-4.8-10.4-7.2-17-7.2c-6.7,0-12.4,2.4-17.1,7.2c-4.8,4.9-7.1,10.9-7.1,17.8c0,6.9,2.4,12.8,7.1,17.7
		C429.7,507,435.4,509.4,442.1,509.4"/>
	<path class="st12" d="M169.9,489.2c-0.1,1-0.2,1.5-0.5,2.4c-1.7,6.5-5.4,11.3-11.1,14.6c-5.8,3.3-11.9,4-18.4,2.2
		c-3.5-1-6.6-2.6-9.2-4.8l67.1-38.7l-4.5-7.7c-7.7-13.3-18.9-22-33.6-26.1c-14.7-4-28.6-2.3-41.6,5.3c-13.2,7.6-21.7,18.7-25.5,33.5
		c-3.8,14.8-1.9,28.8,5.8,42.1c7.6,13.3,18.8,21.9,33.5,26c14.7,4,28.6,2.3,41.7-5.3c13.1-7.5,21.6-18.4,25.4-33.1
		c1-3.6,1.6-6.3,1.8-10.3L169.9,489.2L169.9,489.2z M133.4,462.9c5.8-3.3,11.9-4.1,18.3-2.3c0.9,0.3,1.7,0.6,2.6,0.9l-32.6,18.8
		c0.1-0.9,0.3-1.8,0.5-2.7C123.9,471.1,127.6,466.2,133.4,462.9z"/>
	<g>
		<path class="st12" d="M76.5,466.2H22.2h-0.9l17.4,23.6c-2.6,3.6-5.6,6.7-9.2,9.3c-6.9,5-15.3,7.8-24.3,7.8l0,0
			c-10,0-17.9-2.9-24.7-7.9c-7.1-5.1-12.6-12.4-15.4-20.9c-1.3-4.1-2.1-8.4-2.1-12.9s0.7-8.9,2-12.9c2.8-8.5,8.1-15.4,15.2-20.5
			c6.9-5,15.2-7.5,24.5-7.5l0,0c9.3,0,17.7,2.6,24.6,7.6c4.7,3.4,8.6,7.6,11.6,12.6l28.5-16.8c-5.2-9-12.3-16.9-20.7-23
			c-12.3-9-27.5-14.5-44-14.5c-16.4,0-31.6,5.4-43.9,14.4c-12.6,9.2-22.3,22.3-27.2,37.5c-2.5,7.1-3.8,14.9-3.8,23
			c0,8.1,1.3,15.9,3.7,23.2c4.9,15.2,14.3,28.2,27,37.4c12.3,9,28.7,14.2,43.7,14.2l0,0c17,0,32-5.3,44.4-14.3
			c12.6-9.2,22.4-21.9,27.3-37c2.3-7.2,3.6-14.4,3.7-22.4L76.5,466.2L76.5,466.2z"/>
		<path class="st12" d="M31.9,442.7l-27.3,16l-43.2-25.4c-1.1,1.6-2.1,3.2-3.1,4.9l46.3,27.2L35,447.6C34.1,446,33,444.3,31.9,442.7
			z"/>
	</g>
	<rect x="300.1" y="428.2" class="st12" width="75" height="31"/>
	<path class="st12" d="M561.1,428.2c-7.5,0-14.4,1.6-21.2,4.8c-5.1,2.9-30.9,13.1-30.9,53.6v53.6h31v-55.9c0-6.9,2-12.8,6.1-17.8
		c4.2-4.9,9-7.3,14.9-7.3h16v-31L561.1,428.2L561.1,428.2z"/>
	<path class="st12" d="M357,501.4c0,0.2-1,0.7-1,0.9c0,1.2-1.4,1.9-1.9,2.9c-1.1,2-3.1,3.3-5.6,3.3c-3.4,0-6.4-2.6-6.4-5.9V390.2
		h-31v114h-0.2c1,20,17.4,35.5,37.5,35.5c15.2,0,28.3-9.2,34.2-22.2L357,501.4z"/>
</g>
<g>
	<path class="st0" d="M771.1,390.2L771.1,390.2h-22.6l-63.4,93.3v25.7h64v31h31v-150L771.1,390.2L771.1,390.2z M748.1,479.2h-22
		l22-32.7V479.2z"/>
	<path class="st0" d="M671.6,474.3c1.9-2,3.6-4,5.1-5.7c7.8-9.9,11.9-20.3,12.1-31.1c0-13-4.8-24.2-14.3-33.4
		c-9.6-9.3-21.1-14-34.5-14c-13,0-24,4.6-33.2,13.9c-9.3,9.2-13.7,20.4-13.7,33.4v5.8h31v-5.8c0-4.3,1.6-8,4.7-11.1
		c3.1-3.1,6.9-4.6,11.2-4.6c4.8,0,8.9,1.5,12.3,4.5c3.3,3.1,5,6.8,5,11.2c0,3.4-1.1,6.8-3.8,10.1l-60.4,67.3v25.3h84.1l0,0h7.9v-31
		h-43.9L671.6,474.3z"/>
	<path class="st0" d="M854,433c-6.7-3.2-14-4.8-21.5-4.8h-11.4v-38h-29.3h-1.7v150h1.7h29.3v-81h11.4c5.9,0,11,2.4,15.2,7.3
		c4.2,4.9,6.4,10.8,6.4,17.8v55.9h31v-53.6C885.1,446.2,859.1,435.9,854,433z"/>
</g>
<path class="st11" d="M-226.3-236.7L-226.3-236.7c-4.8-5.1-12.7-9.8-24.4-14.4c-9.9-3.9-13-6.3-13.9-7.1c-1.3-1.2-1.9-2.3-1.9-3.4
	c0-0.8,0.1-1.8,1.7-3.2c1.4-1.2,3-1.8,5.1-1.9c4.5-0.2,9.6,1.9,15.3,6.3l0.8,0.6l20.1-20.2l-0.5-0.4c-11.9-9.1-24.1-13.5-36.2-13
	c-10.7,0.5-19.7,3.9-26.6,10.2c-7,6.4-10.3,14.3-9.9,23.3c0.3,7,2.9,13.1,7.6,18.4c4.5,5,12.2,9.6,23.3,14
	c11.3,4.4,14.2,6.8,14.6,7.2c1.2,1.2,1.8,2.4,1.9,3.9c0.1,1.9-0.7,3.4-2.6,5c-2.1,1.8-4.5,2.7-7.7,2.8c-5.1,0.2-10.2-2-15.6-6.9
	l-7-6.3l-19.3,20.7l4.8,4.9c4.7,4.8,10.6,8.5,17.4,11s14.1,3.6,21.5,3.3c11.5-0.5,21.2-4.3,28.7-11.3s11.1-15.5,10.7-25.1
	C-218.7-225-221.3-231.3-226.3-236.7z"/>
<path class="st11" d="M-67.9-292.8c15.1,0,28,5.4,38.8,16.2c10.7,10.9,16.1,24,16.1,39.4c0,15.3-5.4,28.4-16.1,39.3
	c-10.7,10.8-23.6,16.3-38.8,16.3s-28.1-5.4-38.9-16.3c-10.7-10.9-16.1-24-16.1-39.3c0-15.4,5.3-28.5,16.1-39.4
	C-96.1-287.4-83.1-292.8-67.9-292.8 M-67.9-212.2c6.7,0,12.3-2.4,17-7.2c4.7-4.9,7.1-10.8,7.1-17.7s-2.4-12.9-7.1-17.8
	c-4.7-4.8-10.4-7.2-17-7.2c-6.7,0-12.4,2.4-17.1,7.2c-4.8,4.9-7.1,10.9-7.1,17.8c0,6.9,2.4,12.8,7.1,17.7
	C-80.3-214.6-74.6-212.2-67.9-212.2"/>
<path class="st11" d="M-340.1-232.4c-0.1,1-0.2,1.5-0.5,2.4c-1.7,6.5-5.4,11.3-11.1,14.6c-5.8,3.3-11.9,4-18.4,2.2
	c-3.5-1-6.6-2.6-9.2-4.8l67.1-38.7l-4.5-7.7c-7.7-13.3-18.8-22.1-33.5-26.1s-28.6-2.3-41.6,5.3c-13.2,7.6-21.7,18.7-25.5,33.5
	c-3.8,14.8-1.9,28.8,5.8,42.1c7.6,13.3,18.8,21.9,33.5,26c14.7,4,28.6,2.3,41.7-5.3c13.1-7.5,21.6-18.4,25.4-33.1
	c1-3.6,1.6-6.3,1.8-10.3L-340.1-232.4L-340.1-232.4z M-376.6-258.7c5.8-3.3,11.9-4.1,18.3-2.3c0.9,0.3,1.7,0.6,2.6,0.9l-32.6,18.8
	c0.1-0.9,0.3-1.8,0.5-2.7C-386.1-250.5-382.4-255.4-376.6-258.7z"/>
<g>
	<path class="st11" d="M-433.5-255.4h-54.3h-0.9l17.4,23.6c-2.6,3.6-5.6,6.7-9.2,9.3c-6.9,5-15.3,7.8-24.3,7.8l0,0
		c-10,0-17.9-2.9-24.7-7.9c-7.2-5.2-12.7-12.4-15.5-20.9c-1.3-4.1-2.1-8.4-2.1-12.9c0-4.5,0.7-8.9,2-12.9
		c2.8-8.5,8.1-15.4,15.2-20.5c6.9-5,15.2-7.5,24.5-7.5l0,0c9.3,0,17.7,2.6,24.6,7.6c4.7,3.4,8.6,7.6,11.6,12.6l28.5-16.8
		c-5.2-9-12.3-16.9-20.7-23c-12.3-9-27.5-14.6-44-14.6c-16.4,0-31.6,5.4-43.9,14.4c-12.7,9.1-22.3,22.3-27.3,37.4
		c-2.3,7.3-3.6,15.1-3.6,23.2c0,8.1,1.3,15.9,3.7,23.2c4.9,15.2,14.3,28.2,27,37.4c12.3,9,28.7,14.2,43.7,14.2l0,0
		c17,0,32-5.3,44.4-14.3c12.6-9.2,22.4-21.9,27.3-37c2.3-7.2,3.6-14.4,3.7-22.4H-433.5z"/>
	<path class="st11" d="M-478.1-278.9l-27.3,16l-43.2-25.3c-1.1,1.6-2.1,3.2-3.1,4.9l46.3,27.2l30.4-17.8
		C-475.9-275.6-477-277.3-478.1-278.9z"/>
</g>
<path class="st11" d="M51.1-293.4c-7.5,0-14.4,1.6-21.2,4.8C24.8-285.7-1-275.5-1-235v53.6h31v-55.9c0-6.9,2-12.8,6.1-17.8
	c4.2-4.9,9-7.3,14.9-7.3h16v-31H51.1z"/>
<path class="st11" d="M-153-220.2c0,0.2-3.2,7.1-8.5,7.1c-3.4,0-6.4-2.6-6.4-5.9v-43.4h33v-31h-33v-38h-31v38h-11v31h11
	c0,0,0,18.1,0,45s17.2,35.5,37.3,35.5c15.2,0,28.3-9.2,34.2-22.2L-153-220.2z"/>
<path class="st12" d="M261.1-331.4L261.1-331.4h-22.6l-63.4,93.3v25.7h64v31h31v-150H261.1z M238.1-242.4h-22l22-32.7V-242.4z"/>
<path class="st12" d="M161.6-247.3c1.9-2,3.6-4,5.1-5.7c7.8-9.9,11.9-20.3,12.1-31.1c0-13-4.8-24.2-14.3-33.4
	c-9.6-9.3-21.1-14-34.5-14c-13,0-24,4.6-33.2,13.9c-9.3,9.2-13.7,20.4-13.7,33.4v5.8h31v-5.8c0-4.3,1.6-8,4.7-11.1
	c3.1-3.1,6.9-4.6,11.2-4.6c4.8,0,8.9,1.5,12.3,4.5c3.3,3.1,5,6.8,5,11.2c0,3.4-1.1,6.8-3.8,10.1l-60.4,67.3v25.3h84.1l0,0h7.9v-31
	h-43.9L161.6-247.3z"/>
<path class="st12" d="M1410-312.7c2.1-2.2,4-4.5,5.7-6.3c8.7-11,13.2-22.6,13.5-34.6c0-14.5-5.3-26.9-15.9-37.2
	c-10.7-10.3-23.5-15.6-38.4-15.6c-14.5,0-26.7,5.1-36.9,15.5c-10.3,10.2-15.2,22.7-15.2,37.2v6.5h34.5v-6.5c0-4.8,1.8-8.9,5.2-12.4
	c3.4-3.4,7.7-5.1,12.5-5.1c5.3,0,9.9,1.7,13.7,5c3.7,3.4,5.6,7.6,5.6,12.5c0,3.8-1.2,7.6-4.2,11.2l-67.2,74.9v28.2h93.6l0,0h8.8
	v-31.4h-54.1L1410-312.7z"/>
<path class="st12" d="M344-288.6c-6.7-3.2-14-4.8-21.5-4.8h-11.4v-38h-29.3h-1.7v150h1.7h29.3v-81h11.4c5.9,0,11,2.4,15.2,7.3
	c4.2,4.9,6.4,10.8,6.4,17.8v55.9h31V-235C375.1-275.4,349.1-285.7,344-288.6z"/>
<g>
	<path class="st11" d="M-758.3-3080.1L-758.3-3080.1c-4.8-5.1-12.7-9.8-24.4-14.4c-9.9-3.9-13-6.3-13.9-7.1
		c-1.3-1.2-1.9-2.3-1.9-3.4c0-0.8,0.1-1.8,1.7-3.2c1.4-1.2,3-1.8,5.1-1.9c4.5-0.2,9.6,1.9,15.3,6.3l0.8,0.6l20.1-20.2l-0.5-0.4
		c-11.9-9.1-24.1-13.5-36.2-13c-10.7,0.5-19.7,3.9-26.6,10.2c-7,6.4-10.3,14.3-9.9,23.3c0.3,7,2.9,13.1,7.6,18.4
		c4.5,5,12.2,9.6,23.3,14c11.3,4.4,14.2,6.8,14.6,7.2c1.2,1.2,1.8,2.4,1.9,3.9c0.1,1.9-0.7,3.4-2.6,5c-2.1,1.8-4.5,2.7-7.7,2.8
		c-5.1,0.2-10.2-2-15.6-6.9l-7-6.3l-19.3,20.7l4.8,4.9c4.7,4.8,10.6,8.5,17.4,11c6.8,2.5,14.1,3.6,21.5,3.3
		c11.5-0.5,21.2-4.3,28.7-11.3s11.1-15.5,10.7-25.1C-750.7-3068.4-753.3-3074.7-758.3-3080.1z"/>
	<path class="st11" d="M-599.9-3136.2c15.1,0,28,5.4,38.8,16.2c10.7,10.9,16.1,24,16.1,39.4c0,15.3-5.4,28.4-16.1,39.3
		c-10.7,10.8-23.6,16.3-38.8,16.3s-28.1-5.4-38.9-16.3c-10.7-10.9-16.1-24-16.1-39.3c0-15.4,5.3-28.5,16.1-39.4
		C-628.1-3130.8-615.1-3136.2-599.9-3136.2 M-599.9-3055.6c6.7,0,12.3-2.4,17-7.2c4.7-4.9,7.1-10.8,7.1-17.7s-2.4-12.9-7.1-17.8
		c-4.7-4.8-10.4-7.2-17-7.2c-6.7,0-12.4,2.4-17.1,7.2c-4.8,4.9-7.1,10.9-7.1,17.8c0,6.9,2.4,12.8,7.1,17.7
		C-612.3-3058-606.6-3055.6-599.9-3055.6"/>
	<path class="st11" d="M-872.1-3075.8c-0.1,1-0.2,1.5-0.5,2.4c-1.7,6.5-5.4,11.3-11.1,14.6c-5.8,3.3-11.9,4-18.4,2.2
		c-3.5-1-6.6-2.6-9.2-4.8l67.1-38.7l-4.5-7.7c-7.7-13.3-18.9-22-33.6-26.1c-14.7-4-28.6-2.3-41.6,5.3c-13.2,7.6-21.7,18.7-25.5,33.5
		s-1.9,28.8,5.8,42.1c7.6,13.3,18.8,21.9,33.5,26c14.7,4,28.6,2.3,41.7-5.3c13.1-7.5,21.6-18.4,25.4-33.1c1-3.6,1.6-6.3,1.8-10.3
		L-872.1-3075.8L-872.1-3075.8z M-908.6-3102.1c5.8-3.3,11.9-4.1,18.3-2.3c0.9,0.3,1.7,0.6,2.6,0.9l-32.6,18.8
		c0.1-0.9,0.3-1.8,0.5-2.7C-918.1-3093.9-914.4-3098.8-908.6-3102.1z"/>
	<g>
		<path class="st11" d="M-965.5-3098.8h-54.3h-0.9l17.4,23.6c-2.6,3.6-5.6,6.7-9.2,9.3c-6.9,5-15.3,7.8-24.3,7.8l0,0
			c-10,0-17.9-2.9-24.7-7.9c-7.1-5.1-12.6-12.4-15.4-20.9c-1.3-4.1-2.1-8.4-2.1-12.9s0.7-8.9,2-12.9c2.8-8.5,8.1-15.4,15.2-20.5
			c6.9-5,15.2-7.5,24.5-7.5l0,0c9.3,0,17.7,2.6,24.6,7.6c4.7,3.4,8.6,7.6,11.6,12.6l28.5-16.8c-5.2-9-12.3-16.9-20.7-23
			c-12.3-9-27.5-14.5-44-14.5c-16.4,0-31.6,5.4-43.9,14.4c-12.6,9.2-22.3,22.3-27.2,37.5c-2.4,7.3-3.6,15.1-3.6,23.2
			c0,8.1,1.3,15.9,3.7,23.2c4.9,15.2,14.3,28.2,27,37.4c12.3,9,28.7,14.2,43.7,14.2l0,0c17,0,32-5.3,44.4-14.3
			c12.6-9.2,22.4-21.9,27.3-37c2.3-7.2,3.6-14.4,3.7-22.4h-3.3V-3098.8z"/>
		<path class="st11" d="M-1010.1-3122.3l-27.3,16l-43.2-25.4c-1.1,1.6-2.1,3.2-3.1,4.9l46.3,27.2l30.4-17.8
			C-1007.9-3119-1009-3120.7-1010.1-3122.3z"/>
	</g>
	<rect x="-741.9" y="-3136.8" class="st11" width="75" height="31"/>
	<path class="st11" d="M-480.9-3136.8c-7.5,0-14.4,1.6-21.2,4.8c-5.1,2.9-30.9,13.1-30.9,53.6v53.6h31v-55.9c0-6.9,2-12.8,6.1-17.8
		c4.2-4.9,9-7.3,14.9-7.3h16v-31L-480.9-3136.8L-480.9-3136.8z"/>
	<path class="st11" d="M-685-3063.6c0,0.2-1,0.7-1,0.9c0,1.2-1.4,1.9-1.9,2.9c-1.1,2-3.1,3.3-5.6,3.3c-3.4,0-6.4-2.6-6.4-5.9v-112.4
		h-31v114h-0.2c1,20,17.4,35.5,37.5,35.5c15.2,0,28.3-9.2,34.2-22.2L-685-3063.6z"/>
</g>
<g>
	<path class="st0" d="M-270.9-3174.8L-270.9-3174.8h-22.6l-63.4,93.3v25.7h64v31h31v-150H-270.9z M-293.9-3085.8h-22l22-32.7
		V-3085.8z"/>
	<path class="st0" d="M-370.4-3090.7c1.9-2,3.6-4,5.1-5.7c7.8-9.9,11.9-20.3,12.1-31.1c0-13-4.8-24.2-14.3-33.4
		c-9.6-9.3-21.1-14-34.5-14c-13,0-24,4.6-33.2,13.9c-9.3,9.2-13.7,20.4-13.7,33.4v5.8h31v-5.8c0-4.3,1.6-8,4.7-11.1
		s6.9-4.6,11.2-4.6c4.8,0,8.9,1.5,12.3,4.5c3.3,3.1,5,6.8,5,11.2c0,3.4-1.1,6.8-3.8,10.1l-60.4,67.3v25.3h84.1l0,0h7.9v-31h-43.9
		L-370.4-3090.7z"/>
	<path class="st0" d="M-188-3132c-6.7-3.2-14-4.8-21.5-4.8h-11.4v-38h-29.3h-1.7v150h1.7h29.3v-81h11.4c5.9,0,11,2.4,15.2,7.3
		c4.2,4.9,6.4,10.8,6.4,17.8v55.9h31v-53.6C-156.9-3118.8-182.9-3129.1-188-3132z"/>
</g>
<g>
	<path class="st11" d="M283.7,936.9L283.7,936.9c-4.8-5.1-12.7-9.8-24.4-14.4c-9.9-3.9-13-6.3-13.9-7.1c-1.3-1.2-1.9-2.3-1.9-3.4
		c0-0.8,0.1-1.8,1.7-3.2c1.4-1.2,3-1.8,5.1-1.9c4.5-0.2,9.6,1.9,15.3,6.3l0.8,0.6l20.1-20.2l-0.5-0.4c-11.9-9.1-24.1-13.5-36.2-13
		c-10.7,0.5-19.7,3.9-26.6,10.2c-7,6.4-10.3,14.3-9.9,23.3c0.3,7,2.9,13.1,7.6,18.4c4.5,5,12.2,9.6,23.3,14
		c11.3,4.4,14.2,6.8,14.6,7.2c1.2,1.2,1.8,2.4,1.9,3.9c0.1,1.9-0.7,3.4-2.6,5c-2.1,1.8-4.5,2.7-7.7,2.8c-5.1,0.2-10.2-2-15.6-6.9
		l-7-6.3l-19.3,20.7l4.8,4.9c4.7,4.8,10.6,8.5,17.4,11s14.1,3.6,21.5,3.3c11.5-0.5,21.2-4.3,28.7-11.3s11.1-15.5,10.7-25.1
		C291.3,948.6,288.7,942.3,283.7,936.9z"/>
	<path class="st11" d="M442.1,880.8c15.1,0,28,5.4,38.8,16.2c10.7,10.9,16.1,24,16.1,39.4c0,15.3-5.4,28.4-16.1,39.3
		c-10.7,10.8-23.6,16.3-38.8,16.3s-28.1-5.4-38.9-16.3c-10.7-10.9-16.1-24-16.1-39.3c0-15.4,5.3-28.5,16.1-39.4
		C413.9,886.2,426.9,880.8,442.1,880.8 M442.1,961.4c6.7,0,12.3-2.4,17-7.2c4.7-4.9,7.1-10.8,7.1-17.7s-2.4-12.9-7.1-17.8
		c-4.7-4.8-10.4-7.2-17-7.2c-6.7,0-12.4,2.4-17.1,7.2c-4.8,4.9-7.1,10.9-7.1,17.8c0,6.9,2.4,12.8,7.1,17.7
		C429.7,959,435.4,961.4,442.1,961.4"/>
	<path class="st11" d="M169.9,941.2c-0.1,1-0.2,1.5-0.5,2.4c-1.7,6.5-5.4,11.3-11.1,14.6c-5.8,3.3-11.9,4-18.4,2.2
		c-3.5-1-6.6-2.6-9.2-4.8l67.1-38.7l-4.5-7.7c-7.7-13.3-18.9-22-33.6-26.1c-14.7-4-28.6-2.3-41.6,5.3c-13.2,7.6-21.7,18.7-25.5,33.5
		s-1.9,28.8,5.8,42.1c7.6,13.3,18.8,21.9,33.5,26c14.7,4,28.6,2.3,41.7-5.3c13.1-7.5,21.6-18.4,25.4-33.1c1-3.6,1.6-6.3,1.8-10.3
		L169.9,941.2L169.9,941.2z M133.4,914.9c5.8-3.3,11.9-4.1,18.3-2.3c0.9,0.3,1.7,0.6,2.6,0.9l-32.6,18.8c0.1-0.9,0.3-1.8,0.5-2.7
		C123.9,923.1,127.6,918.2,133.4,914.9z"/>
	<g>
		<path class="st11" d="M76.5,918.2H22.2h-0.9l17.4,23.6c-2.6,3.6-5.6,6.7-9.2,9.3c-6.9,5-15.3,7.8-24.3,7.8l0,0
			c-10,0-17.9-2.9-24.7-7.9c-7.1-5.1-12.6-12.4-15.4-20.9c-1.3-4.1-2.1-8.4-2.1-12.9s0.7-8.9,2-12.9c2.8-8.5,8.1-15.4,15.2-20.5
			c6.9-5,15.2-7.5,24.5-7.5l0,0c9.3,0,17.7,2.6,24.6,7.6c4.7,3.4,8.6,7.6,11.6,12.6l28.5-16.8c-5.2-9-12.3-16.9-20.7-23
			c-12.3-9-27.5-14.5-44-14.5c-16.4,0-31.6,5.4-43.9,14.4c-12.6,9.2-22.3,22.3-27.2,37.5c-2.5,7.1-3.8,14.9-3.8,23
			s1.3,15.9,3.7,23.2c4.9,15.2,14.3,28.2,27,37.4c12.3,9,28.7,14.2,43.7,14.2l0,0c17,0,32-5.3,44.4-14.3c12.6-9.2,22.4-21.9,27.3-37
			c2.3-7.2,3.6-14.4,3.7-22.4L76.5,918.2L76.5,918.2z"/>
		<path class="st11" d="M31.9,894.7l-27.3,16l-43.2-25.4c-1.1,1.6-2.1,3.2-3.1,4.9l46.3,27.2L35,899.6C34.1,898,33,896.3,31.9,894.7
			z"/>
	</g>
	<rect x="300.1" y="880.2" class="st11" width="75" height="31"/>
	<path class="st11" d="M561.1,880.2c-7.5,0-14.4,1.6-21.2,4.8c-5.1,2.9-30.9,13.1-30.9,53.6v53.6h31v-55.9c0-6.9,2-12.8,6.1-17.8
		c4.2-4.9,9-7.3,14.9-7.3h16v-31H561.1z"/>
	<path class="st11" d="M357,953.4c0,0.2-1,0.7-1,0.9c0,1.2-1.4,1.9-1.9,2.9c-1.1,2-3.1,3.3-5.6,3.3c-3.4,0-6.4-2.6-6.4-5.9V842.2
		h-31v114h-0.2c1,20,17.4,35.5,37.5,35.5c15.2,0,28.3-9.2,34.2-22.2L357,953.4z"/>
</g>
<g>
	<path class="st0" d="M771.1,842.2L771.1,842.2h-22.6l-63.4,93.3v25.7h64v31h31v-150H771.1z M748.1,931.2h-22l22-32.7V931.2z"/>
	<path class="st0" d="M671.6,926.3c1.9-2,3.6-4,5.1-5.7c7.8-9.9,11.9-20.3,12.1-31.1c0-13-4.8-24.2-14.3-33.4
		c-9.6-9.3-21.1-14-34.5-14c-13,0-24,4.6-33.2,13.9c-9.3,9.2-13.7,20.4-13.7,33.4v5.8h31v-5.8c0-4.3,1.6-8,4.7-11.1
		c3.1-3.1,6.9-4.6,11.2-4.6c4.8,0,8.9,1.5,12.3,4.5c3.3,3.1,5,6.8,5,11.2c0,3.4-1.1,6.8-3.8,10.1l-60.4,67.3v25.3h84.1l0,0h7.9v-31
		h-43.9L671.6,926.3z"/>
	<path class="st0" d="M854,885c-6.7-3.2-14-4.8-21.5-4.8h-11.4v-38h-29.3h-1.7v150h1.7h29.3v-81h11.4c5.9,0,11,2.4,15.2,7.3
		c4.2,4.9,6.4,10.8,6.4,17.8v55.9h31v-53.6C885.1,898.2,859.1,887.9,854,885z"/>
</g>
<rect x="-44.2" y="-3187.5" class="st12" width="934.2" height="618.3"/>
<g>
	<path class="st11" d="M1149.1,1287.2L1149.1,1287.2c-9,0-18.4-3.1-25.6-8.3c-7.4-5.4-13-13-15.9-21.8c-1.4-4.3-2.1-8.8-2.1-13.5
		s0.7-9.3,2.1-13.5c2.9-8.9,8.4-16.3,15.8-21.7c7.2-5.2,16.2-8.2,25.5-8.2l0,0c9.8,0,18.5,3,25.7,8.2l20.3-28
		c-12.9-9.4-28.9-15-45.9-15l0,0c-17,0-33,5.5-45.9,14.9c-13.2,9.6-23.3,23.2-28.5,39.1c-2.5,7.6-3.8,15.7-3.8,24.2
		c0,8.4,1.3,16.6,3.8,24.2c5.2,15.9,15.2,29.2,28.4,38.8c12.9,9.4,28.7,14.6,45.8,14.6l0,0c17.1,0,33.1-5.3,46-14.7l-20.3-27.8
		C1167.5,1283.9,1159.1,1287.2,1149.1,1287.2z"/>
	<path class="st11" d="M1224.2,1244.2h-56.8h-1l18.2,24.8c-2.7,3.8-6,7.1-9.8,9.8l20.3,27.9c13.2-9.6,23.2-23.1,28.4-38.9
		c2.4-7.5,3.8-15.6,3.8-23.6L1224.2,1244.2L1224.2,1244.2z"/>
	<path class="st11" d="M1186.8,1221.7l29.8-17.4c-5.5-9.4-12.8-17.5-21.6-23.9l-20.3,27.9
		C1179.7,1211.9,1183.8,1216.4,1186.8,1221.7z"/>
	<path class="st11" d="M1177.6,1220.2l-28.5,16.7l-45.1-26.5c-1.1,1.7-2.2,3.4-3.3,5.1l48.4,28.4l31.8-18.6
		C1179.9,1223.5,1178.8,1221.8,1177.6,1220.2z"/>
</g>
<g>
	<path class="st11" d="M340.1-2767.9L340.1-2767.9c-19,0-39.7-6.6-55.1-17.8c-15.9-11.5-28.1-27.9-34.3-47c-3-9.2-4.6-18.9-4.6-29.1
		c0-10.1,1.6-19.9,4.6-29.1c6.2-19.1,18.4-35.4,34.3-47c15.5-11.2,36.1-17.8,55.1-17.8l0,0c22,0,39.7,6.7,55.1,18l43.7-60.1
		c-27.7-20.2-60.8-32.2-98.8-32.2l0,0c-37,0-71.1,11.9-98.8,32c-28.4,20.6-50.2,50-61.3,84.1c-5.3,16.4-8.2,33.9-8.2,52
		c0,18.2,2.9,35.6,8.2,52c11.1,34.1,32.9,63.5,61.3,84.1c27.7,20.1,61.8,32,98.8,32l0,0c38,0,71.1-12,98.8-32.2l-43.7-60.1
		C379.8-2774.6,361.1-2768,340.1-2767.9z"/>
	<path class="st11" d="M501.5-2861.8H379.4h-2.1l39.1,54.2c-5.8,8.2-13,15.6-21.1,21.5l43.7,60.2c28.3-20.7,50-50.3,61-84.4
		c5.2-16.1,8.1-33.5,8.2-51.5H501.5z"/>
	<path class="st11" d="M421.2-2908.9l64.1-37.5c-11.8-20.2-27.6-37.7-46.4-51.4l-43.7,60.1C405.8-2930,414.6-2920.2,421.2-2908.9z"
		/>
	<path class="st11" d="M401.4-2912.1l-61.4,36l-97.1-57.1c-2.5,3.6-4.8,7.2-7,11L340-2861l68.4-40.1
		C406.2-2904.9,403.8-2908.6,401.4-2912.1z"/>
</g>
<g>
	<path class="st0" d="M515.8-2826.6v18.9H499v-17.7h-31.4v-13.9l35.6-52.2h12.6v48V-2826.6z M499.2-2841.8v-16.9l-12.2,16.9H499.2z"
		/>
	<path class="st0" d="M555.3-2864.7c-3.6-1.7-7.7-2.1-11.6-2.1h-7.6v-25h-15v84h15v-18.8v-16.8v-7.4h7.6c3.1,0,5.8,1.1,8,3.6
		c2.2,2.6,3.4,5.5,3.4,9.2v30.2h17v-28.9C572.1-2858.1,558-2863.1,555.3-2864.7z"/>
	<path class="st0" d="M416.4-2821.7l33.8-37.6c1.5-1.9,2.2-3.8,2.2-5.7c0-2.5-0.9-4.6-2.8-6.3c-1.9-1.7-4.1-2.5-6.8-2.5
		c-2.4,0-4.5,0.9-6.2,2.6c-1.7,1.8-2.6,3.8-2.6,6.2v3.2h-17.7v-3.2c0-7.3,2.6-13.5,7.8-18.7c5.2-5.2,11.4-7.8,18.7-7.8
		c7.5,0,13.9,2.6,19.3,7.8c5.3,5.2,8,11.4,8,18.7c-0.2,6.1-2.4,11.8-6.8,17.4c-0.9,1-1.8,2-2.9,3.1l-16.7,19.1h23.7v17.7h-51.1v-14
		H416.4z"/>
</g>
<path d="M457.1,101.7V80.3c0-4.3,0.7-8.1,2.2-11.3c1.5-3.3,3.8-6.1,7-8.6c3.2-2.5,7.3-4.8,12.4-7l14.9-6.3c3.8-1.6,6.6-3.5,8.4-5.8
	c1.7-2.2,2.6-5,2.6-8.4c0-3.1-1.1-5.8-3.1-8c-2.1-2.2-5.2-3.3-9.2-3.3c-4.1,0-7.2,1.1-9.2,3.4c-2.1,2.3-3.1,5.3-3.1,9.2h-24.1
	c0-6.4,1.4-12.1,4.2-17.1c2.8-5,6.9-8.9,12.3-11.8c5.4-2.9,12.1-4.3,20-4.3c7.9,0,14.5,1.4,19.9,4.1c5.4,2.7,9.5,6.4,12.3,11.1
	s4.2,10,4.2,15.9v1.6c0,7.6-2.1,13.8-6.2,18.8c-4.1,4.9-10.7,9.3-19.8,13.3L487.8,72c-2.1,0.9-3.7,1.9-4.8,2.9
	c-1,1.1-1.5,2.5-1.5,4.3V84l-5.8-3.8h52.7v21.4H457.1z"/>
<path d="M528.3,80.5V62.7c0-4.9,1.4-9.7,4.1-13.8l30.7-47.5l19.7,12.5L555.4,56c-0.7,1-0.6,2.3,0,3.3v0c0.6,0.8,1.5,1.3,2.5,1.3
	h55.4v19.8H528.3z M579.6,101.7V26.9h23v74.8H579.6z"/>
<path class="st12" d="M602.6,101.7V26.9h21.9c0,14,0,14.1,0,21.4c2.9-3.9,8.9-5,13-5h0.8c6.1,0,13.3,2.1,16.7,6.4
	c4.6,5.8,5.5,11.2,5.5,19.8v32.2h-21.9V68.8c0-2.6-0.8-4.7-2.4-6.4c-1.6-1.7-4-2-6.5-1.5c-4.2,0.8-5.3,5.4-5.3,8.1v32.7H602.6z"/>
<text transform="matrix(1 0 0 1 2399.6326 -117.1129)" style="fill:#FFFBF0; font-family:'FuturaBT-Bold'; font-size:190.3833px;">GESTOR24H</text>
<g>
	<path class="st13" d="M-853.7,68.3V-3.6c0-23,16.6-36.1,40.5-36.1c23.7,0,40.3,13.2,40.3,36.1V8.1c0,1.7-0.9,2.8-2.8,2.8h-25
		c-1.7,0-2.8-1.1-2.8-2.8V0c0-7.2-2.6-12.2-9.6-12.2c-7.2,0-9.6,5.1-9.6,12.2v64.7c0,7.2,2.4,12.2,9.6,12.2c7,0,9.6-5.1,9.6-12.2
		v-9.8c0-1.7-1.1-2.8-2.8-2.8h-4c-1.7,0-2.8-0.9-2.8-2.8v-22c0-1.7,1.1-2.8,2.8-2.8h34.6c1.7,0,2.8,1.1,2.8,2.8v41
		c0,22.8-16.6,36.1-40.3,36.1C-837.1,104.4-853.7,91.1-853.7,68.3z"/>
	<path class="st13" d="M-757.9,100.1V-35.4c0-1.7,0.9-2.8,2.8-2.8h53.6c1.7,0,2.8,1.1,2.8,2.8v21.6c0,1.7-1.1,2.8-2.8,2.8h-22.8
		c-1.7,0-2.8,1.1-2.8,2.8v23.5c0,1.7,1.1,2.8,2.8,2.8h22.8c1.7,0,2.8,1.1,2.8,2.8v21.6c0,1.7-1.1,2.8-2.8,2.8h-22.8
		c-1.7,0-2.8,1.1-2.8,2.8v24.5c0,1.7,1.1,2.8,2.8,2.8h22.8c1.7,0,2.8,1.1,2.8,2.8v21.6c0,1.7-1.1,2.8-2.8,2.8h-53.6
		C-756.8,102.9-757.9,101.8-757.9,100.1z"/>
	<path class="st13" d="M-686.4,67.7V60c0-1.7,0.9-2.8,2.8-2.8h25c1.7,0,2.8,1.1,2.8,2.8v4.7c0,7.2,2.6,12.2,9.6,12.2
		c7.2,0,9.8-4.3,9.8-10.4v-4c0-6.8-7.7-12-20.3-19.6c-12.6-7.7-29.7-17.5-29.7-38.4V-3c0-23.5,16.6-36.7,40.3-36.7
		c23.9,0,40.5,13.2,40.5,36.7v7.7c0,1.7-0.9,2.8-2.8,2.8h-25c-1.9,0-2.8-1.1-2.8-2.8v-4c0-7.9-2.6-13-9.8-13c-7,0-9.6,4.5-9.6,10.4
		v4c0,6.8,7.5,11.9,20.3,19.4c12.6,7.7,29.7,17.7,29.7,38.6v7.7c0,23.3-16.6,36.7-40.5,36.7C-669.8,104.4-686.4,91.1-686.4,67.7z"/>
	<path class="st13" d="M-580.6,100.1V-7.7c0-1.7-1.1-2.8-2.8-2.8H-597c-1.7,0-2.8-0.9-2.8-2.8v-22c0-1.7,1.1-2.8,2.8-2.8h64.4
		c1.7,0,2.8,0.9,2.8,2.8v22c0,1.7-1.1,2.8-2.8,2.8h-14.3c-1.7,0-2.8,1.1-2.8,2.8v107.8c0,1.7-0.9,2.8-2.8,2.8h-25.2
		C-579.5,102.9-580.6,101.8-580.6,100.1z"/>
	<path class="st13" d="M-522.1,67.7V-3c0-23.5,16.6-36.7,40.5-36.7c23.7,0,40.3,13.2,40.3,36.7v70.8c0,23.3-16.6,36.7-40.3,36.7
		C-505.5,104.4-522.1,91.1-522.1,67.7z M-472,64V0.7c0-7.9-2.4-13-9.6-13s-9.6,5.1-9.6,13V64c0,7.9,2.4,13,9.6,13S-472,71.9-472,64z
		"/>
	<path class="st13" d="M-425.7,100.1V-35.4c0-1.7,0.9-2.8,2.8-2.8h37.6c23.7,0,40.3,13.4,40.3,36.7v16.4c0,9.8-4.1,21.3-10.7,26.7
		c-1.1,0.9-1.9,1.9-1.5,3.6l11.3,53.8c0.8,3-0.8,4-2.3,4h-23.5c-2.4,0-3.6,0-4.1-2.8l-8.3-45.7c-0.4-1.7-1.1-2.8-2.8-2.8h-5.1
		c-1.7,0-2.8,1.1-2.8,2.8v45.7c0,1.7-0.9,2.8-2.8,2.8h-25.2C-424.6,102.9-425.7,101.8-425.7,100.1z M-385.3,24.1
		c7.2,0,9.6-5.1,9.6-13V2.2c0-7.7-2.4-12.8-9.6-12.8h-6.8c-1.7,0-2.8,1.1-2.8,2.8v29c0,1.7,1.1,2.8,2.8,2.8H-385.3z"/>
</g>
<path class="st12" d="M993.8,58.6v-71.9c0-23,16.6-36.1,40.5-36.1c23.7,0,40.3,13.2,40.3,36.1v11.7c0,1.7-0.9,2.8-2.8,2.8h-25
	c-1.7,0-2.8-1.1-2.8-2.8v-8.1c0-7.2-2.6-12.2-9.6-12.2c-7.2,0-9.6,5.1-9.6,12.2V55c0,7.2,2.4,12.2,9.6,12.2c7,0,9.6-5.1,9.6-12.2
	v-9.8c0-1.7-1.1-2.8-2.8-2.8h-4c-1.7,0-2.8-0.9-2.8-2.8v-22c0-1.7,1.1-2.8,2.8-2.8h34.6c1.7,0,2.8,1.1,2.8,2.8v41
	c0,22.8-16.6,36.1-40.3,36.1C1010.4,94.7,993.8,81.3,993.8,58.6z"/>
<path class="st13" d="M1144.2,93.1V-42.4c0-1.7,0.9-2.8,2.8-2.8h53.6c1.7,0,2.8,1.1,2.8,2.8v21.6c0,1.7-1.1,2.8-2.8,2.8h-22.8
	c-1.7,0-2.8,1.1-2.8,2.8V8.4c0,1.7,1.1,2.8,2.8,2.8h22.8c1.7,0,2.8,1.1,2.8,2.8v21.6c0,1.7-1.1,2.8-2.8,2.8h-22.8
	c-1.7,0-2.8,1.1-2.8,2.8v24.5c0,1.7,1.1,2.8,2.8,2.8h22.8c1.7,0,2.8,1.1,2.8,2.8v21.6c0,1.7-1.1,2.8-2.8,2.8H1147
	C1145.3,95.9,1144.2,94.8,1144.2,93.1z"/>
<path class="st13" d="M1215.7,60.7V53c0-1.7,0.9-2.8,2.8-2.8h25c1.7,0,2.8,1.1,2.8,2.8v4.7c0,7.2,2.6,12.2,9.6,12.2
	c7.2,0,9.8-4.3,9.8-10.4v-4c0-6.8-7.7-12-20.3-19.6c-12.6-7.7-29.7-17.5-29.7-38.4V-10c0-23.5,16.6-36.7,40.3-36.7
	c23.9,0,40.5,13.2,40.5,36.7v7.7c0,1.7-0.9,2.8-2.8,2.8h-25c-1.9,0-2.8-1.1-2.8-2.8v-4c0-7.9-2.6-13-9.8-13c-7,0-9.6,4.5-9.6,10.4v4
	c0,6.8,7.5,11.9,20.3,19.4c12.6,7.7,29.7,17.7,29.7,38.6v7.7c0,23.3-16.6,36.7-40.5,36.7C1232.3,97.4,1215.7,84.1,1215.7,60.7z"/>
<path class="st13" d="M1321.5,93.1V-14.7c0-1.7-1.1-2.8-2.8-2.8h-13.6c-1.7,0-2.8-0.9-2.8-2.8v-22c0-1.7,1.1-2.8,2.8-2.8h64.4
	c1.7,0,2.8,0.9,2.8,2.8v22c0,1.7-1.1,2.8-2.8,2.8h-14.3c-1.7,0-2.8,1.1-2.8,2.8V93.1c0,1.7-0.9,2.8-2.8,2.8h-25.2
	C1322.6,95.9,1321.5,94.8,1321.5,93.1z"/>
<path class="st13" d="M1380,60.7V-10c0-23.5,16.6-36.7,40.5-36.7c23.7,0,40.3,13.2,40.3,36.7v70.8c0,23.3-16.6,36.7-40.3,36.7
	C1396.6,97.4,1380,84.1,1380,60.7z M1430.1,57V-6.3c0-7.9-2.4-13-9.6-13s-9.6,5.1-9.6,13V57c0,7.9,2.4,13,9.6,13
	S1430.1,64.9,1430.1,57z"/>
<path class="st13" d="M1476.4,93.1V-42.4c0-1.7,0.9-2.8,2.8-2.8h37.6c23.7,0,40.3,13.4,40.3,36.7V7.8c0,9.8-4.1,21.3-10.7,26.7
	c-1.1,0.9-1.9,1.9-1.5,3.6l11.3,53.8c0.8,3-0.8,4-2.3,4h-23.5c-2.4,0-3.6,0-4.1-2.8l-8.3-45.7c-0.4-1.7-1.1-2.8-2.8-2.8h-5.1
	c-1.7,0-2.8,1.1-2.8,2.8v45.7c0,1.7-0.9,2.8-2.8,2.8h-25.2C1477.5,95.9,1476.4,94.8,1476.4,93.1z M1516.9,17.1c7.2,0,9.6-5.1,9.6-13
	v-8.8c0-7.7-2.4-12.8-9.6-12.8h-6.8c-1.7,0-2.8,1.1-2.8,2.8v29c0,1.7,1.1,2.8,2.8,2.8H1516.9z"/>
<path d="M810.8-329.6v61.8c0,9.7-2.3,16.9-6.9,21.5c-4.6,4.5-13.6,6.8-27.1,6.9h-30.5c-13.5-0.1-22.5-2.4-27.1-6.9
	c-4.6-4.7-6.9-11.8-6.9-21.5V-378c0-9.7,2.3-16.9,6.9-21.5c4.6-4.5,13.6-6.8,27.1-6.9h29.3c13.5,0.1,22.5,2.4,27.1,6.9
	c4.6,4.7,6.9,11.8,6.9,21.5v29.3h-36.1v-21.2c0-2.9-1.4-4.4-4.3-4.4h-15.5c-2.8,0-4.2,1.5-4.2,4.4v93.9c0,2.9,1.4,4.4,4.2,4.4h16.6
	c2.9,0,4.3-1.5,4.3-4.4v-21.5h-12.4v-32.1H810.8z"/>
<path d="M886.2-270.2c2.6,0,4-1.4,4-4.3v-5.5h35.7v13.3c0,9.3-2.2,16.2-6.6,20.6c-4.3,4.3-13,6.6-25.9,6.6h-29.2
	c-13-0.1-21.6-2.3-25.9-6.6c-4.4-4.4-6.6-11.3-6.6-20.6v-72.5c0-9.3,2.2-16.2,6.6-20.6c4.3-4.3,13-6.6,25.9-6.6h29.2
	c12.9,0.1,21.6,2.3,25.9,6.6c4.4,4.4,6.6,11.3,6.6,20.6v24.3c0,9.3-2.2,16.2-6.6,20.6c-4.3,4.3-13,6.6-25.9,6.6h-26.1v13.1
	c0,2.9,1.4,4.3,4.1,4.3H886.2z M867.2-318.3h19c2.6,0,4-1.4,4-4.3v-8.7c0-2.9-1.3-4.3-4-4.3h-14.9c-2.7,0-4.1,1.4-4.1,4.3V-318.3z"
	/>
<path d="M950.1-301.5c-4.3-4.3-6.4-11.4-6.4-21.2v-17.4c0-9,2.1-15.7,6.4-20c4.3-4.2,12.7-6.3,25.2-6.4h26.2
	c12.6,0.1,21,2.2,25.2,6.4c4.3,4.3,6.4,11,6.4,20v14.7h-32.4v-7.1c0-2.7-1.4-4.1-4.1-4.1h-15.5c-2.6,0-3.8,1.4-3.8,4.1v6.7
	c0,3.4,7.3,6.9,22,10.6c14.7,3.6,24.2,7.5,28.4,11.6c4.3,4.3,6.4,11.4,6.4,21.2v16.5c0,9-2.1,15.7-6.4,20
	c-4.3,4.2-12.7,6.3-25.2,6.4h-28.3c-12.6-0.1-21-2.2-25.2-6.4c-4.3-4.3-6.4-11-6.4-20v-14.7h33.5v7.1c0,2.7,1.4,4.1,4.1,4.1h15.5
	c2.6,0,3.8-1.4,3.8-4.1v-6.9c0-2.7-7.2-5.9-21.5-9.5C963.7-293.4,954.4-297.3,950.1-301.5z"/>
<path d="M1063.2-335.8h-14.8v-30.7h14.8V-396h35.7v29.5h17.8v30.7h-17.8v61.3c0,2.9,1.3,4.3,4,4.3h13.8v30.7h-20.9
	c-13-0.1-21.6-2.3-25.9-6.6c-4.4-4.4-6.6-11.3-6.6-20.6V-335.8z"/>
<path d="M1131.7-340.9c0-8.8,2.1-15.2,6.2-19.4c4.2-4,12.4-6.1,24.5-6.2h27.4c12.2,0.1,20.4,2.1,24.5,6.2c4.1,4.2,6.2,10.7,6.2,19.4
	v75.8c0,8.8-2.1,15.2-6.2,19.4c-4.2,4-12.4,6.1-24.5,6.2h-27.4c-12.2-0.1-20.4-2.1-24.5-6.2c-4.1-4.2-6.2-10.7-6.2-19.4V-340.9z
	 M1164.7-271.9c0,2.7,1.3,4.1,3.8,4.1h15.1c2.6,0,3.8-1.4,3.8-4.1V-334c0-2.7-1.3-4.1-3.8-4.1h-15.1c-2.6,0-3.8,1.4-3.8,4.1V-271.9z
	"/>
<path d="M1293.2-338.1h-15.1c-2.6,0-3.8,1.4-3.8,4.1v94.6h-33v-101.4c0-8.8,2.1-15.2,6.2-19.4c4.2-4,12.4-6.1,24.5-6.2h21.3V-338.1z
	"/>
<path d="M1722.7-271.6h58.9v32.1h-96.1v-44.4c0-10.5,2.3-18,6.9-22.7c4.6-4.5,14.4-10.8,29.4-19c15-8.2,22.6-14.1,22.6-17.9v-26.4
	c0-2.9-1.4-4.4-4.2-4.4H1727c-2.9,0-4.3,1.5-4.3,4.4v17.7h-36.1V-378c0-9.7,2.3-16.9,6.9-21.5c4.6-4.5,13.6-6.8,27.1-6.9h27
	c13.5,0.1,22.5,2.4,27.1,6.9c4.6,4.7,6.9,11.8,6.9,21.5v38c0,10.5-2.3,18-6.9,22.7c-4.6,4.5-14.4,10.8-29.4,19
	c-15,8.2-22.6,13.7-22.6,16.7V-271.6z"/>
<path class="st12" d="M1425-285.1l46.9-121.3h54.2V-303h18.4v32.1h-18.4v31.4h-37.2v-31.4H1425V-285.1z M1491.2-303v-66.8
	l-23.7,66.8H1491.2z"/>
<g>
	<path class="st12" d="M-247.8-14.1c0-0.6,0.4-1.1,1.1-1.1h8.6c0.7,0,1.3,0.6,1.3,1.3v17c0,0.3,0.1,0.4,0.3,0.4
		c0.6,0,2.4-2.2,6.7-2.2c6.5,0,9.8,4.5,9.8,12.7v18.6c0,0.6-0.4,1.1-1.1,1.1h-8.6c-0.7,0-1.3-0.6-1.3-1.3V16c0-2.4-0.4-4.9-3-4.9
		c-2.5,0-2.9,2.5-2.9,4.9v16.7c0,0.6-0.4,1.1-1.1,1.1h-8.6c-0.7,0-1.3-0.6-1.3-1.3V-14.1z"/>
</g>
<path class="st12" d="M-300.4,34c0.8-0.9,1.5-1.7,2.2-2.4c0,0,0,0,0.1-0.1c3.4-4.3,5.1-8.8,5.2-13.5c0-5.7-2.1-10.5-6.2-14.5
	c-4.2-4-9.2-6.1-15-6.1c-5.7,0-10.4,2-14.4,6c-4,4-6,8.9-6,14.5v1.1c0,0.8,0.6,1.4,1.4,1.4h10.7c0.8,0,1.4-0.6,1.4-1.4V18
	c0-1.9,0.7-3.5,2-4.8c1.3-1.3,3-2,4.9-2c2.1,0,3.9,0.7,5.3,2c1.4,1.3,2.2,3,2.2,4.9c0,1.5-0.5,3-1.7,4.4l-25.9,28.8
	c-0.2,0.3-0.4,0.6-0.4,0.9v9c0,0.8,0.6,1.4,1.4,1.4h35.1l0,0h2c0.8,0,1.4-0.6,1.4-1.4v-9.4c0-0.8-0.6-1.4-1.4-1.4h-16.5
	c-1.2,0-1.9-1.5-1-2.4L-300.4,34z"/>
<path class="st12" d="M-294.4,44.5l17.8-46c0.2-0.6,0.9-1.1,1.5-1.1h18.4c0.9,0,1.6,0.7,1.6,1.6v37.1c0,0.9,0.7,1.6,1.6,1.6h3.9
	c0.9,0,1.6,0.7,1.6,1.6v9.2c0,0.9-0.7,1.6-1.6,1.6h-3.9c-0.9,0-1.6,0.7-1.6,1.6v9c0,0.9-0.7,1.6-1.6,1.6h-11.2
	c-0.9,0-1.6-0.7-1.6-1.6v-9c0-0.9-0.7-1.6-1.6-1.6h-21.7c-0.9,0-1.6-0.7-1.6-1.6v-3.6C-294.5,44.9-294.5,44.7-294.4,44.5z
	 M-268.6,36.1V21.2c0-1.8-2.6-2.3-3.2-0.6l-5.3,14.9c-0.4,1.1,0.4,2.2,1.6,2.2h5.3C-269.4,37.8-268.6,37.1-268.6,36.1z"/>
<g>
	<path class="st11" d="M314.8-1305.6v-72.7c0-23.2,16.8-36.6,40.9-36.6c24,0,40.7,13.3,40.7,36.6v11.8c0,1.7-1,2.9-2.9,2.9h-25.3
		c-1.7,0-2.9-1.1-2.9-2.9v-8.2c0-7.2-2.7-12.4-9.7-12.4c-7.2,0-9.7,5.1-9.7,12.4v65.5c0,7.2,2.5,12.4,9.7,12.4c7,0,9.7-5.1,9.7-12.4
		v-9.9c0-1.7-1.1-2.9-2.9-2.9h-4c-1.7,0-2.9-1-2.9-2.9v-22.3c0-1.7,1.1-2.9,2.9-2.9h35c1.7,0,2.9,1.1,2.9,2.9v41.5
		c0,23-16.8,36.6-40.7,36.6C331.6-1269.1,314.8-1282.6,314.8-1305.6z"/>
	<path class="st11" d="M411.7-1273.5v-137.1c0-1.7,1-2.9,2.9-2.9h54.3c1.7,0,2.9,1.1,2.9,2.9v21.9c0,1.7-1.1,2.9-2.9,2.9h-23
		c-1.7,0-2.9,1.1-2.9,2.9v23.8c0,1.7,1.1,2.9,2.9,2.9h23c1.7,0,2.9,1.1,2.9,2.9v21.9c0,1.7-1.1,2.9-2.9,2.9h-23
		c-1.7,0-2.9,1.1-2.9,2.9v24.8c0,1.7,1.1,2.9,2.9,2.9h23c1.7,0,2.9,1.1,2.9,2.9v21.9c0,1.7-1.1,2.9-2.9,2.9h-54.3
		C412.9-1270.6,411.7-1271.8,411.7-1273.5z"/>
	<path class="st11" d="M484.1-1306.2v-7.8c0-1.7,1-2.9,2.9-2.9h25.3c1.7,0,2.9,1.1,2.9,2.9v4.8c0,7.2,2.7,12.4,9.7,12.4
		c7.2,0,9.9-4.4,9.9-10.5v-4c0-6.9-7.8-12.2-20.6-19.8c-12.8-7.8-30.1-17.7-30.1-38.8v-7.8c0-23.8,16.8-37.1,40.7-37.1
		c24.2,0,40.9,13.3,40.9,37.1v7.8c0,1.7-1,2.9-2.9,2.9h-25.3c-1.9,0-2.9-1.1-2.9-2.9v-4c0-8-2.7-13.1-9.9-13.1
		c-7,0-9.7,4.6-9.7,10.5v4c0,6.9,7.6,12,20.6,19.6c12.8,7.8,30.1,17.9,30.1,39v7.8c0,23.6-16.8,37.1-40.9,37.1
		C500.8-1269.1,484.1-1282.6,484.1-1306.2z"/>
	<path class="st11" d="M591.1-1273.5v-109.1c0-1.7-1.1-2.9-2.9-2.9h-13.7c-1.7,0-2.9-1-2.9-2.9v-22.3c0-1.7,1.1-2.9,2.9-2.9h65.1
		c1.7,0,2.9,1,2.9,2.9v22.3c0,1.7-1.1,2.9-2.9,2.9h-14.5c-1.7,0-2.9,1.1-2.9,2.9v109.1c0,1.7-1,2.9-2.9,2.9h-25.5
		C592.2-1270.6,591.1-1271.8,591.1-1273.5z"/>
	<path class="st11" d="M650.3-1306.2v-71.6c0-23.8,16.8-37.1,40.9-37.1c24,0,40.7,13.3,40.7,37.1v71.6c0,23.6-16.8,37.1-40.7,37.1
		C667-1269.1,650.3-1282.6,650.3-1306.2z M700.9-1310v-64c0-8-2.5-13.1-9.7-13.1s-9.7,5.1-9.7,13.1v64c0,8,2.5,13.1,9.7,13.1
		S700.9-1302,700.9-1310z"/>
	<path class="st11" d="M747.7-1273.5v-137.1c0-1.7,1-2.9,2.9-2.9h38.1c24,0,40.7,13.5,40.7,37.1v16.6c0,9.9-4.2,21.5-10.9,27
		c-1.1,1-1.9,1.9-1.5,3.6l11.4,54.4c0.8,3-0.8,4-2.3,4h-23.8c-2.5,0-3.6,0-4.2-2.9l-8.4-46.3c-0.4-1.7-1.1-2.9-2.9-2.9h-5.1
		c-1.7,0-2.9,1.1-2.9,2.9v46.3c0,1.7-1,2.9-2.9,2.9h-25.5C748.9-1270.6,747.7-1271.8,747.7-1273.5z M788.7-1350.4
		c7.2,0,9.7-5.1,9.7-13.1v-8.9c0-7.8-2.5-12.9-9.7-12.9h-6.9c-1.7,0-2.9,1.1-2.9,2.9v29.3c0,1.7,1.1,2.9,2.9,2.9H788.7z"/>
</g>
<g>
	<path class="st12" d="M943.3-1381.9c0-0.5,0.3-0.9,0.9-0.9h7.3c0.6,0,1.1,0.5,1.1,1.1v14.6c0,0.2,0.1,0.3,0.2,0.3
		c0.5,0,2.1-1.9,5.8-1.9c5.6,0,8.4,3.9,8.4,10.9v19.4c0,0.5-0.3,0.9-0.9,0.9h-7.3c-0.6,0-1.1-0.5-1.1-1.1v-17.5
		c0-2.1-0.3-4.2-2.5-4.2c-2.2,0-2.5,2.1-2.5,4.2v17.7c0,0.5-0.3,0.9-0.9,0.9h-7.3c-0.6,0-1.1-0.5-1.1-1.1V-1381.9z"/>
</g>
<path class="st12" d="M883.2-1337.2c1-1.1,1.9-2.1,2.7-3c0,0,0-0.1,0.1-0.1c4.2-5.3,6.4-11,6.5-16.8c0-7-2.6-13.1-7.7-18.1
	c-5.2-5-11.4-7.6-18.7-7.6c-7,0-13,2.5-18,7.5c-5,5-7.4,11-7.4,18.1v1.4c0,1,0.8,1.8,1.8,1.8h13.3c1,0,1.8-0.8,1.8-1.8v-1.4
	c0-2.3,0.9-4.3,2.5-6c1.7-1.7,3.7-2.5,6.1-2.5c2.6,0,4.8,0.8,6.7,2.4c1.8,1.7,2.7,3.7,2.7,6.1c0,1.8-0.6,3.7-2.1,5.5l-32.3,35.9
	c-0.3,0.3-0.4,0.7-0.4,1.2v11.3c0,1,0.8,1.8,1.8,1.8h43.8l0,0h2.5c1,0,1.8-0.8,1.8-1.8v-11.8c0-1-0.8-1.8-1.8-1.8h-20.5
	c-1.5,0-2.3-1.8-1.3-3L883.2-1337.2z"/>
<path class="st12" d="M889.7-1324.2l22.2-57.4c0.3-0.8,1.1-1.3,1.9-1.3h22.9c1.1,0,2,0.9,2,2v46.2c0,1.1,0.9,2,2,2h4.8
	c1.1,0,2,0.9,2,2v11.5c0,1.1-0.9,2-2,2h-4.8c-1.1,0-2,0.9-2,2v11.2c0,1.1-0.9,2-2,2h-14c-1.1,0-2-0.9-2-2v-11.2c0-1.1-0.9-2-2-2h-27
	c-1.1,0-2-0.9-2-2v-4.5C889.5-1323.7,889.6-1323.9,889.7-1324.2z M921.7-1334.6v-18.6c0-2.3-3.2-2.9-4-0.7l-6.6,18.6
	c-0.5,1.3,0.5,2.7,1.9,2.7h6.6C920.8-1332.5,921.7-1333.4,921.7-1334.6z"/>
<polygon class="st12" points="1603.1,-392 1603.1,-363.3 1580.2,-363.3 1580.2,-392 1544.5,-392 1544.5,-303.1 1580.2,-303.1 
	1580.2,-331.7 1603.1,-331.7 1603.1,-303.1 1638.8,-303.1 1638.8,-392 "/>
<path class="st11" d="M940.3-1288.5v17.4c0,1.2-0.9,2.1-2.1,2.1h-94.8c-1.2,0-2.1-0.9-2.1-2.1v-17.4c0-1.2,0.9-2.1,2.1-2.1h94.8
	C939.4-1290.6,940.3-1289.7,940.3-1288.5z"/>
<circle class="st14" cx="2923.2" cy="-861.6" r="112.9"/>
<path class="st15" d="M-301.3-20.9c14.1-12.5,33.7-18.4,53.6-14.4c33.7,6.8,55.6,39.7,48.8,73.4c-6.8,33.7-39.7,55.6-73.4,48.8"/>
<rect x="1500.9" y="-1590" class="st16" width="944.3" height="409.1"/>
<g>
	<path class="st0" d="M1645.6-1354.2v-72.7c0-23.2,16.8-36.6,40.9-36.6c24,0,40.7,13.3,40.7,36.6v11.8c0,1.7-1,2.9-2.9,2.9h-25.3
		c-1.7,0-2.9-1.1-2.9-2.9v-8.2c0-7.2-2.7-12.4-9.7-12.4c-7.2,0-9.7,5.1-9.7,12.4v65.5c0,7.2,2.5,12.4,9.7,12.4c7,0,9.7-5.1,9.7-12.4
		v-9.9c0-1.7-1.1-2.9-2.9-2.9h-4c-1.7,0-2.9-1-2.9-2.9v-22.3c0-1.7,1.1-2.9,2.9-2.9h35c1.7,0,2.9,1.1,2.9,2.9v41.5
		c0,23-16.8,36.6-40.7,36.6C1662.4-1317.6,1645.6-1331.1,1645.6-1354.2z"/>
	<path class="st0" d="M1742.5-1322v-137.1c0-1.7,1-2.9,2.9-2.9h54.3c1.7,0,2.9,1.1,2.9,2.9v21.9c0,1.7-1.1,2.9-2.9,2.9h-23
		c-1.7,0-2.9,1.1-2.9,2.9v23.8c0,1.7,1.1,2.9,2.9,2.9h23c1.7,0,2.9,1.1,2.9,2.9v21.9c0,1.7-1.1,2.9-2.9,2.9h-23
		c-1.7,0-2.9,1.1-2.9,2.9v24.8c0,1.7,1.1,2.9,2.9,2.9h23c1.7,0,2.9,1.1,2.9,2.9v21.9c0,1.7-1.1,2.9-2.9,2.9h-54.3
		C1743.7-1319.1,1742.5-1320.3,1742.5-1322z"/>
	<path class="st0" d="M1814.9-1354.7v-7.8c0-1.7,1-2.9,2.9-2.9h25.3c1.7,0,2.9,1.1,2.9,2.9v4.8c0,7.2,2.7,12.4,9.7,12.4
		c7.2,0,9.9-4.4,9.9-10.5v-4c0-6.9-7.8-12.2-20.6-19.8c-12.8-7.8-30.1-17.7-30.1-38.8v-7.8c0-23.8,16.8-37.1,40.7-37.1
		c24.2,0,40.9,13.3,40.9,37.1v7.8c0,1.7-1,2.9-2.9,2.9h-25.3c-1.9,0-2.9-1.1-2.9-2.9v-4c0-8-2.7-13.1-9.9-13.1
		c-7,0-9.7,4.6-9.7,10.5v4c0,6.9,7.6,12,20.6,19.6c12.8,7.8,30.1,17.9,30.1,39v7.8c0,23.6-16.8,37.1-40.9,37.1
		C1831.6-1317.6,1814.9-1331.1,1814.9-1354.7z"/>
	<path class="st0" d="M1921.9-1322v-109.1c0-1.7-1.1-2.9-2.9-2.9h-13.7c-1.7,0-2.9-1-2.9-2.9v-22.3c0-1.7,1.1-2.9,2.9-2.9h65.1
		c1.7,0,2.9,1,2.9,2.9v22.3c0,1.7-1.1,2.9-2.9,2.9h-14.5c-1.7,0-2.9,1.1-2.9,2.9v109.1c0,1.7-1,2.9-2.9,2.9h-25.5
		C1923-1319.1,1921.9-1320.3,1921.9-1322z"/>
	<path class="st0" d="M1981.1-1354.7v-71.6c0-23.8,16.8-37.1,40.9-37.1c24,0,40.7,13.3,40.7,37.1v71.6c0,23.6-16.8,37.1-40.7,37.1
		C1997.8-1317.6,1981.1-1331.1,1981.1-1354.7z M2031.7-1358.6v-64c0-8-2.5-13.1-9.7-13.1s-9.7,5.1-9.7,13.1v64
		c0,8,2.5,13.1,9.7,13.1S2031.7-1350.6,2031.7-1358.6z"/>
	<path class="st0" d="M2078.6-1322v-137.1c0-1.7,1-2.9,2.9-2.9h38.1c24,0,40.7,13.5,40.7,37.1v16.6c0,9.9-4.2,21.5-10.9,27
		c-1.1,1-1.9,1.9-1.5,3.6l11.4,54.4c0.8,3-0.8,4-2.3,4h-23.8c-2.5,0-3.6,0-4.2-2.9l-8.4-46.3c-0.4-1.7-1.1-2.9-2.9-2.9h-5.1
		c-1.7,0-2.9,1.1-2.9,2.9v46.3c0,1.7-1,2.9-2.9,2.9h-25.5C2079.7-1319.1,2078.6-1320.3,2078.6-1322z M2119.5-1398.9
		c7.2,0,9.7-5.1,9.7-13.1v-8.9c0-7.8-2.5-12.9-9.7-12.9h-6.9c-1.7,0-2.9,1.1-2.9,2.9v29.3c0,1.7,1.1,2.9,2.9,2.9H2119.5z"/>
</g>
<path class="st17" d="M2187.7-1437.1c14.4-14.7,35.3-22.8,57.3-20c37.4,4.7,63.9,38.8,59.1,76.2c-4.7,37.4-38.8,63.9-76.2,59.1
	c-16-2-30-9.4-40.4-20.2"/>
<g>
	<path class="st12" d="M2977.5-922.8c0-0.7,0.4-1.2,1.2-1.2h10c0.9,0,1.5,0.7,1.5,1.5v20c0,0.3,0.2,0.4,0.3,0.4
		c0.7,0,2.8-2.6,7.9-2.6c7.6,0,11.5,5.3,11.5,14.9v26.6c0,0.7-0.4,1.2-1.2,1.2h-10c-0.9,0-1.5-0.7-1.5-1.5v-24
		c0-2.8-0.4-5.7-3.5-5.7c-3,0-3.4,2.9-3.4,5.7v24.3c0,0.7-0.4,1.2-1.2,1.2h-10c-0.9,0-1.5-0.7-1.5-1.5V-922.8z"/>
</g>
<path class="st12" d="M2895.3-862.5c1.4-1.5,2.6-2.9,3.7-4.2c0,0,0.1-0.1,0.1-0.1c5.7-7.3,8.8-15,8.9-23c0-9.6-3.6-17.9-10.6-24.7
	c-7.1-6.9-15.6-10.4-25.5-10.4c-9.6,0-17.8,3.4-24.6,10.3c-6.9,6.8-10.1,15.1-10.1,24.7v1.9c0,1.3,1.1,2.4,2.4,2.4h18.2
	c1.3,0,2.4-1.1,2.4-2.4v-1.9c0-3.2,1.2-5.9,3.5-8.2c2.3-2.3,5.1-3.4,8.3-3.4c3.6,0,6.6,1.1,9.1,3.3c2.4,2.3,3.7,5,3.7,8.3
	c0,2.5-0.8,5-2.8,7.5l-44.1,49.2c-0.4,0.4-0.6,1-0.6,1.6v15.4c0,1.3,1.1,2.4,2.4,2.4h59.9l0,0h3.4c1.3,0,2.4-1.1,2.4-2.4v-16.1
	c0-1.3-1.1-2.4-2.4-2.4h-28.1c-2.1,0-3.2-2.5-1.8-4L2895.3-862.5z"/>
<path class="st12" d="M2905.5-844.6l30.3-78.5c0.4-1.1,1.5-1.8,2.6-1.8h31.3c1.5,0,2.8,1.3,2.8,2.8v63.2c0,1.5,1.3,2.8,2.8,2.8h6.6
	c1.5,0,2.8,1.3,2.8,2.8v15.8c0,1.5-1.3,2.8-2.8,2.8h-6.6c-1.5,0-2.8,1.3-2.8,2.8v15.3c0,1.5-1.3,2.8-2.8,2.8h-19.2
	c-1.5,0-2.8-1.3-2.8-2.8v-15.3c0-1.5-1.3-2.8-2.8-2.8h-36.9c-1.5,0-2.8-1.3-2.8-2.8v-6.1C2905.3-843.9,2905.4-844.3,2905.5-844.6z
	 M2949.3-858.8v-25.4c0-3.1-4.4-3.9-5.4-0.9l-9,25.4c-0.6,1.8,0.7,3.7,2.6,3.7h9C2948.1-856,2949.3-857.3,2949.3-858.8z"/>
<g>
	<g>
		<path class="st12" d="M2269.7-1423c0-0.4,0.2-0.6,0.6-0.6h5.2c0.4,0,0.8,0.4,0.8,0.8v10.4c0,0.2,0.1,0.2,0.2,0.2
			c0.4,0,1.5-1.3,4.1-1.3c4,0,6,2.8,6,7.7v13.8c0,0.4-0.2,0.6-0.6,0.6h-5.2c-0.4,0-0.8-0.4-0.8-0.8v-12.5c0-1.5-0.2-3-1.8-3
			c-1.5,0-1.8,1.5-1.8,3v12.6c0,0.4-0.2,0.6-0.6,0.6h-5.2c-0.4,0-0.8-0.4-0.8-0.8V-1423z"/>
	</g>
	<path class="st12" d="M2217.5-1387.1c0.8-0.9,1.6-1.7,2.2-2.5c0,0,0,0,0.1-0.1c3.4-4.3,5.2-8.9,5.3-13.6c0-5.7-2.1-10.6-6.3-14.7
		c-4.2-4.1-9.3-6.2-15.2-6.2c-5.7,0-10.6,2-14.6,6.1c-4.1,4-6,9-6,14.7v1.1c0,0.8,0.6,1.4,1.4,1.4h10.8c0.8,0,1.4-0.6,1.4-1.4v-1.1
		c0-1.9,0.7-3.5,2.1-4.9c1.4-1.4,3-2,4.9-2c2.1,0,3.9,0.7,5.4,2c1.5,1.4,2.2,3,2.2,4.9c0,1.5-0.5,3-1.7,4.4l-26.2,29.2
		c-0.2,0.3-0.4,0.6-0.4,1v9.2c0,0.8,0.6,1.4,1.4,1.4h35.5l0,0h2c0.8,0,1.4-0.6,1.4-1.4v-9.6c0-0.8-0.6-1.4-1.4-1.4h-16.7
		c-1.2,0-1.9-1.5-1-2.4L2217.5-1387.1z"/>
	<path class="st12" d="M2223.5-1376.5l18-46.6c0.2-0.6,0.9-1.1,1.6-1.1h18.6c0.9,0,1.7,0.7,1.7,1.7v37.5c0,0.9,0.7,1.7,1.7,1.7h3.9
		c0.9,0,1.7,0.7,1.7,1.7v9.4c0,0.9-0.7,1.7-1.7,1.7h-3.9c-0.9,0-1.7,0.7-1.7,1.7v9.1c0,0.9-0.7,1.7-1.7,1.7h-11.4
		c-0.9,0-1.7-0.7-1.7-1.7v-9.1c0-0.9-0.7-1.7-1.7-1.7h-21.9c-0.9,0-1.7-0.7-1.7-1.7v-3.6C2223.4-1376.1,2223.5-1376.3,2223.5-1376.5
		z M2249.6-1385v-15.1c0-1.9-2.6-2.3-3.2-0.6l-5.4,15.1c-0.4,1.1,0.4,2.2,1.6,2.2h5.4C2248.8-1383.3,2249.6-1384,2249.6-1385z"/>
</g>
<polyline class="st15" points="-264.2,102.1 -277.8,86.3 -260.2,71.1 "/>
<g>
	<path class="st12" d="M800.7-13.5c0-0.9,0.5-1.4,1.4-1.4h11.6c1,0,1.8,0.8,1.8,1.8V10c0,0.4,0.2,0.5,0.4,0.5c0.9,0,3.3-3,9.1-3
		c8.8,0,13.3,6.1,13.3,17.2V50c0,0.9-0.5,1.4-1.4,1.4h-11.6c-1,0-1.8-0.8-1.8-1.8V27.4c0-3.3-0.5-6.6-4-6.6c-3.4,0-3.9,3.4-3.9,6.6
		V50c0,0.9-0.5,1.4-1.4,1.4h-11.6c-1,0-1.8-0.8-1.8-1.8V-13.5z"/>
</g>
<path class="st12" d="M741.2,34.2c0.9-0.9,1.6-1.8,2.3-2.6c0,0,0,0,0.1-0.1c3.6-4.6,5.5-9.4,5.6-14.3c0-6-2.2-11.2-6.6-15.4
	c-4.4-4.3-9.7-6.5-15.9-6.5c-6,0-11.1,2.1-15.3,6.4c-4.3,4.2-6.3,9.4-6.3,15.4v1.2c0,0.8,0.7,1.5,1.5,1.5h11.3
	c0.8,0,1.5-0.7,1.5-1.5v-1.2c0-2,0.7-3.7,2.2-5.1c1.4-1.4,3.2-2.1,5.2-2.1c2.2,0,4.1,0.7,5.7,2.1c1.5,1.4,2.3,3.1,2.3,5.2
	c0,1.6-0.5,3.1-1.8,4.7l-27.5,30.7c-0.2,0.3-0.4,0.6-0.4,1v9.6c0,0.8,0.7,1.5,1.5,1.5h37.3l0,0h2.2c0.8,0,1.5-0.7,1.5-1.5v-10
	c0-0.8-0.7-1.5-1.5-1.5h-17.5c-1.3,0-2-1.6-1.1-2.5L741.2,34.2z"/>
<path class="st12" d="M747.5,45.4l18.9-48.9c0.3-0.7,0.9-1.1,1.6-1.1h19.6c1,0,1.7,0.8,1.7,1.7v39.4c0,1,0.8,1.7,1.7,1.7h4.1
	c1,0,1.7,0.8,1.7,1.7v9.8c0,1-0.8,1.7-1.7,1.7h-4.1c-1,0-1.7,0.8-1.7,1.7v9.5c0,1-0.8,1.7-1.7,1.7h-12c-1,0-1.7-0.8-1.7-1.7v-9.5
	c0-1-0.8-1.7-1.7-1.7h-23c-1,0-1.7-0.8-1.7-1.7V46C747.4,45.8,747.5,45.6,747.5,45.4z M774.9,36.5V20.6c0-2-2.7-2.4-3.4-0.6
	l-5.6,15.8c-0.4,1.1,0.4,2.3,1.6,2.3h5.6C774.1,38.2,774.9,37.5,774.9,36.5z"/>
<path class="st18" d="M749.1-20.9c14.1-12.5,33.7-18.4,53.6-14.4c33.7,6.8,55.6,39.7,48.8,73.4c-6.8,33.7-39.7,55.6-73.4,48.8"/>
<polyline class="st18" points="786.2,102.1 772.6,86.3 790.3,71.1 "/>
<g>
	<path class="st12" d="M436,24c-5.2,0-10,1.1-14.7,3.3c-3.5,2-21.4,9.1-21.4,37.2v37.2h23.4V62.9c0-4.8,0.5-8,3.3-11.4
		c2.9-3.4,5.3-4.1,9.4-4.1H447V24L436,24z"/>
	<path class="st12" d="M217.7,101.7c-10.5,0-18.8-2.2-24.9-6.5c-6.1-4.3-9.3-10.5-9.8-18.4h21.1c0.4,2.2,1.7,4.1,4.1,5.7
		s5.7,2.4,10,2.4c3.1,0,5.7-0.5,8-1.4c2.2-0.9,3.4-2.4,3.4-4.5c0-1.8-0.9-3.4-2.6-4.5c-1.8-1.2-5-2-9.6-2.4l-5-0.5
		c-9.3-1-16.2-3.5-20.6-7.6c-4.4-4.1-6.6-9.3-6.6-15.5c0-5.4,1.3-9.8,4-13.2c2.6-3.5,6.3-6.1,10.9-7.8c4.7-1.8,10-2.6,15.9-2.6
		c9.8,0,17.6,2.1,23.6,6.4c6,4.3,9.1,10.4,9.5,18.4H228c-0.4-2.2-1.5-4.1-3.6-5.6c-2-1.5-4.9-2.3-8.7-2.3c-2.7,0-4.9,0.5-6.7,1.4
		c-1.7,1-2.6,2.3-2.6,4.1c0,1.8,0.8,3.2,2.4,4.1c1.6,0.9,4.2,1.5,7.8,2l5,0.5c9.3,1,16.5,3.5,21.5,7.7c5,4.2,7.6,9.6,7.6,16.4
		c0,5-1.3,9.3-4,12.9c-2.7,3.6-6.5,6.4-11.5,8.3C230.4,100.7,224.5,101.7,217.7,101.7z"/>
	<path class="st12" d="M253.8,42.3V24.9h52.7v17.4H253.8z M296.6,101.7c-7.9,0-14.2-1-18.9-2.9c-4.7-1.9-8.1-5.1-10.2-9.6
		c-2.1-4.5-3.2-10.5-3.2-18.2L264.5,1h22.1l-0.1,70.7c0,3.3,0.9,5.7,2.6,7.4c1.7,1.7,4.2,2.6,7.4,2.6h10v20H296.6z"/>
	<path class="st12" d="M352.6,101.7c-6.4,0-12.1-1-17.1-2.9c-5-1.9-9.2-4.6-12.7-8c-3.5-3.4-6.1-7.4-7.9-11.9
		c-1.8-4.5-2.7-9.3-2.7-14.4v-3.2c0-5.3,0.9-10.2,2.8-14.8c1.9-4.6,4.6-8.6,8.1-12c3.5-3.4,7.8-6.1,12.8-8c5-1.9,10.6-2.9,16.7-2.9
		c6.2,0,11.8,1,16.8,2.9c5,1.9,9.2,4.6,12.7,8c3.5,3.4,6.2,7.4,8.1,12c1.9,4.6,2.8,9.5,2.8,14.8v3.2c0,5.1-0.9,9.9-2.7,14.4
		c-1.8,4.5-4.4,8.4-7.9,11.9c-3.5,3.4-7.7,6.1-12.7,8C364.7,100.7,359,101.7,352.6,101.7z M352.6,81.7c3.7,0,6.7-0.8,9.2-2.4
		c2.4-1.6,4.2-3.8,5.5-6.7c1.2-2.9,1.8-6.1,1.8-9.7c0-3.8-0.6-7.1-1.9-9.9c-1.3-2.9-3.1-5.1-5.6-6.8c-2.5-1.7-5.4-2.5-9-2.5
		c-3.5,0-6.5,0.8-9,2.5c-2.5,1.7-4.3,3.9-5.6,6.8c-1.3,2.9-1.9,6.2-1.9,9.9c0,3.6,0.6,6.8,1.8,9.7c1.2,2.9,3.1,5.1,5.5,6.7
		C346,80.9,349,81.7,352.6,81.7z"/>
	<path class="st12" d="M171.8,42.9c-2.9-5.8-7.1-10.4-12.5-13.9c-5.4-3.5-12.1-5.3-19.9-5.3c-5.9,0-11.2,1-15.8,3.1
		c-4.7,2.1-8.6,4.9-11.8,8.4c-3.2,3.5-5.7,7.5-7.4,12.1c-1.7,4.5-2.6,9.2-2.6,14.2V64c0,4.7,0.9,9.4,2.6,13.8
		c1.7,4.5,4.2,8.5,7.4,12.1c3.2,3.6,7.2,6.5,12,8.6c4.7,2.1,10.2,3.2,16.3,3.2c6.2,0,11.7-1.1,16.5-3.3c4.8-2.2,8.7-5.2,11.9-9.1
		c3.1-3.9,5.2-8.3,6.3-13.2H153c-0.9,1.9-2.4,3.5-4.5,4.6c-2.2,1.1-4.9,1.7-8.2,1.7c-3.8,0-6.9-0.8-9.2-2.4
		c-2.4-1.6-4.1-3.8-5.3-6.8c-0.4-0.9-0.7-1.9-0.9-3h51.4l0-1h0v-7.6C176.2,54.9,174.7,48.6,171.8,42.9z M131.2,45.1
		c2.3-1.4,5.1-2.2,8.2-2.2c3.2,0,6,0.7,8.1,2.2c2.2,1.5,3.8,3.7,4.9,6.5c0.1,0.3,0.2,0.5,0.3,0.8h-27.1c0.1-0.3,0.2-0.5,0.3-0.8
		C127.1,48.8,128.9,46.6,131.2,45.1z"/>
	<path class="st12" d="M54.4,70.1h17.4v0c-1.6,2.3-3.7,4.2-6.5,5.8c-4,2.3-8.7,3.4-14.1,3.4c-4.3,0-8.1-0.7-11.5-2.1
		c-3.3-1.4-6.1-3.4-8.3-6c-2.2-2.6-3.9-5.6-5-9.1c-1.1-3.5-1.7-7.2-1.7-11.3c0-4,0.5-7.8,1.6-11.2c1.1-3.4,2.6-6.4,4.7-8.9
		c2.1-2.5,4.6-4.4,7.6-5.8c3-1.4,6.5-2,10.5-2c4.1,0,7.8,0.7,11,2c3.2,1.4,5.8,3.2,7.8,5.5c2,2.3,3.3,4.9,3.8,7.8h24.5
		c-0.7-7.6-3.1-14.2-7.2-20c-4.1-5.8-9.6-10.3-16.4-13.5C65.9,1.6,58,0,49.1,0c-8.3,0-15.5,1.4-21.6,4.3
		c-6.1,2.9-11.3,6.7-15.3,11.4C8.1,20.4,5,25.7,3,31.6c-2,5.8-3,11.7-3,17.7v2.9c0,5.5,1,11.2,2.9,17c1.9,5.8,5,11.2,9.1,16.1
		c4.1,4.9,9.4,8.9,15.9,11.9c6.5,3,14.3,4.5,23.3,4.5c9.8,0,18.3-1.9,25.8-5.6c7.4-3.7,15.3-11.3,19.3-18.2v-7.8v-9.8v-7.6H54.4
		V70.1z"/>
</g>
</svg>
