<?xml version="1.0" encoding="utf-8"?>
<!-- Generator: Adobe Illustrator 26.3.1, SVG Export Plug-In . SVG Version: 6.00 Build 0)  -->
<svg version="1.1" id="Camada_1" xmlns="http://www.w3.org/2000/svg" xmlns:xlink="http://www.w3.org/1999/xlink" x="0px" y="0px"
	 viewBox="0 0 575.5 88.7" style="enable-background:new 0 0 575.5 88.7;" xml:space="preserve">
<style type="text/css">
	.st0{fill:#0DB14B;}
	.st1{fill:#111111;}
	.st2{fill:#FFFFFF;}
	.st3{fill:none;stroke:#39B54A;stroke-width:10.2164;stroke-miterlimit:10;}
	.st4{fill:none;stroke:#39B54A;stroke-width:10.4562;stroke-miterlimit:10;}
	.st5{fill:none;stroke:#004D40;stroke-width:9.5848;stroke-miterlimit:10;}
	.st6{fill:none;stroke:#004D40;stroke-width:9.8799;stroke-miterlimit:10;}
	.st7{fill:#999999;}
	.st8{fill:#F4F4F4;}
	.st9{fill:#00AF10;}
	.st10{fill:none;stroke:#39B54A;stroke-width:9.7092;stroke-miterlimit:10;}
	.st11{fill:#00A651;}
	.st12{fill:#A6CE39;}
	.st13{fill:#333333;}
	.st14{fill:#0C0C0C;}
	.st15{fill:none;stroke:#333333;stroke-width:8;stroke-miterlimit:10;}
	.st16{fill:none;stroke:#0C0C0C;stroke-width:10.0518;stroke-linecap:round;stroke-linejoin:round;stroke-miterlimit:10;}
	.st17{fill:#161616;}
	.st18{fill:none;stroke:#FFFFFF;stroke-width:11;stroke-linecap:round;stroke-linejoin:round;stroke-miterlimit:10;}
	.st19{fill:none;stroke:#0C0C0C;stroke-width:6;stroke-linecap:round;stroke-linejoin:round;stroke-miterlimit:10;}
</style>
<rect x="1347.4" y="360.3" class="st0" width="200.2" height="200.2"/>
<rect x="1599.2" y="360.6" class="st1" width="200" height="200"/>
<circle class="st2" cx="1341.8" cy="-119.3" r="62.4"/>
<g>
	<g>
		<path class="st3" d="M-2613.4,3973.4c16.2,0,29.3,13.2,29.3,29.3s-13.2,29.3-29.3,29.3c-16.2,0-29.3-13.2-29.3-29.3
			S-2629.5,3973.4-2613.4,3973.4z"/>
		<path class="st3" d="M-2559.6,4032c8.1,0,14.6,6.5,14.6,14.6s-6.5,14.6-14.6,14.6c-8.1,0-14.6-6.5-14.6-14.6
			S-2567.7,4032-2559.6,4032z"/>
		<line class="st3" x1="-2613.4" y1="3973.4" x2="-2613.4" y2="3882.3"/>
		<line class="st3" x1="-2591.4" y1="4024.2" x2="-2560.3" y2="4045.7"/>
		<path class="st3" d="M-2564.5,4129.5v-39c0,0,0.3,0,9.8,0c19.5,0,39-19.7,39-39c0-9.6,0-22,0-22s10.8-2.9,16.6-4.4
			c7.4-2.2,9.1-10.2,5.8-16.9c-3-5.9-26.3-52.5-26.3-52.5s-13.6-70.1-93.7-70.1c-53.9,0-97.7,43.7-97.7,97.7
			c0,36.9,29.3,64.2,29.3,99v47.5"/>
	</g>
</g>
<path class="st3" d="M-2346.6,3924.7l-41.6-41.6c-4.6-4.6-12-4.6-16.6,0l-31.3,31.3c-6.4,6.4-8.6,16-5.5,24.7
	c8.5,23,29.4,69.6,70.1,110.3c40.6,40.6,87.2,61.5,110.3,70.1c8.6,3.2,18.2,1,24.7-5.5l31.3-31.3c4.6-4.6,4.6-12,0-16.6l-41.6-41.6
	c-4.6-4.6-12-4.6-16.6,0l-24.9,24.9c0,0-28.2-11.7-49.8-33.2c-21.6-21.6-33.3-49.8-33.3-49.8l24.9-24.9
	C-2342,3936.7-2342,3929.2-2346.6,3924.7z"/>
<g>
	<g>
		<path class="st3" d="M-2769.2,4027c1.4-7.1,2.1-14.3,2.1-21.7c0-63-51.1-114.1-114.1-114.1c-7.3,0-14.6,0.7-21.5,2
			c-10-6.2-21.9-9.8-34.6-9.8c-36.3,0-65.8,29.5-65.8,65.8c0,12.7,3.6,24.5,9.8,34.6c-1.3,7-2,14.1-2,21.5
			c0,63,51.1,114.1,114.1,114.1c7.4,0,14.7-0.7,21.7-2.1c9.9,6,21.5,9.4,33.9,9.4c36.3,0,65.8-29.5,65.8-65.8
			C-2759.8,4048.5-2763.2,4036.9-2769.2,4027z"/>
		<path class="st3" d="M-2880.2,4054.3c0,0,25.4-0.2,25.4-18.6c0-13.2-16.6-15.4-25.4-16.5s-59.7-5.6-60.1-45.8
			c0-37.9,45.8-42.2,57.2-42.2c16.9,0,59.7,11.2,55.7,36c-3.2,16-25,9.8-29.1,3c-6.9-8.8-11.5-13.5-28.1-13.5
			c-20.5,0-23.4,12.4-23.4,16s0,14.4,46.6,20c44.1,8.3,38.9,42.7,38.9,42.7s1.5,43.2-58.6,43.2c-53.9,0-67.4-38.2-53.5-46.6
			c13.2-8.1,19.1,2.5,25.7,9.7C-2902.5,4048.7-2896.6,4054.3-2880.2,4054.3z"/>
	</g>
</g>
<g>
	<g>
		<polygon class="st3" points="-3262.1,4022.6 -3392.5,4022.6 -3433.3,4055.2 -3433.3,4022.6 -3474,4022.6 -3474,3875.9 
			-3262.1,3875.9 		"/>
		<polygon class="st4" points="-3392.5,4023.2 -3433.9,4055.2 -3433.9,4023.2 -3474.9,4023.2 -3474.9,3966.6 -3504.5,3966.6 
			-3504.5,4092.9 -3391.9,4092.9 -3357.2,4119.7 -3357.2,4092.9 -3322.4,4092.9 -3322.4,4023.2 		"/>
	</g>
</g>
<g>
	<path class="st5" d="M-1872.7,3627.2h29.3c11.5,0,20.9-9.3,20.9-20.9l0,0c0-11.5-9.3-20.9-20.9-20.9h-8.4
		c-11.5,0-20.9-9.3-20.9-20.9l0,0c0-11.5,9.3-20.9,20.9-20.9h29.3"/>
	<line class="st5" x1="-1847.6" y1="3543.7" x2="-1847.6" y2="3518.6"/>
	<line class="st5" x1="-1847.6" y1="3652.3" x2="-1847.6" y2="3627.2"/>
	<polyline class="st5" points="-1780.7,3552.1 -1780.7,3510.2 -1739,3510.2 	"/>
	<polyline class="st5" points="-1914.4,3618.9 -1914.4,3660.6 -1956.2,3660.6 	"/>
	<path class="st5" d="M-1780.7,3510.2v12.3c15.5,16.5,25.1,38.5,25.1,62.9c0,50.7-41.2,91.9-91.9,91.9c-15.1,0-29.2-3.7-41.7-10.1
		v18.5c12.9,5.4,27,8.4,41.7,8.4c59.9,0,108.6-48.7,108.6-108.6c0-29.2-11.6-55.7-30.4-75.2L-1780.7,3510.2L-1780.7,3510.2z"/>
	<path class="st5" d="M-1914.4,3660.6v-12.3c-15.5-16.5-25.1-38.5-25.1-62.9c0-50.7,41.2-91.9,91.9-91.9c15.1,0,29.2,3.7,41.7,10.2
		v-18.5c-12.9-5.4-27-8.4-41.7-8.4c-59.9,0-108.6,48.7-108.6,108.6c0,29.2,11.6,55.7,30.4,75.2H-1914.4z"/>
</g>
<g>
	<rect x="-2406" y="3553.8" class="st6" width="51" height="51"/>
	<rect x="-2490.9" y="3553.8" class="st6" width="51" height="51"/>
	<rect x="-2406" y="3434.9" class="st6" width="51" height="51"/>
	<rect x="-2321.1" y="3553.8" class="st6" width="51" height="51"/>
	<polyline class="st6" points="-2295.6,3553.8 -2295.6,3519.9 -2465.5,3519.9 -2465.5,3553.8 	"/>
	<line class="st6" x1="-2380.5" y1="3553.8" x2="-2380.5" y2="3485.9"/>
</g>
<rect x="-1170.6" y="3413.4" class="st5" width="175.1" height="242.2"/>
<rect x="-1153.6" y="3429.5" class="st7" width="69.7" height="27.9"/>
<rect x="-1153.6" y="3483.6" class="st7" width="123.7" height="5.2"/>
<rect x="-1153.6" y="3470.5" class="st7" width="139.4" height="5.2"/>
<rect x="-1153.6" y="3510.6" class="st7" width="131.6" height="5.2"/>
<rect x="-1153.6" y="3523.7" class="st7" width="56.6" height="5.2"/>
<rect x="-1153.6" y="3496.6" class="st7" width="108" height="6.1"/>
<rect x="-1153.6" y="3553.3" class="st7" width="123.7" height="5.2"/>
<rect x="-1153.6" y="3582" class="st7" width="131.6" height="5.2"/>
<rect x="-1153.6" y="3567.2" class="st7" width="139.4" height="5.2"/>
<rect x="-1153.6" y="3596" class="st7" width="108" height="5.2"/>
<rect x="-970.2" y="3413.4" class="st5" width="175.1" height="242.2"/>
<circle class="st8" cx="-882.7" cy="3534.4" r="52.2"/>
<polygon class="st5" points="-858.7,3533.7 -882.2,3533.7 -882.2,3511 -884,3511 -884,3533.7 -906.6,3533.7 -906.6,3535.4 
	-884,3535.4 -884,3558.1 -882.2,3558.1 -882.2,3535.4 -858.7,3535.4 "/>
<g>
	<ellipse class="st5" cx="-1616.2" cy="3515.2" rx="57.6" ry="12.8"/>
	<g>
		<path class="st5" d="M-1558.6,3515.2v-38.4c0-7.1-25.8-12.8-57.6-12.8s-57.6,5.8-57.6,12.8v38.4"/>
		<polyline class="st5" points="-1558.6,3479 -1529.9,3464.1 -1616.2,3419.3 -1702.7,3464.1 -1673.8,3479 		"/>
		<line class="st5" x1="-1699.5" y1="3464.1" x2="-1699.5" y2="3534.5"/>
	</g>
</g>
<polygon class="st6" points="-1812.4,3893.1 -1902,3893.1 -1902,3773.5 -1842.3,3773.5 -1812.4,3803.4 "/>
<rect x="-1882.2" y="3858.2" class="st6" width="49.8" height="9.9"/>
<rect x="-1882.2" y="3838.3" class="st6" width="49.8" height="9.9"/>
<rect x="-1882.2" y="3818.3" class="st6" width="49.8" height="9.9"/>
<polyline class="st6" points="-1842.3,3775.2 -1842.3,3803.4 -1814,3803.4 "/>
<polygon class="st9" points="-919.4,3781.1 -935.7,3764.8 -981.1,3810.2 -1005.2,3786.1 -1021.5,3802.4 -981.2,3842.7 
	-981.1,3842.7 -981,3842.7 "/>
<g>
	<polyline class="st3" points="-2938.7,3257.1 -2893.3,3351.9 -2824.2,3351.9 	"/>
	<path class="st3" d="M-2763.6,3335c0,65.2-52.8,118-118,118s-118-52.8-118-118c0-65.2,52.8-118,118-118
		C-2816.4,3217.1-2763.6,3269.9-2763.6,3335z"/>
</g>
<g>
	<path class="st10" d="M-3282.9,3308.1c0,76.5-100.1,144.1-100.1,144.1s-100.1-65.6-100.1-144.1c0-55.3,44.8-100.1,100.1-100.1
		S-3282.9,3252.8-3282.9,3308.1z"/>
	<path class="st10" d="M-3344.1,3307.7c0,21.5-17.4,38.9-38.9,38.9s-38.9-17.4-38.9-38.9s17.4-38.9,38.9-38.9
		S-3344.1,3286.2-3344.1,3307.7z"/>
</g>
<path class="st11" d="M-1604.4,37.4L-1604.4,37.4c-4.8-5.1-12.7-9.8-24.4-14.4c-9.9-3.9-13-6.3-13.9-7.1c-1.3-1.2-1.9-2.3-1.9-3.4
	c0-0.8,0.1-1.8,1.7-3.2c1.4-1.2,3-1.8,5.1-1.9c4.5-0.2,9.6,1.9,15.3,6.3l0.8,0.6l20.1-20.2l-0.5-0.4c-11.9-9.1-24.1-13.5-36.2-13
	c-10.7,0.5-19.7,3.9-26.6,10.2c-7,6.4-10.3,14.3-9.9,23.3c0.3,7,2.9,13.1,7.6,18.4c4.5,5,12.2,9.6,23.3,14
	c11.3,4.4,14.2,6.8,14.6,7.2c1.2,1.2,1.8,2.4,1.9,3.9c0.1,1.9-0.7,3.4-2.6,5c-2.1,1.8-4.5,2.7-7.7,2.8c-5.1,0.2-10.2-2-15.6-6.9
	l-1.8-1.6c-2.9-2.6-7.4-2.4-10.1,0.4l-9.8,10.5c-2.6,2.8-2.6,7.2,0.1,9.9l0,0c4.7,4.8,10.6,8.5,17.4,11s14.1,3.6,21.5,3.3
	c11.5-0.5,21.2-4.3,28.7-11.3s11.1-15.5,10.7-25.1C-1596.8,49.1-1599.4,42.8-1604.4,37.4z"/>
<path class="st11" d="M-1451-18.7c15.1,0,28,5.4,38.8,16.2c10.7,10.9,16.1,24,16.1,39.4c0,15.3-5.4,28.4-16.1,39.3
	c-10.7,10.8-23.6,16.3-38.8,16.3c-15.2,0-28.1-5.4-38.9-16.3c-10.7-10.9-16.1-24-16.1-39.3c0-15.4,5.3-28.5,16.1-39.4
	C-1479.2-13.3-1466.2-18.7-1451-18.7 M-1451,61.9c6.7,0,12.3-2.4,17-7.2c4.7-4.9,7.1-10.8,7.1-17.7c0-6.9-2.4-12.9-7.1-17.8
	c-4.7-4.8-10.4-7.2-17-7.2c-6.7,0-12.4,2.4-17.1,7.2c-4.8,4.9-7.1,10.9-7.1,17.8s2.4,12.8,7.1,17.7
	C-1463.4,59.5-1457.7,61.9-1451,61.9"/>
<path class="st11" d="M-1719.7,53.1c-0.6,0.8-0.9,1.2-1.6,1.8c-4.7,4.8-10.3,7.1-16.9,7.1c-6.7,0-12.3-2.5-17-7.3
	c-2.1-2.1-3.7-4.5-4.8-7c-0.4-0.8,0.2-1.8,1.1-1.8l74.3,0c0.7,0,1.3-0.6,1.2-1.3l0-7.7c0-15.4-5.4-28.5-16.1-39.4
	c-10.7-10.8-23.6-16.3-38.7-16.2c-15.2,0-28.1,5.4-38.8,16.3s-16,24-16,39.4c-0.1,15.3,5.3,28.4,16,39.3
	c10.7,10.8,23.6,16.3,38.8,16.2c15.1,0,27.9-5.1,38.5-16c2.4-2.3,4.1-4.2,6-6.9c0.4-0.6,0.2-1.4-0.4-1.8L-1719.7,53.1L-1719.7,53.1z
	 M-1738.2,12.1c6.7,0,12.4,2.4,17,7.2l0,0c0.7,0.8,0.1,2.1-0.9,2.1l-32.2,0c-1.1,0-1.7-1.3-0.9-2.1v0
	C-1750.5,14.5-1744.9,12.1-1738.2,12.1z"/>
<path class="st11" d="M-1575.4-19.3h52.1c3,0,5.4,2.4,5.4,5.4V6.3c0,3-2.4,5.4-5.4,5.4h-52.1c-3,0-5.4-2.4-5.4-5.4v-20.3
	C-1580.8-16.9-1578.4-19.3-1575.4-19.3z"/>
<path class="st11" d="M-1332-19.3c-7.4,0-14.3,1.6-21,4.7c-0.1,0.1-0.2,0.1-0.4,0.2c-5.5,3-30.7,13.4-30.7,53.5v48.5
	c0,2.8,2.3,5.1,5.1,5.1h20.8c2.8,0,5.1-2.3,5.1-5.1V36.8c0-6.9,2-12.8,6.1-17.8c4.2-4.9,9-7.3,14.9-7.3h10.9c2.8,0,5.1-2.3,5.1-5.1
	v-20.8c0-2.8-2.3-5.1-5.1-5.1L-1332-19.3z"/>
<path class="st11" d="M-1536.1,53.9c0,0.2-1,0.7-1,0.9c0,1.2-1.4,1.9-1.9,2.9c-1.1,2-3.1,3.3-5.6,3.3c-3.4,0-6.4-2.6-6.4-5.9V-52.5
	c0-2.6-2.1-4.8-4.8-4.8h-21.4c-2.6,0-4.8,2.1-4.8,4.8V56.7h-0.2c1,20,17.4,35.5,37.5,35.5c13.5,0,25.3-7.2,31.9-17.9
	c1.4-2.3,0.8-5.2-1.5-6.6L-1536.1,53.9z"/>
<g>
	<path class="st12" d="M-1122-354.6L-1122-354.6h-22.6l-63.4,93.3v25.7h64v31h31v-150H-1122z M-1145-265.6h-22l22-32.7V-265.6
		L-1145-265.6z"/>
	<path class="st12" d="M-1221.5-270.5c1.9-2,3.6-4,5.1-5.7c7.8-9.9,11.9-20.3,12.1-31.1c0-13-4.8-24.2-14.3-33.4
		c-9.6-9.3-21.1-14-34.5-14c-13,0-24,4.6-33.2,13.9c-9.3,9.2-13.7,20.4-13.7,33.4v5.8h31v-5.8c0-4.3,1.6-8,4.7-11.1
		c3.1-3.1,6.9-4.6,11.2-4.6c4.8,0,8.9,1.5,12.3,4.5c3.3,3.1,5,6.8,5,11.2c0,3.4-1.1,6.8-3.8,10.1L-1300-230v25.3h84.1l0,0h7.9v-31
		h-43.9L-1221.5-270.5z"/>
	<path class="st12" d="M-1039.1-311.8c-6.7-3.2-14-4.8-21.5-4.8h-11.4v-38h-29.3h-1.7v150h1.7h29.3v-81h11.4c5.9,0,11,2.4,15.2,7.3
		c4.2,4.9,6.4,10.8,6.4,17.8v55.9h31v-53.6C-1008-298.6-1034-308.9-1039.1-311.8z"/>
</g>
<rect x="992.6" y="1554.6" class="st13" width="210.7" height="210.7"/>
<rect x="992.6" y="1343.9" class="st0" width="210.7" height="210.7"/>
<path class="st2" d="M1173.1,1660.7h-56.8h-1l18.2,24.8c-2.7,3.7-6.5,7.3-10.3,10c-7.1,5.1-15.2,8.1-25.2,8.1l0,0
	c-9,0-18.4-3.1-25.6-8.3c-7.4-5.4-13-13-15.9-21.8c-1.4-4.3-2.1-8.8-2.1-13.5s0.7-9.3,2.1-13.5c1-2.9,2.2-5.7,3.7-8.3l37.8,22.2
	l31.8-18.6c-1-1.7-2.1-3.4-3.2-5.1l-28.5,16.7l-34.4-20.2c2.5-3.2,5.5-6.1,8.8-8.5c7.2-5.2,16.6-8.3,25.6-8.3v-0.1
	c10,0,18.4,3.4,25.6,8.4h0.1c4.9,4,9,8.1,12,13.4l29.8-17.4c-5.4-9.2-13.1-17.5-21.7-23.9l0,0c-0.1-0.1-0.2,0-0.3-0.1h-0.1l0,0
	c-12.8-9-28.4-14.8-45.4-14.8v-0.1c-17,0-33,5.5-45.9,14.9c-13.2,9.6-23.3,23.2-28.5,39.1c-2.5,7.6-3.8,15.7-3.8,24.2
	s1.3,16.6,3.8,24.2c5.2,15.9,15.3,29.5,28.5,39.1c12.9,9.4,28.9,14.9,45.9,14.9l0,0c17,0,32.7-5.5,45.5-14.7l0,0l0.1-0.1
	c0.1-0.1,0.2-0.1,0.3-0.2l0,0c13-9.6,23.4-23.2,28.5-38.8c2.4-7.5,3.8-15.6,3.8-23.6L1173.1,1660.7L1173.1,1660.7z"/>
<rect x="-250.2" y="1160.7" class="st14" width="602.6" height="602.6"/>
<rect x="-248.8" y="256.1" class="st14" width="1207.6" height="450.2"/>
<rect x="-248.8" y="685.5" class="st0" width="1207.6" height="450.2"/>
<rect x="-1778.2" y="235.5" class="st14" width="1207.6" height="450.2"/>
<rect x="-1778.2" y="685.5" class="st0" width="1207.6" height="450.2"/>
<rect x="352.1" y="1160.7" class="st0" width="602.6" height="602.6"/>
<path class="st13" d="M-277.4-241.2L-277.4-241.2c-4.8-5.1-12.7-9.8-24.4-14.4c-9.9-3.9-13-6.3-13.9-7.1c-1.3-1.2-1.9-2.3-1.9-3.4
	c0-0.8,0.1-1.8,1.7-3.2c1.4-1.2,3-1.8,5.1-1.9c4.5-0.2,9.6,1.9,15.3,6.3l0.8,0.6l20.1-20.2l-0.5-0.4c-11.9-9.1-24.1-13.5-36.2-13
	c-10.7,0.5-19.7,3.9-26.6,10.2c-7,6.4-10.3,14.3-9.9,23.3c0.3,7,2.9,13.1,7.6,18.4c4.5,5,12.2,9.6,23.3,14
	c11.3,4.4,14.2,6.8,14.6,7.2c1.2,1.2,1.8,2.4,1.9,3.9c0.1,1.9-0.7,3.4-2.6,5c-2.1,1.8-4.5,2.7-7.7,2.8c-5.1,0.2-10.2-2-15.6-6.9
	l-7-6.3l-19.3,20.7l4.8,4.9c4.7,4.8,10.6,8.5,17.4,11s14.1,3.6,21.5,3.3c11.5-0.5,21.2-4.3,28.7-11.3s11.1-15.5,10.7-25.1
	C-269.8-229.5-272.4-235.8-277.4-241.2z"/>
<path class="st13" d="M-119-297.3c15.1,0,28,5.4,38.8,16.2c10.7,10.9,16.1,24,16.1,39.4c0,15.3-5.4,28.4-16.1,39.3
	c-10.7,10.8-23.6,16.3-38.8,16.3s-28.1-5.4-38.9-16.3c-10.7-10.9-16.1-24-16.1-39.3c0-15.4,5.3-28.5,16.1-39.4
	C-147.2-291.9-134.2-297.3-119-297.3 M-119-216.7c6.7,0,12.3-2.4,17-7.2c4.7-4.9,7.1-10.8,7.1-17.7s-2.4-12.9-7.1-17.8
	c-4.7-4.8-10.4-7.2-17-7.2c-6.7,0-12.4,2.4-17.1,7.2c-4.8,4.9-7.1,10.9-7.1,17.8c0,6.9,2.4,12.8,7.1,17.7
	C-131.4-219.1-125.7-216.7-119-216.7"/>
<path class="st13" d="M-391.2-236.9c-0.1,1-0.2,1.5-0.5,2.4c-1.7,6.5-5.4,11.3-11.1,14.6c-5.8,3.3-11.9,4-18.4,2.2
	c-3.5-1-6.6-2.6-9.2-4.8l67.1-38.7l-4.5-7.7c-7.7-13.3-18.8-22.1-33.5-26.1c-14.7-4-28.6-2.3-41.6,5.3
	c-13.2,7.6-21.7,18.7-25.5,33.5c-3.8,14.8-1.9,28.8,5.8,42.1c7.6,13.3,18.8,21.9,33.5,26c14.7,4,28.6,2.3,41.7-5.3
	c13.1-7.5,21.6-18.4,25.4-33.1c1-3.6,1.6-6.3,1.8-10.3L-391.2-236.9L-391.2-236.9z M-427.7-263.2c5.8-3.3,11.9-4.1,18.3-2.3
	c0.9,0.3,1.7,0.6,2.6,0.9l-32.6,18.8c0.1-0.9,0.3-1.8,0.5-2.7C-437.2-255-433.5-259.9-427.7-263.2z"/>
<g>
	<path class="st13" d="M-484.6-259.9h-54.3h-0.9l17.4,23.6c-2.6,3.6-5.6,6.7-9.2,9.3c-6.9,5-15.3,7.8-24.3,7.8l0,0
		c-10,0-17.9-2.9-24.7-7.9c-7.2-5.2-12.7-12.4-15.5-20.9c-1.3-4.1-2.1-8.4-2.1-12.9s0.7-8.9,2-12.9c2.8-8.5,8.1-15.4,15.2-20.5
		c6.9-5,15.2-7.5,24.5-7.5l0,0c9.3,0,17.7,2.6,24.6,7.6c4.7,3.4,8.6,7.6,11.6,12.6l28.5-16.8c-5.2-9-12.3-16.9-20.7-23
		c-12.3-9-27.5-14.6-44-14.6c-16.4,0-31.6,5.4-43.9,14.4c-12.7,9.1-22.3,22.3-27.3,37.4c-2.3,7.3-3.6,15.1-3.6,23.2
		s1.3,15.9,3.7,23.2c4.9,15.2,14.3,28.2,27,37.4c12.3,9,28.7,14.2,43.7,14.2l0,0c17,0,32-5.3,44.4-14.3c12.6-9.2,22.4-21.9,27.3-37
		c2.3-7.2,3.6-14.4,3.7-22.4H-484.6z"/>
	<path class="st13" d="M-529.2-283.4l-27.3,16l-43.2-25.3c-1.1,1.6-2.1,3.2-3.1,4.9l46.3,27.2l30.4-17.8
		C-527-280.1-528.1-281.8-529.2-283.4z"/>
</g>
<path class="st13" d="M0-297.9c-7.5,0-14.4,1.6-21.2,4.8c-5.1,2.9-30.9,13.1-30.9,53.6v53.6h31v-55.9c0-6.9,2-12.8,6.1-17.8
	c4.2-4.9,9-7.3,14.9-7.3h16v-31H0z"/>
<path class="st13" d="M-204.1-224.7c0,0.2-3.2,7.1-8.5,7.1c-3.4,0-6.4-2.6-6.4-5.9v-43.4h33v-31h-33v-38h-31v38h-11v31h11
	c0,0,0,18.1,0,45s17.2,35.5,37.3,35.5c15.2,0,28.3-9.2,34.2-22.2L-204.1-224.7z"/>
<path class="st0" d="M210-335.9L210-335.9h-22.6L124-242.6v25.7h64v31h31v-150H210z M187-246.9h-22l22-32.7V-246.9z"/>
<path class="st0" d="M110.5-251.8c1.9-2,3.6-4,5.1-5.7c7.8-9.9,11.9-20.3,12.1-31.1c0-13-4.8-24.2-14.3-33.4
	c-9.6-9.3-21.1-14-34.5-14c-13,0-24,4.6-33.2,13.9c-9.3,9.2-13.7,20.4-13.7,33.4v5.8h31v-5.8c0-4.3,1.6-8,4.7-11.1
	c3.1-3.1,6.9-4.6,11.2-4.6c4.8,0,8.9,1.5,12.3,4.5c3.3,3.1,5,6.8,5,11.2c0,3.4-1.1,6.8-3.8,10.1L32-211.3v25.3h84.1l0,0h7.9v-31
	H80.1L110.5-251.8z"/>
<path class="st0" d="M1358.9-317.2c2.1-2.2,4-4.5,5.7-6.3c8.7-11,13.2-22.6,13.5-34.6c0-14.5-5.3-26.9-15.9-37.2
	c-10.7-10.3-23.5-15.6-38.4-15.6c-14.5,0-26.7,5.1-36.9,15.5c-10.3,10.2-15.2,22.7-15.2,37.2v6.5h34.5v-6.5c0-4.8,1.8-8.9,5.2-12.4
	c3.4-3.4,7.7-5.1,12.5-5.1c5.3,0,9.9,1.7,13.7,5c3.7,3.4,5.6,7.6,5.6,12.5c0,3.8-1.2,7.6-4.2,11.2l-67.2,74.9v28.2h93.6l0,0h8.8
	v-31.4h-54.1L1358.9-317.2z"/>
<path class="st0" d="M292.9-293.1c-6.7-3.2-14-4.8-21.5-4.8H260v-38h-29.3H229v150h1.7H260v-81h11.4c5.9,0,11,2.4,15.2,7.3
	c4.2,4.9,6.4,10.8,6.4,17.8v55.9h31v-53.6C324-279.9,298-290.2,292.9-293.1z"/>
<g>
	<path class="st13" d="M-809.4-3084.6L-809.4-3084.6c-4.8-5.1-12.7-9.8-24.4-14.4c-9.9-3.9-13-6.3-13.9-7.1
		c-1.3-1.2-1.9-2.3-1.9-3.4c0-0.8,0.1-1.8,1.7-3.2c1.4-1.2,3-1.8,5.1-1.9c4.5-0.2,9.6,1.9,15.3,6.3l0.8,0.6l20.1-20.2l-0.5-0.4
		c-11.9-9.1-24.1-13.5-36.2-13c-10.7,0.5-19.7,3.9-26.6,10.2c-7,6.4-10.3,14.3-9.9,23.3c0.3,7,2.9,13.1,7.6,18.4
		c4.5,5,12.2,9.6,23.3,14c11.3,4.4,14.2,6.8,14.6,7.2c1.2,1.2,1.8,2.4,1.9,3.9c0.1,1.9-0.7,3.4-2.6,5c-2.1,1.8-4.5,2.7-7.7,2.8
		c-5.1,0.2-10.2-2-15.6-6.9l-7-6.3l-19.3,20.7l4.8,4.9c4.7,4.8,10.6,8.5,17.4,11c6.8,2.5,14.1,3.6,21.5,3.3
		c11.5-0.5,21.2-4.3,28.7-11.3s11.1-15.5,10.7-25.1C-801.8-3072.9-804.4-3079.2-809.4-3084.6z"/>
	<path class="st13" d="M-651-3140.7c15.1,0,28,5.4,38.8,16.2c10.7,10.9,16.1,24,16.1,39.4c0,15.3-5.4,28.4-16.1,39.3
		c-10.7,10.8-23.6,16.3-38.8,16.3s-28.1-5.4-38.9-16.3c-10.7-10.9-16.1-24-16.1-39.3c0-15.4,5.3-28.5,16.1-39.4
		C-679.2-3135.3-666.2-3140.7-651-3140.7 M-651-3060.1c6.7,0,12.3-2.4,17-7.2c4.7-4.9,7.1-10.8,7.1-17.7s-2.4-12.9-7.1-17.8
		c-4.7-4.8-10.4-7.2-17-7.2c-6.7,0-12.4,2.4-17.1,7.2c-4.8,4.9-7.1,10.9-7.1,17.8c0,6.9,2.4,12.8,7.1,17.7
		C-663.4-3062.5-657.7-3060.1-651-3060.1"/>
	<path class="st13" d="M-923.2-3080.3c-0.1,1-0.2,1.5-0.5,2.4c-1.7,6.5-5.4,11.3-11.1,14.6c-5.8,3.3-11.9,4-18.4,2.2
		c-3.5-1-6.6-2.6-9.2-4.8l67.1-38.7l-4.5-7.7c-7.7-13.3-18.9-22-33.6-26.1c-14.7-4-28.6-2.3-41.6,5.3c-13.2,7.6-21.7,18.7-25.5,33.5
		s-1.9,28.8,5.8,42.1c7.6,13.3,18.8,21.9,33.5,26c14.7,4,28.6,2.3,41.7-5.3c13.1-7.5,21.6-18.4,25.4-33.1c1-3.6,1.6-6.3,1.8-10.3
		L-923.2-3080.3L-923.2-3080.3z M-959.7-3106.6c5.8-3.3,11.9-4.1,18.3-2.3c0.9,0.3,1.7,0.6,2.6,0.9l-32.6,18.8
		c0.1-0.9,0.3-1.8,0.5-2.7C-969.2-3098.4-965.5-3103.3-959.7-3106.6z"/>
	<g>
		<path class="st13" d="M-1016.6-3103.3h-54.3h-0.9l17.4,23.6c-2.6,3.6-5.6,6.7-9.2,9.3c-6.9,5-15.3,7.8-24.3,7.8l0,0
			c-10,0-17.9-2.9-24.7-7.9c-7.1-5.1-12.6-12.4-15.4-20.9c-1.3-4.1-2.1-8.4-2.1-12.9s0.7-8.9,2-12.9c2.8-8.5,8.1-15.4,15.2-20.5
			c6.9-5,15.2-7.5,24.5-7.5l0,0c9.3,0,17.7,2.6,24.6,7.6c4.7,3.4,8.6,7.6,11.6,12.6l28.5-16.8c-5.2-9-12.3-16.9-20.7-23
			c-12.3-9-27.5-14.5-44-14.5c-16.4,0-31.6,5.4-43.9,14.4c-12.6,9.2-22.3,22.3-27.2,37.5c-2.4,7.3-3.6,15.1-3.6,23.2
			c0,8.1,1.3,15.9,3.7,23.2c4.9,15.2,14.3,28.2,27,37.4c12.3,9,28.7,14.2,43.7,14.2l0,0c17,0,32-5.3,44.4-14.3
			c12.6-9.2,22.4-21.9,27.3-37c2.3-7.2,3.6-14.4,3.7-22.4h-3.3V-3103.3z"/>
		<path class="st13" d="M-1061.2-3126.8l-27.3,16l-43.2-25.4c-1.1,1.6-2.1,3.2-3.1,4.9l46.3,27.2l30.4-17.8
			C-1059-3123.5-1060.1-3125.2-1061.2-3126.8z"/>
	</g>
	<rect x="-793" y="-3141.3" class="st13" width="75" height="31"/>
	<path class="st13" d="M-532-3141.3c-7.5,0-14.4,1.6-21.2,4.8c-5.1,2.9-30.9,13.1-30.9,53.6v53.6h31v-55.9c0-6.9,2-12.8,6.1-17.8
		c4.2-4.9,9-7.3,14.9-7.3h16v-31L-532-3141.3L-532-3141.3z"/>
	<path class="st13" d="M-736.1-3068.1c0,0.2-1,0.7-1,0.9c0,1.2-1.4,1.9-1.9,2.9c-1.1,2-3.1,3.3-5.6,3.3c-3.4,0-6.4-2.6-6.4-5.9
		v-112.4h-31v114h-0.2c1,20,17.4,35.5,37.5,35.5c15.2,0,28.3-9.2,34.2-22.2L-736.1-3068.1z"/>
</g>
<g>
	<path class="st2" d="M-322-3179.3L-322-3179.3h-22.6L-408-3086v25.7h64v31h31v-150H-322z M-345-3090.3h-22l22-32.7V-3090.3z"/>
	<path class="st2" d="M-421.5-3095.2c1.9-2,3.6-4,5.1-5.7c7.8-9.9,11.9-20.3,12.1-31.1c0-13-4.8-24.2-14.3-33.4
		c-9.6-9.3-21.1-14-34.5-14c-13,0-24,4.6-33.2,13.9c-9.3,9.2-13.7,20.4-13.7,33.4v5.8h31v-5.8c0-4.3,1.6-8,4.7-11.1
		s6.9-4.6,11.2-4.6c4.8,0,8.9,1.5,12.3,4.5c3.3,3.1,5,6.8,5,11.2c0,3.4-1.1,6.8-3.8,10.1l-60.4,67.3v25.3h84.1l0,0h7.9v-31h-43.9
		L-421.5-3095.2z"/>
	<path class="st2" d="M-239.1-3136.5c-6.7-3.2-14-4.8-21.5-4.8H-272v-38h-29.3h-1.7v150h1.7h29.3v-81h11.4c5.9,0,11,2.4,15.2,7.3
		c4.2,4.9,6.4,10.8,6.4,17.8v55.9h31v-53.6C-208-3123.3-234-3133.6-239.1-3136.5z"/>
</g>
<rect x="-95.3" y="-3192" class="st0" width="934.2" height="618.3"/>
<g>
	<path class="st13" d="M1098,1282.7L1098,1282.7c-9,0-18.4-3.1-25.6-8.3c-7.4-5.4-13-13-15.9-21.8c-1.4-4.3-2.1-8.8-2.1-13.5
		s0.7-9.3,2.1-13.5c2.9-8.9,8.4-16.3,15.8-21.7c7.2-5.2,16.2-8.2,25.5-8.2l0,0c9.8,0,18.5,3,25.7,8.2l20.3-28
		c-12.9-9.4-28.9-15-45.9-15l0,0c-17,0-33,5.5-45.9,14.9c-13.2,9.6-23.3,23.2-28.5,39.1c-2.5,7.6-3.8,15.7-3.8,24.2
		c0,8.4,1.3,16.6,3.8,24.2c5.2,15.9,15.2,29.2,28.4,38.8c12.9,9.4,28.7,14.6,45.8,14.6l0,0c17.1,0,33.1-5.3,46-14.7l-20.3-27.8
		C1116.4,1279.4,1108,1282.7,1098,1282.7z"/>
	<path class="st13" d="M1173.1,1239.7h-56.8h-1l18.2,24.8c-2.7,3.8-6,7.1-9.8,9.8l20.3,27.9c13.2-9.6,23.2-23.1,28.4-38.9
		c2.4-7.5,3.8-15.6,3.8-23.6L1173.1,1239.7L1173.1,1239.7z"/>
	<path class="st13" d="M1135.7,1217.2l29.8-17.4c-5.5-9.4-12.8-17.5-21.6-23.9l-20.3,27.9
		C1128.6,1207.4,1132.7,1211.9,1135.7,1217.2z"/>
	<path class="st13" d="M1126.5,1215.7l-28.5,16.7l-45.1-26.5c-1.1,1.7-2.2,3.4-3.3,5.1l48.4,28.4l31.8-18.6
		C1128.8,1219,1127.7,1217.3,1126.5,1215.7z"/>
</g>
<g>
	<path class="st13" d="M289-2772.4L289-2772.4c-19,0-39.7-6.6-55.1-17.8c-15.9-11.5-28.1-27.9-34.3-47c-3-9.2-4.6-18.9-4.6-29.1
		c0-10.1,1.6-19.9,4.6-29.1c6.2-19.1,18.4-35.4,34.3-47c15.5-11.2,36.1-17.8,55.1-17.8l0,0c22,0,39.7,6.7,55.1,18l43.7-60.1
		c-27.7-20.2-60.8-32.2-98.8-32.2l0,0c-37,0-71.1,11.9-98.8,32c-28.4,20.6-50.2,50-61.3,84.1c-5.3,16.4-8.2,33.9-8.2,52
		c0,18.2,2.9,35.6,8.2,52c11.1,34.1,32.9,63.5,61.3,84.1c27.7,20.1,61.8,32,98.8,32l0,0c38,0,71.1-12,98.8-32.2l-43.7-60.1
		C328.7-2779.1,310-2772.5,289-2772.4z"/>
	<path class="st13" d="M450.4-2866.3H328.3h-2.1l39.1,54.2c-5.8,8.2-13,15.6-21.1,21.5l43.7,60.2c28.3-20.7,50-50.3,61-84.4
		c5.2-16.1,8.1-33.5,8.2-51.5H450.4z"/>
	<path class="st13" d="M370.1-2913.4l64.1-37.5c-11.8-20.2-27.6-37.7-46.4-51.4l-43.7,60.1C354.7-2934.5,363.5-2924.7,370.1-2913.4z
		"/>
	<path class="st13" d="M350.3-2916.6l-61.4,36l-97.1-57.1c-2.5,3.6-4.8,7.2-7,11l104.1,61.2l68.4-40.1
		C355.1-2909.4,352.7-2913.1,350.3-2916.6z"/>
</g>
<g>
	<path class="st2" d="M464.7-2831.1v18.9h-16.8v-17.7h-31.4v-13.9l35.6-52.2h12.6v48V-2831.1z M448.1-2846.3v-16.9l-12.2,16.9H448.1
		z"/>
	<path class="st2" d="M504.2-2869.2c-3.6-1.7-7.7-2.1-11.6-2.1H485v-25h-15v84h15v-18.8v-16.8v-7.4h7.6c3.1,0,5.8,1.1,8,3.6
		c2.2,2.6,3.4,5.5,3.4,9.2v30.2h17v-28.9C521-2862.6,506.9-2867.6,504.2-2869.2z"/>
	<path class="st2" d="M365.3-2826.2l33.8-37.6c1.5-1.9,2.2-3.8,2.2-5.7c0-2.5-0.9-4.6-2.8-6.3c-1.9-1.7-4.1-2.5-6.8-2.5
		c-2.4,0-4.5,0.9-6.2,2.6c-1.7,1.8-2.6,3.8-2.6,6.2v3.2h-17.7v-3.2c0-7.3,2.6-13.5,7.8-18.7c5.2-5.2,11.4-7.8,18.7-7.8
		c7.5,0,13.9,2.6,19.3,7.8c5.3,5.2,8,11.4,8,18.7c-0.2,6.1-2.4,11.8-6.8,17.4c-0.9,1-1.8,2-2.9,3.1l-16.7,19.1h23.7v17.7h-51.1v-14
		H365.3z"/>
</g>
<text transform="matrix(1 0 0 1 2348.5786 -121.6348)" style="fill:#FFFBF0; font-family:'FuturaBT-Bold'; font-size:190.3833px;">GESTOR24H</text>
<g>
	<path class="st14" d="M-904.8,63.8V-8.1c0-23,16.6-36.1,40.5-36.1c23.7,0,40.3,13.2,40.3,36.1V3.5c0,1.7-0.9,2.8-2.8,2.8h-25
		c-1.7,0-2.8-1.1-2.8-2.8v-8.1c0-7.2-2.6-12.2-9.6-12.2c-7.2,0-9.6,5.1-9.6,12.2v64.7c0,7.2,2.4,12.2,9.6,12.2c7,0,9.6-5.1,9.6-12.2
		v-9.8c0-1.7-1.1-2.8-2.8-2.8h-4c-1.7,0-2.8-0.9-2.8-2.8v-22c0-1.7,1.1-2.8,2.8-2.8h34.6c1.7,0,2.8,1.1,2.8,2.8v41
		c0,22.8-16.6,36.1-40.3,36.1C-888.2,99.9-904.8,86.5-904.8,63.8z"/>
	<path class="st14" d="M-809,95.6V-39.9c0-1.7,0.9-2.8,2.8-2.8h53.6c1.7,0,2.8,1.1,2.8,2.8v21.6c0,1.7-1.1,2.8-2.8,2.8h-22.8
		c-1.7,0-2.8,1.1-2.8,2.8v23.5c0,1.7,1.1,2.8,2.8,2.8h22.8c1.7,0,2.8,1.1,2.8,2.8v21.6c0,1.7-1.1,2.8-2.8,2.8h-22.8
		c-1.7,0-2.8,1.1-2.8,2.8v24.5c0,1.7,1.1,2.8,2.8,2.8h22.8c1.7,0,2.8,1.1,2.8,2.8v21.6c0,1.7-1.1,2.8-2.8,2.8h-53.6
		C-807.8,98.4-809,97.3-809,95.6z"/>
	<path class="st14" d="M-737.4,63.2v-7.7c0-1.7,0.9-2.8,2.8-2.8h25c1.7,0,2.8,1.1,2.8,2.8v4.7c0,7.2,2.6,12.2,9.6,12.2
		c7.2,0,9.8-4.3,9.8-10.4v-4c0-6.8-7.7-12-20.3-19.6c-12.6-7.7-29.7-17.5-29.7-38.4v-7.7c0-23.5,16.6-36.7,40.3-36.7
		c23.9,0,40.5,13.2,40.5,36.7v7.7c0,1.7-0.9,2.8-2.8,2.8h-25c-1.9,0-2.8-1.1-2.8-2.8v-4c0-7.9-2.6-13-9.8-13c-7,0-9.6,4.5-9.6,10.4
		v4c0,6.8,7.5,11.9,20.3,19.4c12.6,7.7,29.7,17.7,29.7,38.6v7.7c0,23.3-16.6,36.7-40.5,36.7C-720.9,99.9-737.4,86.5-737.4,63.2z"/>
	<path class="st14" d="M-631.7,95.6V-12.3c0-1.7-1.1-2.8-2.8-2.8H-648c-1.7,0-2.8-0.9-2.8-2.8v-22c0-1.7,1.1-2.8,2.8-2.8h64.4
		c1.7,0,2.8,0.9,2.8,2.8v22c0,1.7-1.1,2.8-2.8,2.8H-598c-1.7,0-2.8,1.1-2.8,2.8V95.6c0,1.7-0.9,2.8-2.8,2.8h-25.2
		C-630.5,98.4-631.7,97.3-631.7,95.6z"/>
	<path class="st14" d="M-573.1,63.2V-7.6c0-23.5,16.6-36.7,40.5-36.7c23.7,0,40.3,13.2,40.3,36.7v70.8c0,23.3-16.6,36.7-40.3,36.7
		C-556.6,99.9-573.1,86.5-573.1,63.2z M-523.1,59.4V-3.8c0-7.9-2.4-13-9.6-13c-7.2,0-9.6,5.1-9.6,13v63.2c0,7.9,2.4,13,9.6,13
		C-525.5,72.4-523.1,67.3-523.1,59.4z"/>
	<path class="st14" d="M-476.8,95.6V-39.9c0-1.7,0.9-2.8,2.8-2.8h37.6c23.7,0,40.3,13.4,40.3,36.7v16.4c0,9.8-4.1,21.3-10.7,26.7
		c-1.1,0.9-1.9,1.9-1.5,3.6l11.3,53.8c0.8,3-0.8,4-2.3,4h-23.5c-2.4,0-3.6,0-4.1-2.8l-8.3-45.7c-0.4-1.7-1.1-2.8-2.8-2.8h-5.1
		c-1.7,0-2.8,1.1-2.8,2.8v45.7c0,1.7-0.9,2.8-2.8,2.8H-474C-475.6,98.4-476.8,97.3-476.8,95.6z M-436.3,19.5c7.2,0,9.6-5.1,9.6-13
		v-8.8c0-7.7-2.4-12.8-9.6-12.8h-6.8c-1.7,0-2.8,1.1-2.8,2.8v29c0,1.7,1.1,2.8,2.8,2.8H-436.3z"/>
</g>
<path class="st0" d="M1545.3-86.6v-71.9c0-23,16.6-36.1,40.5-36.1c23.7,0,40.3,13.2,40.3,36.1v11.7c0,1.7-0.9,2.8-2.8,2.8h-25
	c-1.7,0-2.8-1.1-2.8-2.8v-8.1c0-7.2-2.6-12.2-9.6-12.2c-7.2,0-9.6,5.1-9.6,12.2v64.7c0,7.2,2.4,12.2,9.6,12.2c7,0,9.6-5.1,9.6-12.2
	v-9.8c0-1.7-1.1-2.8-2.8-2.8h-4c-1.7,0-2.8-0.9-2.8-2.8v-22c0-1.7,1.1-2.8,2.8-2.8h34.6c1.7,0,2.8,1.1,2.8,2.8v41
	c0,22.8-16.6,36.1-40.3,36.1C1561.9-50.4,1545.3-63.8,1545.3-86.6z"/>
<path class="st14" d="M1695.7-52v-135.5c0-1.7,0.9-2.8,2.8-2.8h53.6c1.7,0,2.8,1.1,2.8,2.8v21.6c0,1.7-1.1,2.8-2.8,2.8h-22.8
	c-1.7,0-2.8,1.1-2.8,2.8v23.5c0,1.7,1.1,2.8,2.8,2.8h22.8c1.7,0,2.8,1.1,2.8,2.8v21.6c0,1.7-1.1,2.8-2.8,2.8h-22.8
	c-1.7,0-2.8,1.1-2.8,2.8v24.5c0,1.7,1.1,2.8,2.8,2.8h22.8c1.7,0,2.8,1.1,2.8,2.8V-52c0,1.7-1.1,2.8-2.8,2.8h-53.6
	C1696.8-49.2,1695.7-50.3,1695.7-52z"/>
<path class="st14" d="M1767.2-84.4v-7.7c0-1.7,0.9-2.8,2.8-2.8h25c1.7,0,2.8,1.1,2.8,2.8v4.7c0,7.2,2.6,12.2,9.6,12.2
	c7.2,0,9.8-4.3,9.8-10.4v-4c0-6.8-7.7-12-20.3-19.6c-12.6-7.7-29.7-17.5-29.7-38.4v-7.7c0-23.5,16.6-36.7,40.3-36.7
	c23.9,0,40.5,13.2,40.5,36.7v7.7c0,1.7-0.9,2.8-2.8,2.8h-25c-1.9,0-2.8-1.1-2.8-2.8v-4c0-7.9-2.6-13-9.8-13c-7,0-9.6,4.5-9.6,10.4v4
	c0,6.8,7.5,11.9,20.3,19.4c12.6,7.7,29.7,17.7,29.7,38.6v7.7c0,23.3-16.6,36.7-40.5,36.7C1783.7-47.7,1767.2-61.1,1767.2-84.4z"/>
<path class="st14" d="M1872.9-52v-107.8c0-1.7-1.1-2.8-2.8-2.8h-13.6c-1.7,0-2.8-0.9-2.8-2.8v-22c0-1.7,1.1-2.8,2.8-2.8h64.4
	c1.7,0,2.8,0.9,2.8,2.8v22c0,1.7-1.1,2.8-2.8,2.8h-14.3c-1.7,0-2.8,1.1-2.8,2.8V-52c0,1.7-0.9,2.8-2.8,2.8h-25.2
	C1874.1-49.2,1872.9-50.3,1872.9-52z"/>
<path class="st14" d="M1931.5-84.4v-70.8c0-23.5,16.6-36.7,40.5-36.7c23.7,0,40.3,13.2,40.3,36.7v70.8c0,23.3-16.6,36.7-40.3,36.7
	C1948-47.7,1931.5-61.1,1931.5-84.4z M1981.5-88.2v-63.2c0-7.9-2.4-13-9.6-13s-9.6,5.1-9.6,13v63.2c0,7.9,2.4,13,9.6,13
	S1981.5-80.3,1981.5-88.2z"/>
<path class="st14" d="M2027.8-52v-135.5c0-1.7,0.9-2.8,2.8-2.8h37.6c23.7,0,40.3,13.4,40.3,36.7v16.4c0,9.8-4.1,21.3-10.7,26.7
	c-1.1,0.9-1.9,1.9-1.5,3.6l11.3,53.8c0.8,3-0.8,4-2.3,4h-23.5c-2.4,0-3.6,0-4.1-2.8l-8.3-45.7c-0.4-1.7-1.1-2.8-2.8-2.8h-5.1
	c-1.7,0-2.8,1.1-2.8,2.8V-52c0,1.7-0.9,2.8-2.8,2.8h-25.2C2029-49.2,2027.8-50.3,2027.8-52z M2068.3-128.1c7.2,0,9.6-5.1,9.6-13
	v-8.8c0-7.7-2.4-12.8-9.6-12.8h-6.8c-1.7,0-2.8,1.1-2.8,2.8v29c0,1.7,1.1,2.8,2.8,2.8H2068.3z"/>
<path d="M759.7-334.1v61.8c0,9.7-2.3,16.9-6.9,21.5c-4.6,4.5-13.6,6.8-27.1,6.9h-30.5c-13.5-0.1-22.5-2.4-27.1-6.9
	c-4.6-4.7-6.9-11.8-6.9-21.5v-110.1c0-9.7,2.3-16.9,6.9-21.5c4.6-4.5,13.6-6.8,27.1-6.9h29.3c13.5,0.1,22.5,2.4,27.1,6.9
	c4.6,4.7,6.9,11.8,6.9,21.5v29.3h-36.1v-21.2c0-2.9-1.4-4.4-4.3-4.4h-15.5c-2.8,0-4.2,1.5-4.2,4.4v93.9c0,2.9,1.4,4.4,4.2,4.4h16.6
	c2.9,0,4.3-1.5,4.3-4.4V-302h-12.4v-32.1H759.7z"/>
<path d="M835.1-274.7c2.6,0,4-1.4,4-4.3v-5.5h35.7v13.3c0,9.3-2.2,16.2-6.6,20.6c-4.3,4.3-13,6.6-25.9,6.6H813
	c-13-0.1-21.6-2.3-25.9-6.6c-4.4-4.4-6.6-11.3-6.6-20.6v-72.5c0-9.3,2.2-16.2,6.6-20.6c4.3-4.3,13-6.6,25.9-6.6h29.2
	c12.9,0.1,21.6,2.3,25.9,6.6c4.4,4.4,6.6,11.3,6.6,20.6v24.3c0,9.3-2.2,16.2-6.6,20.6c-4.3,4.3-13,6.6-25.9,6.6h-26.1v13.1
	c0,2.9,1.4,4.3,4.1,4.3H835.1z M816.2-322.9h19c2.6,0,4-1.4,4-4.3v-8.7c0-2.9-1.3-4.3-4-4.3h-14.9c-2.7,0-4.1,1.4-4.1,4.3V-322.9z"
	/>
<path d="M899.1-306c-4.3-4.3-6.4-11.4-6.4-21.2v-17.4c0-9,2.1-15.7,6.4-20c4.3-4.2,12.7-6.3,25.2-6.4h26.2c12.6,0.1,21,2.2,25.2,6.4
	c4.3,4.3,6.4,11,6.4,20v14.7h-32.4v-7.1c0-2.7-1.4-4.1-4.1-4.1h-15.5c-2.6,0-3.8,1.4-3.8,4.1v6.7c0,3.4,7.3,6.9,22,10.6
	c14.7,3.6,24.2,7.5,28.4,11.6c4.3,4.3,6.4,11.4,6.4,21.2v16.5c0,9-2.1,15.7-6.4,20c-4.3,4.2-12.7,6.3-25.2,6.4h-28.3
	c-12.6-0.1-21-2.2-25.2-6.4c-4.3-4.3-6.4-11-6.4-20v-14.7h33.5v7.1c0,2.7,1.4,4.1,4.1,4.1h15.5c2.6,0,3.8-1.4,3.8-4.1v-6.9
	c0-2.7-7.2-5.9-21.5-9.5C912.6-297.9,903.3-301.8,899.1-306z"/>
<path d="M1012.1-340.3h-14.8V-371h14.8v-29.5h35.7v29.5h17.8v30.7h-17.8v61.3c0,2.9,1.3,4.3,4,4.3h13.8v30.7h-20.9
	c-13-0.1-21.6-2.3-25.9-6.6c-4.4-4.4-6.6-11.3-6.6-20.6V-340.3z"/>
<path d="M1080.6-345.4c0-8.8,2.1-15.2,6.2-19.4c4.2-4,12.4-6.1,24.5-6.2h27.4c12.2,0.1,20.4,2.1,24.5,6.2c4.1,4.2,6.2,10.7,6.2,19.4
	v75.8c0,8.8-2.1,15.2-6.2,19.4c-4.2,4-12.4,6.1-24.5,6.2h-27.4c-12.2-0.1-20.4-2.1-24.5-6.2c-4.1-4.2-6.2-10.7-6.2-19.4V-345.4z
	 M1113.7-276.4c0,2.7,1.3,4.1,3.8,4.1h15.1c2.6,0,3.8-1.4,3.8-4.1v-62.1c0-2.7-1.3-4.1-3.8-4.1h-15.1c-2.6,0-3.8,1.4-3.8,4.1V-276.4
	z"/>
<path d="M1242.2-342.6h-15.1c-2.6,0-3.8,1.4-3.8,4.1v94.6h-33v-101.4c0-8.8,2.1-15.2,6.2-19.4c4.2-4,12.4-6.1,24.5-6.2h21.3V-342.6z
	"/>
<path d="M1671.7-276.1h58.9v32.1h-96.1v-44.4c0-10.5,2.3-18,6.9-22.7c4.6-4.5,14.4-10.8,29.4-19c15-8.2,22.6-14.1,22.6-17.9v-26.4
	c0-2.9-1.4-4.4-4.2-4.4H1676c-2.9,0-4.3,1.5-4.3,4.4v17.7h-36.1v-25.8c0-9.7,2.3-16.9,6.9-21.5c4.6-4.5,13.6-6.8,27.1-6.9h27
	c13.5,0.1,22.5,2.4,27.1,6.9c4.6,4.7,6.9,11.8,6.9,21.5v38c0,10.5-2.3,18-6.9,22.7c-4.6,4.5-14.4,10.8-29.4,19
	c-15,8.2-22.6,13.7-22.6,16.7V-276.1z"/>
<path class="st0" d="M1374-289.6l46.9-121.3h54.2v103.4h18.4v32.1H1475v31.4h-37.2v-31.4H1374V-289.6z M1440.1-307.5v-66.8
	l-23.7,66.8H1440.1z"/>
<g>
	<path class="st0" d="M-298.9-18.6c0-0.6,0.4-1.1,1.1-1.1h8.6c0.7,0,1.3,0.6,1.3,1.3v17c0,0.3,0.1,0.4,0.3,0.4
		c0.6,0,2.4-2.2,6.7-2.2c6.5,0,9.8,4.5,9.8,12.7v18.6c0,0.6-0.4,1.1-1.1,1.1h-8.6c-0.7,0-1.3-0.6-1.3-1.3V11.5c0-2.4-0.4-4.9-3-4.9
		c-2.5,0-2.9,2.5-2.9,4.9v16.7c0,0.6-0.4,1.1-1.1,1.1h-8.6c-0.7,0-1.3-0.6-1.3-1.3V-18.6z"/>
</g>
<path class="st0" d="M-351.4,29.5c0.8-0.9,1.5-1.7,2.2-2.4c0,0,0,0,0.1-0.1c3.4-4.3,5.1-8.8,5.2-13.5c0-5.7-2.1-10.5-6.2-14.5
	c-4.2-4-9.2-6.1-15-6.1c-5.7,0-10.4,2-14.4,6c-4,4-6,8.9-6,14.5v1.1c0,0.8,0.6,1.4,1.4,1.4h10.7c0.8,0,1.4-0.6,1.4-1.4v-1.1
	c0-1.9,0.7-3.5,2-4.8c1.3-1.3,3-2,4.9-2c2.1,0,3.9,0.7,5.3,2c1.4,1.3,2.2,3,2.2,4.9c0,1.5-0.5,3-1.7,4.4l-25.9,28.8
	c-0.2,0.3-0.4,0.6-0.4,0.9v9c0,0.8,0.6,1.4,1.4,1.4h35.1l0,0h2c0.8,0,1.4-0.6,1.4-1.4v-9.4c0-0.8-0.6-1.4-1.4-1.4h-16.5
	c-1.2,0-1.9-1.5-1-2.4L-351.4,29.5z"/>
<path class="st0" d="M-345.4,40l17.8-46c0.2-0.6,0.9-1.1,1.5-1.1h18.4c0.9,0,1.6,0.7,1.6,1.6v37.1c0,0.9,0.7,1.6,1.6,1.6h3.9
	c0.9,0,1.6,0.7,1.6,1.6v9.2c0,0.9-0.7,1.6-1.6,1.6h-3.9c-0.9,0-1.6,0.7-1.6,1.6v9c0,0.9-0.7,1.6-1.6,1.6H-319
	c-0.9,0-1.6-0.7-1.6-1.6v-9c0-0.9-0.7-1.6-1.6-1.6h-21.7c-0.9,0-1.6-0.7-1.6-1.6v-3.6C-345.5,40.4-345.5,40.2-345.4,40z
	 M-319.7,31.6V16.7c0-1.8-2.6-2.3-3.2-0.6l-5.3,14.9c-0.4,1.1,0.4,2.2,1.6,2.2h5.3C-320.4,33.3-319.7,32.5-319.7,31.6z"/>
<g>
	<path class="st13" d="M263.8-1310.2v-72.7c0-23.2,16.8-36.6,40.9-36.6c24,0,40.7,13.3,40.7,36.6v11.8c0,1.7-1,2.9-2.9,2.9h-25.3
		c-1.7,0-2.9-1.1-2.9-2.9v-8.2c0-7.2-2.7-12.4-9.7-12.4c-7.2,0-9.7,5.1-9.7,12.4v65.5c0,7.2,2.5,12.4,9.7,12.4c7,0,9.7-5.1,9.7-12.4
		v-9.9c0-1.7-1.1-2.9-2.9-2.9h-4c-1.7,0-2.9-1-2.9-2.9v-22.3c0-1.7,1.1-2.9,2.9-2.9h35c1.7,0,2.9,1.1,2.9,2.9v41.5
		c0,23-16.8,36.6-40.7,36.6C280.5-1273.6,263.8-1287.1,263.8-1310.2z"/>
	<path class="st13" d="M360.7-1278v-137.1c0-1.7,1-2.9,2.9-2.9h54.3c1.7,0,2.9,1.1,2.9,2.9v21.9c0,1.7-1.1,2.9-2.9,2.9h-23
		c-1.7,0-2.9,1.1-2.9,2.9v23.8c0,1.7,1.1,2.9,2.9,2.9h23c1.7,0,2.9,1.1,2.9,2.9v21.9c0,1.7-1.1,2.9-2.9,2.9h-23
		c-1.7,0-2.9,1.1-2.9,2.9v24.8c0,1.7,1.1,2.9,2.9,2.9h23c1.7,0,2.9,1.1,2.9,2.9v21.9c0,1.7-1.1,2.9-2.9,2.9h-54.3
		C361.8-1275.1,360.7-1276.3,360.7-1278z"/>
	<path class="st13" d="M433-1310.7v-7.8c0-1.7,1-2.9,2.9-2.9h25.3c1.7,0,2.9,1.1,2.9,2.9v4.8c0,7.2,2.7,12.4,9.7,12.4
		c7.2,0,9.9-4.4,9.9-10.5v-4c0-6.9-7.8-12.2-20.6-19.8c-12.8-7.8-30.1-17.7-30.1-38.8v-7.8c0-23.8,16.8-37.1,40.7-37.1
		c24.2,0,40.9,13.3,40.9,37.1v7.8c0,1.7-1,2.9-2.9,2.9h-25.3c-1.9,0-2.9-1.1-2.9-2.9v-4c0-8-2.7-13.1-9.9-13.1
		c-7,0-9.7,4.6-9.7,10.5v4c0,6.9,7.6,12,20.6,19.6c12.8,7.8,30.1,17.9,30.1,39v7.8c0,23.6-16.8,37.1-40.9,37.1
		C449.8-1273.6,433-1287.1,433-1310.7z"/>
	<path class="st13" d="M540-1278v-109.1c0-1.7-1.1-2.9-2.9-2.9h-13.7c-1.7,0-2.9-1-2.9-2.9v-22.3c0-1.7,1.1-2.9,2.9-2.9h65.1
		c1.7,0,2.9,1,2.9,2.9v22.3c0,1.7-1.1,2.9-2.9,2.9h-14.5c-1.7,0-2.9,1.1-2.9,2.9v109.1c0,1.7-1,2.9-2.9,2.9h-25.5
		C541.1-1275.1,540-1276.3,540-1278z"/>
	<path class="st13" d="M599.2-1310.7v-71.6c0-23.8,16.8-37.1,40.9-37.1c24,0,40.7,13.3,40.7,37.1v71.6c0,23.6-16.8,37.1-40.7,37.1
		C616-1273.6,599.2-1287.1,599.2-1310.7z M649.8-1314.5v-64c0-8-2.5-13.1-9.7-13.1s-9.7,5.1-9.7,13.1v64c0,8,2.5,13.1,9.7,13.1
		S649.8-1306.5,649.8-1314.5z"/>
	<path class="st13" d="M696.7-1278v-137.1c0-1.7,1-2.9,2.9-2.9h38.1c24,0,40.7,13.5,40.7,37.1v16.6c0,9.9-4.2,21.5-10.9,27
		c-1.1,1-1.9,1.9-1.5,3.6l11.4,54.4c0.8,3-0.8,4-2.3,4h-23.8c-2.5,0-3.6,0-4.2-2.9l-8.4-46.3c-0.4-1.7-1.1-2.9-2.9-2.9h-5.1
		c-1.7,0-2.9,1.1-2.9,2.9v46.3c0,1.7-1,2.9-2.9,2.9h-25.5C697.8-1275.1,696.7-1276.3,696.7-1278z M737.6-1354.9
		c7.2,0,9.7-5.1,9.7-13.1v-8.9c0-7.8-2.5-12.9-9.7-12.9h-6.9c-1.7,0-2.9,1.1-2.9,2.9v29.3c0,1.7,1.1,2.9,2.9,2.9H737.6z"/>
</g>
<g>
	<path class="st0" d="M892.2-1386.5c0-0.5,0.3-0.9,0.9-0.9h7.3c0.6,0,1.1,0.5,1.1,1.1v14.6c0,0.2,0.1,0.3,0.2,0.3
		c0.5,0,2.1-1.9,5.8-1.9c5.6,0,8.4,3.9,8.4,10.9v19.4c0,0.5-0.3,0.9-0.9,0.9h-7.3c-0.6,0-1.1-0.5-1.1-1.1v-17.5
		c0-2.1-0.3-4.2-2.5-4.2c-2.2,0-2.5,2.1-2.5,4.2v17.7c0,0.5-0.3,0.9-0.9,0.9h-7.3c-0.6,0-1.1-0.5-1.1-1.1V-1386.5z"/>
</g>
<path class="st0" d="M832.2-1341.8c1-1.1,1.9-2.1,2.7-3c0,0,0-0.1,0.1-0.1c4.2-5.3,6.4-11,6.5-16.8c0-7-2.6-13.1-7.7-18.1
	c-5.2-5-11.4-7.6-18.7-7.6c-7,0-13,2.5-18,7.5c-5,5-7.4,11-7.4,18.1v1.4c0,1,0.8,1.8,1.8,1.8h13.3c1,0,1.8-0.8,1.8-1.8v-1.4
	c0-2.3,0.9-4.3,2.5-6c1.7-1.7,3.7-2.5,6.1-2.5c2.6,0,4.8,0.8,6.7,2.4c1.8,1.7,2.7,3.7,2.7,6.1c0,1.8-0.6,3.7-2.1,5.5l-32.3,35.9
	c-0.3,0.3-0.4,0.7-0.4,1.2v11.3c0,1,0.8,1.8,1.8,1.8h43.8l0,0h2.5c1,0,1.8-0.8,1.8-1.8v-11.8c0-1-0.8-1.8-1.8-1.8h-20.5
	c-1.5,0-2.3-1.8-1.3-3L832.2-1341.8z"/>
<path class="st0" d="M838.6-1328.7l22.2-57.4c0.3-0.8,1.1-1.3,1.9-1.3h22.9c1.1,0,2,0.9,2,2v46.2c0,1.1,0.9,2,2,2h4.8
	c1.1,0,2,0.9,2,2v11.5c0,1.1-0.9,2-2,2h-4.8c-1.1,0-2,0.9-2,2v11.2c0,1.1-0.9,2-2,2h-14c-1.1,0-2-0.9-2-2v-11.2c0-1.1-0.9-2-2-2h-27
	c-1.1,0-2-0.9-2-2v-4.5C838.5-1328.2,838.5-1328.4,838.6-1328.7z M870.7-1339.1v-18.6c0-2.3-3.2-2.9-4-0.7l-6.6,18.6
	c-0.5,1.3,0.5,2.7,1.9,2.7h6.6C869.8-1337,870.7-1338,870.7-1339.1z"/>
<polygon class="st0" points="1552,-396.5 1552,-367.9 1529.1,-367.9 1529.1,-396.5 1493.4,-396.5 1493.4,-307.6 1529.1,-307.6 
	1529.1,-336.3 1552,-336.3 1552,-307.6 1587.7,-307.6 1587.7,-396.5 "/>
<path class="st13" d="M889.2-1293.1v17.4c0,1.2-0.9,2.1-2.1,2.1h-94.8c-1.2,0-2.1-0.9-2.1-2.1v-17.4c0-1.2,0.9-2.1,2.1-2.1h94.8
	C888.3-1295.2,889.2-1294.2,889.2-1293.1z"/>
<circle class="st15" cx="2872.1" cy="-866.1" r="112.9"/>
<path class="st16" d="M-352.4-25.4c14.1-12.5,33.7-18.4,53.6-14.4C-265-33-243.2-0.1-250,33.6s-39.7,55.6-73.4,48.8"/>
<rect x="1449.9" y="-1594.5" class="st17" width="944.3" height="409.1"/>
<g>
	<path class="st2" d="M1594.6-1358.7v-72.7c0-23.2,16.8-36.6,40.9-36.6c24,0,40.7,13.3,40.7,36.6v11.8c0,1.7-1,2.9-2.9,2.9h-25.3
		c-1.7,0-2.9-1.1-2.9-2.9v-8.2c0-7.2-2.7-12.4-9.7-12.4c-7.2,0-9.7,5.1-9.7,12.4v65.5c0,7.2,2.5,12.4,9.7,12.4c7,0,9.7-5.1,9.7-12.4
		v-9.9c0-1.7-1.1-2.9-2.9-2.9h-4c-1.7,0-2.9-1-2.9-2.9v-22.3c0-1.7,1.1-2.9,2.9-2.9h35c1.7,0,2.9,1.1,2.9,2.9v41.5
		c0,23-16.8,36.6-40.7,36.6C1611.3-1322.1,1594.6-1335.7,1594.6-1358.7z"/>
	<path class="st2" d="M1691.5-1326.5v-137.1c0-1.7,1-2.9,2.9-2.9h54.3c1.7,0,2.9,1.1,2.9,2.9v21.9c0,1.7-1.1,2.9-2.9,2.9h-23
		c-1.7,0-2.9,1.1-2.9,2.9v23.8c0,1.7,1.1,2.9,2.9,2.9h23c1.7,0,2.9,1.1,2.9,2.9v21.9c0,1.7-1.1,2.9-2.9,2.9h-23
		c-1.7,0-2.9,1.1-2.9,2.9v24.8c0,1.7,1.1,2.9,2.9,2.9h23c1.7,0,2.9,1.1,2.9,2.9v21.9c0,1.7-1.1,2.9-2.9,2.9h-54.3
		C1692.6-1323.7,1691.5-1324.8,1691.5-1326.5z"/>
	<path class="st2" d="M1763.8-1359.3v-7.8c0-1.7,1-2.9,2.9-2.9h25.3c1.7,0,2.9,1.1,2.9,2.9v4.8c0,7.2,2.7,12.4,9.7,12.4
		c7.2,0,9.9-4.4,9.9-10.5v-4c0-6.9-7.8-12.2-20.6-19.8c-12.8-7.8-30.1-17.7-30.1-38.8v-7.8c0-23.8,16.8-37.1,40.7-37.1
		c24.2,0,40.9,13.3,40.9,37.1v7.8c0,1.7-1,2.9-2.9,2.9h-25.3c-1.9,0-2.9-1.1-2.9-2.9v-4c0-8-2.7-13.1-9.9-13.1
		c-7,0-9.7,4.6-9.7,10.5v4c0,6.9,7.6,12,20.6,19.6c12.8,7.8,30.1,17.9,30.1,39v7.8c0,23.6-16.8,37.1-40.9,37.1
		C1780.6-1322.1,1763.8-1335.7,1763.8-1359.3z"/>
	<path class="st2" d="M1870.8-1326.5v-109.1c0-1.7-1.1-2.9-2.9-2.9h-13.7c-1.7,0-2.9-1-2.9-2.9v-22.3c0-1.7,1.1-2.9,2.9-2.9h65.1
		c1.7,0,2.9,1,2.9,2.9v22.3c0,1.7-1.1,2.9-2.9,2.9h-14.5c-1.7,0-2.9,1.1-2.9,2.9v109.1c0,1.7-1,2.9-2.9,2.9h-25.5
		C1872-1323.7,1870.8-1324.8,1870.8-1326.5z"/>
	<path class="st2" d="M1930-1359.3v-71.6c0-23.8,16.8-37.1,40.9-37.1c24,0,40.7,13.3,40.7,37.1v71.6c0,23.6-16.8,37.1-40.7,37.1
		C1946.8-1322.1,1930-1335.7,1930-1359.3z M1980.7-1363.1v-64c0-8-2.5-13.1-9.7-13.1s-9.7,5.1-9.7,13.1v64c0,8,2.5,13.1,9.7,13.1
		S1980.7-1355.1,1980.7-1363.1z"/>
	<path class="st2" d="M2027.5-1326.5v-137.1c0-1.7,1-2.9,2.9-2.9h38.1c24,0,40.7,13.5,40.7,37.1v16.6c0,9.9-4.2,21.5-10.9,27
		c-1.1,1-1.9,1.9-1.5,3.6l11.4,54.4c0.8,3-0.8,4-2.3,4h-23.8c-2.5,0-3.6,0-4.2-2.9l-8.4-46.3c-0.4-1.7-1.1-2.9-2.9-2.9h-5.1
		c-1.7,0-2.9,1.1-2.9,2.9v46.3c0,1.7-1,2.9-2.9,2.9h-25.5C2028.6-1323.7,2027.5-1324.8,2027.5-1326.5z M2068.4-1403.4
		c7.2,0,9.7-5.1,9.7-13.1v-8.9c0-7.8-2.5-12.9-9.7-12.9h-6.9c-1.7,0-2.9,1.1-2.9,2.9v29.3c0,1.7,1.1,2.9,2.9,2.9H2068.4z"/>
</g>
<path class="st18" d="M2136.7-1441.6c14.4-14.7,35.3-22.8,57.3-20c37.4,4.7,63.9,38.8,59.1,76.2c-4.7,37.4-38.8,63.9-76.2,59.1
	c-16-2-30-9.4-40.4-20.2"/>
<g>
	<path class="st0" d="M2926.4-927.3c0-0.7,0.4-1.2,1.2-1.2h10c0.9,0,1.5,0.7,1.5,1.5v20c0,0.3,0.2,0.4,0.3,0.4
		c0.7,0,2.8-2.6,7.9-2.6c7.6,0,11.5,5.3,11.5,14.9v26.6c0,0.7-0.4,1.2-1.2,1.2h-10c-0.9,0-1.5-0.7-1.5-1.5v-24
		c0-2.8-0.4-5.7-3.5-5.7c-3,0-3.4,2.9-3.4,5.7v24.3c0,0.7-0.4,1.2-1.2,1.2h-10c-0.9,0-1.5-0.7-1.5-1.5V-927.3z"/>
</g>
<path class="st0" d="M2844.3-867c1.4-1.5,2.6-2.9,3.7-4.2c0,0,0.1-0.1,0.1-0.1c5.7-7.3,8.8-15,8.9-23c0-9.6-3.6-17.9-10.6-24.7
	c-7.1-6.9-15.6-10.4-25.5-10.4c-9.6,0-17.8,3.4-24.6,10.3c-6.9,6.8-10.1,15.1-10.1,24.7v1.9c0,1.3,1.1,2.4,2.4,2.4h18.2
	c1.3,0,2.4-1.1,2.4-2.4v-1.9c0-3.2,1.2-5.9,3.5-8.2c2.3-2.3,5.1-3.4,8.3-3.4c3.6,0,6.6,1.1,9.1,3.3c2.4,2.3,3.7,5,3.7,8.3
	c0,2.5-0.8,5-2.8,7.5l-44.1,49.2c-0.4,0.4-0.6,1-0.6,1.6v15.4c0,1.3,1.1,2.4,2.4,2.4h59.9l0,0h3.4c1.3,0,2.4-1.1,2.4-2.4v-16.1
	c0-1.3-1.1-2.4-2.4-2.4h-28.1c-2.1,0-3.2-2.5-1.8-4L2844.3-867z"/>
<path class="st0" d="M2854.4-849.1l30.3-78.5c0.4-1.1,1.5-1.8,2.6-1.8h31.3c1.5,0,2.8,1.3,2.8,2.8v63.2c0,1.5,1.3,2.8,2.8,2.8h6.6
	c1.5,0,2.8,1.3,2.8,2.8v15.8c0,1.5-1.3,2.8-2.8,2.8h-6.6c-1.5,0-2.8,1.3-2.8,2.8v15.3c0,1.5-1.3,2.8-2.8,2.8h-19.2
	c-1.5,0-2.8-1.3-2.8-2.8v-15.3c0-1.5-1.3-2.8-2.8-2.8h-36.9c-1.5,0-2.8-1.3-2.8-2.8v-6.1C2854.3-848.5,2854.3-848.8,2854.4-849.1z
	 M2898.3-863.4v-25.4c0-3.1-4.4-3.9-5.4-0.9l-9,25.4c-0.6,1.8,0.7,3.7,2.6,3.7h9C2897-860.6,2898.3-861.8,2898.3-863.4z"/>
<g>
	<g>
		<path class="st0" d="M2218.7-1427.5c0-0.4,0.2-0.6,0.6-0.6h5.2c0.4,0,0.8,0.4,0.8,0.8v10.4c0,0.2,0.1,0.2,0.2,0.2
			c0.4,0,1.5-1.3,4.1-1.3c4,0,6,2.8,6,7.7v13.8c0,0.4-0.2,0.6-0.6,0.6h-5.2c-0.4,0-0.8-0.4-0.8-0.8v-12.5c0-1.5-0.2-3-1.8-3
			c-1.5,0-1.8,1.5-1.8,3v12.6c0,0.4-0.2,0.6-0.6,0.6h-5.2c-0.4,0-0.8-0.4-0.8-0.8V-1427.5z"/>
	</g>
	<path class="st0" d="M2166.4-1391.7c0.8-0.9,1.6-1.7,2.2-2.5c0,0,0,0,0.1-0.1c3.4-4.3,5.2-8.9,5.3-13.6c0-5.7-2.1-10.6-6.3-14.7
		c-4.2-4.1-9.3-6.2-15.2-6.2c-5.7,0-10.6,2-14.6,6.1c-4.1,4-6,9-6,14.7v1.1c0,0.8,0.6,1.4,1.4,1.4h10.8c0.8,0,1.4-0.6,1.4-1.4v-1.1
		c0-1.9,0.7-3.5,2.1-4.9s3-2,4.9-2c2.1,0,3.9,0.7,5.4,2c1.5,1.4,2.2,3,2.2,4.9c0,1.5-0.5,3-1.7,4.4l-26.2,29.2
		c-0.2,0.3-0.4,0.6-0.4,1v9.2c0,0.8,0.6,1.4,1.4,1.4h35.5l0,0h2c0.8,0,1.4-0.6,1.4-1.4v-9.6c0-0.8-0.6-1.4-1.4-1.4h-16.7
		c-1.2,0-1.9-1.5-1-2.4L2166.4-1391.7z"/>
	<path class="st0" d="M2172.5-1381l18-46.6c0.2-0.6,0.9-1.1,1.6-1.1h18.6c0.9,0,1.7,0.7,1.7,1.7v37.5c0,0.9,0.7,1.7,1.7,1.7h3.9
		c0.9,0,1.7,0.7,1.7,1.7v9.4c0,0.9-0.7,1.7-1.7,1.7h-3.9c-0.9,0-1.7,0.7-1.7,1.7v9.1c0,0.9-0.7,1.7-1.7,1.7h-11.4
		c-0.9,0-1.7-0.7-1.7-1.7v-9.1c0-0.9-0.7-1.7-1.7-1.7H2174c-0.9,0-1.7-0.7-1.7-1.7v-3.6C2172.4-1380.6,2172.4-1380.8,2172.5-1381z
		 M2198.5-1389.5v-15.1c0-1.9-2.6-2.3-3.2-0.6l-5.4,15.1c-0.4,1.1,0.4,2.2,1.6,2.2h5.4C2197.8-1387.8,2198.5-1388.6,2198.5-1389.5z"
		/>
</g>
<polyline class="st16" points="-315.3,97.6 -328.9,81.8 -311.2,66.6 "/>
<g>
	<path class="st0" d="M1352.1-158.6c0-0.9,0.5-1.4,1.4-1.4h11.6c1,0,1.8,0.8,1.8,1.8v23.1c0,0.4,0.2,0.5,0.4,0.5c0.9,0,3.3-3,9.1-3
		c8.8,0,13.3,6.1,13.3,17.2v25.3c0,0.9-0.5,1.4-1.4,1.4h-11.6c-1,0-1.8-0.8-1.8-1.8v-22.3c0-3.3-0.5-6.6-4-6.6
		c-3.4,0-3.9,3.4-3.9,6.6v22.6c0,0.9-0.5,1.4-1.4,1.4h-11.6c-1,0-1.8-0.8-1.8-1.8V-158.6z"/>
</g>
<path class="st0" d="M1292.7-110.9c0.9-0.9,1.6-1.8,2.3-2.6c0,0,0,0,0.1-0.1c3.6-4.6,5.5-9.4,5.6-14.3c0-6-2.2-11.2-6.6-15.4
	c-4.4-4.3-9.7-6.5-15.9-6.5c-6,0-11.1,2.1-15.3,6.4c-4.3,4.2-6.3,9.4-6.3,15.4v1.2c0,0.8,0.7,1.5,1.5,1.5h11.3
	c0.8,0,1.5-0.7,1.5-1.5v-1.2c0-2,0.7-3.7,2.2-5.1c1.4-1.4,3.2-2.1,5.2-2.1c2.2,0,4.1,0.7,5.7,2.1c1.5,1.4,2.3,3.1,2.3,5.2
	c0,1.6-0.5,3.1-1.8,4.7l-27.5,30.7c-0.2,0.3-0.4,0.6-0.4,1v9.6c0,0.8,0.7,1.5,1.5,1.5h37.3l0,0h2.2c0.8,0,1.5-0.7,1.5-1.5v-10
	c0-0.8-0.7-1.5-1.5-1.5h-17.5c-1.3,0-2-1.6-1.1-2.5L1292.7-110.9z"/>
<path class="st0" d="M1299-99.8l18.9-48.9c0.3-0.7,0.9-1.1,1.6-1.1h19.6c1,0,1.7,0.8,1.7,1.7v39.4c0,1,0.8,1.7,1.7,1.7h4.1
	c1,0,1.7,0.8,1.7,1.7v9.8c0,1-0.8,1.7-1.7,1.7h-4.1c-1,0-1.7,0.8-1.7,1.7v9.5c0,1-0.8,1.7-1.7,1.7h-12c-1,0-1.7-0.8-1.7-1.7v-9.5
	c0-1-0.8-1.7-1.7-1.7h-23c-1,0-1.7-0.8-1.7-1.7v-3.8C1298.9-99.3,1298.9-99.6,1299-99.8z M1326.4-108.6v-15.8c0-2-2.7-2.4-3.4-0.6
	l-5.6,15.8c-0.4,1.1,0.4,2.3,1.6,2.3h5.6C1325.6-106.9,1326.4-107.7,1326.4-108.6z"/>
<path class="st19" d="M1300.6-166c14.1-12.5,33.7-18.4,53.6-14.4c33.7,6.8,55.6,39.7,48.8,73.4s-39.7,55.6-73.4,48.8"/>
<polyline class="st19" points="1337.7,-43 1324.1,-58.8 1341.7,-74 "/>
<g>
	<path class="st2" d="M481.9,511.5V490c0-4.3,0.7-8.1,2.2-11.3c1.5-3.3,3.8-6.1,7-8.6c3.2-2.5,7.3-4.8,12.4-7l14.9-6.3
		c3.8-1.6,6.6-3.5,8.4-5.8c1.7-2.2,2.6-5,2.6-8.4c0-3.1-1.1-5.8-3.1-8c-2.1-2.2-5.2-3.3-9.2-3.3c-4.1,0-7.2,1.1-9.2,3.4
		c-2.1,2.3-3.1,5.3-3.1,9.2h-24.1c0-6.4,1.4-12.1,4.2-17.1c2.8-5,6.9-8.9,12.3-11.8c5.4-2.9,12.1-4.3,20-4.3
		c7.9,0,14.5,1.4,19.9,4.1c5.4,2.7,9.5,6.4,12.3,11.1c2.8,4.7,4.2,10,4.2,15.9v1.6c0,7.6-2.1,13.8-6.2,18.8
		c-4.1,4.9-10.7,9.3-19.8,13.3l-14.9,6.3c-2.1,0.9-3.7,1.9-4.8,2.9c-1,1.1-1.5,2.5-1.5,4.3v4.8l-5.8-3.8h52.7v21.4H481.9z"/>
	<path class="st2" d="M553,490.2v-17.8c0-4.9,1.4-9.7,4.1-13.8l30.7-47.5l19.7,12.5l-27.4,42.2c-0.7,1-0.6,2.3,0,3.3l0,0
		c0.6,0.8,1.5,1.3,2.5,1.3h55.4v19.8H553z M604.3,511.5v-74.8h23v74.8H604.3z"/>
	<path class="st0" d="M627.4,511.5v-74.8h21.9c0,14,0,14.1,0,21.4c2.9-3.9,8.9-5,13-5h0.8c6.1,0,13.3,2.1,16.7,6.4
		c4.6,5.8,5.5,11.2,5.5,19.8v32.2h-21.9v-32.9c0-2.6-0.8-4.7-2.4-6.4c-1.6-1.7-4-2-6.5-1.5c-4.2,0.8-5.3,5.4-5.3,8.1v32.7H627.4z"/>
	<g>
		<path class="st0" d="M460.7,433.7c-5.2,0-10,1.1-14.7,3.3c-3.5,2-21.4,9.1-21.4,37.2v37.2h23.4v-38.8c0-4.8,0.5-8,3.3-11.4
			c2.9-3.4,5.3-4.1,9.4-4.1h11.1v-23.4H460.7z"/>
		<path class="st0" d="M242.4,511.5c-10.5,0-18.8-2.2-24.9-6.5c-6.1-4.3-9.3-10.5-9.8-18.4h21.1c0.4,2.2,1.7,4.1,4.1,5.7
			s5.7,2.4,10,2.4c3.1,0,5.7-0.5,8-1.4c2.2-0.9,3.4-2.4,3.4-4.5c0-1.8-0.9-3.4-2.6-4.5c-1.8-1.2-5-2-9.6-2.4l-5-0.5
			c-9.3-1-16.2-3.5-20.6-7.6c-4.4-4.1-6.6-9.3-6.6-15.5c0-5.4,1.3-9.8,4-13.2c2.6-3.5,6.3-6.1,10.9-7.8c4.7-1.8,10-2.6,15.9-2.6
			c9.8,0,17.6,2.1,23.6,6.4c6,4.3,9.1,10.4,9.5,18.4h-21.1c-0.4-2.2-1.5-4.1-3.6-5.6c-2-1.5-4.9-2.3-8.7-2.3c-2.7,0-4.9,0.5-6.7,1.4
			c-1.7,1-2.6,2.3-2.6,4.1c0,1.8,0.8,3.2,2.4,4.1c1.6,0.9,4.2,1.5,7.8,2l5,0.5c9.3,1,16.5,3.5,21.5,7.7c5,4.2,7.6,9.6,7.6,16.4
			c0,5-1.3,9.3-4,12.9c-2.7,3.6-6.5,6.4-11.5,8.3C255.2,510.5,249.3,511.5,242.4,511.5z"/>
		<path class="st0" d="M278.5,452.1v-17.4h52.7v17.4H278.5z M321.3,511.5c-7.9,0-14.2-1-18.9-2.9c-4.7-1.9-8.1-5.1-10.2-9.6
			c-2.1-4.5-3.2-10.5-3.2-18.2l0.1-70.1h22.1l-0.1,70.7c0,3.3,0.9,5.7,2.6,7.4c1.7,1.7,4.2,2.6,7.4,2.6h10v20H321.3z"/>
		<path class="st0" d="M377.3,511.5c-6.4,0-12.1-1-17.1-2.9c-5-1.9-9.2-4.6-12.7-8c-3.5-3.4-6.1-7.4-7.9-11.9
			c-1.8-4.5-2.7-9.3-2.7-14.4v-3.2c0-5.3,0.9-10.2,2.8-14.8c1.9-4.6,4.6-8.6,8.1-12c3.5-3.4,7.8-6.1,12.8-8c5-1.9,10.6-2.9,16.7-2.9
			c6.2,0,11.8,1,16.8,2.9c5,1.9,9.2,4.6,12.7,8c3.5,3.4,6.2,7.4,8.1,12c1.9,4.6,2.8,9.5,2.8,14.8v3.2c0,5.1-0.9,9.9-2.7,14.4
			c-1.8,4.5-4.4,8.4-7.9,11.9c-3.5,3.4-7.7,6.1-12.7,8C389.5,510.5,383.7,511.5,377.3,511.5z M377.3,491.4c3.7,0,6.7-0.8,9.2-2.4
			c2.4-1.6,4.2-3.8,5.5-6.7c1.2-2.9,1.8-6.1,1.8-9.7c0-3.8-0.6-7.1-1.9-9.9c-1.3-2.9-3.1-5.1-5.6-6.8c-2.5-1.7-5.4-2.5-9-2.5
			c-3.5,0-6.5,0.8-9,2.5c-2.5,1.7-4.3,3.9-5.6,6.8c-1.3,2.9-1.9,6.2-1.9,9.9c0,3.6,0.6,6.8,1.8,9.7c1.2,2.9,3.1,5.1,5.5,6.7
			C370.7,490.6,373.7,491.4,377.3,491.4z"/>
		<path class="st0" d="M196.6,452.6c-2.9-5.8-7.1-10.4-12.5-13.9c-5.4-3.5-12.1-5.3-19.9-5.3c-5.9,0-11.2,1-15.8,3.1
			c-4.7,2.1-8.6,4.9-11.8,8.4c-3.2,3.5-5.7,7.5-7.4,12.1c-1.7,4.5-2.6,9.2-2.6,14.2v2.6c0,4.7,0.9,9.4,2.6,13.8
			c1.7,4.5,4.2,8.5,7.4,12.1c3.2,3.6,7.2,6.5,12,8.6c4.7,2.1,10.2,3.2,16.3,3.2c6.2,0,11.7-1.1,16.5-3.3c4.8-2.2,8.7-5.2,11.9-9.1
			c3.1-3.9,5.2-8.3,6.3-13.2h-21.9c-0.9,1.9-2.4,3.5-4.5,4.6c-2.2,1.1-4.9,1.7-8.2,1.7c-3.8,0-6.9-0.8-9.2-2.4
			c-2.4-1.6-4.1-3.8-5.3-6.8c-0.4-0.9-0.7-1.9-0.9-3h51.4l0-1h0v-7.6C200.9,464.6,199.4,458.4,196.6,452.6z M155.9,454.9
			c2.3-1.4,5.1-2.2,8.2-2.2c3.2,0,6,0.7,8.1,2.2c2.2,1.5,3.8,3.7,4.9,6.5c0.1,0.3,0.2,0.5,0.3,0.8h-27.1c0.1-0.3,0.2-0.5,0.3-0.8
			C151.8,458.5,153.6,456.3,155.9,454.9z"/>
		<path class="st0" d="M79.1,479.9h17.4v0c-1.6,2.3-3.7,4.2-6.5,5.8c-4,2.3-8.7,3.4-14.1,3.4c-4.3,0-8.1-0.7-11.5-2.1
			c-3.3-1.4-6.1-3.4-8.3-6c-2.2-2.6-3.9-5.6-5-9.1c-1.1-3.5-1.7-7.2-1.7-11.3c0-4,0.5-7.8,1.6-11.2c1.1-3.4,2.6-6.4,4.7-8.9
			c2.1-2.5,4.6-4.4,7.6-5.8c3-1.4,6.5-2,10.5-2c4.1,0,7.8,0.7,11,2c3.2,1.4,5.8,3.2,7.8,5.5c2,2.3,3.3,4.9,3.8,7.8H121
			c-0.7-7.6-3.1-14.2-7.2-20c-4.1-5.8-9.6-10.3-16.4-13.5c-6.8-3.2-14.6-4.9-23.5-4.9c-8.3,0-15.5,1.4-21.6,4.3
			c-6.1,2.9-11.3,6.7-15.3,11.4c-4.1,4.7-7.1,10-9.2,15.9c-2,5.8-3,11.7-3,17.7v2.9c0,5.5,1,11.2,2.9,17c1.9,5.8,5,11.2,9.1,16.1
			c4.1,4.9,9.4,8.9,15.9,11.9c6.5,3,14.3,4.5,23.3,4.5c9.8,0,18.3-1.9,25.8-5.6c7.4-3.7,15.3-11.3,19.3-18.2v-7.8v-9.8v-7.6H79.1
			V479.9z"/>
	</g>
</g>
<path class="st14" d="M401.1,88.3c-1.4,0-2.5-1.1-2.5-2.5V69.7c0-3.7,0.6-7,1.9-9.8c1.3-2.8,3.3-5.3,6-7.5c2.7-2.2,6.3-4.2,10.7-6
	l12.9-5.5c3.3-1.4,5.7-3.1,7.3-5c1.5-1.9,2.3-4.4,2.3-7.3c0-2.7-0.9-5-2.7-6.9c-1.8-1.9-4.5-2.8-8-2.8c-3.6,0-6.2,1-8,3
	c-1.5,1.6-2.3,3.7-2.6,6.3c-0.1,1-0.9,1.7-1.8,1.7h-17.4c-1,0-1.8-0.8-1.7-1.8c0.2-4.8,1.4-9.2,3.6-13c2.4-4.3,5.9-7.7,10.6-10.2
	c4.7-2.5,10.5-3.7,17.4-3.7c6.8,0,12.6,1.2,17.2,3.5c4.7,2.4,8.2,5.6,10.7,9.6s3.7,8.6,3.7,13.8v1.4c0,6.6-1.8,12-5.3,16.3
	c-3.6,4.3-9.3,8.1-17.2,11.5l-12.9,5.5c-1.9,0.8-3.2,1.6-4.1,2.6c-0.9,0.9-1.3,2.2-1.3,3.7v2.1c0,0.9-1,1.5-1.8,1v0
	c-1-0.6-0.5-2.1,0.6-2.1h41.8v17.4c0,0.6-0.5,1.1-1.1,1.1H401.1z"/>
<path class="st14" d="M460.3,69.9V54.5c0-4.2,1.2-8.4,3.5-11.9l25.5-39.4c0.6-1,1.9-1.3,2.9-0.6l13.6,8.6c0.9,0.6,1.2,1.9,0.6,2.8
	l-22.7,34.8c-0.6,0.9-0.6,2,0,2.9v0c0.5,0.7,1.3,1.1,2.1,1.1h48v17.2H460.3z M504.7,85.8V25.5c0-1.1,0.9-2,2-2h18v64.8h-17.5
	C505.9,88.3,504.7,87.2,504.7,85.8z"/>
<path class="st2" d="M524.7,88.3V23.5h16.8c1.2,0,2.2,1,2.2,2.2c0,10,0,10.4,0,16.4c2.5-3.4,7.8-4.3,11.3-4.3h0.7
	c5.3,0,11.6,1.8,14.5,5.6c4,5.1,4.8,9.7,4.8,17.2v25.7c0,1.2-1,2.2-2.2,2.2H558c-1.1,0-2-0.9-2-2V59.8c0-2.2-0.7-4.1-2-5.6
	c-1.4-1.5-3.4-1.8-5.6-1.3c-3.7,0.7-4.6,4.7-4.6,7.1v26.4c0,1.1-0.9,2-2,2H524.7z"/>
<path class="st2" d="M-1296.2,92.7c-2.4,0-4.4-2-4.4-4.4V68.9c0-4.8,0.8-8.9,2.5-12.6c1.6-3.6,4.2-6.8,7.7-9.6
	c3.5-2.8,8.1-5.4,13.8-7.7l16.5-7c4.3-1.8,7.4-3.9,9.3-6.4c1.9-2.5,2.9-5.6,2.9-9.4c0-3.5-1.2-6.4-3.5-8.9
	c-2.3-2.4-5.7-3.6-10.2-3.6c-4.6,0-8,1.3-10.3,3.8c-1.8,2-2.8,4.4-3.2,7.4c-0.2,1.6-1.5,2.8-3.1,2.8l-20.7,0c-1.7,0-3.1-1.5-3-3.2
	c0.4-5.9,1.9-11.1,4.5-15.9c3.1-5.6,7.6-9.9,13.6-13.1c6-3.2,13.4-4.8,22.2-4.8c8.7,0,16.1,1.5,22.1,4.5c6,3,10.6,7.1,13.7,12.3
	c3.1,5.2,4.7,11.1,4.7,17.6v1.8c0,8.4-2.3,15.4-6.8,20.8c-4.6,5.5-11.9,10.4-22,14.7l-16.5,7c-2.4,1-4.1,2.1-5.3,3.3
	c-1.1,1.2-1.7,2.8-1.7,4.8v2.7c0,1.2-1.3,1.9-2.3,1.2l0,0c-1.2-0.8-0.7-2.7,0.8-2.7h53.5v22.3c0,0.8-0.7,1.5-1.5,1.5H-1296.2z"/>
<path class="st2" d="M-1221.6,69.1V49.3c0-5.4,1.6-10.7,4.5-15.3l32.5-50.2c0.9-1.4,2.8-1.8,4.2-0.9l17.1,10.8
	c1.2,0.8,1.6,2.4,0.8,3.6l-29,44.6c-0.7,1.1-0.7,2.6,0,3.7v0c0.6,0.9,1.6,1.4,2.7,1.4h61.5v22H-1221.6z M-1164.6,89.6V12
	c0-1.3,1-2.3,2.3-2.3h21.1c1.2,0,2.2,1,2.2,2.2v77.8c0,1.7-1.4,3.1-3.1,3.1h-19.4C-1163.2,92.7-1164.6,91.3-1164.6,89.6z"/>
<path class="st0" d="M-1139,90V12.4c0-1.5,1.2-2.7,2.7-2.7h18.9c1.5,0,2.7,1.2,2.7,2.7c0,8.8,0,11.8,0,15.3c0,2.1,2.2,3.4,4,2.4
	c3.3-1.7,7.4-2.3,10.5-2.3h0.9c6.8,0,14.8,2.3,18.6,7.1c5.1,6.5,6.1,12.4,6.1,22v33c0,1.5-1.2,2.7-2.7,2.7h-18.9
	c-1.5,0-2.7-1.2-2.7-2.7V56.2c0-2.9-0.9-5.3-2.6-7.1c-1.7-1.9-4.4-2.3-7.2-1.7c-4.7,0.9-5.8,6-5.8,9V90c0,1.5-1.2,2.7-2.7,2.7h-18.9
	C-1137.8,92.7-1139,91.5-1139,90z"/>
<path class="st2" d="M380.3,21c-4.5,0-8.6,1-12.7,2.9c0,0-0.1,0-0.1,0.1c-3.2,1.8-18.5,8-18.5,32.2v30.8c0,0.8,0.6,1.4,1.4,1.4h17.4
	c0.8,0,1.4-0.6,1.4-1.4V54.7c0-4.1,0.4-6.9,2.9-9.9c2.5-2.9,4.6-3.6,8.2-3.6h8.2c0.8,0,1.4-0.6,1.4-1.4V22.4c0-0.8-0.6-1.4-1.4-1.4
	L380.3,21z"/>
<path class="st2" d="M194.8,88.3c-9.1,0-16.3-1.9-21.6-5.7c-5-3.6-5.8-8.4-5.8-15.7c0-0.6,0.5-1.1,1.1-1.1c3.3,0,13.5,0,16.4,0
	c0.5,0,0.8,0.4,0.9,0.8c0.1,1.8-0.1,3.8,1.7,5c2.1,1.4,4.1,2.1,7.8,2.1c2.7,0,5-0.4,6.9-1.2c1.9-0.8,2.9-2.9,2.9-4.7
	c0-1.6-0.8-3-2.3-4.1c-1.5-1-4.3-1.7-8.3-2.1l-4.3-0.5c-5.5-0.6-14.3-2.4-17.8-5.8c-3.8-3.6-4.8-8.1-4.8-13.5
	c0-4.6,1.1-8.5,3.4-11.5c2.3-3,5.4-5.3,9.5-6.8c4-1.5,8.6-2.3,13.8-2.3c8.4,0,15.3,1.8,20.4,5.5c4.9,3.5,7.7,8.5,8.2,15
	c0,0.5-0.4,1-0.9,1l-16.5,0c-0.4,0-0.8-0.3-0.9-0.7c-0.4-1.6-1.4-3-2.9-4.2c-1.8-1.3-4.3-2-7.5-2c-2.4,0-4.3,0.4-5.8,1.3
	c-1.3,0.7-2,1.7-2.2,3c-0.2,1.8,0.9,3.5,2.5,4.3c1.3,0.7,2.7,1.2,5.5,1.5l4.3,0.5c8.1,0.8,14.3,3.1,18.7,6.7
	c4.4,3.6,6.6,8.4,6.6,14.2c0,4.3-1.2,8.1-3.5,11.2c-2.3,3.1-5.6,5.5-9.9,7.2C205.8,87.5,200.7,88.3,194.8,88.3z"/>
<path class="st2" d="M232,34.9V23.7c0-1.1,0.9-1.9,1.9-1.9h32.3c1.1,0,1.9,0.9,1.9,1.9v11.2c0,1.1-0.9,1.9-1.9,1.9h-32.3
	C232.9,36.9,232,36,232,34.9z M259.6,88.3c-6.8,0-12.3-0.8-16.4-2.5c-4.1-1.7-7-4.5-8.8-8.3c-1.8-3.9-2.7-9.1-2.7-15.8L231.7,3
	c0-1.1,0.9-1.9,1.9-1.9h15.3c1.1,0,1.9,0.9,1.9,1.9l-0.1,59.3c0,2.8,0.7,5,2.2,6.4c1.5,1.5,3.6,2.2,6.4,2.2h6.7
	c1.1,0,1.9,0.9,1.9,1.9v13.5c0,1.1-0.9,1.9-1.9,1.9H259.6z"/>
<path class="st2" d="M308.1,88.3c-5.6,0-10.5-0.8-14.8-2.5c-4.3-1.7-8-4-11-7c-3-3-5.3-6.4-6.8-10.3c-1.6-3.9-2.3-8-2.3-12.4v-2.7
	c0-4.6,0.8-8.8,2.5-12.8c1.6-4,4-7.4,7-10.4c3-3,6.7-5.3,11.1-7c4.3-1.7,9.2-2.5,14.5-2.5c5.4,0,10.3,0.8,14.6,2.5c4.3,1.7,8,4,11,7
	c3,3,5.4,6.4,7,10.4c1.6,4,2.5,8.2,2.5,12.8v2.7c0,4.4-0.8,8.6-2.3,12.4c-1.6,3.9-3.8,7.3-6.8,10.3c-3,3-6.7,5.3-11,7
	C318.6,87.5,313.6,88.3,308.1,88.3z M308.1,71c3.2,0,5.8-0.7,7.9-2.1c2.1-1.4,3.7-3.3,4.7-5.8c1.1-2.5,1.6-5.3,1.6-8.4
	c0-3.3-0.6-6.1-1.7-8.6c-1.1-2.5-2.7-4.4-4.9-5.9c-2.1-1.4-4.7-2.2-7.8-2.2c-3,0-5.6,0.7-7.8,2.2c-2.1,1.4-3.7,3.4-4.9,5.9
	c-1.1,2.5-1.7,5.3-1.7,8.6c0,3.1,0.5,5.9,1.6,8.4c1.1,2.5,2.7,4.4,4.8,5.8C302.3,70.3,305,71,308.1,71z"/>
<path class="st2" d="M156.1,37.3c-2.5-5-6.1-9-10.8-12c-4.7-3-10.5-4.6-17.2-4.6c-5.1,0-9.7,0.9-13.7,2.7c-4,1.8-7.4,4.2-10.2,7.2
	c-2.8,3-4.9,6.5-6.4,10.4c-1.5,3.9-2.2,8-2.2,12.3v2.3c0,4.1,0.7,8.1,2.2,12s3.6,7.4,6.4,10.5c2.8,3.1,6.3,5.6,10.4,7.4
	c4.1,1.8,8.8,2.7,14.2,2.7c5.4,0,10.2-1,14.3-2.9c4.1-1.9,7.6-4.5,10.3-7.9c2.2-2.8,3.9-5.9,4.9-9.3c0.3-1.1-0.5-2.1-1.6-2.1
	c0,0-14.2,0-15.7,0c-1.1,0-1.4,0.6-1.6,0.9c-0.8,1.3-1.9,2.3-3.5,3.1c-1.9,1-4.2,1.5-7.1,1.5c-3.3,0-5.9-0.7-8-2.1
	c-2.1-1.4-3.6-3.3-4.6-5.9c-0.2-0.6-0.4-1.2-0.6-1.8c-0.1-0.4,0.2-0.8,0.6-0.8l42.1,0c0,0,1.6,0.1,1.6-1.7c0-1.8,0-5.8,0-5.8
	C159.8,47.7,158.6,42.3,156.1,37.3z M120.8,39.3c2-1.3,4.4-1.9,7.1-1.9c2.8,0,5.2,0.6,7,1.9c2,1.4,3.5,3.5,4.5,6.3l-22.6,0
	c-0.4,0-0.8-0.5-0.6-0.9C117.4,42.3,118.9,40.5,120.8,39.3z"/>
<path class="st0" d="M-121.3,203.6h17.4v0c-1.6,2.3-3.7,4.2-6.5,5.8c-4,2.3-8.7,3.4-14.1,3.4c-4.3,0-8.1-0.7-11.5-2.1
	c-3.3-1.4-6.1-3.4-8.3-6c-2.2-2.6-3.9-5.6-5-9.1c-1.1-3.5-1.7-7.2-1.7-11.3c0-4,0.5-7.8,1.6-11.2s2.6-6.4,4.7-8.9
	c2.1-2.5,4.6-4.4,7.6-5.8c3-1.4,6.5-2,10.5-2c4.1,0,7.8,0.7,11,2c3.2,1.4,5.8,3.2,7.8,5.5c2,2.3,3.3,4.9,3.8,7.8h24.5
	c-0.7-7.6-3.1-14.2-7.2-20c-4.1-5.8-9.6-10.3-16.4-13.5c-6.8-3.2-14.6-4.9-23.5-4.9c-8.3,0-15.5,1.4-21.6,4.3
	c-6.1,2.9-11.3,6.7-15.3,11.4c-4.1,4.7-7.1,10-9.2,15.9c-2,5.8-3,11.7-3,17.7v2.9c0,5.5,1,11.2,2.9,17c1.9,5.8,5,11.2,9.1,16.1
	c4.1,4.9,9.4,8.9,15.9,11.9c6.5,3,14.3,4.5,23.3,4.5c9.8,0,18.3-1.9,25.8-5.6c7.4-3.7,15.3-11.3,19.3-18.2v-7.8v-9.8v-7.6h-41.9
	V203.6z"/>
<path class="st2" d="M481.9,961.5V940c0-4.3,0.7-8.1,2.2-11.3c1.5-3.3,3.8-6.1,7-8.6c3.2-2.5,7.3-4.8,12.4-7l14.9-6.3
	c3.8-1.6,6.6-3.5,8.4-5.8c1.7-2.2,2.6-5,2.6-8.4c0-3.1-1.1-5.8-3.1-8c-2.1-2.2-5.2-3.3-9.2-3.3c-4.1,0-7.2,1.1-9.2,3.4
	c-2.1,2.3-3.1,5.3-3.1,9.2h-24.1c0-6.4,1.4-12.1,4.2-17.1c2.8-5,6.9-8.9,12.3-11.8c5.4-2.9,12.1-4.3,20-4.3c7.9,0,14.5,1.4,19.9,4.1
	c5.4,2.7,9.5,6.4,12.3,11.1s4.2,10,4.2,15.9v1.6c0,7.6-2.1,13.8-6.2,18.8c-4.1,4.9-10.7,9.3-19.8,13.3l-14.9,6.3
	c-2.1,0.9-3.7,1.9-4.8,2.9c-1,1.1-1.5,2.5-1.5,4.3v4.8l-5.8-3.8h52.7v21.4H481.9z"/>
<path class="st2" d="M553,940.2v-17.8c0-4.9,1.4-9.7,4.1-13.8l30.7-47.5l19.7,12.5l-27.4,42.2c-0.7,1-0.6,2.3,0,3.3l0,0
	c0.6,0.8,1.5,1.3,2.5,1.3h55.4v19.8H553z M604.3,961.5v-74.8h23v74.8H604.3z"/>
<path class="st14" d="M627.4,961.5v-74.8h21.9c0,14,0,14.1,0,21.4c2.9-3.9,8.9-5,13-5h0.8c6.1,0,13.3,2.1,16.7,6.4
	c4.6,5.8,5.5,11.2,5.5,19.8v32.2h-21.9v-32.9c0-2.6-0.8-4.7-2.4-6.4c-1.6-1.7-4-2-6.5-1.5c-4.2,0.8-5.3,5.4-5.3,8.1v32.7H627.4z"/>
<g>
	<path class="st14" d="M460.7,883.7c-5.2,0-10,1.1-14.7,3.3c-3.5,2-21.4,9.1-21.4,37.2v37.2h23.4v-38.8c0-4.8,0.5-8,3.3-11.4
		c2.9-3.4,5.3-4.1,9.4-4.1h11.1v-23.4H460.7z"/>
	<path class="st14" d="M242.4,961.5c-10.5,0-18.8-2.2-24.9-6.5c-6.1-4.3-9.3-10.5-9.8-18.4h21.1c0.4,2.2,1.7,4.1,4.1,5.7
		c2.4,1.6,5.7,2.4,10,2.4c3.1,0,5.7-0.5,8-1.4c2.2-0.9,3.4-2.4,3.4-4.5c0-1.8-0.9-3.4-2.6-4.5c-1.8-1.2-5-2-9.6-2.4l-5-0.5
		c-9.3-1-16.2-3.5-20.6-7.6c-4.4-4.1-6.6-9.3-6.6-15.5c0-5.4,1.3-9.8,4-13.2c2.6-3.5,6.3-6.1,10.9-7.8c4.7-1.8,10-2.6,15.9-2.6
		c9.8,0,17.6,2.1,23.6,6.4c6,4.3,9.1,10.4,9.5,18.4h-21.1c-0.4-2.2-1.5-4.1-3.6-5.6c-2-1.5-4.9-2.3-8.7-2.3c-2.7,0-4.9,0.5-6.7,1.4
		c-1.7,1-2.6,2.3-2.6,4.1c0,1.8,0.8,3.2,2.4,4.1c1.6,0.9,4.2,1.5,7.8,2l5,0.5c9.3,1,16.5,3.5,21.5,7.7c5,4.2,7.6,9.6,7.6,16.4
		c0,5-1.3,9.3-4,12.9c-2.7,3.6-6.5,6.4-11.5,8.3C255.2,960.5,249.3,961.5,242.4,961.5z"/>
	<path class="st14" d="M278.5,902.1v-17.4h52.7v17.4H278.5z M321.3,961.5c-7.9,0-14.2-1-18.9-2.9c-4.7-1.9-8.1-5.1-10.2-9.6
		c-2.1-4.5-3.2-10.5-3.2-18.2l0.1-70.1h22.1l-0.1,70.7c0,3.3,0.9,5.7,2.6,7.4c1.7,1.7,4.2,2.6,7.4,2.6h10v20H321.3z"/>
	<path class="st14" d="M377.3,961.5c-6.4,0-12.1-1-17.1-2.9c-5-1.9-9.2-4.6-12.7-8c-3.5-3.4-6.1-7.4-7.9-11.9
		c-1.8-4.5-2.7-9.3-2.7-14.4v-3.2c0-5.3,0.9-10.2,2.8-14.8c1.9-4.6,4.6-8.6,8.1-12c3.5-3.4,7.8-6.1,12.8-8c5-1.9,10.6-2.9,16.7-2.9
		c6.2,0,11.8,1,16.8,2.9c5,1.9,9.2,4.6,12.7,8c3.5,3.4,6.2,7.4,8.1,12c1.9,4.6,2.8,9.5,2.8,14.8v3.2c0,5.1-0.9,9.9-2.7,14.4
		c-1.8,4.5-4.4,8.4-7.9,11.9c-3.5,3.4-7.7,6.1-12.7,8C389.5,960.5,383.7,961.5,377.3,961.5z M377.3,941.4c3.7,0,6.7-0.8,9.2-2.4
		c2.4-1.6,4.2-3.8,5.5-6.7c1.2-2.9,1.8-6.1,1.8-9.7c0-3.8-0.6-7.1-1.9-9.9c-1.3-2.9-3.1-5.1-5.6-6.8c-2.5-1.7-5.4-2.5-9-2.5
		c-3.5,0-6.5,0.8-9,2.5c-2.5,1.7-4.3,3.9-5.6,6.8c-1.3,2.9-1.9,6.2-1.9,9.9c0,3.6,0.6,6.8,1.8,9.7c1.2,2.9,3.1,5.1,5.5,6.7
		C370.7,940.6,373.7,941.4,377.3,941.4z"/>
	<path class="st14" d="M196.6,902.6c-2.9-5.8-7.1-10.4-12.5-13.9c-5.4-3.5-12.1-5.3-19.9-5.3c-5.9,0-11.2,1-15.8,3.1
		c-4.7,2.1-8.6,4.9-11.8,8.4c-3.2,3.5-5.7,7.5-7.4,12.1c-1.7,4.5-2.6,9.2-2.6,14.2v2.6c0,4.7,0.9,9.4,2.6,13.8
		c1.7,4.5,4.2,8.5,7.4,12.1c3.2,3.6,7.2,6.5,12,8.6c4.7,2.1,10.2,3.2,16.3,3.2c6.2,0,11.7-1.1,16.5-3.3c4.8-2.2,8.7-5.2,11.9-9.1
		c3.1-3.9,5.2-8.3,6.3-13.2h-21.9c-0.9,1.9-2.4,3.5-4.5,4.6c-2.2,1.1-4.9,1.7-8.2,1.7c-3.8,0-6.9-0.8-9.2-2.4
		c-2.4-1.6-4.1-3.8-5.3-6.8c-0.4-0.9-0.7-1.9-0.9-3h51.4l0-1h0v-7.6C200.9,914.6,199.4,908.4,196.6,902.6z M155.9,904.9
		c2.3-1.4,5.1-2.2,8.2-2.2c3.2,0,6,0.7,8.1,2.2c2.2,1.5,3.8,3.7,4.9,6.5c0.1,0.3,0.2,0.5,0.3,0.8h-27.1c0.1-0.3,0.2-0.5,0.3-0.8
		C151.8,908.5,153.6,906.3,155.9,904.9z"/>
	<path class="st14" d="M79.1,929.9h17.4v0c-1.6,2.3-3.7,4.2-6.5,5.8c-4,2.3-8.7,3.4-14.1,3.4c-4.3,0-8.1-0.7-11.5-2.1
		c-3.3-1.4-6.1-3.4-8.3-6c-2.2-2.6-3.9-5.6-5-9.1c-1.1-3.5-1.7-7.2-1.7-11.3c0-4,0.5-7.8,1.6-11.2c1.1-3.4,2.6-6.4,4.7-8.9
		c2.1-2.5,4.6-4.4,7.6-5.8c3-1.4,6.5-2,10.5-2c4.1,0,7.8,0.7,11,2c3.2,1.4,5.8,3.2,7.8,5.5c2,2.3,3.3,4.9,3.8,7.8H121
		c-0.7-7.6-3.1-14.2-7.2-20c-4.1-5.8-9.6-10.3-16.4-13.5c-6.8-3.2-14.6-4.9-23.5-4.9c-8.3,0-15.5,1.4-21.6,4.3
		c-6.1,2.9-11.3,6.7-15.3,11.4c-4.1,4.7-7.1,10-9.2,15.9c-2,5.8-3,11.7-3,17.7v2.9c0,5.5,1,11.2,2.9,17c1.9,5.8,5,11.2,9.1,16.1
		c4.1,4.9,9.4,8.9,15.9,11.9c6.5,3,14.3,4.5,23.3,4.5c9.8,0,18.3-1.9,25.8-5.6c7.4-3.7,15.3-11.3,19.3-18.2v-7.8v-9.8v-7.6H79.1
		V929.9z"/>
</g>
<path class="st0" d="M384.9-118.8c-5.2,0-10,1.1-14.7,3.3c-3.5,2-21.4,9.1-21.4,37.2v37.2h23.4v-38.8c0-4.8,0.5-8,3.3-11.4
	c2.9-3.4,5.3-4.1,9.4-4.1h11.1v-23.4L384.9-118.8z"/>
<path class="st0" d="M166.6-41.1c-10.5,0-18.8-2.2-24.9-6.5c-6.1-4.3-9.3-10.5-9.8-18.4h21.1c0.4,2.2,1.7,4.1,4.1,5.7
	c2.4,1.6,5.7,2.4,10,2.4c3.1,0,5.7-0.5,8-1.4c2.2-0.9,3.4-2.4,3.4-4.5c0-1.8-0.9-3.4-2.6-4.5c-1.8-1.2-5-2-9.6-2.4l-5-0.5
	c-9.3-1-16.2-3.5-20.6-7.6c-4.4-4.1-6.6-9.3-6.6-15.5c0-5.4,1.3-9.8,4-13.2c2.6-3.5,6.3-6.1,10.9-7.8c4.7-1.8,10-2.6,15.9-2.6
	c9.8,0,17.6,2.1,23.6,6.4c6,4.3,9.1,10.4,9.5,18.4h-21.1c-0.4-2.2-1.5-4.1-3.6-5.6c-2-1.5-4.9-2.3-8.7-2.3c-2.7,0-4.9,0.5-6.7,1.4
	c-1.7,1-2.6,2.3-2.6,4.1c0,1.8,0.8,3.2,2.4,4.1c1.6,0.9,4.2,1.5,7.8,2l5,0.5c9.3,1,16.5,3.5,21.5,7.7c5,4.2,7.6,9.6,7.6,16.4
	c0,5-1.3,9.3-4,12.9c-2.7,3.6-6.5,6.4-11.5,8.3C179.4-42,173.5-41.1,166.6-41.1z"/>
<path class="st0" d="M202.7-100.4v-17.4h52.7v17.4H202.7z M245.6-41.1c-7.9,0-14.2-1-18.9-2.9c-4.7-1.9-8.1-5.1-10.2-9.6
	c-2.1-4.5-3.2-10.5-3.2-18.2l0.1-70.1h22.1l-0.1,70.7c0,3.3,0.9,5.7,2.6,7.4c1.7,1.7,4.2,2.6,7.4,2.6h10v20H245.6z"/>
<path class="st0" d="M301.6-41.1c-6.4,0-12.1-1-17.1-2.9c-5-1.9-9.2-4.6-12.7-8c-3.5-3.4-6.1-7.4-7.9-11.9
	c-1.8-4.5-2.7-9.3-2.7-14.4v-3.2c0-5.3,0.9-10.2,2.8-14.8c1.9-4.6,4.6-8.6,8.1-12c3.5-3.4,7.8-6.1,12.8-8c5-1.9,10.6-2.9,16.7-2.9
	c6.2,0,11.8,1,16.8,2.9c5,1.9,9.2,4.6,12.7,8c3.5,3.4,6.2,7.4,8.1,12c1.9,4.6,2.8,9.5,2.8,14.8v3.2c0,5.1-0.9,9.9-2.7,14.4
	c-1.8,4.5-4.4,8.4-7.9,11.9c-3.5,3.4-7.7,6.1-12.7,8C313.7-42,308-41.1,301.6-41.1z M301.6-61.1c3.7,0,6.7-0.8,9.2-2.4
	c2.4-1.6,4.2-3.8,5.5-6.7c1.2-2.9,1.8-6.1,1.8-9.7c0-3.8-0.6-7.1-1.9-9.9c-1.3-2.9-3.1-5.1-5.6-6.8c-2.5-1.7-5.4-2.5-9-2.5
	c-3.5,0-6.5,0.8-9,2.5c-2.5,1.7-4.3,3.9-5.6,6.8c-1.3,2.9-1.9,6.2-1.9,9.9c0,3.6,0.6,6.8,1.8,9.7c1.2,2.9,3.1,5.1,5.5,6.7
	C294.9-61.9,298-61.1,301.6-61.1z"/>
<path class="st0" d="M120.8-99.9c-2.9-5.8-7.1-10.4-12.5-13.9c-5.4-3.5-12.1-5.3-19.9-5.3c-5.9,0-11.2,1-15.8,3.1
	c-4.7,2.1-8.6,4.9-11.8,8.4c-3.2,3.5-5.7,7.5-7.4,12.1c-1.7,4.5-2.6,9.2-2.6,14.2v2.6c0,4.7,0.9,9.4,2.6,13.8
	c1.7,4.5,4.2,8.5,7.4,12.1c3.2,3.6,7.2,6.5,12,8.6c4.7,2.1,10.2,3.2,16.3,3.2c6.2,0,11.7-1.1,16.5-3.3c4.8-2.2,8.7-5.2,11.9-9.1
	c3.1-3.9,5.2-8.3,6.3-13.2h-21.9c-0.9,1.9-2.4,3.5-4.5,4.6c-2.2,1.1-4.9,1.7-8.2,1.7c-3.8,0-6.9-0.8-9.2-2.4
	c-2.4-1.6-4.1-3.8-5.3-6.8c-0.4-0.9-0.7-1.9-0.9-3h51.4l0-1h0v-7.6C125.1-87.9,123.7-94.1,120.8-99.9z M80.1-97.6
	c2.3-1.4,5.1-2.2,8.2-2.2c3.2,0,6,0.7,8.1,2.2c2.2,1.5,3.8,3.7,4.9,6.5c0.1,0.3,0.2,0.5,0.3,0.8H74.5c0.1-0.3,0.2-0.5,0.3-0.8
	C76-94,77.8-96.2,80.1-97.6z"/>
<path class="st0" d="M3.4-72.7h17.4v0c-1.6,2.3-3.7,4.2-6.5,5.8c-4,2.3-8.7,3.4-14.1,3.4c-4.3,0-8.1-0.7-11.5-2.1
	c-3.3-1.4-6.1-3.4-8.3-6c-2.2-2.6-3.9-5.6-5-9.1c-1.1-3.5-1.7-7.2-1.7-11.3c0-4,0.5-7.8,1.6-11.2c1.1-3.4,2.6-6.4,4.7-8.9
	c2.1-2.5,4.6-4.4,7.6-5.8c3-1.4,6.5-2,10.5-2c4.1,0,7.8,0.7,11,2c3.2,1.4,5.8,3.2,7.8,5.5c2,2.3,3.3,4.9,3.8,7.8h24.5
	c-0.7-7.6-3.1-14.2-7.2-20c-4.1-5.8-9.6-10.3-16.4-13.5c-6.8-3.2-14.6-4.9-23.5-4.9c-8.3,0-15.5,1.4-21.6,4.3
	c-6.1,2.9-11.3,6.7-15.3,11.4c-4.1,4.7-7.1,10-9.2,15.9c-2,5.8-3,11.7-3,17.7v2.9c0,5.5,1,11.2,2.9,17c1.9,5.8,5,11.2,9.1,16.1
	c4.1,4.9,9.4,8.9,15.9,11.9c6.5,3,14.3,4.5,23.3,4.5c9.8,0,18.3-1.9,25.8-5.6c7.4-3.7,15.3-11.3,19.3-18.2v-7.8v-9.8v-7.6H3.4V-72.7
	z"/>
<path class="st0" d="M1691.9,484.8h21.8v0c-2,2.9-4.7,5.3-8.1,7.3c-5,2.9-10.9,4.3-17.7,4.3c-5.4,0-10.2-0.9-14.4-2.6
	c-4.2-1.8-7.7-4.3-10.4-7.5c-2.8-3.3-4.9-7.1-6.3-11.4c-1.4-4.4-2.2-9.1-2.2-14.1c0-5.1,0.7-9.8,2-14.1c1.3-4.3,3.3-8,5.9-11.2
	c2.6-3.1,5.8-5.6,9.6-7.3c3.8-1.7,8.2-2.6,13.2-2.6c5.2,0,9.8,0.9,13.8,2.6c4,1.7,7.3,4,9.8,6.9c2.5,2.9,4.1,6.2,4.8,9.8h30.8
	c-0.9-9.5-3.9-17.8-9.1-25.1c-5.2-7.2-12.1-12.9-20.6-17c-8.5-4.1-18.4-6.1-29.5-6.1c-10.4,0-19.4,1.8-27.1,5.4
	c-7.7,3.6-14.1,8.4-19.3,14.3c-5.1,6-9,12.6-11.5,19.9c-2.5,7.3-3.8,14.8-3.8,22.3v3.6c0,6.9,1.2,14.1,3.6,21.3
	c2.4,7.3,6.2,14,11.4,20.2c5.2,6.2,11.9,11.2,20,15c8.2,3.8,17.9,5.7,29.3,5.7c12.2,0,23-2.3,32.3-7c9.3-4.7,19.2-14.2,24.2-22.9
	v-9.7v-12.3v-9.6h-52.6V484.8z"/>
<g>
	<path class="st2" d="M1709.6,494.7v-8c0-1.6,0.3-3,0.8-4.2c0.6-1.2,1.4-2.3,2.6-3.2c1.2-0.9,2.7-1.8,4.6-2.6l5.6-2.4
		c1.4-0.6,2.5-1.3,3.1-2.2c0.7-0.8,1-1.9,1-3.2c0-1.2-0.4-2.2-1.2-3c-0.8-0.8-1.9-1.2-3.4-1.2c-1.5,0-2.7,0.4-3.5,1.3
		c-0.8,0.9-1.2,2-1.2,3.4h-9c0-2.4,0.5-4.6,1.6-6.4c1-1.9,2.6-3.3,4.6-4.4c2-1.1,4.5-1.6,7.5-1.6c2.9,0,5.4,0.5,7.5,1.5
		c2,1,3.6,2.4,4.6,4.2s1.6,3.7,1.6,6v0.6c0,2.8-0.8,5.2-2.3,7c-1.5,1.8-4,3.5-7.4,5l-5.6,2.4c-0.8,0.3-1.4,0.7-1.8,1.1
		c-0.4,0.4-0.6,0.9-0.6,1.6v1.8l-2.2-1.4h19.7v8H1709.6z"/>
	<path class="st2" d="M1736.3,486.7V480c0-1.8,0.5-3.6,1.5-5.2l11.5-17.8l7.4,4.7l-10.3,15.8c-0.2,0.4-0.2,0.9,0,1.2l0,0
		c0.2,0.3,0.6,0.5,0.9,0.5h20.8v7.4H1736.3z M1755.5,494.7v-28h8.6v28H1755.5z"/>
	<path class="st0" d="M1764.1,494.7v-28h8.2c0,5.3,0,5.3,0,8c1.1-1.5,3.4-1.9,4.9-1.9h0.3c2.3,0,5,0.8,6.3,2.4
		c1.7,2.2,2.1,4.2,2.1,7.4v12.1h-8.2v-12.3c0-1-0.3-1.8-0.9-2.4c-0.6-0.6-1.5-0.8-2.4-0.6c-1.6,0.3-2,2-2,3.1v12.3H1764.1z"/>
</g>
<text transform="matrix(1 0 0 1 1818.4442 488.9515)" style="font-family:'FONTSPRINGDEMO-BluntWideRegular'; font-size:12px;">Gestor 24h</text>
<text transform="matrix(1 0 0 1 1818.4442 471.894)" style="font-family:'AQUARIUMRegular'; font-size:12px;">Gestor 24h</text>
<text transform="matrix(1 0 0 1 1818.4442 455.64)" style="font-family:'Elianto-Regular'; font-size:12px;">gestor 24h</text>
<path class="st2" d="M1173.1,1449.7L1173.1,1449.7l-37.7,0h-19.1h-1v24.9h18.2l0,0c-2.7,3.7-6.5,7.3-10.3,10.1
	c-7.1,5.1-15.2,8.1-25.2,8.2c-9,0-18.4-3.1-25.6-8.3c-7.4-5.4-13-13-15.9-21.8c-1.4-4.3-2.1-8.8-2.1-13.5s0.7-9.3,2.1-13.5
	c1-2.9,2.2-5.7,3.7-8.3l37.8,22.2l31.8-18.6c-1-1.7-2.1-3.4-3.2-5.1l-28.5,16.7l-34.4-20.2c2.5-3.2,5.5-6.1,8.8-8.5
	c7.2-5.2,16.6-8.3,25.6-8.3v-0.1c10,0,18.4,3.2,25.6,8.2h0.1c4.9,4,9,8.2,12,13.5l29.8-17.4c-5.4-9.2-13.1-17.5-21.7-23.9
	c-0.1-0.1-0.4-0.1-0.5-0.2c0,0-0.3,0-0.3-0.1c-12-9.2-28.3-14.7-45.4-14.7c-17.3,0-32.8,5.5-45.7,14.9
	c-13.2,9.6-23.2,23.2-28.4,39.1c-2.5,7.6-3.8,15.7-3.8,24.2c0,8.4,1.4,16.6,3.8,24.2c5.2,15.9,15.2,29.5,28.4,39.1
	c12.9,9.4,28.7,14.9,45.8,14.9c17.1,0,32.8-5.5,45.6-14.7l0.1-0.1c0.1-0.1,0.2-0.1,0.3-0.2c13-9.6,23.4-23.3,28.5-39
	c2.4-7.5,3.8-15.7,3.8-23.7H1173.1z"/>
<path class="st11" d="M-1806.3,17.9L-1806.3,17.9l-36,0h-18.3h-1v21c0,1.5,1.3,2.8,2.8,2.8h14.6l0,0c-2.6,3.5-6.2,7-9.8,9.7
	c-6.8,4.9-14.5,7.7-24.1,7.8c-8.6,0-17.6-3-24.5-7.9c-7.1-5.2-12.4-12.4-15.2-20.8c-1.3-4.1-2-8.4-2-12.9s0.7-8.9,2-12.9
	c0.6-1.8,1.3-3.5,2.1-5.2c0.7-1.5,2.5-2.1,4-1.2l32.2,18.9c0.9,0.5,2,0.5,2.8,0l26.5-15.5c1.4-0.8,1.8-2.6,1-3.9
	c0,0-0.1-0.1-0.1-0.1c-0.8-1.3-2.5-1.7-3.8-0.9l-23.5,13.8c-0.9,0.5-2,0.5-2.8,0L-1908-6.4c-1.5-0.9-1.9-3-0.6-4.3
	c1.9-2,3.9-3.9,6.2-5.5c6.9-5,15.9-7.9,24.5-7.9v-0.1c9.6,0,17.6,3.1,24.5,7.8h0.1c4,3.2,7.4,6.6,10.1,10.6c0.8,1.2,2.5,1.7,3.8,0.9
	l23.6-13.8c1.4-0.8,1.8-2.6,0.9-4c-5-7.8-11.8-14.8-19.2-20.3c-0.1-0.1-0.4-0.1-0.5-0.2c0,0-0.3,0-0.3-0.1
	c-11.5-8.8-27.1-14.1-43.4-14.1c-16.5,0-31.4,5.3-43.7,14.2c-12.6,9.2-22.2,22.2-27.1,37.4c-2.4,7.3-3.6,15-3.6,23.1
	c0,8,1.3,15.9,3.6,23.1c5,15.2,14.5,28.2,27.1,37.4c12.3,9,27.4,14.2,43.8,14.2c16.3,0,31.4-5.3,43.6-14.1l0.1-0.1
	c0.1-0.1,0.2-0.1,0.3-0.2c12.4-9.2,22.4-22.3,27.2-37.3c2-6.3,3.3-13,3.6-19.7C-1803.4,19.3-1804.7,17.9-1806.3,17.9L-1806.3,17.9z"
	/>
<g>
	<path class="st0" d="M-1243.1,475.5L-1243.1,475.5c-3.6-3.9-9.6-7.4-18.5-10.9c-7.5-3-9.9-4.8-10.5-5.4c-1-0.9-1.4-1.7-1.4-2.6
		c0-0.6,0.1-1.4,1.3-2.4c1.1-0.9,2.3-1.4,3.9-1.4c3.4-0.2,7.3,1.4,11.6,4.8l0.6,0.5l15.2-15.3l-0.4-0.3c-9-6.9-18.3-10.2-27.4-9.9
		c-8.1,0.4-14.9,3-20.2,7.7c-5.3,4.9-7.8,10.8-7.5,17.7c0.2,5.3,2.2,9.9,5.8,13.9c3.4,3.8,9.2,7.3,17.7,10.6
		c8.6,3.3,10.8,5.2,11.1,5.5c0.9,0.9,1.4,1.8,1.4,3c0.1,1.4-0.5,2.6-2,3.8c-1.6,1.4-3.4,2-5.8,2.1c-3.9,0.2-7.7-1.5-11.8-5.2
		l-1.3-1.2c-2.2-2-5.6-1.8-7.6,0.3l-7.4,8c-2,2.1-1.9,5.4,0.1,7.5l0,0c3.6,3.6,8,6.4,13.2,8.3c5.2,1.9,10.7,2.7,16.3,2.5
		c8.7-0.4,16.1-3.3,21.8-8.6s8.4-11.7,8.1-19C-1237.4,484.4-1239.3,479.6-1243.1,475.5z"/>
	<path class="st0" d="M-1126.9,433c11.4,0,21.2,4.1,29.4,12.3c8.1,8.3,12.2,18.2,12.2,29.9c0,11.6-4.1,21.5-12.2,29.8
		c-8.1,8.2-17.9,12.4-29.4,12.4c-11.5,0-21.3-4.1-29.5-12.4c-8.1-8.3-12.2-18.2-12.2-29.8c0-11.7,4-21.6,12.2-29.9
		C-1148.2,437.1-1138.4,433-1126.9,433 M-1126.9,494.1c5.1,0,9.3-1.8,12.9-5.5c3.6-3.7,5.4-8.2,5.4-13.4c0-5.2-1.8-9.8-5.4-13.5
		c-3.6-3.6-7.9-5.5-12.9-5.5c-5.1,0-9.4,1.8-13,5.5c-3.6,3.7-5.4,8.3-5.4,13.5c0,5.2,1.8,9.7,5.4,13.4
		C-1136.3,492.3-1132,494.1-1126.9,494.1"/>
	<path class="st0" d="M-1330.6,487.5c-0.4,0.6-0.7,0.9-1.2,1.4c-3.6,3.6-7.8,5.4-12.8,5.4c-5.1,0-9.3-1.9-12.9-5.5
		c-1.6-1.6-2.8-3.4-3.7-5.3c-0.3-0.6,0.2-1.3,0.9-1.3l56.3,0c0.5,0,0.9-0.4,0.9-1l0-5.8c0-11.6-4.1-21.6-12.2-29.9
		c-8.1-8.2-17.9-12.3-29.3-12.3c-11.5,0-21.3,4.1-29.4,12.3s-12.2,18.2-12.1,29.8c0,11.6,4,21.5,12.1,29.8
		c8.1,8.2,17.9,12.3,29.4,12.3c11.4,0,21.1-3.9,29.2-12.1c1.8-1.8,3.1-3.2,4.5-5.2c0.3-0.5,0.2-1.1-0.3-1.4L-1330.6,487.5
		L-1330.6,487.5z M-1344.6,456.4c5.1,0,9.4,1.8,12.9,5.4l0,0c0.5,0.6,0.1,1.6-0.7,1.6l-24.4,0c-0.8,0-1.3-1-0.7-1.6l0,0
		C-1353.9,458.2-1349.6,456.3-1344.6,456.4z"/>
	<path class="st0" d="M-1221.2,432.6h39.5c2.2,0,4.1,1.8,4.1,4.1V452c0,2.2-1.8,4.1-4.1,4.1h-39.5c-2.2,0-4.1-1.8-4.1-4.1v-15.4
		C-1225.3,434.4-1223.5,432.6-1221.2,432.6z"/>
	<path class="st0" d="M-1036.7,432.6c-5.6,0-10.8,1.2-15.9,3.6c-0.1,0-0.2,0.1-0.3,0.1c-4.2,2.3-23.3,10.2-23.3,40.6v36.8
		c0,2.1,1.7,3.8,3.8,3.8h15.8c2.1,0,3.8-1.7,3.8-3.8v-38.5c0-5.2,1.5-9.7,4.6-13.5c3.2-3.7,6.8-5.5,11.3-5.5h8.3
		c2.1,0,3.8-1.7,3.8-3.8v-15.8c0-2.1-1.7-3.8-3.8-3.8H-1036.7z"/>
	<path class="st0" d="M-1191.4,488c0,0.2-0.8,0.5-0.8,0.7c0,0.9-1.1,1.4-1.4,2.2c-0.8,1.5-2.3,2.5-4.2,2.5c-2.6,0-4.9-2-4.9-4.5
		v-81.6c0-2-1.6-3.6-3.6-3.6h-16.2c-2,0-3.6,1.6-3.6,3.6v82.8h-0.2c0.8,15.2,13.2,26.9,28.4,26.9c10.2,0,19.2-5.5,24.2-13.6
		c1.1-1.7,0.6-3.9-1.1-5L-1191.4,488z"/>
	<path class="st2" d="M-1009.6,517.4c-1.8,0-3.3-1.5-3.3-3.3v-14.7c0-3.6,0.6-6.8,1.9-9.5c1.2-2.7,3.2-5.2,5.9-7.3
		c2.7-2.1,6.1-4.1,10.4-5.9l12.5-5.3c3.2-1.4,5.6-3,7-4.8c1.5-1.9,2.2-4.2,2.2-7.1c0-2.6-0.9-4.9-2.6-6.7c-1.8-1.8-4.3-2.8-7.7-2.8
		c-3.5,0-6.1,1-7.8,2.9c-1.3,1.5-2.2,3.3-2.5,5.6c-0.2,1.2-1.2,2.1-2.4,2.1h-15.7c-1.3,0-2.4-1.1-2.3-2.4c0.3-4.4,1.4-8.4,3.4-12
		c2.3-4.2,5.8-7.5,10.3-9.9c4.5-2.4,10.2-3.6,16.9-3.6c6.6,0,12.2,1.1,16.7,3.4c4.5,2.3,8,5.4,10.4,9.4c2.4,3.9,3.6,8.4,3.6,13.4
		v1.4c0,6.4-1.7,11.7-5.2,15.8c-3.5,4.1-9,7.9-16.7,11.2l-12.5,5.3c-1.8,0.8-3.1,1.6-4,2.5c-0.9,0.9-1.3,2.1-1.3,3.6v2
		c0,0.9-1,1.4-1.7,0.9l0,0c-0.9-0.6-0.5-2,0.6-2h40.6v16.9c0,0.6-0.5,1.1-1.1,1.1H-1009.6z"/>
	<path class="st2" d="M-953,499.6v-15c0-4.1,1.2-8.1,3.4-11.6l24.6-38c0.7-1.1,2.1-1.4,3.2-0.7l12.9,8.2c0.9,0.6,1.2,1.8,0.6,2.8
		l-22,33.8c-0.6,0.9-0.5,2,0,2.8l0,0c0.5,0.7,1.2,1.1,2.1,1.1h46.6v16.7H-953z M-909.9,515.1v-58.8c0-1,0.8-1.8,1.8-1.8h16
		c0.9,0,1.7,0.7,1.7,1.7v58.9c0,1.3-1.1,2.4-2.4,2.4h-14.7C-908.8,517.4-909.9,516.4-909.9,515.1z"/>
	<path class="st0" d="M-890.5,515.4v-58.8c0-1.1,0.9-2.1,2.1-2.1h14.3c1.1,0,2.1,0.9,2.1,2.1c0,6.7,0,9,0,11.6c0,1.6,1.6,2.6,3,1.9
		c2.5-1.3,5.6-1.7,7.9-1.7h0.7c5.2,0,11.2,1.8,14.1,5.4c3.9,4.9,4.6,9.4,4.6,16.7v25c0,1.1-0.9,2.1-2.1,2.1H-858
		c-1.1,0-2.1-0.9-2.1-2.1v-25.6c0-2.2-0.7-4-2-5.4c-1.3-1.4-3.3-1.7-5.5-1.3c-3.6,0.7-4.4,4.6-4.4,6.9v25.4c0,1.1-0.9,2.1-2.1,2.1
		h-14.3C-889.5,517.4-890.5,516.5-890.5,515.4z"/>
	<path class="st0" d="M-1396.2,460.8L-1396.2,460.8l-27.3,0h-13.8h-0.7v15.9c0,1.2,0.9,2.1,2.1,2.1h11.1l0,0c-2,2.7-4.7,5.3-7.5,7.3
		c-5.1,3.7-11,5.9-18.3,5.9c-6.5,0-13.3-2.2-18.5-6c-5.4-3.9-9.4-9.4-11.5-15.8c-1-3.1-1.5-6.4-1.5-9.8c0-3.4,0.5-6.7,1.5-9.8
		c0.5-1.4,1-2.7,1.6-3.9c0.5-1.1,1.9-1.6,3-0.9l24.4,14.3c0.7,0.4,1.5,0.4,2.1,0l20.1-11.8c1-0.6,1.4-1.9,0.7-3c0,0,0-0.1-0.1-0.1
		c-0.6-1-1.9-1.3-2.9-0.7l-17.8,10.4c-0.7,0.4-1.5,0.4-2.1,0l-21.7-12.7c-1.2-0.7-1.4-2.3-0.5-3.3c1.4-1.5,3-2.9,4.7-4.2
		c5.2-3.8,12-6,18.5-6v-0.1c7.2,0,13.3,2.3,18.5,5.9h0.1c3,2.5,5.6,5,7.6,8.1c0.6,0.9,1.9,1.3,2.8,0.7l17.9-10.5c1-0.6,1.4-2,0.7-3
		c-3.8-5.9-8.9-11.2-14.6-15.4c-0.1-0.1-0.3-0.1-0.4-0.1c0,0-0.2,0-0.2-0.1c-8.7-6.7-20.5-10.6-32.9-10.6c-12.5,0-23.8,4-33.1,10.8
		c-9.6,7-16.8,16.8-20.6,28.3c-1.8,5.5-2.8,11.4-2.8,17.5c0,6.1,1,12,2.8,17.5c3.8,11.5,11,21.4,20.6,28.3
		c9.3,6.8,20.8,10.8,33.2,10.8c12.4,0,23.8-4,33-10.6l0.1-0.1c0.1-0.1,0.1-0.1,0.2-0.1c9.4-7,17-16.9,20.6-28.3
		c1.5-4.7,2.5-9.9,2.7-15C-1394,461.8-1395,460.8-1396.2,460.8L-1396.2,460.8z"/>
</g>
<path class="st2" d="M837.5,58.4L837.5,58.4c-3.3-3.5-8.7-6.7-16.7-9.9c-6.8-2.7-8.9-4.3-9.5-4.9c-0.9-0.8-1.3-1.6-1.3-2.3
	c0-0.5,0.1-1.2,1.2-2.2c1-0.8,2.1-1.2,3.5-1.3c3.1-0.1,6.6,1.3,10.5,4.3l0.5,0.4l13.8-13.8l-0.3-0.3c-8.2-6.2-16.5-9.2-24.8-8.9
	c-7.3,0.3-13.5,2.7-18.2,7c-4.8,4.4-7.1,9.8-6.8,16c0.2,4.8,2,9,5.2,12.6c3.1,3.4,8.4,6.6,16,9.6c7.7,3,9.7,4.7,10,4.9
	c0.8,0.8,1.2,1.6,1.3,2.7c0.1,1.3-0.5,2.3-1.8,3.4c-1.4,1.2-3.1,1.8-5.3,1.9c-3.5,0.1-7-1.4-10.7-4.7l-1.2-1.1
	c-2-1.8-5.1-1.7-6.9,0.3l-6.7,7.2c-1.8,1.9-1.8,4.9,0.1,6.8l0,0c3.2,3.3,7.3,5.8,11.9,7.5s9.7,2.5,14.7,2.3
	c7.9-0.3,14.5-2.9,19.7-7.7c5.1-4.8,7.6-10.6,7.3-17.2C842.7,66.4,840.9,62.1,837.5,58.4z"/>
<path class="st2" d="M942.6,20c10.3,0,19.2,3.7,26.6,11.1c7.3,7.5,11,16.4,11,27c0,10.5-3.7,19.5-11,26.9
	c-7.3,7.4-16.2,11.2-26.6,11.2c-10.4,0-19.2-3.7-26.6-11.2c-7.3-7.5-11-16.4-11-26.9c0-10.5,3.6-19.5,11-27
	C923.2,23.7,932.1,20,942.6,20 M942.6,75.2c4.6,0,8.4-1.6,11.6-4.9c3.2-3.4,4.9-7.4,4.9-12.1s-1.6-8.8-4.9-12.2
	c-3.2-3.3-7.1-4.9-11.6-4.9c-4.6,0-8.5,1.6-11.7,4.9c-3.3,3.4-4.9,7.5-4.9,12.2s1.6,8.8,4.9,12.1C934.1,73.5,938,75.2,942.6,75.2"/>
<path class="st2" d="M758.5,69.2c-0.4,0.6-0.6,0.8-1.1,1.3c-3.2,3.3-7.1,4.9-11.6,4.9c-4.6,0-8.4-1.7-11.7-5
	c-1.4-1.5-2.5-3.1-3.3-4.8c-0.3-0.6,0.2-1.2,0.8-1.2l50.9,0c0.5,0,0.9-0.4,0.9-0.9l0-5.3c0-10.5-3.7-19.5-11-27
	c-7.4-7.4-16.2-11.2-26.5-11.1c-10.4,0-19.3,3.7-26.6,11.2c-7.3,7.5-11,16.4-11,27c0,10.5,3.7,19.4,11,26.9
	c7.4,7.4,16.2,11.2,26.6,11.1c10.3,0,19.1-3.5,26.4-10.9c1.6-1.6,2.8-2.9,4.1-4.7c0.3-0.4,0.2-1-0.3-1.2L758.5,69.2L758.5,69.2z
	 M745.8,41.1c4.6,0,8.5,1.6,11.6,4.9l0,0c0.5,0.5,0.1,1.4-0.6,1.4l-22.1,0c-0.7,0-1.1-0.9-0.6-1.4l0,0
	C737.4,42.7,741.2,41.1,745.8,41.1z"/>
<path class="st2" d="M857.3,19.6H893c2,0,3.7,1.6,3.7,3.7v13.9c0,2-1.6,3.7-3.7,3.7h-35.7c-2,0-3.7-1.6-3.7-3.7V23.2
	C853.6,21.2,855.3,19.6,857.3,19.6z"/>
<path class="st2" d="M1024.1,19.6c-5.1,0-9.8,1.1-14.4,3.2c-0.1,0-0.2,0.1-0.2,0.1c-3.8,2.1-21,9.2-21,36.7v33.2
	c0,1.9,1.6,3.5,3.5,3.5h14.3c1.9,0,3.5-1.6,3.5-3.5V58c0-4.7,1.4-8.8,4.2-12.2c2.9-3.4,6.2-5,10.2-5h7.5c1.9,0,3.5-1.6,3.5-3.5V23
	c0-1.9-1.6-3.5-3.5-3.5L1024.1,19.6z"/>
<path class="st2" d="M884.3,69.7c0,0.1-0.7,0.5-0.7,0.6c0,0.8-1,1.3-1.3,2c-0.8,1.4-2.1,2.3-3.8,2.3c-2.3,0-4.4-1.8-4.4-4V-3.2
	c0-1.8-1.5-3.3-3.3-3.3h-14.7c-1.8,0-3.3,1.5-3.3,3.3v74.8h-0.1c0.7,13.7,11.9,24.3,25.7,24.3c9.2,0,17.3-5,21.9-12.3
	c1-1.5,0.5-3.6-1-4.5L884.3,69.7z"/>
<path class="st14" d="M1048.6,96.3c-1.7,0-3-1.3-3-3V80c0-3.3,0.6-6.1,1.7-8.6c1.1-2.5,2.9-4.7,5.3-6.6c2.4-1.9,5.6-3.7,9.4-5.3
	l11.3-4.8c2.9-1.2,5-2.7,6.4-4.4c1.3-1.7,2-3.8,2-6.4c0-2.4-0.8-4.4-2.4-6.1c-1.6-1.7-3.9-2.5-7-2.5c-3.1,0-5.5,0.9-7,2.6
	c-1.2,1.3-1.9,3-2.2,5.1c-0.1,1.1-1.1,1.9-2.2,1.9l-14.2,0c-1.2,0-2.1-1-2.1-2.2c0.3-4,1.3-7.6,3.1-10.9c2.1-3.8,5.2-6.8,9.3-9
	c4.1-2.2,9.2-3.3,15.2-3.3c6,0,11,1,15.1,3.1c4.1,2.1,7.2,4.9,9.4,8.5c2.1,3.6,3.2,7.6,3.2,12.1v1.2c0,5.8-1.6,10.5-4.7,14.3
	c-3.1,3.7-8.2,7.1-15.1,10.1l-11.3,4.8c-1.6,0.7-2.8,1.4-3.6,2.2c-0.8,0.8-1.2,1.9-1.2,3.3V81c0,0.8-0.9,1.3-1.6,0.8v0
	c-0.8-0.5-0.5-1.8,0.5-1.8h36.7v15.3c0,0.6-0.4,1-1,1H1048.6z"/>
<path class="st14" d="M1099.7,80.1V66.6c0-3.7,1.1-7.4,3.1-10.5l22.3-34.4c0.6-1,1.9-1.2,2.9-0.6l11.7,7.4c0.8,0.5,1.1,1.7,0.5,2.5
	l-19.9,30.6c-0.5,0.8-0.5,1.8,0,2.5l0,0c0.4,0.6,1.1,1,1.9,1h42.1v15.1H1099.7z M1138.7,94.2V41c0-0.9,0.7-1.6,1.6-1.6h14.4
	c0.8,0,1.5,0.7,1.5,1.5v53.3c0,1.2-1,2.1-2.1,2.1h-13.3C1139.6,96.3,1138.7,95.3,1138.7,94.2z"/>
<path class="st2" d="M1156.2,94.4V41.3c0-1,0.8-1.9,1.9-1.9h12.9c1,0,1.9,0.8,1.9,1.9c0,6,0,8.1,0,10.5c0,1.4,1.5,2.3,2.7,1.7
	c2.3-1.2,5.1-1.6,7.2-1.6h0.6c4.7,0,10.2,1.6,12.7,4.9c3.5,4.4,4.2,8.5,4.2,15.1v22.6c0,1-0.8,1.9-1.9,1.9h-12.9
	c-1,0-1.9-0.8-1.9-1.9V71.3c0-2-0.6-3.6-1.8-4.9c-1.2-1.3-3-1.5-5-1.2c-3.2,0.6-4,4.1-4,6.2v23c0,1-0.8,1.9-1.9,1.9h-12.9
	C1157.1,96.3,1156.2,95.4,1156.2,94.4z"/>
<path class="st2" d="M699.1,45.1L699.1,45.1l-24.7,0H662h-0.7v14.4c0,1.1,0.9,1.9,1.9,1.9h10l0,0c-1.8,2.4-4.3,4.8-6.7,6.6
	c-4.6,3.3-10,5.3-16.5,5.4c-5.9,0-12-2-16.8-5.4c-4.8-3.5-8.5-8.5-10.4-14.3c-0.9-2.8-1.4-5.8-1.4-8.8c0-3.1,0.5-6.1,1.4-8.8
	c0.4-1.2,0.9-2.4,1.4-3.6c0.5-1,1.7-1.4,2.7-0.8l22,12.9c0.6,0.4,1.3,0.4,1.9,0l18.2-10.6c0.9-0.6,1.2-1.8,0.7-2.7
	c0,0,0-0.1-0.1-0.1c-0.6-0.9-1.7-1.2-2.6-0.6L651,39.9c-0.6,0.4-1.3,0.4-1.9,0l-19.6-11.5c-1.1-0.6-1.3-2.1-0.4-3
	c1.3-1.4,2.7-2.7,4.2-3.8c4.7-3.4,10.9-5.4,16.8-5.4v-0.1c6.5,0,12,2.1,16.8,5.4h0.1c2.7,2.2,5.1,4.5,6.9,7.3
	c0.6,0.9,1.7,1.1,2.6,0.6l16.2-9.5c0.9-0.6,1.2-1.8,0.6-2.7c-3.5-5.3-8.1-10.1-13.2-13.9c-0.1-0.1-0.3-0.1-0.3-0.1
	c0,0-0.2,0-0.2-0.1c-7.9-6-18.5-9.6-29.7-9.6c-11.3,0-21.5,3.6-29.9,9.8c-8.6,6.3-15.2,15.2-18.6,25.6c-1.6,5-2.5,10.3-2.5,15.8
	c0,5.5,0.9,10.9,2.5,15.8c3.4,10.4,10,19.3,18.6,25.6c8.4,6.2,18.8,9.8,30,9.8c11.2,0,21.5-3.6,29.9-9.6l0.1-0.1
	c0.1-0.1,0.1-0.1,0.2-0.1c8.5-6.3,15.3-15.3,18.7-25.5c1.4-4.3,2.2-8.9,2.4-13.5C701.1,46,700.2,45.1,699.1,45.1L699.1,45.1z"/>
<path class="st2" d="M87.2,45.5L87.2,45.5l-21.4,0h-10c-0.3,0-1.4,0.1-1.4,1.4l0,12.6c0,0.9,0.7,1.7,1.7,1.7c0,0,5,0,6,0
	c-0.3,0.7-2,2.4-3.2,3.2c-4,2.9-8.6,4.6-14.3,4.7c-5.1,0-10.4-1.8-14.5-4.7c-4.2-3.1-7.4-7.4-9-12.4c-0.8-2.4-1.2-5-1.2-7.7
	s0.4-5.3,1.2-7.7c0.4-1.1,0.8-2.1,1.3-3.1c0.4-0.9,1.5-1.2,2.3-0.7l18.1,10.6c1.5,0.9,2.2,0.9,2.7,0.6l15.7-9.2
	c0.8-0.5,1.1-1.5,0.6-2.3l0-0.1c-0.5-0.8-1.5-1-2.2-0.5l-13.9,8.2c-0.5,0.3-1.2,0.3-1.7,0l-17-10c-0.9-0.5-1.1-1.8-0.4-2.5
	c1.1-1.2,2.4-2.3,3.7-3.3c4.1-3,9.4-4.7,14.5-4.7v-0.1c5.7,0,10.4,1.8,14.5,4.7h0.1c2.4,1.9,4.4,3.9,6,6.3c0.5,0.7,1.5,1,2.2,0.5
	l14-8.2c0.8-0.5,1.1-1.6,0.5-2.4c-3-4.6-7-8.8-11.4-12.1c-0.1-0.1-0.2-0.1-0.3-0.1c0,0-0.2,0-0.2-0.1C63.4,3,54.1-0.1,44.4-0.1
	c-9.8,0-18.6,3.1-25.9,8.5C11,13.8,5.3,21.5,2.4,30.5C1,34.8,0.2,39.4,0.2,44.2C0.2,49,1,53.7,2.4,58c3,9,8.6,16.7,16.1,22.2
	c7.3,5.3,16.3,8.5,26,8.5c9.7,0,18.6-3.1,25.9-8.3l0.1-0.1c0.1-0.1,0.1-0.1,0.2-0.1C78,74.7,83.9,66.9,86.7,58
	c1.2-3.7,1.9-6.7,2.1-10.7C88.9,46.3,88.2,45.5,87.2,45.5L87.2,45.5z"/>
<g>
	<path class="st14" d="M-1243.1,925.5L-1243.1,925.5c-3.6-3.9-9.6-7.4-18.5-10.9c-7.5-3-9.9-4.8-10.5-5.4c-1-0.9-1.4-1.7-1.4-2.6
		c0-0.6,0.1-1.4,1.3-2.4c1.1-0.9,2.3-1.4,3.9-1.4c3.4-0.2,7.3,1.4,11.6,4.8l0.6,0.5l15.2-15.3l-0.4-0.3c-9-6.9-18.3-10.2-27.4-9.9
		c-8.1,0.4-14.9,3-20.2,7.7c-5.3,4.9-7.8,10.8-7.5,17.7c0.2,5.3,2.2,9.9,5.8,13.9c3.4,3.8,9.2,7.3,17.7,10.6
		c8.6,3.3,10.8,5.2,11.1,5.5c0.9,0.9,1.4,1.8,1.4,3c0.1,1.4-0.5,2.6-2,3.8c-1.6,1.4-3.4,2-5.8,2.1c-3.9,0.2-7.7-1.5-11.8-5.2
		l-1.3-1.2c-2.2-2-5.6-1.8-7.6,0.3l-7.4,8c-2,2.1-1.9,5.4,0.1,7.5l0,0c3.6,3.6,8,6.4,13.2,8.3c5.2,1.9,10.7,2.7,16.3,2.5
		c8.7-0.4,16.1-3.3,21.8-8.6s8.4-11.7,8.1-19C-1237.4,934.4-1239.3,929.6-1243.1,925.5z"/>
	<path class="st14" d="M-1126.9,883c11.4,0,21.2,4.1,29.4,12.3c8.1,8.3,12.2,18.2,12.2,29.9c0,11.6-4.1,21.5-12.2,29.8
		c-8.1,8.2-17.9,12.4-29.4,12.4c-11.5,0-21.3-4.1-29.5-12.4c-8.1-8.3-12.2-18.2-12.2-29.8c0-11.7,4-21.6,12.2-29.9
		C-1148.2,887.1-1138.4,883-1126.9,883 M-1126.9,944.1c5.1,0,9.3-1.8,12.9-5.5c3.6-3.7,5.4-8.2,5.4-13.4s-1.8-9.8-5.4-13.5
		c-3.6-3.6-7.9-5.5-12.9-5.5c-5.1,0-9.4,1.8-13,5.5c-3.6,3.7-5.4,8.3-5.4,13.5s1.8,9.7,5.4,13.4
		C-1136.3,942.3-1132,944.1-1126.9,944.1"/>
	<path class="st14" d="M-1330.6,937.5c-0.4,0.6-0.7,0.9-1.2,1.4c-3.6,3.6-7.8,5.4-12.8,5.4c-5.1,0-9.3-1.9-12.9-5.5
		c-1.6-1.6-2.8-3.4-3.7-5.3c-0.3-0.6,0.2-1.3,0.9-1.3l56.3,0c0.5,0,0.9-0.4,0.9-1l0-5.8c0-11.6-4.1-21.6-12.2-29.9
		c-8.1-8.2-17.9-12.3-29.3-12.3c-11.5,0-21.3,4.1-29.4,12.3s-12.2,18.2-12.1,29.8c0,11.6,4,21.5,12.1,29.8
		c8.1,8.2,17.9,12.3,29.4,12.3c11.4,0,21.1-3.9,29.2-12.1c1.8-1.8,3.1-3.2,4.5-5.2c0.3-0.5,0.2-1.1-0.3-1.4L-1330.6,937.5
		L-1330.6,937.5z M-1344.6,906.4c5.1,0,9.4,1.8,12.9,5.4l0,0c0.5,0.6,0.1,1.6-0.7,1.6l-24.4,0c-0.8,0-1.3-1-0.7-1.6l0,0
		C-1353.9,908.2-1349.6,906.3-1344.6,906.4z"/>
	<path class="st14" d="M-1221.2,882.6h39.5c2.2,0,4.1,1.8,4.1,4.1V902c0,2.2-1.8,4.1-4.1,4.1h-39.5c-2.2,0-4.1-1.8-4.1-4.1v-15.4
		C-1225.3,884.4-1223.5,882.6-1221.2,882.6z"/>
	<path class="st14" d="M-1036.7,882.6c-5.6,0-10.8,1.2-15.9,3.6c-0.1,0-0.2,0.1-0.3,0.1c-4.2,2.3-23.3,10.2-23.3,40.6v36.8
		c0,2.1,1.7,3.8,3.8,3.8h15.8c2.1,0,3.8-1.7,3.8-3.8v-38.5c0-5.2,1.5-9.7,4.6-13.5c3.2-3.7,6.8-5.5,11.3-5.5h8.3
		c2.1,0,3.8-1.7,3.8-3.8v-15.8c0-2.1-1.7-3.8-3.8-3.8H-1036.7z"/>
	<path class="st14" d="M-1191.4,938c0,0.2-0.8,0.5-0.8,0.7c0,0.9-1.1,1.4-1.4,2.2c-0.8,1.5-2.3,2.5-4.2,2.5c-2.6,0-4.9-2-4.9-4.5
		v-81.6c0-2-1.6-3.6-3.6-3.6h-16.2c-2,0-3.6,1.6-3.6,3.6v82.8h-0.2c0.8,15.2,13.2,26.9,28.4,26.9c10.2,0,19.2-5.5,24.2-13.6
		c1.1-1.7,0.6-3.9-1.1-5L-1191.4,938z"/>
	<path class="st2" d="M-1009.6,967.4c-1.8,0-3.3-1.5-3.3-3.3v-14.7c0-3.6,0.6-6.8,1.9-9.5c1.2-2.7,3.2-5.2,5.9-7.3
		c2.7-2.1,6.1-4.1,10.4-5.9l12.5-5.3c3.2-1.4,5.6-3,7-4.8c1.5-1.9,2.2-4.2,2.2-7.1c0-2.6-0.9-4.9-2.6-6.7c-1.8-1.8-4.3-2.8-7.7-2.8
		c-3.5,0-6.1,1-7.8,2.9c-1.3,1.5-2.2,3.3-2.5,5.6c-0.2,1.2-1.2,2.1-2.4,2.1h-15.7c-1.3,0-2.4-1.1-2.3-2.4c0.3-4.4,1.4-8.4,3.4-12
		c2.3-4.2,5.8-7.5,10.3-9.9c4.5-2.4,10.2-3.6,16.9-3.6c6.6,0,12.2,1.1,16.7,3.4c4.5,2.3,8,5.4,10.4,9.4c2.4,3.9,3.6,8.4,3.6,13.4
		v1.4c0,6.4-1.7,11.7-5.2,15.8c-3.5,4.1-9,7.9-16.7,11.2l-12.5,5.3c-1.8,0.8-3.1,1.6-4,2.5c-0.9,0.9-1.3,2.1-1.3,3.6v2
		c0,0.9-1,1.4-1.7,0.9l0,0c-0.9-0.6-0.5-2,0.6-2h40.6v16.9c0,0.6-0.5,1.1-1.1,1.1H-1009.6z"/>
	<path class="st2" d="M-953,949.6v-15c0-4.1,1.2-8.1,3.4-11.6l24.6-38c0.7-1.1,2.1-1.4,3.2-0.7l12.9,8.2c0.9,0.6,1.2,1.8,0.6,2.8
		l-22,33.8c-0.6,0.9-0.5,2,0,2.8l0,0c0.5,0.7,1.2,1.1,2.1,1.1h46.6v16.7H-953z M-909.9,965.1v-58.8c0-1,0.8-1.8,1.8-1.8h16
		c0.9,0,1.7,0.7,1.7,1.7v58.9c0,1.3-1.1,2.4-2.4,2.4h-14.7C-908.8,967.4-909.9,966.4-909.9,965.1z"/>
	<path class="st14" d="M-890.5,965.4v-58.8c0-1.1,0.9-2.1,2.1-2.1h14.3c1.1,0,2.1,0.9,2.1,2.1c0,6.7,0,9,0,11.6c0,1.6,1.6,2.6,3,1.9
		c2.5-1.3,5.6-1.7,7.9-1.7h0.7c5.2,0,11.2,1.8,14.1,5.4c3.9,4.9,4.6,9.4,4.6,16.7v25c0,1.1-0.9,2.1-2.1,2.1H-858
		c-1.1,0-2.1-0.9-2.1-2.1v-25.6c0-2.2-0.7-4-2-5.4c-1.3-1.4-3.3-1.7-5.5-1.3c-3.6,0.7-4.4,4.6-4.4,6.9v25.4c0,1.1-0.9,2.1-2.1,2.1
		h-14.3C-889.5,967.4-890.5,966.5-890.5,965.4z"/>
	<path class="st14" d="M-1396.2,910.8L-1396.2,910.8l-27.3,0h-13.8h-0.7v15.9c0,1.2,0.9,2.1,2.1,2.1h11.1l0,0
		c-2,2.7-4.7,5.3-7.5,7.3c-5.1,3.7-11,5.9-18.3,5.9c-6.5,0-13.3-2.2-18.5-6c-5.4-3.9-9.4-9.4-11.5-15.8c-1-3.1-1.5-6.4-1.5-9.8
		c0-3.4,0.5-6.7,1.5-9.8c0.5-1.4,1-2.7,1.6-3.9c0.5-1.1,1.9-1.6,3-0.9l24.4,14.3c0.7,0.4,1.5,0.4,2.1,0l20.1-11.8
		c1-0.6,1.4-1.9,0.7-3c0,0,0-0.1-0.1-0.1c-0.6-1-1.9-1.3-2.9-0.7l-17.8,10.4c-0.7,0.4-1.5,0.4-2.1,0l-21.7-12.7
		c-1.2-0.7-1.4-2.3-0.5-3.3c1.4-1.5,3-2.9,4.7-4.2c5.2-3.8,12-6,18.5-6v-0.1c7.2,0,13.3,2.3,18.5,5.9h0.1c3,2.5,5.6,5,7.6,8.1
		c0.6,0.9,1.9,1.3,2.8,0.7l17.9-10.5c1-0.6,1.4-2,0.7-3c-3.8-5.9-8.9-11.2-14.6-15.4c-0.1-0.1-0.3-0.1-0.4-0.1c0,0-0.2,0-0.2-0.1
		c-8.7-6.7-20.5-10.6-32.9-10.6c-12.5,0-23.8,4-33.1,10.8c-9.6,7-16.8,16.8-20.6,28.3c-1.8,5.5-2.8,11.4-2.8,17.5
		c0,6.1,1,12,2.8,17.5c3.8,11.5,11,21.4,20.6,28.3c9.3,6.8,20.8,10.8,33.2,10.8c12.4,0,23.8-4,33-10.6l0.1-0.1
		c0.1-0.1,0.1-0.1,0.2-0.1c9.4-7,17-16.9,20.6-28.3c1.5-4.7,2.5-9.9,2.7-15C-1394,911.8-1395,910.8-1396.2,910.8L-1396.2,910.8z"/>
</g>
<path class="st1" d="M1481.9,460.8L1481.9,460.8l-27,0h-13.7h-0.7v15.7c0,1.2,0.9,2.1,2.1,2.1h10.9l0,0c-1.9,2.6-4.6,5.2-7.4,7.2
	c-5.1,3.6-10.9,5.8-18,5.9c-6.4,0-13.2-2.2-18.3-5.9c-5.3-3.9-9.3-9.3-11.4-15.6c-1-3.1-1.5-6.3-1.5-9.7c0-3.4,0.5-6.7,1.5-9.7
	c0.5-1.3,1-2.6,1.6-3.9c0.5-1.1,1.9-1.6,3-0.9l24.1,14.1c0.7,0.4,1.5,0.4,2.1,0l19.8-11.6c1-0.6,1.4-1.9,0.7-2.9c0,0,0-0.1-0.1-0.1
	c-0.6-1-1.9-1.3-2.8-0.7l-17.6,10.3c-0.7,0.4-1.5,0.4-2.1,0l-21.4-12.6c-1.2-0.7-1.4-2.3-0.5-3.2c1.4-1.5,3-2.9,4.6-4.1
	c5.1-3.7,11.9-5.9,18.3-5.9v-0.1c7.2,0,13.2,2.3,18.3,5.9h0.1c3,2.4,5.5,4.9,7.5,8c0.6,0.9,1.8,1.2,2.8,0.7l17.7-10.3
	c1-0.6,1.4-2,0.7-3c-3.8-5.8-8.8-11.1-14.4-15.2c-0.1-0.1-0.3-0.1-0.4-0.1c0,0-0.2,0-0.2-0.1c-8.6-6.6-20.2-10.5-32.5-10.5
	c-12.4,0-23.5,3.9-32.7,10.7c-9.4,6.9-16.6,16.6-20.3,28c-1.8,5.4-2.7,11.2-2.7,17.3c0,6,1,11.9,2.7,17.3
	c3.7,11.4,10.9,21.1,20.3,28c9.2,6.7,20.5,10.7,32.8,10.7s23.5-3.9,32.6-10.5l0.1-0.1c0.1-0.1,0.1-0.1,0.2-0.1
	c9.3-6.9,16.7-16.7,20.4-27.9c1.5-4.7,2.5-9.7,2.7-14.8C1484.1,461.8,1483.1,460.8,1481.9,460.8L1481.9,460.8z"/>
<path class="st2" d="M1455.1,478.3c-0.7,0-1.3-0.6-1.3-1.3v-5.9c0-1.5,0.2-2.7,0.7-3.8c0.5-1.1,1.3-2.1,2.4-2.9
	c1.1-0.8,2.5-1.6,4.2-2.4l5-2.1c1.3-0.5,2.2-1.2,2.8-2c0.6-0.8,0.9-1.7,0.9-2.9c0-1.1-0.4-2-1.1-2.7c-0.7-0.7-1.7-1.1-3.1-1.1
	c-1.4,0-2.4,0.4-3.1,1.2c-0.5,0.6-0.9,1.3-1,2.3c-0.1,0.5-0.5,0.9-1,0.9l-6.3,0c-0.5,0-1-0.4-0.9-1c0.1-1.8,0.6-3.4,1.4-4.8
	c0.9-1.7,2.3-3,4.2-4c1.8-1,4.1-1.5,6.8-1.5c2.7,0,4.9,0.5,6.7,1.4c1.8,0.9,3.2,2.2,4.2,3.8s1.4,3.4,1.4,5.4v0.5
	c0,2.6-0.7,4.7-2.1,6.4c-1.4,1.7-3.6,3.2-6.7,4.5l-5,2.1c-0.7,0.3-1.3,0.6-1.6,1c-0.3,0.4-0.5,0.8-0.5,1.5v0.8
	c0,0.4-0.4,0.6-0.7,0.4l0,0c-0.4-0.2-0.2-0.8,0.2-0.8h16.3v6.8c0,0.2-0.2,0.4-0.4,0.4H1455.1z"/>
<path class="st2" d="M1477.9,471.1v-6c0-1.7,0.5-3.3,1.4-4.7l9.9-15.3c0.3-0.4,0.9-0.6,1.3-0.3l5.2,3.3c0.4,0.2,0.5,0.7,0.2,1.1
	l-8.8,13.6c-0.2,0.3-0.2,0.8,0,1.1l0,0c0.2,0.3,0.5,0.4,0.8,0.4h18.8v6.7H1477.9z M1495.2,477.4v-23.7c0-0.4,0.3-0.7,0.7-0.7h6.4
	c0.4,0,0.7,0.3,0.7,0.7v23.7c0,0.5-0.4,1-1,1h-5.9C1495.7,478.3,1495.2,477.9,1495.2,477.4z"/>
<path class="st1" d="M1503.1,477.5v-23.7c0-0.5,0.4-0.8,0.8-0.8h5.8c0.5,0,0.8,0.4,0.8,0.8c0,2.7,0,3.6,0,4.7c0,0.6,0.7,1,1.2,0.7
	c1-0.5,2.3-0.7,3.2-0.7h0.3c2.1,0,4.5,0.7,5.7,2.2c1.6,2,1.9,3.8,1.9,6.7v10.1c0,0.5-0.4,0.8-0.8,0.8h-5.8c-0.5,0-0.8-0.4-0.8-0.8
	v-10.3c0-0.9-0.3-1.6-0.8-2.2c-0.5-0.6-1.3-0.7-2.2-0.5c-1.4,0.3-1.8,1.8-1.8,2.8v10.2c0,0.5-0.4,0.8-0.8,0.8h-5.8
	C1503.4,478.3,1503.1,477.9,1503.1,477.5z"/>
</svg>
