<?xml version="1.0" encoding="utf-8"?>
<!-- Generator: Adobe Illustrator 26.5.0, SVG Export Plug-In . SVG Version: 6.00 Build 0)  -->
<svg version="1.1" id="Camada_1" xmlns="http://www.w3.org/2000/svg" xmlns:xlink="http://www.w3.org/1999/xlink" x="0px" y="0px"
	 viewBox="0 0 133.8 150" style="enable-background:new 0 0 133.8 150;" xml:space="preserve">
<style type="text/css">
	.st0{fill:#FFFFFF;stroke:#0DB14B;stroke-width:2.3405;stroke-linecap:round;stroke-linejoin:round;stroke-miterlimit:10;}
	.st1{fill:#A7EABF;stroke:#0DB14B;stroke-width:2.3405;stroke-linecap:round;stroke-linejoin:round;stroke-miterlimit:10;}
	.st2{fill:none;stroke:#0DB14B;stroke-width:2.3405;stroke-linecap:round;stroke-linejoin:round;stroke-miterlimit:10;}
	.st3{fill:#A7EABF;stroke:#0DB14B;stroke-width:3;stroke-linecap:round;stroke-linejoin:round;stroke-miterlimit:10;}
	.st4{fill:#FFFFFF;stroke:#0DB14B;stroke-width:3;stroke-linecap:round;stroke-linejoin:round;stroke-miterlimit:10;}
	.st5{fill:#DCF9E4;}
	.st6{fill:#A7EABF;stroke:#0DB14B;stroke-width:2.6825;stroke-linecap:round;stroke-linejoin:round;stroke-miterlimit:10;}
	.st7{fill:#FFFFFF;stroke:#0DB14B;stroke-width:2.6825;stroke-linecap:round;stroke-linejoin:round;stroke-miterlimit:10;}
	.st8{fill:none;stroke:#0DB14B;stroke-width:2.6825;stroke-linecap:round;stroke-linejoin:round;stroke-miterlimit:10;}
	.st9{fill:#FFFFFF;stroke:#0DB14B;stroke-width:2.4963;stroke-linecap:round;stroke-linejoin:round;stroke-miterlimit:10;}
	.st10{fill:#FFFFFF;stroke:#0DB14B;stroke-width:3.2469;stroke-linecap:round;stroke-linejoin:round;stroke-miterlimit:10;}
	.st11{fill:#FFFFFF;stroke:#0DB14B;stroke-width:2.2584;stroke-linecap:round;stroke-linejoin:round;stroke-miterlimit:10;}
	.st12{fill:#FFFFFF;stroke:#0DB14B;stroke-width:3.154;stroke-linecap:round;stroke-linejoin:round;stroke-miterlimit:10;}
	.st13{fill:#A7EABF;stroke:#0DB14B;stroke-width:3.0001;stroke-linecap:round;stroke-linejoin:round;stroke-miterlimit:10.0002;}
	.st14{fill:#FFFFFF;stroke:#0DB14B;stroke-width:2.9314;stroke-linecap:round;stroke-linejoin:round;stroke-miterlimit:10;}
	.st15{fill:none;stroke:#0DB14B;stroke-width:3;stroke-linecap:round;stroke-linejoin:round;stroke-miterlimit:10;}
	.st16{fill:#FFFFFF;stroke:#0DB14B;stroke-width:2.9909;stroke-linecap:round;stroke-linejoin:round;stroke-miterlimit:10;}
	.st17{fill:#FFFFFF;stroke:#0DB14B;stroke-width:2.9735;stroke-linecap:round;stroke-linejoin:round;stroke-miterlimit:10;}
	.st18{fill:#FFFFFF;stroke:#0DB14B;stroke-width:2.9921;stroke-linecap:round;stroke-linejoin:round;stroke-miterlimit:10;}
	.st19{fill:#FFFFFF;stroke:#000000;stroke-linecap:round;stroke-linejoin:round;stroke-miterlimit:10;}
	.st20{fill:#FFFFFF;stroke:#000000;stroke-width:1;stroke-linecap:round;stroke-linejoin:round;stroke-miterlimit:9.9999;}
	.st21{fill:#A7EABF;stroke:#0DB14B;stroke-width:2.9735;stroke-linecap:round;stroke-linejoin:round;stroke-miterlimit:10;}
	.st22{fill:#233036;}
	.st23{fill:#FECA05;}
	.st24{fill:#E5E3E3;}
	.st25{fill:#FFFFFF;}
	.st26{fill:#F2F2F2;}
	.st27{fill:none;stroke:#004D40;stroke-width:9.5848;stroke-miterlimit:10;}
	.st28{fill:#F4F4F4;}
	.st29{fill:#00AF10;}
	.st30{fill:#333333;}
	.st31{fill:#0DB14B;}
	.st32{fill:#FFFFFF;stroke:#000000;stroke-width:2.668;stroke-linecap:round;stroke-linejoin:round;stroke-miterlimit:9.9999;}
	.st33{fill:#0DB14B;stroke:#000000;stroke-width:2.668;stroke-linecap:round;stroke-linejoin:round;stroke-miterlimit:10;}
	.st34{fill:#FFFFFF;stroke:#0DB14B;stroke-width:2.5408;stroke-linecap:round;stroke-linejoin:round;stroke-miterlimit:10;}
	.st35{fill:#0DB14B;stroke:#000000;stroke-width:2.668;stroke-miterlimit:10;}
	.st36{fill:#FFFFFF;stroke:#000000;stroke-width:2.668;stroke-linecap:round;stroke-linejoin:round;stroke-miterlimit:10;}
	.st37{fill:#FFFFFF;stroke:#0DB14B;stroke-width:3;stroke-linecap:round;stroke-linejoin:round;stroke-miterlimit:9.9999;}
	.st38{fill:#0DB14B;stroke:#000000;stroke-width:2;stroke-miterlimit:10;}
	.st39{fill:#FFFFFF;stroke:#000000;stroke-width:2;stroke-miterlimit:10;}
	.st40{fill:none;stroke:#0DB14B;stroke-width:2.9735;stroke-linecap:round;stroke-linejoin:round;stroke-miterlimit:10;}
	.st41{fill:#FFFFFF;stroke:#0DB14B;stroke-width:2.9735;stroke-linecap:round;stroke-linejoin:round;stroke-miterlimit:9.9999;}
	.st42{fill:none;stroke:#000000;stroke-linecap:round;stroke-linejoin:round;stroke-miterlimit:10;}
	.st43{fill:none;stroke:#0DB14B;stroke-width:2.9921;stroke-linecap:round;stroke-linejoin:round;stroke-miterlimit:10;}
	.st44{fill:#FFFFFF;stroke:#0DB14B;stroke-width:2.9921;stroke-linecap:round;stroke-linejoin:round;stroke-miterlimit:9.9999;}
	.st45{fill:#FFFFFF;stroke:#0DB14B;stroke-width:2.9922;stroke-linecap:round;stroke-linejoin:round;stroke-miterlimit:10.0005;}
	.st46{fill:#A7EABF;stroke:#0DB14B;stroke-width:2.9921;stroke-linecap:round;stroke-linejoin:round;stroke-miterlimit:10;}
	.st47{fill:#FFFFFF;stroke:#000000;stroke-width:2;stroke-linecap:round;stroke-linejoin:round;stroke-miterlimit:10;}
	.st48{fill:#0DB14B;stroke:#000000;stroke-width:2;stroke-linecap:round;stroke-linejoin:round;stroke-miterlimit:10;}
	.st49{fill:#A7EABF;stroke:#0DB14B;stroke-width:2.9909;stroke-linecap:round;stroke-linejoin:round;stroke-miterlimit:10;}
	.st50{fill:none;stroke:#0DB14B;stroke-width:2.3333;stroke-linecap:round;stroke-linejoin:round;stroke-miterlimit:10;}
	.st51{fill:#FFFFFF;stroke:#0DB14B;stroke-width:3.4861;stroke-linecap:round;stroke-linejoin:round;stroke-miterlimit:10;}
	.st52{fill:#A7EABF;stroke:#0DB14B;stroke-width:3.2866;stroke-linecap:round;stroke-linejoin:round;stroke-miterlimit:10;}
	.st53{fill:#FFFFFF;stroke:#0DB14B;stroke-width:4.1045;stroke-linecap:round;stroke-linejoin:round;stroke-miterlimit:10;}
	.st54{fill:#FFFFFF;stroke:#0DB14B;stroke-width:3.2866;stroke-linecap:round;stroke-linejoin:round;stroke-miterlimit:10;}
	.st55{fill:none;stroke:#0DB14B;stroke-width:3.2866;stroke-linecap:round;stroke-linejoin:round;stroke-miterlimit:10;}
	.st56{fill:none;stroke:#0DB14B;stroke-width:3.74;stroke-linecap:round;stroke-linejoin:round;stroke-miterlimit:10;}
	.st57{fill:#F68797;}
	.st58{fill:#ADADAD;}
	.st59{fill:#D81919;}
	.st60{fill:#01A5FC;}
	.st61{fill:#1F4583;}
	.st62{fill:none;stroke:#0DB14B;stroke-width:2.2198;stroke-linecap:round;stroke-linejoin:round;stroke-miterlimit:10;}
	.st63{fill:#A7EABF;stroke:#0DB14B;stroke-width:2.2198;stroke-linecap:round;stroke-linejoin:round;stroke-miterlimit:10;}
	.st64{fill:#A7EABF;stroke:#0DB14B;stroke-width:2.2002;stroke-linecap:round;stroke-linejoin:round;stroke-miterlimit:10;}
	.st65{fill:#A7EABF;stroke:#0DB14B;stroke-width:2.0882;stroke-linecap:round;stroke-linejoin:round;stroke-miterlimit:10;}
	.st66{fill:none;stroke:#0DB14B;stroke-width:1.643;stroke-linecap:round;stroke-linejoin:round;stroke-miterlimit:10;}
	.st67{fill:#A7EABF;stroke:#0DB14B;stroke-width:1.643;stroke-linecap:round;stroke-linejoin:round;stroke-miterlimit:10;}
	.st68{fill:#A7EABF;stroke:#0DB14B;stroke-width:1.6285;stroke-linecap:round;stroke-linejoin:round;stroke-miterlimit:10;}
	.st69{fill:#A7EABF;stroke:#0DB14B;stroke-width:2.8271;stroke-linecap:round;stroke-linejoin:round;stroke-miterlimit:10;}
	.st70{fill:none;stroke:#0DB14B;stroke-width:2.8969;stroke-linecap:round;stroke-linejoin:round;stroke-miterlimit:10;}
	.st71{fill:none;stroke:#DCF9E4;stroke-miterlimit:10;}
	.st72{fill:none;stroke:#DCF9E4;stroke-width:2;stroke-linecap:round;stroke-linejoin:round;stroke-miterlimit:10;}
	.st73{fill:#FFFFFF;stroke:#0DB14B;stroke-width:2.2844;stroke-linecap:round;stroke-linejoin:round;stroke-miterlimit:10;}
	.st74{fill:none;stroke:#0DB14B;stroke-width:2.8046;stroke-linecap:round;stroke-linejoin:round;stroke-miterlimit:10;}
	.st75{fill:#A7EABF;stroke:#0DB14B;stroke-width:3.0861;stroke-linecap:round;stroke-linejoin:round;stroke-miterlimit:10;}
	.st76{fill:#282828;}
	.st77{fill:none;stroke:#FFFFFF;stroke-width:1.1017;stroke-linecap:round;stroke-linejoin:round;stroke-miterlimit:10;}
	.st78{fill:#282828;stroke:#FFFFFF;stroke-width:0.7966;stroke-miterlimit:10;}
	.st79{fill:#282828;stroke:#FFFFFF;stroke-width:0.7966;stroke-linecap:round;stroke-linejoin:round;stroke-miterlimit:10;}
	.st80{fill:none;stroke:#FFFFFF;stroke-width:1.1399;stroke-linecap:round;stroke-linejoin:round;stroke-miterlimit:10;}
	.st81{fill:none;stroke:#FFFFFF;stroke-width:1.0951;stroke-linecap:round;stroke-linejoin:round;stroke-miterlimit:10;}
	.st82{fill:#282828;stroke:#FFFFFF;stroke-width:0.7918;stroke-miterlimit:10;}
	.st83{fill:#282828;stroke:#FFFFFF;stroke-width:0.7918;stroke-linecap:round;stroke-linejoin:round;stroke-miterlimit:10;}
</style>
<g>
	<path class="st76" d="M66.9,148.9c-1.9,0-3.8-0.5-5.4-1.4L6.9,115.9c-3.3-1.9-5.4-5.5-5.4-9.4v-63c0-3.9,2.1-7.4,5.4-9.4L61.5,2.6
		c1.6-0.9,3.5-1.4,5.4-1.4s3.8,0.5,5.4,1.4l54.6,31.5c3.3,1.9,5.4,5.5,5.4,9.4v63c0,3.9-2.1,7.4-5.4,9.4l-54.6,31.5
		C70.7,148.4,68.8,148.9,66.9,148.9z"/>
	<g>
		<defs>
			<path id="SVGID_00000016762690936734733860000011489104847479141265_" d="M66.9,148.9c-1.9,0-3.8-0.5-5.4-1.4L6.9,115.9
				c-3.3-1.9-5.4-5.5-5.4-9.4v-63c0-3.9,2.1-7.4,5.4-9.4L61.5,2.6c1.6-0.9,3.5-1.4,5.4-1.4s3.8,0.5,5.4,1.4l54.6,31.5
				c3.3,1.9,5.4,5.5,5.4,9.4v63c0,3.9-2.1,7.4-5.4,9.4l-54.6,31.5C70.7,148.4,68.8,148.9,66.9,148.9z"/>
		</defs>
		<clipPath id="SVGID_00000070092473573584364310000013482562623547430066_">
			<use xlink:href="#SVGID_00000016762690936734733860000011489104847479141265_"  style="overflow:visible;"/>
		</clipPath>
		<g style="clip-path:url(#SVGID_00000070092473573584364310000013482562623547430066_);">
			
				<image style="overflow:visible;" width="800" height="566" xlink:href="A55304CE.jpg"  transform="matrix(0.263 0 0 0.263 -3.4133 0.5403)">
			</image>
		</g>
	</g>
	<path class="st81" d="M5.4,68.4v-23c0-3.6,1.9-7,5.1-8.8L61.8,6.9c1.5-0.9,3.3-1.4,5.1-1.4S70.4,6,72,6.9l51.4,29.6
		c3.1,1.8,5.1,5.2,5.1,8.8v23"/>
	<path class="st81" d="M128.4,81.1v23.6c0,3.6-1.9,7-5.1,8.8L72,143.1c-1.5,0.9-3.3,1.4-5.1,1.4s-3.5-0.5-5.1-1.4l-51.4-29.6
		c-3.1-1.8-5.1-5.2-5.1-8.8V81.2"/>
	<g>
		<g>
			<path class="st25" d="M91.7,110.1h-1.7c-4,0-6.9-3.2-6.9-7.5V90.1c0-1.2,0.9-2.1,2.1-2.1s2.1,0.9,2.1,2.1v12.6
				c0,1.2,0.6,3.3,2.7,3.3h1.7c1.2,0,2.1,0.9,2.1,2.1C93.8,109.2,92.8,110.1,91.7,110.1z"/>
		</g>
		<g>
			<path class="st25" d="M91.7,98h-6.5C84,98,83,97,83,95.8s0.9-2.1,2.1-2.1h6.5c1.2,0,2.1,0.9,2.1,2.1S92.8,98,91.7,98z"/>
		</g>
		<g>
			<path class="st25" d="M47,110.1c-1.2,0-2.1-0.9-2.1-2.1v-7.6c0-1.4-1.1-2.4-2.4-2.4c-1.4,0-2.4,1.1-2.4,2.4
				c0,1.2-0.9,2.1-2.1,2.1c-1.2,0-2.1-0.9-2.1-2.1c0-3.7,3-6.7,6.7-6.7s6.7,3,6.7,6.7v7.6C49.1,109.2,48.2,110.1,47,110.1z"/>
		</g>
		<g>
			<path class="st25" d="M37.9,110.1c-1.2,0-2.1-0.9-2.1-2.1v-7.6c0-1.4-1.1-2.4-2.4-2.4c-1.4,0-2.4,1.1-2.4,2.4v7.6
				c0,1.2-0.9,2.1-2.1,2.1c-1.2,0-2.1-0.9-2.1-2.1v-7.6c0-3.7,3-6.7,6.7-6.7c3.7,0,6.7,3,6.7,6.7v7.6
				C40,109.2,39.1,110.1,37.9,110.1z"/>
		</g>
		<path class="st25" d="M106.6,102.9L106.6,102.9c-0.3-0.5-0.8-1-1.3-1.4c-0.5-0.3-1.1-0.6-1.7-0.9c-0.5-0.2-1.1-0.4-1.7-0.6
			c-0.5-0.1-0.9-0.3-1.3-0.4c-0.4-0.1-0.7-0.3-1-0.4c-0.2-0.1-0.4-0.3-0.5-0.4c-0.1-0.1-0.1-0.2-0.1-0.3v0c0-0.3,0.1-0.5,0.4-0.7
			c0.3-0.3,0.8-0.4,1.4-0.4c0.6,0,1.2,0.1,1.8,0.3c0.3,0.1,0.6,0.2,0.8,0.3l0,0c0.2,0.1,0.4,0.1,0.7,0.1c1,0,1.8-0.8,1.8-1.8
			c0-0.7-0.3-1.2-0.9-1.6c0,0,0,0,0,0c0,0,0,0,0,0c-0.1-0.1-0.2-0.1-0.3-0.1c-0.3-0.1-0.6-0.2-0.9-0.3c-1-0.3-2-0.5-2.9-0.5
			c-0.8,0-1.5,0.1-2.2,0.3c-0.7,0.2-1.3,0.5-1.8,1c-0.5,0.4-0.9,1-1.2,1.6c-0.3,0.6-0.4,1.3-0.4,2v0.1c0,0.8,0.2,1.5,0.6,2.1
			c0.3,0.5,0.8,1,1.4,1.4c0.5,0.3,1.1,0.6,1.7,0.8c0.6,0.2,1.1,0.4,1.7,0.5c0.4,0.1,0.9,0.3,1.3,0.4c0.4,0.1,0.7,0.3,1,0.4
			c0.2,0.1,0.4,0.3,0.5,0.4c0,0.1,0.1,0.2,0.1,0.3v0.1c0,0.4-0.1,0.7-0.4,0.9c-0.4,0.3-0.9,0.4-1.6,0.4c-0.7,0-1.5-0.1-2.2-0.4
			c-0.6-0.2-1.2-0.5-1.8-0.9l0,0c-0.3-0.2-0.6-0.2-0.9-0.2c-1,0-1.8,0.8-1.8,1.8c0,0.6,0.3,1.1,0.7,1.4v0c0,0,0.1,0,0.1,0.1
			c0.1,0,0.1,0.1,0.2,0.1c0.7,0.4,1.5,0.8,2.3,1.1c1.1,0.4,2.3,0.6,3.4,0.6c0.8,0,1.6-0.1,2.2-0.3c0.7-0.2,1.4-0.6,1.9-1
			c0.5-0.4,1-1,1.3-1.6c0.3-0.6,0.5-1.4,0.5-2.2V105C107.2,104.1,107,103.5,106.6,102.9z"/>
		<path class="st25" d="M65.3,99.3c-0.2-0.6-0.4-1.2-0.8-1.8c-0.3-0.5-0.7-1.1-1.2-1.5c-0.5-0.5-1-0.9-1.6-1.2
			c-0.6-0.3-1.2-0.6-1.8-0.8c-0.6-0.2-1.3-0.3-2-0.3c-0.8,0-1.5,0.1-2.2,0.3s-1.3,0.5-1.9,0.8c-0.6,0.4-1.1,0.8-1.6,1.3
			c-0.5,0.5-0.9,1.1-1.2,1.7s-0.6,1.3-0.8,1.9c-0.2,0.7-0.3,1.4-0.3,2.1c0,1.2,0.2,2.3,0.7,3.3c0.4,1,1.1,1.9,1.8,2.6
			c0.8,0.7,1.7,1.3,2.7,1.7c1,0.4,2.1,0.6,3.2,0.6c1,0,2-0.2,2.9-0.6c0.9-0.4,1.7-0.9,2.5-1.6c0.1-0.1,0.2-0.2,0.3-0.3c0,0,0,0,0,0
			c0.3-0.3,0.4-0.7,0.4-1.2c0-1.1-0.8-1.9-1.9-1.9c-0.5,0-0.9,0.2-1.3,0.5c0,0,0,0,0,0c-0.2,0.1-0.4,0.3-0.6,0.4
			c-0.2,0.1-0.5,0.3-0.8,0.4c-0.3,0.1-0.6,0.2-0.9,0.2c-0.3,0.1-0.6,0.1-0.9,0.1c-0.3,0-0.7,0-1.1-0.1c-0.4-0.1-0.7-0.2-1.1-0.5
			c-0.3-0.2-0.6-0.5-0.9-0.8s-0.4-0.8-0.5-1.3h9c0.5,0,0.9,0,1.2-0.1c0.3-0.1,0.5-0.2,0.6-0.3c0.1-0.2,0.2-0.4,0.2-0.7s0-0.6,0-1.1
			C65.6,100.5,65.5,99.9,65.3,99.3z M54.7,99.8c0.1-0.3,0.3-0.6,0.5-0.8c0.2-0.3,0.4-0.5,0.7-0.7c0.3-0.2,0.5-0.4,0.8-0.5
			c0.3-0.1,0.6-0.2,0.9-0.2c0.4,0,0.8,0.1,1.2,0.2c0.3,0.1,0.6,0.3,0.9,0.5c0.3,0.2,0.5,0.4,0.7,0.7c0.2,0.3,0.4,0.6,0.6,0.9
			L54.7,99.8z"/>
		<path class="st25" d="M81.7,99.3c-0.2-0.6-0.4-1.2-0.8-1.8c-0.3-0.5-0.7-1.1-1.2-1.5c-0.5-0.5-1-0.9-1.6-1.2
			c-0.6-0.3-1.2-0.6-1.8-0.8c-0.6-0.2-1.3-0.3-2-0.3c-0.8,0-1.5,0.1-2.2,0.3s-1.3,0.5-1.9,0.8c-0.6,0.4-1.1,0.8-1.6,1.3
			c-0.5,0.5-0.9,1.1-1.2,1.7c-0.3,0.6-0.6,1.3-0.8,1.9c-0.2,0.7-0.3,1.4-0.3,2.1c0,1.2,0.2,2.3,0.7,3.3c0.4,1,1.1,1.9,1.8,2.6
			c0.8,0.7,1.7,1.3,2.7,1.7c1,0.4,2.1,0.6,3.2,0.6c1,0,2-0.2,2.9-0.6c0.9-0.4,1.7-0.9,2.5-1.6c0.1-0.1,0.2-0.2,0.3-0.3c0,0,0,0,0,0
			c0.3-0.3,0.4-0.7,0.4-1.2c0-1.1-0.8-1.9-1.9-1.9c-0.5,0-0.9,0.2-1.3,0.5c0,0,0,0,0,0c-0.2,0.1-0.4,0.3-0.6,0.4
			c-0.2,0.1-0.5,0.3-0.8,0.4c-0.3,0.1-0.6,0.2-0.9,0.2c-0.3,0.1-0.6,0.1-0.9,0.1c-0.3,0-0.7,0-1.1-0.1c-0.4-0.1-0.7-0.2-1.1-0.5
			c-0.3-0.2-0.6-0.5-0.9-0.8c-0.3-0.3-0.4-0.8-0.5-1.3h9c0.5,0,0.9,0,1.2-0.1c0.3-0.1,0.5-0.2,0.6-0.3c0.1-0.2,0.2-0.4,0.2-0.7
			c0-0.3,0-0.6,0-1.1C82,100.5,81.9,99.9,81.7,99.3z M71.2,99.8c0.1-0.3,0.3-0.6,0.5-0.8c0.2-0.3,0.4-0.5,0.7-0.7
			c0.3-0.2,0.5-0.4,0.8-0.5c0.3-0.1,0.6-0.2,0.9-0.2c0.4,0,0.8,0.1,1.2,0.2c0.3,0.1,0.6,0.3,0.9,0.5c0.3,0.2,0.5,0.4,0.7,0.7
			c0.2,0.3,0.4,0.6,0.6,0.9L71.2,99.8z"/>
	</g>
	<g>
		<rect x="77.6" y="21.2" transform="matrix(0.7071 -0.7071 0.7071 0.7071 2.1301 67.621)" class="st82" width="10.3" height="20"/>
		<path class="st83" d="M80.7,45.1l-0.9-0.9l0.5-0.5L69.1,32.5l-3.3,2L59,27.7L47.6,39.2l17,17c0.1,0.2,0.2,0.4,0.4,0.6l2,2
			c0.7,0.7,1.9,0.7,2.6,0l0.8-0.8c0.7-0.7,0.7-1.9,0-2.6l-0.9-0.9l0,0l0.9,0.9c0.7,0.7,1.9,0.7,2.6,0l0.8-0.8c0.7-0.7,0.7-1.9,0-2.6
			L73,51l0,0l0.9,0.9c0.7,0.7,1.9,0.7,2.6,0l0.8-0.8c0.7-0.7,0.7-1.7,0.2-2.4c0,0-2-2-0.5-0.5c0,0,0.5,0.5,0.5,0.5
			c0.7,0.6,1.8,0.5,2.4-0.2l0.8-0.8C81.5,47,81.5,45.8,80.7,45.1z"/>
		<path class="st82" d="M60.1,49l-2,2c-0.7,0.7-1.9,0.7-2.6,0l-0.8-0.8c-0.7-0.7-0.7-1.9,0-2.6l2-2c0.7-0.7,1.9-0.7,2.6,0l0.8,0.8
			C60.8,47.2,60.8,48.3,60.1,49z"/>
		<path class="st82" d="M63.4,52.3l-2,2c-0.7,0.7-1.9,0.7-2.6,0l-0.8-0.8c-0.7-0.7-0.7-1.9,0-2.6l2-2c0.7-0.7,1.9-0.7,2.6,0l0.8,0.8
			C64.1,50.5,64.1,51.6,63.4,52.3z"/>
		<path class="st82" d="M66.8,55.7l-2,2c-0.7,0.7-1.9,0.7-2.6,0l-0.8-0.8c-0.7-0.7-0.7-1.9,0-2.6l2-2c0.7-0.7,1.9-0.7,2.6,0l0.8,0.8
			C67.5,53.8,67.5,55,66.8,55.7z"/>
		<path class="st82" d="M84.3,40.1l-4.3,4.3l-7.3-7.3c0,0-2.9-2.4-5.3,0c-2.4,2.4-4.1,4.1-4.1,4.1s-1.7,1.3-3,0
			c-1.3-1.3,0-2.9,0-2.9l5.4-5.4c0,0,2.7-2.1,7.3,0c1.2-1.2,2.1-2.1,2.1-2.1L84.3,40.1z"/>
		
			<rect x="46" y="21.2" transform="matrix(-0.7071 -0.7071 0.7071 -0.7071 65.1756 89.475)" class="st82" width="10.3" height="20"/>
		<circle class="st82" cx="87" cy="35.5" r="1.7"/>
		<circle class="st82" cx="47.1" cy="35.5" r="1.7"/>
	</g>
	<g>
		<path class="st25" d="M30.5,69.5h2.6c1.1,0,1.7,0.6,1.7,1.8v3.1c0,1.2-0.6,1.8-1.7,1.8h-1.2v3.8h-1.4V69.5z M31.9,74.9h0.9
			c0.4,0,0.6-0.2,0.6-0.6v-3c0-0.4-0.2-0.6-0.6-0.6h-0.8V74.9z"/>
		<path class="st25" d="M37.2,80.1h-1.4v-8.8c0-1.2,0.6-1.8,1.7-1.8h1.1c1.1,0,1.7,0.6,1.7,1.8v8.8h-1.4v-3.9h-1.6V80.1z M38.9,74.9
			v-3.5c0-0.4-0.2-0.6-0.6-0.6h-0.4c-0.4,0-0.6,0.2-0.6,0.6v3.5H38.9z"/>
		<path class="st25" d="M41.5,69.5h2.8c1.1,0,1.6,0.6,1.6,1.8v2.6c0,0.9-0.3,1.5-0.8,1.8l1,4.4h-1.3l-0.9-4.3h-0.9v4.3h-1.4V69.5z
			 M42.9,74.6h0.9c0.4,0,0.6-0.3,0.6-0.8v-2.3c0-0.5-0.2-0.8-0.6-0.8h-0.9V74.6z"/>
		<path class="st25" d="M51.3,77.6v0.7c0,1.2-0.6,1.8-1.7,1.8h-0.9c-1.1,0-1.7-0.6-1.7-1.8v-7c0-1.2,0.6-1.8,1.7-1.8h0.9
			c1.1,0,1.7,0.6,1.7,1.8v1.2h-1.4v-1.1c0-0.4-0.2-0.6-0.6-0.6H49c-0.4,0-0.6,0.2-0.6,0.6v6.8c0,0.4,0.2,0.6,0.6,0.6h0.4
			c0.4,0,0.6-0.2,0.6-0.6v-0.6H51.3z"/>
		<path class="st25" d="M52.5,80.1V69.5H56v1.3h-2.1V74h1.9v1.3h-1.9v3.5H56v1.3H52.5z"/>
		<path class="st25" d="M57,80.1V69.5h1.4v10.6H57z"/>
		<path class="st25" d="M59.7,69.5h2.8c1.1,0,1.6,0.6,1.6,1.8v2.6c0,0.9-0.3,1.5-0.8,1.8l1,4.4h-1.3L62,75.8h-0.9v4.3h-1.4V69.5z
			 M61.1,74.6h0.9c0.4,0,0.6-0.3,0.6-0.8v-2.3c0-0.5-0.2-0.8-0.6-0.8h-0.9V74.6z"/>
		<path class="st25" d="M66.9,80.1c-1.1,0-1.7-0.6-1.7-1.8v-7c0-1.2,0.6-1.8,1.7-1.8h1.4c1.1,0,1.7,0.6,1.7,1.8v7
			c0,1.2-0.6,1.8-1.7,1.8H66.9z M67.3,78.8H68c0.4,0,0.6-0.2,0.6-0.6v-6.8c0-0.4-0.2-0.6-0.6-0.6h-0.7c-0.4,0-0.6,0.2-0.6,0.6v6.8
			C66.7,78.6,66.9,78.8,67.3,78.8z"/>
		<path class="st25" d="M75.2,80.1c-1.1,0-1.7-0.6-1.7-1.8v-7c0-1.2,0.6-1.8,1.7-1.8h1.4c1.1,0,1.7,0.6,1.7,1.8v7
			c0,1.2-0.6,1.8-1.7,1.8H75.2z M75.6,78.8h0.7c0.4,0,0.6-0.2,0.6-0.6v-6.8c0-0.4-0.2-0.6-0.6-0.6h-0.7c-0.4,0-0.6,0.2-0.6,0.6v6.8
			C74.9,78.6,75.2,78.8,75.6,78.8z"/>
		<path class="st25" d="M82.8,74v1.3H81v4.8h-1.4V69.5h3.5v1.3H81V74H82.8z"/>
		<path class="st25" d="M84,80.1V69.5h1.4v10.6H84z"/>
		<path class="st25" d="M91,77.6v0.7c0,1.2-0.6,1.8-1.7,1.8h-0.9c-1.1,0-1.7-0.6-1.7-1.8v-7c0-1.2,0.6-1.8,1.7-1.8h0.9
			c1.1,0,1.7,0.6,1.7,1.8v1.2h-1.4v-1.1c0-0.4-0.2-0.6-0.6-0.6h-0.3c-0.4,0-0.6,0.2-0.6,0.6v6.8c0,0.4,0.2,0.6,0.6,0.6H89
			c0.4,0,0.6-0.2,0.6-0.6v-0.6H91z"/>
		<path class="st25" d="M92.1,80.1V69.5h1.4v10.6H92.1z"/>
		<path class="st25" d="M96.2,80.1h-1.4v-8.8c0-1.2,0.6-1.8,1.7-1.8h1.1c1.1,0,1.7,0.6,1.7,1.8v8.8h-1.4v-3.9h-1.6V80.1z M97.8,74.9
			v-3.5c0-0.4-0.2-0.6-0.6-0.6h-0.4c-0.4,0-0.6,0.2-0.6,0.6v3.5H97.8z"/>
		<path class="st25" d="M103.9,80.1h-3.4V69.5h1.4v9.3h1.9V80.1z"/>
	</g>
	<g>
		<g>
			<g>
				<path class="st25" d="M118.5,75.6h-8c-0.3,0-0.6-0.3-0.6-0.6c0-0.3,0.3-0.6,0.6-0.6h8c0.3,0,0.6,0.3,0.6,0.6
					C119.1,75.3,118.8,75.6,118.5,75.6z"/>
			</g>
			<g>
				<path class="st25" d="M108.2,75.6L108.2,75.6c-0.4,0-0.6-0.3-0.6-0.6c0-0.3,0.3-0.6,0.6-0.6h0.1c0.3,0,0.6,0.3,0.6,0.6
					C108.8,75.3,108.6,75.6,108.2,75.6z"/>
			</g>
		</g>
		<g>
			<g>
				<path class="st25" d="M23.3,75.6h-8c-0.3,0-0.6-0.3-0.6-0.6c0-0.3,0.3-0.6,0.6-0.6h8c0.3,0,0.6,0.3,0.6,0.6
					C23.9,75.3,23.6,75.6,23.3,75.6z"/>
			</g>
			<g>
				<path class="st25" d="M25.6,75.6L25.6,75.6c-0.4,0-0.6-0.3-0.6-0.6c0-0.3,0.3-0.6,0.6-0.6h0.1c0.3,0,0.6,0.3,0.6,0.6
					C26.2,75.3,26,75.6,25.6,75.6z"/>
			</g>
		</g>
	</g>
</g>
</svg>
