<?xml version="1.0" encoding="utf-8"?>
<!-- Generator: Adobe Illustrator 16.0.0, SVG Export Plug-In . SVG Version: 6.00 Build 0)  -->
<!DOCTYPE svg PUBLIC "-//W3C//DTD SVG 1.1//EN" "http://www.w3.org/Graphics/SVG/1.1/DTD/svg11.dtd">
<svg version="1.1" id="Layer_1" xmlns="http://www.w3.org/2000/svg" xmlns:xlink="http://www.w3.org/1999/xlink" x="0px" y="0px"
	 width="80.825px" height="80.826px" viewBox="0 0 80.825 80.826" enable-background="new 0 0 80.825 80.826" xml:space="preserve">
<g>
	<path fill="none" stroke="#39B54A" stroke-width="2.5918" stroke-miterlimit="10" d="M74.035,43.056
		c0-0.021,0.003-0.036,0.003-0.055c0-8.571-6.948-15.521-15.52-15.521c-0.252,0-0.5,0.025-0.75,0.037
		c-2.215-7.494-9.142-12.971-17.357-12.971c-10,0-18.105,8.105-18.105,18.106c-4.901,0-8.983,3.415-10.052,7.992
		c-6.045,1.083-10.641,6.342-10.641,12.7c0,7.144,5.79,12.934,12.932,12.934s46.2,0,51.733,0c7.142,0,12.932-5.79,12.932-12.934
		C79.211,49.128,77.162,45.417,74.035,43.056z"/>
	
		<line fill="none" stroke="#39B54A" stroke-width="2.5918" stroke-miterlimit="10" x1="40.412" y1="52.234" x2="40.412" y2="30.066"/>
	<polyline fill="none" stroke="#39B54A" stroke-width="2.5918" stroke-miterlimit="10" points="30.065,43.001 40.412,53.346 
		50.759,43.001 	"/>
</g>
</svg>
